  0
SECTION
  2
HEADER
  9
$ACADVER
  1
AC1014
  9
$HANDSEED
  5
FFFF
  9
$INSUNITS
 70
     1
  9
$MEASUREMENT
 70
     1
  0
ENDSEC
  0
SECTION
  2
TABLES
  0
TABLE
  2
VPORT
  5
8
330
0
100
AcDbSymbolTable
 70
     4
  0
VPORT
  5
2E
330
8
100
AcDbSymbolTableRecord
100
AcDbViewportTableRecord
  2
*ACTIVE
 70
     0
 10
0.0
 20
0.0
 11
1.0
 21
1.0
 12
210.0
 22
148.5
 13
0.0
 23
0.0
 14
10.0
 24
10.0
 15
10.0
 25
10.0
 16
0.0
 26
0.0
 36
1.0
 17
0.0
 27
0.0
 37
0.0
 40
341.0
 41
1.24
 42
50.0
 43
0.0
 44
0.0
 50
0.0
 51
0.0
 71
     0
 72
   100
 73
     1
 74
     3
 75
     0
 76
     0
 77
     0
 78
     0
  0
ENDTAB
  0
TABLE
  2
LTYPE
  5
5
330
0
100
AcDbSymbolTable
 70
     1
  0
LTYPE
  5
14
330
5
100
AcDbSymbolTableRecord
100
AcDbLinetypeTableRecord
  2
BYBLOCK
 70
     0
  3

 72
    65
 73
     0
 40
0.0
  0
LTYPE
  5
15
330
5
100
AcDbSymbolTableRecord
100
AcDbLinetypeTableRecord
  2
BYLAYER
 70
     0
  3

 72
    65
 73
     0
 40
0.0
  0
LTYPE
  5
16
330
5
100
AcDbSymbolTableRecord
100
AcDbLinetypeTableRecord
  2
CONTINUOUS
 70
     0
  3
Solid line
 72
    65
 73
     0
 40
0.0
  0
ENDTAB
  0
TABLE
  2
LAYER
  5
2
100
AcDbSymbolTable
 70
2
  0
LAYER
  5
50
100
AcDbSymbolTableRecord
100
AcDbLayerTableRecord
  2
0
 70
0
  6
CONTINUOUS
  0
LAYER
  5
51
100
AcDbSymbolTableRecord
100
AcDbLayerTableRecord
  2
Page_1
 70
0
  6
CONTINUOUS
  0
ENDTAB
  0
TABLE
  2
STYLE
  5
3
330
0
100
AcDbSymbolTable
 70
     1
  0
STYLE
  5
11
330
3
100
AcDbSymbolTableRecord
100
AcDbTextStyleTableRecord
  2
STANDARD
 70
     0
 40
0.0
 41
1.0
 50
0.0
 71
     0
 42
2.5
  3
txt
  4

  0
ENDTAB
  0
TABLE
  2
VIEW
  5
6
330
0
100
AcDbSymbolTable
 70
     0
  0
ENDTAB
  0
TABLE
  2
UCS
  5
7
330
0
100
AcDbSymbolTable
 70
     0
  0
ENDTAB
  0
TABLE
  2
APPID
  5
9
330
0
100
AcDbSymbolTable
 70
     2
  0
APPID
  5
12
330
9
100
AcDbSymbolTableRecord
100
AcDbRegAppTableRecord
  2
ACAD
 70
     0
  0
ENDTAB
  0
TABLE
  2
DIMSTYLE
  5
A
330
0
100
AcDbSymbolTable
 70
     1
  0
DIMSTYLE
105
27
330
A
100
AcDbSymbolTableRecord
100
AcDbDimStyleTableRecord
  2
ISO-25
 70
     0
  3

  4

  5

  6

  7

 40
1.0
 41
2.5
 42
0.625
 43
3.75
 44
1.25
 45
0.0
 46
0.0
 47
0.0
 48
0.0
140
2.5
141
2.5
142
0.0
143
0.03937007874016
144
1.0
145
0.0
146
1.0
147
0.625
 71
     0
 72
     0
 73
     0
 74
     0
 75
     0
 76
     0
 77
     1
 78
     8
170
     0
171
     3
172
     1
173
     0
174
     0
175
     0
176
     0
177
     0
178
     0
270
     2
271
     2
272
     2
273
     2
274
     3
340
11
275
     0
280
     0
281
     0
282
     0
283
     0
284
     8
285
     0
286
     0
287
     3
288
     0
  0
ENDTAB
  0
TABLE
  2
BLOCK_RECORD
  5
1
330
0
100
AcDbSymbolTable
 70
     1
  0
BLOCK_RECORD
  5
1F
330
1
100
AcDbSymbolTableRecord
100
AcDbBlockTableRecord
  2
*MODEL_SPACE
  0
BLOCK_RECORD
  5
1B
330
1
100
AcDbSymbolTableRecord
100
AcDbBlockTableRecord
  2
*PAPER_SPACE
  0
ENDTAB
  0
ENDSEC
  0
SECTION
  2
BLOCKS
  0
BLOCK
  5
20
330
1F
100
AcDbEntity
  8
0
100
AcDbBlockBegin
  2
*MODEL_SPACE
 70
     0
 10
0.0
 20
0.0
 30
0.0
  3
*MODEL_SPACE
  1

  0
ENDBLK
  5
21
330
1F
100
AcDbEntity
  8
0
100
AcDbBlockEnd
  0
BLOCK
  5
1C
330
1B
100
AcDbEntity
 67
     1
  8
0
100
AcDbBlockBegin
  2
*PAPER_SPACE
  1

  0
ENDBLK
  5
1D
330
1B
100
AcDbEntity
 67
     1
  8
0
100
AcDbBlockEnd
  0
ENDSEC
  0
SECTION
  2
ENTITIES
  0
SPLINE
  5
100
100
AcDbEntity
  8
Page_1
 62
7
100
AcDbSpline
 70
8
 71
3
 72
8
 73
4
 74
0
 40
0
 40
0
 40
0
 40
0
 40
1
 40
1
 40
1
 40
1
 10
9.917559
 20
3.275617
 30
0.0
 10
9.917559
 20
3.413686
 30
0.0
 10
9.805628
 20
3.525616
 30
0.0
 10
9.667559
 20
3.525616
 30
0.0
  0
SPLINE
  5
101
100
AcDbEntity
  8
Page_1
 62
7
100
AcDbSpline
 70
8
 71
3
 72
8
 73
4
 74
0
 40
0
 40
0
 40
0
 40
0
 40
1
 40
1
 40
1
 40
1
 10
11.167555
 20
3.525616
 30
0.0
 10
11.029486
 20
3.525616
 30
0.0
 10
10.917556
 20
3.413686
 30
0.0
 10
10.917556
 20
3.275617
 30
0.0
  0
SPLINE
  5
102
100
AcDbEntity
  8
Page_1
 62
7
100
AcDbSpline
 70
8
 71
3
 72
8
 73
4
 74
0
 40
0
 40
0
 40
0
 40
0
 40
1
 40
1
 40
1
 40
1
 10
10.550557
 20
3.400616
 30
0.0
 10
10.550557
 20
3.474075
 30
0.0
 10
10.491015
 20
3.533616
 30
0.0
 10
10.417557
 20
3.533616
 30
0.0
  0
SPLINE
  5
103
100
AcDbEntity
  8
Page_1
 62
7
100
AcDbSpline
 70
8
 71
3
 72
8
 73
4
 74
0
 40
0
 40
0
 40
0
 40
0
 40
1
 40
1
 40
1
 40
1
 10
10.417557
 20
3.533616
 30
0.0
 10
10.344099
 20
3.533616
 30
0.0
 10
10.284558
 20
3.474075
 30
0.0
 10
10.284558
 20
3.400616
 30
0.0
  0
SPLINE
  5
104
100
AcDbEntity
  8
Page_1
 62
7
100
AcDbSpline
 70
8
 71
3
 72
8
 73
4
 74
0
 40
0
 40
0
 40
0
 40
0
 40
1
 40
1
 40
1
 40
1
 10
10.284558
 20
3.400616
 30
0.0
 10
10.284558
 20
3.327158
 30
0.0
 10
10.344099
 20
3.267617
 30
0.0
 10
10.417557
 20
3.267617
 30
0.0
  0
SPLINE
  5
105
100
AcDbEntity
  8
Page_1
 62
7
100
AcDbSpline
 70
8
 71
3
 72
8
 73
4
 74
0
 40
0
 40
0
 40
0
 40
0
 40
1
 40
1
 40
1
 40
1
 10
10.417557
 20
3.267617
 30
0.0
 10
10.491015
 20
3.267617
 30
0.0
 10
10.550557
 20
3.327158
 30
0.0
 10
10.550557
 20
3.400616
 30
0.0
  0
SPLINE
  5
106
100
AcDbEntity
  8
Page_1
 62
7
100
AcDbSpline
 70
8
 71
3
 72
8
 73
4
 74
0
 40
0
 40
0
 40
0
 40
0
 40
1
 40
1
 40
1
 40
1
 10
10.550557
 20
2.650618
 30
0.0
 10
10.550557
 20
2.724077
 30
0.0
 10
10.491015
 20
2.783618
 30
0.0
 10
10.417557
 20
2.783618
 30
0.0
  0
SPLINE
  5
107
100
AcDbEntity
  8
Page_1
 62
7
100
AcDbSpline
 70
8
 71
3
 72
8
 73
4
 74
0
 40
0
 40
0
 40
0
 40
0
 40
1
 40
1
 40
1
 40
1
 10
10.417557
 20
2.783618
 30
0.0
 10
10.344099
 20
2.783618
 30
0.0
 10
10.284558
 20
2.724077
 30
0.0
 10
10.284558
 20
2.650618
 30
0.0
  0
SPLINE
  5
108
100
AcDbEntity
  8
Page_1
 62
7
100
AcDbSpline
 70
8
 71
3
 72
8
 73
4
 74
0
 40
0
 40
0
 40
0
 40
0
 40
1
 40
1
 40
1
 40
1
 10
10.284558
 20
2.650618
 30
0.0
 10
10.284558
 20
2.577160
 30
0.0
 10
10.344099
 20
2.517619
 30
0.0
 10
10.417557
 20
2.517619
 30
0.0
  0
SPLINE
  5
109
100
AcDbEntity
  8
Page_1
 62
7
100
AcDbSpline
 70
8
 71
3
 72
8
 73
4
 74
0
 40
0
 40
0
 40
0
 40
0
 40
1
 40
1
 40
1
 40
1
 10
10.417557
 20
2.517619
 30
0.0
 10
10.491015
 20
2.517619
 30
0.0
 10
10.550557
 20
2.577160
 30
0.0
 10
10.550557
 20
2.650618
 30
0.0
  0
LWPOLYLINE
  5
10a
100
AcDbEntity
  8
Page_1
 62
7
100
AcDbPolyline
 90
1
 70
1
 10
10.550557
 20
3.400616
 30
0.0
  0
LWPOLYLINE
  5
10b
100
AcDbEntity
  8
Page_1
 62
7
100
AcDbPolyline
 90
1
 70
1
 10
10.550557
 20
2.650618
 30
0.0
  0
LWPOLYLINE
  5
10c
100
AcDbEntity
  8
Page_1
 62
7
100
AcDbPolyline
 90
2
 70
0
 10
9.917559
 20
2.275619
 30
0.0
 10
10.917556
 20
2.275619
 30
0.0
  0
LWPOLYLINE
  5
10d
100
AcDbEntity
  8
Page_1
 62
7
100
AcDbPolyline
 90
2
 70
0
 10
9.917559
 20
3.275617
 30
0.0
 10
9.917559
 20
2.275619
 30
0.0
  0
LWPOLYLINE
  5
10e
100
AcDbEntity
  8
Page_1
 62
7
100
AcDbPolyline
 90
2
 70
0
 10
9.167560
 20
3.525616
 30
0.0
 10
9.667559
 20
3.525616
 30
0.0
  0
LWPOLYLINE
  5
10f
100
AcDbEntity
  8
Page_1
 62
7
100
AcDbPolyline
 90
2
 70
0
 10
9.167560
 20
4.025615
 30
0.0
 10
9.167560
 20
3.525616
 30
0.0
  0
LWPOLYLINE
  5
110
100
AcDbEntity
  8
Page_1
 62
7
100
AcDbPolyline
 90
2
 70
0
 10
11.667554
 20
4.025615
 30
0.0
 10
9.167560
 20
4.025615
 30
0.0
  0
LWPOLYLINE
  5
111
100
AcDbEntity
  8
Page_1
 62
7
100
AcDbPolyline
 90
2
 70
0
 10
11.667554
 20
3.525616
 30
0.0
 10
11.667554
 20
4.025615
 30
0.0
  0
LWPOLYLINE
  5
112
100
AcDbEntity
  8
Page_1
 62
7
100
AcDbPolyline
 90
2
 70
0
 10
11.167555
 20
3.525616
 30
0.0
 10
11.667554
 20
3.525616
 30
0.0
  0
SPLINE
  5
113
100
AcDbEntity
  8
Page_1
 62
7
100
AcDbSpline
 70
8
 71
3
 72
8
 73
4
 74
0
 40
0
 40
0
 40
0
 40
0
 40
1
 40
1
 40
1
 40
1
 10
9.266782
 20
5.466847
 30
0.0
 10
9.333088
 20
5.466847
 30
0.0
 10
9.396671
 20
5.493181
 30
0.0
 10
9.443560
 20
5.540069
 30
0.0
  0
SPLINE
  5
114
100
AcDbEntity
  8
Page_1
 62
7
100
AcDbSpline
 70
8
 71
3
 72
8
 73
4
 74
0
 40
0
 40
0
 40
0
 40
0
 40
1
 40
1
 40
1
 40
1
 10
10.487335
 20
6.583831
 30
0.0
 10
10.534224
 20
6.630720
 30
0.0
 10
10.560557
 20
6.694303
 30
0.0
 10
10.560557
 20
6.760608
 30
0.0
  0
SPLINE
  5
115
100
AcDbEntity
  8
Page_1
 62
7
100
AcDbSpline
 70
8
 71
3
 72
8
 73
4
 74
0
 40
0
 40
0
 40
0
 40
0
 40
1
 40
1
 40
1
 40
1
 10
11.487332
 20
6.169623
 30
0.0
 10
11.534221
 20
6.216512
 30
0.0
 10
11.560554
 20
6.280095
 30
0.0
 10
11.560554
 20
6.346401
 30
0.0
  0
SPLINE
  5
116
100
AcDbEntity
  8
Page_1
 62
7
100
AcDbSpline
 70
8
 71
3
 72
8
 73
4
 74
0
 40
0
 40
0
 40
0
 40
0
 40
1
 40
1
 40
1
 40
1
 10
9.681004
 20
4.466850
 30
0.0
 10
9.747309
 20
4.466850
 30
0.0
 10
9.810892
 20
4.493183
 30
0.0
 10
9.857781
 20
4.540072
 30
0.0
  0
LWPOLYLINE
  5
117
100
AcDbEntity
  8
Page_1
 62
7
100
AcDbPolyline
 90
2
 70
0
 10
10.917556
 20
2.275619
 30
0.0
 10
10.917556
 20
3.275617
 30
0.0
  0
LWPOLYLINE
  5
118
100
AcDbEntity
  8
Page_1
 62
7
100
AcDbPolyline
 90
2
 70
0
 10
8.284563
 20
5.466847
 30
0.0
 10
8.284563
 20
4.466850
 30
0.0
  0
LWPOLYLINE
  5
119
100
AcDbEntity
  8
Page_1
 62
7
100
AcDbPolyline
 90
2
 70
0
 10
9.266782
 20
5.466847
 30
0.0
 10
8.284549
 20
5.466847
 30
0.0
  0
LWPOLYLINE
  5
11a
100
AcDbEntity
  8
Page_1
 62
7
100
AcDbPolyline
 90
2
 70
0
 10
10.487335
 20
6.583831
 30
0.0
 10
9.443574
 20
5.540069
 30
0.0
  0
LWPOLYLINE
  5
11b
100
AcDbEntity
  8
Page_1
 62
7
100
AcDbPolyline
 90
2
 70
0
 10
10.560557
 20
11.766832
 30
0.0
 10
10.560557
 20
6.760608
 30
0.0
  0
LWPOLYLINE
  5
11c
100
AcDbEntity
  8
Page_1
 62
7
100
AcDbPolyline
 90
2
 70
0
 10
11.560554
 20
11.766832
 30
0.0
 10
10.560557
 20
11.766832
 30
0.0
  0
LWPOLYLINE
  5
11d
100
AcDbEntity
  8
Page_1
 62
7
100
AcDbPolyline
 90
2
 70
0
 10
11.560554
 20
6.346401
 30
0.0
 10
11.560554
 20
11.766832
 30
0.0
  0
LWPOLYLINE
  5
11e
100
AcDbEntity
  8
Page_1
 62
7
100
AcDbPolyline
 90
2
 70
0
 10
9.857781
 20
4.540072
 30
0.0
 10
11.487332
 20
6.169623
 30
0.0
  0
SPLINE
  5
11f
100
AcDbEntity
  8
Page_1
 62
7
100
AcDbSpline
 70
8
 71
3
 72
8
 73
4
 74
0
 40
0
 40
0
 40
0
 40
0
 40
1
 40
1
 40
1
 40
1
 10
4.284573
 20
5.931805
 30
0.0
 10
4.397795
 20
6.026804
 30
0.0
 10
4.463183
 20
6.167026
 30
0.0
 10
4.463183
 20
6.314831
 30
0.0
  0
LWPOLYLINE
  5
120
100
AcDbEntity
  8
Page_1
 62
7
100
AcDbPolyline
 90
2
 70
0
 10
8.284563
 20
4.466850
 30
0.0
 10
9.681004
 20
4.466850
 30
0.0
  0
LWPOLYLINE
  5
121
100
AcDbEntity
  8
Page_1
 62
7
100
AcDbPolyline
 90
2
 70
0
 10
4.463169
 20
11.258944
 30
0.0
 10
4.463169
 20
6.314818
 30
0.0
  0
LWPOLYLINE
  5
122
100
AcDbEntity
  8
Page_1
 62
7
100
AcDbPolyline
 90
2
 70
0
 10
5.463167
 20
11.258944
 30
0.0
 10
4.463169
 20
11.258944
 30
0.0
  0
SPLINE
  5
123
100
AcDbEntity
  8
Page_1
 62
7
100
AcDbSpline
 70
8
 71
3
 72
8
 73
4
 74
0
 40
0
 40
0
 40
0
 40
0
 40
1
 40
1
 40
1
 40
1
 10
5.463167
 20
6.314818
 30
0.0
 10
5.463167
 20
6.167026
 30
0.0
 10
5.528556
 20
6.026804
 30
0.0
 10
5.641778
 20
5.931791
 30
0.0
  0
SPLINE
  5
124
100
AcDbEntity
  8
Page_1
 62
7
100
AcDbSpline
 70
8
 71
3
 72
8
 73
4
 74
0
 40
0
 40
0
 40
0
 40
0
 40
1
 40
1
 40
1
 40
1
 10
9.463157
 20
2.492119
 30
0.0
 10
9.463157
 20
2.639910
 30
0.0
 10
9.397768
 20
2.780132
 30
0.0
 10
9.284546
 20
2.875146
 30
0.0
  0
LWPOLYLINE
  5
125
100
AcDbEntity
  8
Page_1
 62
7
100
AcDbPolyline
 90
2
 70
0
 10
5.463167
 20
6.314818
 30
0.0
 10
5.463167
 20
11.258944
 30
0.0
  0
LWPOLYLINE
  5
126
100
AcDbEntity
  8
Page_1
 62
7
100
AcDbPolyline
 90
2
 70
0
 10
9.463157
 20
0.258974
 30
0.0
 10
9.463157
 20
2.492122
 30
0.0
  0
LWPOLYLINE
  5
127
100
AcDbEntity
  8
Page_1
 62
7
100
AcDbPolyline
 90
2
 70
0
 10
8.463159
 20
0.258974
 30
0.0
 10
9.463157
 20
0.258974
 30
0.0
  0
SPLINE
  5
128
100
AcDbEntity
  8
Page_1
 62
7
100
AcDbSpline
 70
8
 71
3
 72
8
 73
4
 74
0
 40
0
 40
0
 40
0
 40
0
 40
1
 40
1
 40
1
 40
1
 10
8.463159
 20
2.025814
 30
0.0
 10
8.463159
 20
2.173606
 30
0.0
 10
8.397771
 20
2.313828
 30
0.0
 10
8.284549
 20
2.408841
 30
0.0
  0
LWPOLYLINE
  5
129
100
AcDbEntity
  8
Page_1
 62
7
100
AcDbPolyline
 90
2
 70
0
 10
8.463159
 20
2.025814
 30
0.0
 10
8.463159
 20
0.258972
 30
0.0
  0
SPLINE
  5
12a
100
AcDbEntity
  8
Page_1
 62
7
100
AcDbSpline
 70
8
 71
3
 72
8
 73
4
 74
0
 40
0
 40
0
 40
0
 40
0
 40
1
 40
1
 40
1
 40
1
 10
5.284570
 20
4.926127
 30
0.0
 10
5.098696
 20
5.082098
 30
0.0
 10
4.827668
 20
5.082098
 30
0.0
 10
4.641780
 20
4.926127
 30
0.0
  0
LWPOLYLINE
  5
12b
100
AcDbEntity
  8
Page_1
 62
7
100
AcDbPolyline
 90
2
 70
0
 10
5.284570
 20
4.926127
 30
0.0
 10
8.284563
 20
2.408827
 30
0.0
  0
SPLINE
  5
12c
100
AcDbEntity
  8
Page_1
 62
7
100
AcDbSpline
 70
8
 71
3
 72
8
 73
4
 74
0
 40
0
 40
0
 40
0
 40
0
 40
1
 40
1
 40
1
 40
1
 10
1.641788
 20
2.408841
 30
0.0
 10
1.528566
 20
2.313841
 30
0.0
 10
1.463177
 20
2.173620
 30
0.0
 10
1.463177
 20
2.025814
 30
0.0
  0
LWPOLYLINE
  5
12d
100
AcDbEntity
  8
Page_1
 62
7
100
AcDbPolyline
 90
2
 70
0
 10
1.641788
 20
2.408841
 30
0.0
 10
4.641780
 20
4.926140
 30
0.0
  0
LWPOLYLINE
  5
12e
100
AcDbEntity
  8
Page_1
 62
7
100
AcDbPolyline
 90
2
 70
0
 10
1.463177
 20
0.258974
 30
0.0
 10
1.463177
 20
2.025817
 30
0.0
  0
LWPOLYLINE
  5
12f
100
AcDbEntity
  8
Page_1
 62
7
100
AcDbPolyline
 90
2
 70
0
 10
0.463182
 20
0.258974
 30
0.0
 10
1.463180
 20
0.258974
 30
0.0
  0
SPLINE
  5
130
100
AcDbEntity
  8
Page_1
 62
7
100
AcDbSpline
 70
8
 71
3
 72
8
 73
4
 74
0
 40
0
 40
0
 40
0
 40
0
 40
1
 40
1
 40
1
 40
1
 10
0.641789
 20
2.875146
 30
0.0
 10
0.528567
 20
2.780146
 30
0.0
 10
0.463178
 20
2.639924
 30
0.0
 10
0.463178
 20
2.492119
 30
0.0
  0
LWPOLYLINE
  5
131
100
AcDbEntity
  8
Page_1
 62
7
100
AcDbPolyline
 90
2
 70
0
 10
0.463182
 20
2.492119
 30
0.0
 10
0.463182
 20
0.258972
 30
0.0
  0
SPLINE
  5
132
100
AcDbEntity
  8
Page_1
 62
7
100
AcDbSpline
 70
8
 71
3
 72
8
 73
4
 74
0
 40
0
 40
0
 40
0
 40
0
 40
1
 40
1
 40
1
 40
1
 10
9.096158
 20
1.633968
 30
0.0
 10
9.096158
 20
1.707426
 30
0.0
 10
9.036616
 20
1.766968
 30
0.0
 10
8.963158
 20
1.766968
 30
0.0
  0
SPLINE
  5
133
100
AcDbEntity
  8
Page_1
 62
7
100
AcDbSpline
 70
8
 71
3
 72
8
 73
4
 74
0
 40
0
 40
0
 40
0
 40
0
 40
1
 40
1
 40
1
 40
1
 10
8.963158
 20
1.766968
 30
0.0
 10
8.889700
 20
1.766968
 30
0.0
 10
8.830158
 20
1.707426
 30
0.0
 10
8.830158
 20
1.633968
 30
0.0
  0
SPLINE
  5
134
100
AcDbEntity
  8
Page_1
 62
7
100
AcDbSpline
 70
8
 71
3
 72
8
 73
4
 74
0
 40
0
 40
0
 40
0
 40
0
 40
1
 40
1
 40
1
 40
1
 10
8.830158
 20
1.633968
 30
0.0
 10
8.830158
 20
1.560510
 30
0.0
 10
8.889700
 20
1.500968
 30
0.0
 10
8.963158
 20
1.500968
 30
0.0
  0
SPLINE
  5
135
100
AcDbEntity
  8
Page_1
 62
7
100
AcDbSpline
 70
8
 71
3
 72
8
 73
4
 74
0
 40
0
 40
0
 40
0
 40
0
 40
1
 40
1
 40
1
 40
1
 10
8.963158
 20
1.500968
 30
0.0
 10
9.036616
 20
1.500968
 30
0.0
 10
9.096158
 20
1.560510
 30
0.0
 10
9.096158
 20
1.633968
 30
0.0
  0
LWPOLYLINE
  5
136
100
AcDbEntity
  8
Page_1
 62
7
100
AcDbPolyline
 90
2
 70
0
 10
4.284573
 20
5.931805
 30
0.0
 10
0.641790
 20
2.875146
 30
0.0
  0
SPLINE
  5
137
100
AcDbEntity
  8
Page_1
 62
7
100
AcDbSpline
 70
8
 71
3
 72
8
 73
4
 74
0
 40
0
 40
0
 40
0
 40
0
 40
1
 40
1
 40
1
 40
1
 10
9.096158
 20
0.633973
 30
0.0
 10
9.096158
 20
0.707432
 30
0.0
 10
9.036616
 20
0.766973
 30
0.0
 10
8.963158
 20
0.766973
 30
0.0
  0
SPLINE
  5
138
100
AcDbEntity
  8
Page_1
 62
7
100
AcDbSpline
 70
8
 71
3
 72
8
 73
4
 74
0
 40
0
 40
0
 40
0
 40
0
 40
1
 40
1
 40
1
 40
1
 10
8.963158
 20
0.766973
 30
0.0
 10
8.889700
 20
0.766973
 30
0.0
 10
8.830158
 20
0.707432
 30
0.0
 10
8.830158
 20
0.633973
 30
0.0
  0
SPLINE
  5
139
100
AcDbEntity
  8
Page_1
 62
7
100
AcDbSpline
 70
8
 71
3
 72
8
 73
4
 74
0
 40
0
 40
0
 40
0
 40
0
 40
1
 40
1
 40
1
 40
1
 10
8.830158
 20
0.633973
 30
0.0
 10
8.830158
 20
0.560515
 30
0.0
 10
8.889700
 20
0.500974
 30
0.0
 10
8.963158
 20
0.500974
 30
0.0
  0
SPLINE
  5
13a
100
AcDbEntity
  8
Page_1
 62
7
100
AcDbSpline
 70
8
 71
3
 72
8
 73
4
 74
0
 40
0
 40
0
 40
0
 40
0
 40
1
 40
1
 40
1
 40
1
 10
8.963158
 20
0.500974
 30
0.0
 10
9.036616
 20
0.500974
 30
0.0
 10
9.096158
 20
0.560515
 30
0.0
 10
9.096158
 20
0.633973
 30
0.0
  0
LWPOLYLINE
  5
13b
100
AcDbEntity
  8
Page_1
 62
7
100
AcDbPolyline
 90
1
 70
1
 10
9.096158
 20
1.633968
 30
0.0
  0
SPLINE
  5
13c
100
AcDbEntity
  8
Page_1
 62
7
100
AcDbSpline
 70
8
 71
3
 72
8
 73
4
 74
0
 40
0
 40
0
 40
0
 40
0
 40
1
 40
1
 40
1
 40
1
 10
1.096181
 20
1.633968
 30
0.0
 10
1.096181
 20
1.707426
 30
0.0
 10
1.036639
 20
1.766968
 30
0.0
 10
0.963181
 20
1.766968
 30
0.0
  0
SPLINE
  5
13d
100
AcDbEntity
  8
Page_1
 62
7
100
AcDbSpline
 70
8
 71
3
 72
8
 73
4
 74
0
 40
0
 40
0
 40
0
 40
0
 40
1
 40
1
 40
1
 40
1
 10
0.963181
 20
1.766968
 30
0.0
 10
0.889723
 20
1.766968
 30
0.0
 10
0.830181
 20
1.707426
 30
0.0
 10
0.830181
 20
1.633968
 30
0.0
  0
SPLINE
  5
13e
100
AcDbEntity
  8
Page_1
 62
7
100
AcDbSpline
 70
8
 71
3
 72
8
 73
4
 74
0
 40
0
 40
0
 40
0
 40
0
 40
1
 40
1
 40
1
 40
1
 10
0.830181
 20
1.633968
 30
0.0
 10
0.830181
 20
1.560510
 30
0.0
 10
0.889723
 20
1.500968
 30
0.0
 10
0.963181
 20
1.500968
 30
0.0
  0
SPLINE
  5
13f
100
AcDbEntity
  8
Page_1
 62
7
100
AcDbSpline
 70
8
 71
3
 72
8
 73
4
 74
0
 40
0
 40
0
 40
0
 40
0
 40
1
 40
1
 40
1
 40
1
 10
0.963181
 20
1.500968
 30
0.0
 10
1.036639
 20
1.500968
 30
0.0
 10
1.096181
 20
1.560510
 30
0.0
 10
1.096181
 20
1.633968
 30
0.0
  0
LWPOLYLINE
  5
140
100
AcDbEntity
  8
Page_1
 62
7
100
AcDbPolyline
 90
1
 70
1
 10
9.096158
 20
0.633973
 30
0.0
  0
SPLINE
  5
141
100
AcDbEntity
  8
Page_1
 62
7
100
AcDbSpline
 70
8
 71
3
 72
8
 73
4
 74
0
 40
0
 40
0
 40
0
 40
0
 40
1
 40
1
 40
1
 40
1
 10
1.096181
 20
0.633973
 30
0.0
 10
1.096181
 20
0.707432
 30
0.0
 10
1.036639
 20
0.766973
 30
0.0
 10
0.963181
 20
0.766973
 30
0.0
  0
SPLINE
  5
142
100
AcDbEntity
  8
Page_1
 62
7
100
AcDbSpline
 70
8
 71
3
 72
8
 73
4
 74
0
 40
0
 40
0
 40
0
 40
0
 40
1
 40
1
 40
1
 40
1
 10
0.963181
 20
0.766973
 30
0.0
 10
0.889723
 20
0.766973
 30
0.0
 10
0.830181
 20
0.707432
 30
0.0
 10
0.830181
 20
0.633973
 30
0.0
  0
SPLINE
  5
143
100
AcDbEntity
  8
Page_1
 62
7
100
AcDbSpline
 70
8
 71
3
 72
8
 73
4
 74
0
 40
0
 40
0
 40
0
 40
0
 40
1
 40
1
 40
1
 40
1
 10
0.830181
 20
0.633973
 30
0.0
 10
0.830181
 20
0.560515
 30
0.0
 10
0.889723
 20
0.500974
 30
0.0
 10
0.963181
 20
0.500974
 30
0.0
  0
SPLINE
  5
144
100
AcDbEntity
  8
Page_1
 62
7
100
AcDbSpline
 70
8
 71
3
 72
8
 73
4
 74
0
 40
0
 40
0
 40
0
 40
0
 40
1
 40
1
 40
1
 40
1
 10
0.963181
 20
0.500974
 30
0.0
 10
1.036639
 20
0.500974
 30
0.0
 10
1.096181
 20
0.560515
 30
0.0
 10
1.096181
 20
0.633973
 30
0.0
  0
LWPOLYLINE
  5
145
100
AcDbEntity
  8
Page_1
 62
7
100
AcDbPolyline
 90
1
 70
1
 10
1.096181
 20
1.633968
 30
0.0
  0
SPLINE
  5
146
100
AcDbEntity
  8
Page_1
 62
7
100
AcDbSpline
 70
8
 71
3
 72
8
 73
4
 74
0
 40
0
 40
0
 40
0
 40
0
 40
1
 40
1
 40
1
 40
1
 10
5.096168
 20
10.633946
 30
0.0
 10
5.096168
 20
10.707404
 30
0.0
 10
5.036626
 20
10.766945
 30
0.0
 10
4.963168
 20
10.766945
 30
0.0
  0
SPLINE
  5
147
100
AcDbEntity
  8
Page_1
 62
7
100
AcDbSpline
 70
8
 71
3
 72
8
 73
4
 74
0
 40
0
 40
0
 40
0
 40
0
 40
1
 40
1
 40
1
 40
1
 10
4.963168
 20
10.766945
 30
0.0
 10
4.889710
 20
10.766945
 30
0.0
 10
4.830168
 20
10.707404
 30
0.0
 10
4.830168
 20
10.633946
 30
0.0
  0
SPLINE
  5
148
100
AcDbEntity
  8
Page_1
 62
7
100
AcDbSpline
 70
8
 71
3
 72
8
 73
4
 74
0
 40
0
 40
0
 40
0
 40
0
 40
1
 40
1
 40
1
 40
1
 10
4.830168
 20
10.633946
 30
0.0
 10
4.830168
 20
10.560487
 30
0.0
 10
4.889710
 20
10.500946
 30
0.0
 10
4.963168
 20
10.500946
 30
0.0
  0
SPLINE
  5
149
100
AcDbEntity
  8
Page_1
 62
7
100
AcDbSpline
 70
8
 71
3
 72
8
 73
4
 74
0
 40
0
 40
0
 40
0
 40
0
 40
1
 40
1
 40
1
 40
1
 10
4.963168
 20
10.500946
 30
0.0
 10
5.036626
 20
10.500946
 30
0.0
 10
5.096168
 20
10.560487
 30
0.0
 10
5.096168
 20
10.633946
 30
0.0
  0
LWPOLYLINE
  5
14a
100
AcDbEntity
  8
Page_1
 62
7
100
AcDbPolyline
 90
1
 70
1
 10
1.096181
 20
0.633973
 30
0.0
  0
SPLINE
  5
14b
100
AcDbEntity
  8
Page_1
 62
7
100
AcDbSpline
 70
8
 71
3
 72
8
 73
4
 74
0
 40
0
 40
0
 40
0
 40
0
 40
1
 40
1
 40
1
 40
1
 10
5.096168
 20
9.883948
 30
0.0
 10
5.096168
 20
9.957406
 30
0.0
 10
5.036626
 20
10.016947
 30
0.0
 10
4.963168
 20
10.016947
 30
0.0
  0
SPLINE
  5
14c
100
AcDbEntity
  8
Page_1
 62
7
100
AcDbSpline
 70
8
 71
3
 72
8
 73
4
 74
0
 40
0
 40
0
 40
0
 40
0
 40
1
 40
1
 40
1
 40
1
 10
4.963168
 20
10.016947
 30
0.0
 10
4.889710
 20
10.016947
 30
0.0
 10
4.830168
 20
9.957406
 30
0.0
 10
4.830168
 20
9.883948
 30
0.0
  0
SPLINE
  5
14d
100
AcDbEntity
  8
Page_1
 62
7
100
AcDbSpline
 70
8
 71
3
 72
8
 73
4
 74
0
 40
0
 40
0
 40
0
 40
0
 40
1
 40
1
 40
1
 40
1
 10
4.830168
 20
9.883948
 30
0.0
 10
4.830168
 20
9.810489
 30
0.0
 10
4.889710
 20
9.750948
 30
0.0
 10
4.963168
 20
9.750948
 30
0.0
  0
SPLINE
  5
14e
100
AcDbEntity
  8
Page_1
 62
7
100
AcDbSpline
 70
8
 71
3
 72
8
 73
4
 74
0
 40
0
 40
0
 40
0
 40
0
 40
1
 40
1
 40
1
 40
1
 10
4.963168
 20
9.750948
 30
0.0
 10
5.036626
 20
9.750948
 30
0.0
 10
5.096168
 20
9.810489
 30
0.0
 10
5.096168
 20
9.883948
 30
0.0
  0
LWPOLYLINE
  5
14f
100
AcDbEntity
  8
Page_1
 62
7
100
AcDbPolyline
 90
1
 70
1
 10
5.096168
 20
10.633946
 30
0.0
  0
SPLINE
  5
150
100
AcDbEntity
  8
Page_1
 62
7
100
AcDbSpline
 70
8
 71
3
 72
8
 73
4
 74
0
 40
0
 40
0
 40
0
 40
0
 40
1
 40
1
 40
1
 40
1
 10
5.096168
 20
5.558958
 30
0.0
 10
5.096168
 20
5.632416
 30
0.0
 10
5.036626
 20
5.691958
 30
0.0
 10
4.963168
 20
5.691958
 30
0.0
  0
SPLINE
  5
151
100
AcDbEntity
  8
Page_1
 62
7
100
AcDbSpline
 70
8
 71
3
 72
8
 73
4
 74
0
 40
0
 40
0
 40
0
 40
0
 40
1
 40
1
 40
1
 40
1
 10
4.963168
 20
5.691958
 30
0.0
 10
4.889710
 20
5.691958
 30
0.0
 10
4.830168
 20
5.632416
 30
0.0
 10
4.830168
 20
5.558958
 30
0.0
  0
SPLINE
  5
152
100
AcDbEntity
  8
Page_1
 62
7
100
AcDbSpline
 70
8
 71
3
 72
8
 73
4
 74
0
 40
0
 40
0
 40
0
 40
0
 40
1
 40
1
 40
1
 40
1
 10
4.830168
 20
5.558958
 30
0.0
 10
4.830168
 20
5.485500
 30
0.0
 10
4.889710
 20
5.425959
 30
0.0
 10
4.963168
 20
5.425959
 30
0.0
  0
SPLINE
  5
153
100
AcDbEntity
  8
Page_1
 62
7
100
AcDbSpline
 70
8
 71
3
 72
8
 73
4
 74
0
 40
0
 40
0
 40
0
 40
0
 40
1
 40
1
 40
1
 40
1
 10
4.963168
 20
5.425959
 30
0.0
 10
5.036626
 20
5.425959
 30
0.0
 10
5.096168
 20
5.485500
 30
0.0
 10
5.096168
 20
5.558958
 30
0.0
  0
LWPOLYLINE
  5
154
100
AcDbEntity
  8
Page_1
 62
7
100
AcDbPolyline
 90
1
 70
1
 10
5.096168
 20
9.883948
 30
0.0
  0
LWPOLYLINE
  5
155
100
AcDbEntity
  8
Page_1
 62
7
100
AcDbPolyline
 90
1
 70
1
 10
5.096168
 20
5.558958
 30
0.0
  0
LWPOLYLINE
  5
156
100
AcDbEntity
  8
Page_1
 62
7
100
AcDbPolyline
 90
2
 70
0
 10
9.284560
 20
2.875146
 30
0.0
 10
5.641778
 20
5.931805
 30
0.0
  0
LWPOLYLINE
  5
157
100
AcDbEntity
  8
Page_1
 62
7
100
AcDbPolyline
 90
2
 70
0
 10
7.034566
 20
4.922224
 30
0.0
 10
8.034563
 20
4.922224
 30
0.0
  0
SPLINE
  5
158
100
AcDbEntity
  8
Page_1
 62
7
100
AcDbSpline
 70
8
 71
3
 72
8
 73
4
 74
0
 40
0
 40
0
 40
0
 40
0
 40
1
 40
1
 40
1
 40
1
 10
7.034566
 20
5.922221
 30
0.0
 10
7.034566
 20
6.060290
 30
0.0
 10
6.922635
 20
6.172221
 30
0.0
 10
6.784566
 20
6.172221
 30
0.0
  0
SPLINE
  5
159
100
AcDbEntity
  8
Page_1
 62
7
100
AcDbSpline
 70
8
 71
3
 72
8
 73
4
 74
0
 40
0
 40
0
 40
0
 40
0
 40
1
 40
1
 40
1
 40
1
 10
8.284563
 20
6.172221
 30
0.0
 10
8.146494
 20
6.172221
 30
0.0
 10
8.034563
 20
6.060290
 30
0.0
 10
8.034563
 20
5.922221
 30
0.0
  0
SPLINE
  5
15a
100
AcDbEntity
  8
Page_1
 62
7
100
AcDbSpline
 70
8
 71
3
 72
8
 73
4
 74
0
 40
0
 40
0
 40
0
 40
0
 40
1
 40
1
 40
1
 40
1
 10
7.667564
 20
6.047221
 30
0.0
 10
7.667564
 20
6.120679
 30
0.0
 10
7.608023
 20
6.180221
 30
0.0
 10
7.534564
 20
6.180221
 30
0.0
  0
SPLINE
  5
15b
100
AcDbEntity
  8
Page_1
 62
7
100
AcDbSpline
 70
8
 71
3
 72
8
 73
4
 74
0
 40
0
 40
0
 40
0
 40
0
 40
1
 40
1
 40
1
 40
1
 10
7.534564
 20
6.180221
 30
0.0
 10
7.461106
 20
6.180221
 30
0.0
 10
7.401565
 20
6.120679
 30
0.0
 10
7.401565
 20
6.047221
 30
0.0
  0
SPLINE
  5
15c
100
AcDbEntity
  8
Page_1
 62
7
100
AcDbSpline
 70
8
 71
3
 72
8
 73
4
 74
0
 40
0
 40
0
 40
0
 40
0
 40
1
 40
1
 40
1
 40
1
 10
7.401565
 20
6.047221
 30
0.0
 10
7.401565
 20
5.973763
 30
0.0
 10
7.461106
 20
5.914221
 30
0.0
 10
7.534564
 20
5.914221
 30
0.0
  0
SPLINE
  5
15d
100
AcDbEntity
  8
Page_1
 62
7
100
AcDbSpline
 70
8
 71
3
 72
8
 73
4
 74
0
 40
0
 40
0
 40
0
 40
0
 40
1
 40
1
 40
1
 40
1
 10
7.534564
 20
5.914221
 30
0.0
 10
7.608023
 20
5.914221
 30
0.0
 10
7.667564
 20
5.973763
 30
0.0
 10
7.667564
 20
6.047221
 30
0.0
  0
LWPOLYLINE
  5
15e
100
AcDbEntity
  8
Page_1
 62
7
100
AcDbPolyline
 90
2
 70
0
 10
8.784561
 20
6.172221
 30
0.0
 10
8.784561
 20
6.672219
 30
0.0
  0
SPLINE
  5
15f
100
AcDbEntity
  8
Page_1
 62
7
100
AcDbSpline
 70
8
 71
3
 72
8
 73
4
 74
0
 40
0
 40
0
 40
0
 40
0
 40
1
 40
1
 40
1
 40
1
 10
7.667564
 20
5.297223
 30
0.0
 10
7.667564
 20
5.370681
 30
0.0
 10
7.608023
 20
5.430223
 30
0.0
 10
7.534564
 20
5.430223
 30
0.0
  0
SPLINE
  5
160
100
AcDbEntity
  8
Page_1
 62
7
100
AcDbSpline
 70
8
 71
3
 72
8
 73
4
 74
0
 40
0
 40
0
 40
0
 40
0
 40
1
 40
1
 40
1
 40
1
 10
7.534564
 20
5.430223
 30
0.0
 10
7.461106
 20
5.430223
 30
0.0
 10
7.401565
 20
5.370681
 30
0.0
 10
7.401565
 20
5.297223
 30
0.0
  0
SPLINE
  5
161
100
AcDbEntity
  8
Page_1
 62
7
100
AcDbSpline
 70
8
 71
3
 72
8
 73
4
 74
0
 40
0
 40
0
 40
0
 40
0
 40
1
 40
1
 40
1
 40
1
 10
7.401565
 20
5.297223
 30
0.0
 10
7.401565
 20
5.223765
 30
0.0
 10
7.461106
 20
5.164223
 30
0.0
 10
7.534564
 20
5.164223
 30
0.0
  0
SPLINE
  5
162
100
AcDbEntity
  8
Page_1
 62
7
100
AcDbSpline
 70
8
 71
3
 72
8
 73
4
 74
0
 40
0
 40
0
 40
0
 40
0
 40
1
 40
1
 40
1
 40
1
 10
7.534564
 20
5.164223
 30
0.0
 10
7.608023
 20
5.164223
 30
0.0
 10
7.667564
 20
5.223765
 30
0.0
 10
7.667564
 20
5.297223
 30
0.0
  0
LWPOLYLINE
  5
163
100
AcDbEntity
  8
Page_1
 62
7
100
AcDbPolyline
 90
1
 70
1
 10
7.667564
 20
6.047221
 30
0.0
  0
LWPOLYLINE
  5
164
100
AcDbEntity
  8
Page_1
 62
7
100
AcDbPolyline
 90
1
 70
1
 10
7.667564
 20
5.297223
 30
0.0
  0
LWPOLYLINE
  5
165
100
AcDbEntity
  8
Page_1
 62
7
100
AcDbPolyline
 90
2
 70
0
 10
7.034566
 20
5.922221
 30
0.0
 10
7.034566
 20
4.922224
 30
0.0
  0
LWPOLYLINE
  5
166
100
AcDbEntity
  8
Page_1
 62
7
100
AcDbPolyline
 90
2
 70
0
 10
6.284568
 20
6.172221
 30
0.0
 10
6.784566
 20
6.172221
 30
0.0
  0
LWPOLYLINE
  5
167
100
AcDbEntity
  8
Page_1
 62
7
100
AcDbPolyline
 90
2
 70
0
 10
6.284568
 20
6.672219
 30
0.0
 10
6.284568
 20
6.172221
 30
0.0
  0
LWPOLYLINE
  5
168
100
AcDbEntity
  8
Page_1
 62
7
100
AcDbPolyline
 90
2
 70
0
 10
8.784561
 20
6.672219
 30
0.0
 10
6.284568
 20
6.672219
 30
0.0
  0
LWPOLYLINE
  5
169
100
AcDbEntity
  8
Page_1
 62
7
100
AcDbPolyline
 90
2
 70
0
 10
8.284563
 20
6.172221
 30
0.0
 10
8.784561
 20
6.172221
 30
0.0
  0
SPLINE
  5
16a
100
AcDbEntity
  8
Page_1
 62
7
100
AcDbSpline
 70
8
 71
3
 72
8
 73
4
 74
0
 40
0
 40
0
 40
0
 40
0
 40
1
 40
1
 40
1
 40
1
 10
3.750921
 20
2.652716
 30
0.0
 10
3.888990
 20
2.651577
 30
0.0
 10
4.001837
 20
2.762576
 30
0.0
 10
4.002976
 20
2.900646
 30
0.0
  0
SPLINE
  5
16b
100
AcDbEntity
  8
Page_1
 62
7
100
AcDbSpline
 70
8
 71
3
 72
8
 73
4
 74
0
 40
0
 40
0
 40
0
 40
0
 40
1
 40
1
 40
1
 40
1
 10
3.990629
 20
1.400705
 30
0.0
 10
3.991768
 20
1.538774
 30
0.0
 10
3.880768
 20
1.651621
 30
0.0
 10
3.742699
 20
1.652760
 30
0.0
  0
SPLINE
  5
16c
100
AcDbEntity
  8
Page_1
 62
7
100
AcDbSpline
 70
8
 71
3
 72
8
 73
4
 74
0
 40
0
 40
0
 40
0
 40
0
 40
1
 40
1
 40
1
 40
1
 10
3.776991
 20
2.058439
 30
0.0
 10
3.828504
 20
2.006078
 30
0.0
 10
3.912712
 20
2.005384
 30
0.0
 10
3.965073
 20
2.056898
 30
0.0
  0
SPLINE
  5
16d
100
AcDbEntity
  8
Page_1
 62
7
100
AcDbSpline
 70
8
 71
3
 72
8
 73
4
 74
0
 40
0
 40
0
 40
0
 40
0
 40
1
 40
1
 40
1
 40
1
 10
3.965073
 20
2.056898
 30
0.0
 10
4.017434
 20
2.108398
 30
0.0
 10
4.018129
 20
2.192606
 30
0.0
 10
3.966629
 20
2.244980
 30
0.0
  0
SPLINE
  5
16e
100
AcDbEntity
  8
Page_1
 62
7
100
AcDbSpline
 70
8
 71
3
 72
8
 73
4
 74
0
 40
0
 40
0
 40
0
 40
0
 40
1
 40
1
 40
1
 40
1
 10
3.966629
 20
2.244980
 30
0.0
 10
3.915115
 20
2.297341
 30
0.0
 10
3.830907
 20
2.298036
 30
0.0
 10
3.778532
 20
2.246522
 30
0.0
  0
SPLINE
  5
16f
100
AcDbEntity
  8
Page_1
 62
7
100
AcDbSpline
 70
8
 71
3
 72
8
 73
4
 74
0
 40
0
 40
0
 40
0
 40
0
 40
1
 40
1
 40
1
 40
1
 10
3.778532
 20
2.246522
 30
0.0
 10
3.726171
 20
2.195008
 30
0.0
 10
3.725477
 20
2.110800
 30
0.0
 10
3.776991
 20
2.058439
 30
0.0
  0
LWPOLYLINE
  5
170
100
AcDbEntity
  8
Page_1
 62
7
100
AcDbPolyline
 90
2
 70
0
 10
8.034563
 20
4.922224
 30
0.0
 10
8.034563
 20
5.922221
 30
0.0
  0
SPLINE
  5
171
100
AcDbEntity
  8
Page_1
 62
7
100
AcDbSpline
 70
8
 71
3
 72
8
 73
4
 74
0
 40
0
 40
0
 40
0
 40
0
 40
1
 40
1
 40
1
 40
1
 10
3.027020
 20
2.064620
 30
0.0
 10
3.078534
 20
2.012259
 30
0.0
 10
3.162742
 20
2.011564
 30
0.0
 10
3.215103
 20
2.063078
 30
0.0
  0
SPLINE
  5
172
100
AcDbEntity
  8
Page_1
 62
7
100
AcDbSpline
 70
8
 71
3
 72
8
 73
4
 74
0
 40
0
 40
0
 40
0
 40
0
 40
1
 40
1
 40
1
 40
1
 10
3.215103
 20
2.063078
 30
0.0
 10
3.267464
 20
2.114578
 30
0.0
 10
3.268158
 20
2.198786
 30
0.0
 10
3.216659
 20
2.251161
 30
0.0
  0
SPLINE
  5
173
100
AcDbEntity
  8
Page_1
 62
7
100
AcDbSpline
 70
8
 71
3
 72
8
 73
4
 74
0
 40
0
 40
0
 40
0
 40
0
 40
1
 40
1
 40
1
 40
1
 10
3.216659
 20
2.251161
 30
0.0
 10
3.165145
 20
2.303522
 30
0.0
 10
3.080937
 20
2.304216
 30
0.0
 10
3.028562
 20
2.252703
 30
0.0
  0
SPLINE
  5
174
100
AcDbEntity
  8
Page_1
 62
7
100
AcDbSpline
 70
8
 71
3
 72
8
 73
4
 74
0
 40
0
 40
0
 40
0
 40
0
 40
1
 40
1
 40
1
 40
1
 10
3.028562
 20
2.252703
 30
0.0
 10
2.976201
 20
2.201189
 30
0.0
 10
2.975506
 20
2.116981
 30
0.0
 10
3.027020
 20
2.064620
 30
0.0
  0
LWPOLYLINE
  5
175
100
AcDbEntity
  8
Page_1
 62
7
100
AcDbPolyline
 90
1
 70
1
 10
3.776991
 20
2.058439
 30
0.0
  0
LWPOLYLINE
  5
176
100
AcDbEntity
  8
Page_1
 62
7
100
AcDbPolyline
 90
1
 70
1
 10
3.027020
 20
2.064620
 30
0.0
  0
LWPOLYLINE
  5
177
100
AcDbEntity
  8
Page_1
 62
7
100
AcDbPolyline
 90
2
 70
0
 10
2.750965
 20
2.660952
 30
0.0
 10
2.742729
 20
1.660982
 30
0.0
  0
LWPOLYLINE
  5
178
100
AcDbEntity
  8
Page_1
 62
7
100
AcDbPolyline
 90
2
 70
0
 10
3.750921
 20
2.652716
 30
0.0
 10
2.750951
 20
2.660952
 30
0.0
  0
LWPOLYLINE
  5
179
100
AcDbEntity
  8
Page_1
 62
7
100
AcDbPolyline
 90
2
 70
0
 10
4.012240
 20
4.025615
 30
0.0
 10
4.002976
 20
2.900659
 30
0.0
  0
LWPOLYLINE
  5
17a
100
AcDbEntity
  8
Page_1
 62
7
100
AcDbPolyline
 90
2
 70
0
 10
4.512211
 20
4.021504
 30
0.0
 10
4.012226
 20
4.025615
 30
0.0
  0
LWPOLYLINE
  5
17b
100
AcDbEntity
  8
Page_1
 62
7
100
AcDbPolyline
 90
2
 70
0
 10
4.481350
 20
0.271634
 30
0.0
 10
4.512211
 20
4.021500
 30
0.0
  0
LWPOLYLINE
  5
17c
100
AcDbEntity
  8
Page_1
 62
7
100
AcDbPolyline
 90
2
 70
0
 10
3.981365
 20
0.275749
 30
0.0
 10
4.481350
 20
0.271638
 30
0.0
  0
LWPOLYLINE
  5
17d
100
AcDbEntity
  8
Page_1
 62
7
100
AcDbPolyline
 90
2
 70
0
 10
3.990629
 20
1.400705
 30
0.0
 10
3.981365
 20
0.275749
 30
0.0
  0
LWPOLYLINE
  5
17e
100
AcDbEntity
  8
Page_1
 62
7
100
AcDbPolyline
 90
2
 70
0
 10
2.742729
 20
1.660982
 30
0.0
 10
3.742699
 20
1.652746
 30
0.0
  0
LWPOLYLINE
  5
17f
100
AcDbEntity
  8
Page_1
 62
7
100
AcDbPolyline
 90
2
 70
0
 10
9.417560
 20
8.328160
 30
0.0
 10
9.167560
 20
8.183827
 30
0.0
  0
LWPOLYLINE
  5
180
100
AcDbEntity
  8
Page_1
 62
7
100
AcDbPolyline
 90
2
 70
0
 10
9.417560
 20
8.616840
 30
0.0
 10
9.417560
 20
8.328160
 30
0.0
  0
LWPOLYLINE
  5
181
100
AcDbEntity
  8
Page_1
 62
7
100
AcDbPolyline
 90
2
 70
0
 10
9.167560
 20
8.761173
 30
0.0
 10
9.417560
 20
8.616840
 30
0.0
  0
LWPOLYLINE
  5
182
100
AcDbEntity
  8
Page_1
 62
7
100
AcDbPolyline
 90
2
 70
0
 10
8.917561
 20
8.616840
 30
0.0
 10
9.167560
 20
8.761173
 30
0.0
  0
LWPOLYLINE
  5
183
100
AcDbEntity
  8
Page_1
 62
7
100
AcDbPolyline
 90
2
 70
0
 10
8.917561
 20
8.328160
 30
0.0
 10
8.917561
 20
8.616840
 30
0.0
  0
LWPOLYLINE
  5
184
100
AcDbEntity
  8
Page_1
 62
7
100
AcDbPolyline
 90
2
 70
0
 10
9.167560
 20
8.183827
 30
0.0
 10
8.917561
 20
8.328160
 30
0.0
  0
SPLINE
  5
185
100
AcDbEntity
  8
Page_1
 62
7
100
AcDbSpline
 70
8
 71
3
 72
8
 73
4
 74
0
 40
0
 40
0
 40
0
 40
0
 40
1
 40
1
 40
1
 40
1
 10
6.063068
 20
2.883896
 30
0.0
 10
6.062054
 20
2.745826
 30
0.0
 10
6.173151
 20
2.633077
 30
0.0
 10
6.311220
 20
2.632063
 30
0.0
  0
SPLINE
  5
186
100
AcDbEntity
  8
Page_1
 62
7
100
AcDbSpline
 70
8
 71
3
 72
8
 73
4
 74
0
 40
0
 40
0
 40
0
 40
0
 40
1
 40
1
 40
1
 40
1
 10
6.303859
 20
1.632093
 30
0.0
 10
6.165790
 20
1.633107
 30
0.0
 10
6.053040
 20
1.522010
 30
0.0
 10
6.052027
 20
1.383941
 30
0.0
  0
SPLINE
  5
187
100
AcDbEntity
  8
Page_1
 62
7
100
AcDbSpline
 70
8
 71
3
 72
8
 73
4
 74
0
 40
0
 40
0
 40
0
 40
0
 40
1
 40
1
 40
1
 40
1
 10
6.277290
 20
2.226356
 30
0.0
 10
6.225734
 20
2.278675
 30
0.0
 10
6.141526
 20
2.279300
 30
0.0
 10
6.089207
 20
2.227744
 30
0.0
  0
SPLINE
  5
188
100
AcDbEntity
  8
Page_1
 62
7
100
AcDbSpline
 70
8
 71
3
 72
8
 73
4
 74
0
 40
0
 40
0
 40
0
 40
0
 40
1
 40
1
 40
1
 40
1
 10
6.089207
 20
2.227744
 30
0.0
 10
6.036888
 20
2.176189
 30
0.0
 10
6.036263
 20
2.091981
 30
0.0
 10
6.087818
 20
2.039662
 30
0.0
  0
SPLINE
  5
189
100
AcDbEntity
  8
Page_1
 62
7
100
AcDbSpline
 70
8
 71
3
 72
8
 73
4
 74
0
 40
0
 40
0
 40
0
 40
0
 40
1
 40
1
 40
1
 40
1
 10
6.087818
 20
2.039662
 30
0.0
 10
6.139374
 20
1.987328
 30
0.0
 10
6.223582
 20
1.986717
 30
0.0
 10
6.275901
 20
2.038273
 30
0.0
  0
SPLINE
  5
18a
100
AcDbEntity
  8
Page_1
 62
7
100
AcDbSpline
 70
8
 71
3
 72
8
 73
4
 74
0
 40
0
 40
0
 40
0
 40
0
 40
1
 40
1
 40
1
 40
1
 10
6.275901
 20
2.038273
 30
0.0
 10
6.328220
 20
2.089828
 30
0.0
 10
6.328845
 20
2.174036
 30
0.0
 10
6.277290
 20
2.226356
 30
0.0
  0
LWPOLYLINE
  5
18b
100
AcDbEntity
  8
Page_1
 62
7
100
AcDbPolyline
 90
4
 70
1
 10
10.167558
 20
6.972510
 30
0.0
 10
8.167563
 20
6.972510
 30
0.0
 10
8.167563
 20
9.972503
 30
0.0
 10
10.167558
 20
9.972503
 30
0.0
  0
SPLINE
  5
18c
100
AcDbEntity
  8
Page_1
 62
7
100
AcDbSpline
 70
8
 71
3
 72
8
 73
4
 74
0
 40
0
 40
0
 40
0
 40
0
 40
1
 40
1
 40
1
 40
1
 10
7.027260
 20
2.220828
 30
0.0
 10
6.975705
 20
2.273147
 30
0.0
 10
6.891497
 20
2.273772
 30
0.0
 10
6.839177
 20
2.222217
 30
0.0
  0
SPLINE
  5
18d
100
AcDbEntity
  8
Page_1
 62
7
100
AcDbSpline
 70
8
 71
3
 72
8
 73
4
 74
0
 40
0
 40
0
 40
0
 40
0
 40
1
 40
1
 40
1
 40
1
 10
6.839177
 20
2.222217
 30
0.0
 10
6.786858
 20
2.170661
 30
0.0
 10
6.786233
 20
2.086453
 30
0.0
 10
6.837788
 20
2.034134
 30
0.0
  0
SPLINE
  5
18e
100
AcDbEntity
  8
Page_1
 62
7
100
AcDbSpline
 70
8
 71
3
 72
8
 73
4
 74
0
 40
0
 40
0
 40
0
 40
0
 40
1
 40
1
 40
1
 40
1
 10
6.837788
 20
2.034134
 30
0.0
 10
6.889344
 20
1.981801
 30
0.0
 10
6.973552
 20
1.981189
 30
0.0
 10
7.025871
 20
2.032745
 30
0.0
  0
SPLINE
  5
18f
100
AcDbEntity
  8
Page_1
 62
7
100
AcDbSpline
 70
8
 71
3
 72
8
 73
4
 74
0
 40
0
 40
0
 40
0
 40
0
 40
1
 40
1
 40
1
 40
1
 10
7.025871
 20
2.032745
 30
0.0
 10
7.078191
 20
2.084300
 30
0.0
 10
7.078816
 20
2.168508
 30
0.0
 10
7.027260
 20
2.220828
 30
0.0
  0
LWPOLYLINE
  5
190
100
AcDbEntity
  8
Page_1
 62
7
100
AcDbPolyline
 90
1
 70
1
 10
6.277290
 20
2.226356
 30
0.0
  0
LWPOLYLINE
  5
191
100
AcDbEntity
  8
Page_1
 62
7
100
AcDbPolyline
 90
1
 70
1
 10
7.027260
 20
2.220828
 30
0.0
  0
LWPOLYLINE
  5
192
100
AcDbEntity
  8
Page_1
 62
7
100
AcDbPolyline
 90
3
 70
0
 10
7.303829
 20
1.624732
 30
0.0
 10
7.311190
 20
2.624702
 30
0.0
 10
6.311234
 20
2.632063
 30
0.0
  0
LWPOLYLINE
  5
193
100
AcDbEntity
  8
Page_1
 62
7
100
AcDbPolyline
 90
6
 70
0
 10
6.063068
 20
2.883896
 30
0.0
 10
6.071346
 20
4.008865
 30
0.0
 10
5.571375
 20
4.012546
 30
0.0
 10
5.543764
 20
0.262652
 30
0.0
 10
6.043749
 20
0.258976
 30
0.0
 10
6.052027
 20
1.383944
 30
0.0
  0
LWPOLYLINE
  5
194
100
AcDbEntity
  8
Page_1
 62
7
100
AcDbPolyline
 90
2
 70
0
 10
6.303859
 20
1.632093
 30
0.0
 10
7.303829
 20
1.624732
 30
0.0
  0
LWPOLYLINE
  5
195
100
AcDbEntity
  8
Page_1
 62
7
100
AcDbPolyline
 90
2
 70
0
 10
7.061205
 20
8.328160
 30
0.0
 10
6.811205
 20
8.183827
 30
0.0
  0
LWPOLYLINE
  5
196
100
AcDbEntity
  8
Page_1
 62
7
100
AcDbPolyline
 90
2
 70
0
 10
7.061205
 20
8.616840
 30
0.0
 10
7.061205
 20
8.328160
 30
0.0
  0
LWPOLYLINE
  5
197
100
AcDbEntity
  8
Page_1
 62
7
100
AcDbPolyline
 90
2
 70
0
 10
6.811205
 20
8.761173
 30
0.0
 10
7.061205
 20
8.616840
 30
0.0
  0
LWPOLYLINE
  5
198
100
AcDbEntity
  8
Page_1
 62
7
100
AcDbPolyline
 90
2
 70
0
 10
6.561206
 20
8.616840
 30
0.0
 10
6.811205
 20
8.761173
 30
0.0
  0
LWPOLYLINE
  5
199
100
AcDbEntity
  8
Page_1
 62
7
100
AcDbPolyline
 90
2
 70
0
 10
6.561206
 20
8.328160
 30
0.0
 10
6.561206
 20
8.616840
 30
0.0
  0
LWPOLYLINE
  5
19a
100
AcDbEntity
  8
Page_1
 62
7
100
AcDbPolyline
 90
2
 70
0
 10
6.811205
 20
8.183827
 30
0.0
 10
6.561206
 20
8.328160
 30
0.0
  0
LWPOLYLINE
  5
19b
100
AcDbEntity
  8
Page_1
 62
7
100
AcDbPolyline
 90
4
 70
1
 10
7.811203
 20
6.972510
 30
0.0
 10
5.811208
 20
6.972510
 30
0.0
 10
5.811208
 20
9.972503
 30
0.0
 10
7.811203
 20
9.972503
 30
0.0
  0
ENDSEC
  0
SECTION
  2
OBJECTS
  0
DICTIONARY
  5
C
330
0
100
AcDbDictionary
  3
ACAD_GROUP
350
D
  3
ACAD_MLINESTYLE
350
17
  0
DICTIONARY
  5
D
330
C
100
AcDbDictionary
  0
DICTIONARY
  5
1A
330
C
100
AcDbDictionary
  0
DICTIONARY
  5
17
330
C
100
AcDbDictionary
  3
STANDARD
350
18
  0
DICTIONARY
  5
19
330
C
100
AcDbDictionary
  0
ENDSEC
  0
EOF
