  0
SECTION
  2
HEADER
  9
$ACADVER
  1
AC1014
  9
$HANDSEED
  5
FFFF
  9
$INSUNITS
 70
     1
  9
$MEASUREMENT
 70
     1
  0
ENDSEC
  0
SECTION
  2
TABLES
  0
TABLE
  2
VPORT
  5
8
330
0
100
AcDbSymbolTable
 70
     4
  0
VPORT
  5
2E
330
8
100
AcDbSymbolTableRecord
100
AcDbViewportTableRecord
  2
*ACTIVE
 70
     0
 10
0.0
 20
0.0
 11
1.0
 21
1.0
 12
210.0
 22
148.5
 13
0.0
 23
0.0
 14
10.0
 24
10.0
 15
10.0
 25
10.0
 16
0.0
 26
0.0
 36
1.0
 17
0.0
 27
0.0
 37
0.0
 40
341.0
 41
1.24
 42
50.0
 43
0.0
 44
0.0
 50
0.0
 51
0.0
 71
     0
 72
   100
 73
     1
 74
     3
 75
     0
 76
     0
 77
     0
 78
     0
  0
ENDTAB
  0
TABLE
  2
LTYPE
  5
5
330
0
100
AcDbSymbolTable
 70
     1
  0
LTYPE
  5
14
330
5
100
AcDbSymbolTableRecord
100
AcDbLinetypeTableRecord
  2
BYBLOCK
 70
     0
  3

 72
    65
 73
     0
 40
0.0
  0
LTYPE
  5
15
330
5
100
AcDbSymbolTableRecord
100
AcDbLinetypeTableRecord
  2
BYLAYER
 70
     0
  3

 72
    65
 73
     0
 40
0.0
  0
LTYPE
  5
16
330
5
100
AcDbSymbolTableRecord
100
AcDbLinetypeTableRecord
  2
CONTINUOUS
 70
     0
  3
Solid line
 72
    65
 73
     0
 40
0.0
  0
ENDTAB
  0
TABLE
  2
LAYER
  5
2
100
AcDbSymbolTable
 70
2
  0
LAYER
  5
50
100
AcDbSymbolTableRecord
100
AcDbLayerTableRecord
  2
0
 70
0
  6
CONTINUOUS
  0
LAYER
  5
51
100
AcDbSymbolTableRecord
100
AcDbLayerTableRecord
  2
Page_1
 70
0
  6
CONTINUOUS
  0
ENDTAB
  0
TABLE
  2
STYLE
  5
3
330
0
100
AcDbSymbolTable
 70
     1
  0
STYLE
  5
11
330
3
100
AcDbSymbolTableRecord
100
AcDbTextStyleTableRecord
  2
STANDARD
 70
     0
 40
0.0
 41
1.0
 50
0.0
 71
     0
 42
2.5
  3
txt
  4

  0
ENDTAB
  0
TABLE
  2
VIEW
  5
6
330
0
100
AcDbSymbolTable
 70
     0
  0
ENDTAB
  0
TABLE
  2
UCS
  5
7
330
0
100
AcDbSymbolTable
 70
     0
  0
ENDTAB
  0
TABLE
  2
APPID
  5
9
330
0
100
AcDbSymbolTable
 70
     2
  0
APPID
  5
12
330
9
100
AcDbSymbolTableRecord
100
AcDbRegAppTableRecord
  2
ACAD
 70
     0
  0
ENDTAB
  0
TABLE
  2
DIMSTYLE
  5
A
330
0
100
AcDbSymbolTable
 70
     1
  0
DIMSTYLE
105
27
330
A
100
AcDbSymbolTableRecord
100
AcDbDimStyleTableRecord
  2
ISO-25
 70
     0
  3

  4

  5

  6

  7

 40
1.0
 41
2.5
 42
0.625
 43
3.75
 44
1.25
 45
0.0
 46
0.0
 47
0.0
 48
0.0
140
2.5
141
2.5
142
0.0
143
0.03937007874016
144
1.0
145
0.0
146
1.0
147
0.625
 71
     0
 72
     0
 73
     0
 74
     0
 75
     0
 76
     0
 77
     1
 78
     8
170
     0
171
     3
172
     1
173
     0
174
     0
175
     0
176
     0
177
     0
178
     0
270
     2
271
     2
272
     2
273
     2
274
     3
340
11
275
     0
280
     0
281
     0
282
     0
283
     0
284
     8
285
     0
286
     0
287
     3
288
     0
  0
ENDTAB
  0
TABLE
  2
BLOCK_RECORD
  5
1
330
0
100
AcDbSymbolTable
 70
     1
  0
BLOCK_RECORD
  5
1F
330
1
100
AcDbSymbolTableRecord
100
AcDbBlockTableRecord
  2
*MODEL_SPACE
  0
BLOCK_RECORD
  5
1B
330
1
100
AcDbSymbolTableRecord
100
AcDbBlockTableRecord
  2
*PAPER_SPACE
  0
ENDTAB
  0
ENDSEC
  0
SECTION
  2
BLOCKS
  0
BLOCK
  5
20
330
1F
100
AcDbEntity
  8
0
100
AcDbBlockBegin
  2
*MODEL_SPACE
 70
     0
 10
0.0
 20
0.0
 30
0.0
  3
*MODEL_SPACE
  1

  0
ENDBLK
  5
21
330
1F
100
AcDbEntity
  8
0
100
AcDbBlockEnd
  0
BLOCK
  5
1C
330
1B
100
AcDbEntity
 67
     1
  8
0
100
AcDbBlockBegin
  2
*PAPER_SPACE
  1

  0
ENDBLK
  5
1D
330
1B
100
AcDbEntity
 67
     1
  8
0
100
AcDbBlockEnd
  0
ENDSEC
  0
SECTION
  2
ENTITIES
  0
LWPOLYLINE
  5
100
100
AcDbEntity
  8
Page_1
 62
7
100
AcDbPolyline
 90
2
 70
0
 10
0.230637
 20
8.188243
 30
0.0
 10
6.230622
 20
8.188243
 30
0.0
  0
LWPOLYLINE
  5
101
100
AcDbEntity
  8
Page_1
 62
7
100
AcDbPolyline
 90
2
 70
0
 10
0.230637
 20
11.938234
 30
0.0
 10
0.230637
 20
8.188243
 30
0.0
  0
LWPOLYLINE
  5
102
100
AcDbEntity
  8
Page_1
 62
7
100
AcDbPolyline
 90
2
 70
0
 10
6.230623
 20
11.938234
 30
0.0
 10
0.230638
 20
11.938234
 30
0.0
  0
SPLINE
  5
103
100
AcDbEntity
  8
Page_1
 62
7
100
AcDbSpline
 70
8
 71
3
 72
8
 73
4
 74
0
 40
0
 40
0
 40
0
 40
0
 40
1
 40
1
 40
1
 40
1
 10
0.616192
 20
8.688242
 30
0.0
 10
0.616192
 20
8.761700
 30
0.0
 10
0.556650
 20
8.821242
 30
0.0
 10
0.483192
 20
8.821242
 30
0.0
  0
SPLINE
  5
104
100
AcDbEntity
  8
Page_1
 62
7
100
AcDbSpline
 70
8
 71
3
 72
8
 73
4
 74
0
 40
0
 40
0
 40
0
 40
0
 40
1
 40
1
 40
1
 40
1
 10
0.483192
 20
8.821242
 30
0.0
 10
0.409734
 20
8.821242
 30
0.0
 10
0.350192
 20
8.761700
 30
0.0
 10
0.350192
 20
8.688242
 30
0.0
  0
SPLINE
  5
105
100
AcDbEntity
  8
Page_1
 62
7
100
AcDbSpline
 70
8
 71
3
 72
8
 73
4
 74
0
 40
0
 40
0
 40
0
 40
0
 40
1
 40
1
 40
1
 40
1
 10
0.350192
 20
8.688242
 30
0.0
 10
0.350192
 20
8.614784
 30
0.0
 10
0.409734
 20
8.555243
 30
0.0
 10
0.483192
 20
8.555243
 30
0.0
  0
SPLINE
  5
106
100
AcDbEntity
  8
Page_1
 62
7
100
AcDbSpline
 70
8
 71
3
 72
8
 73
4
 74
0
 40
0
 40
0
 40
0
 40
0
 40
1
 40
1
 40
1
 40
1
 10
0.483192
 20
8.555243
 30
0.0
 10
0.556650
 20
8.555243
 30
0.0
 10
0.616192
 20
8.614784
 30
0.0
 10
0.616192
 20
8.688242
 30
0.0
  0
LWPOLYLINE
  5
107
100
AcDbEntity
  8
Page_1
 62
7
100
AcDbPolyline
 90
2
 70
0
 10
6.230623
 20
8.188243
 30
0.0
 10
6.230623
 20
11.938234
 30
0.0
  0
SPLINE
  5
108
100
AcDbEntity
  8
Page_1
 62
7
100
AcDbSpline
 70
8
 71
3
 72
8
 73
4
 74
0
 40
0
 40
0
 40
0
 40
0
 40
1
 40
1
 40
1
 40
1
 10
0.616192
 20
9.688240
 30
0.0
 10
0.616192
 20
9.761698
 30
0.0
 10
0.556650
 20
9.821239
 30
0.0
 10
0.483192
 20
9.821239
 30
0.0
  0
SPLINE
  5
109
100
AcDbEntity
  8
Page_1
 62
7
100
AcDbSpline
 70
8
 71
3
 72
8
 73
4
 74
0
 40
0
 40
0
 40
0
 40
0
 40
1
 40
1
 40
1
 40
1
 10
0.483192
 20
9.821239
 30
0.0
 10
0.409734
 20
9.821239
 30
0.0
 10
0.350192
 20
9.761698
 30
0.0
 10
0.350192
 20
9.688240
 30
0.0
  0
SPLINE
  5
10a
100
AcDbEntity
  8
Page_1
 62
7
100
AcDbSpline
 70
8
 71
3
 72
8
 73
4
 74
0
 40
0
 40
0
 40
0
 40
0
 40
1
 40
1
 40
1
 40
1
 10
0.350192
 20
9.688240
 30
0.0
 10
0.350192
 20
9.614782
 30
0.0
 10
0.409734
 20
9.555240
 30
0.0
 10
0.483192
 20
9.555240
 30
0.0
  0
SPLINE
  5
10b
100
AcDbEntity
  8
Page_1
 62
7
100
AcDbSpline
 70
8
 71
3
 72
8
 73
4
 74
0
 40
0
 40
0
 40
0
 40
0
 40
1
 40
1
 40
1
 40
1
 10
0.483192
 20
9.555240
 30
0.0
 10
0.556650
 20
9.555240
 30
0.0
 10
0.616192
 20
9.614782
 30
0.0
 10
0.616192
 20
9.688240
 30
0.0
  0
LWPOLYLINE
  5
10c
100
AcDbEntity
  8
Page_1
 62
7
100
AcDbPolyline
 90
1
 70
1
 10
0.616192
 20
8.688242
 30
0.0
  0
SPLINE
  5
10d
100
AcDbEntity
  8
Page_1
 62
7
100
AcDbSpline
 70
8
 71
3
 72
8
 73
4
 74
0
 40
0
 40
0
 40
0
 40
0
 40
1
 40
1
 40
1
 40
1
 10
0.616192
 20
10.688237
 30
0.0
 10
0.616192
 20
10.761695
 30
0.0
 10
0.556650
 20
10.821237
 30
0.0
 10
0.483192
 20
10.821237
 30
0.0
  0
SPLINE
  5
10e
100
AcDbEntity
  8
Page_1
 62
7
100
AcDbSpline
 70
8
 71
3
 72
8
 73
4
 74
0
 40
0
 40
0
 40
0
 40
0
 40
1
 40
1
 40
1
 40
1
 10
0.483192
 20
10.821237
 30
0.0
 10
0.409734
 20
10.821237
 30
0.0
 10
0.350192
 20
10.761695
 30
0.0
 10
0.350192
 20
10.688237
 30
0.0
  0
SPLINE
  5
10f
100
AcDbEntity
  8
Page_1
 62
7
100
AcDbSpline
 70
8
 71
3
 72
8
 73
4
 74
0
 40
0
 40
0
 40
0
 40
0
 40
1
 40
1
 40
1
 40
1
 10
0.350192
 20
10.688237
 30
0.0
 10
0.350192
 20
10.614779
 30
0.0
 10
0.409734
 20
10.555238
 30
0.0
 10
0.483192
 20
10.555238
 30
0.0
  0
SPLINE
  5
110
100
AcDbEntity
  8
Page_1
 62
7
100
AcDbSpline
 70
8
 71
3
 72
8
 73
4
 74
0
 40
0
 40
0
 40
0
 40
0
 40
1
 40
1
 40
1
 40
1
 10
0.483192
 20
10.555238
 30
0.0
 10
0.556650
 20
10.555238
 30
0.0
 10
0.616192
 20
10.614779
 30
0.0
 10
0.616192
 20
10.688237
 30
0.0
  0
LWPOLYLINE
  5
111
100
AcDbEntity
  8
Page_1
 62
7
100
AcDbPolyline
 90
1
 70
1
 10
0.616192
 20
9.688240
 30
0.0
  0
SPLINE
  5
112
100
AcDbEntity
  8
Page_1
 62
7
100
AcDbSpline
 70
8
 71
3
 72
8
 73
4
 74
0
 40
0
 40
0
 40
0
 40
0
 40
1
 40
1
 40
1
 40
1
 10
1.613635
 20
11.688235
 30
0.0
 10
1.613635
 20
11.761693
 30
0.0
 10
1.554093
 20
11.821234
 30
0.0
 10
1.480635
 20
11.821234
 30
0.0
  0
SPLINE
  5
113
100
AcDbEntity
  8
Page_1
 62
7
100
AcDbSpline
 70
8
 71
3
 72
8
 73
4
 74
0
 40
0
 40
0
 40
0
 40
0
 40
1
 40
1
 40
1
 40
1
 10
1.480635
 20
11.821234
 30
0.0
 10
1.407177
 20
11.821234
 30
0.0
 10
1.347636
 20
11.761693
 30
0.0
 10
1.347636
 20
11.688235
 30
0.0
  0
SPLINE
  5
114
100
AcDbEntity
  8
Page_1
 62
7
100
AcDbSpline
 70
8
 71
3
 72
8
 73
4
 74
0
 40
0
 40
0
 40
0
 40
0
 40
1
 40
1
 40
1
 40
1
 10
1.347636
 20
11.688235
 30
0.0
 10
1.347636
 20
11.614777
 30
0.0
 10
1.407177
 20
11.555235
 30
0.0
 10
1.480635
 20
11.555235
 30
0.0
  0
SPLINE
  5
115
100
AcDbEntity
  8
Page_1
 62
7
100
AcDbSpline
 70
8
 71
3
 72
8
 73
4
 74
0
 40
0
 40
0
 40
0
 40
0
 40
1
 40
1
 40
1
 40
1
 10
1.480635
 20
11.555235
 30
0.0
 10
1.554093
 20
11.555235
 30
0.0
 10
1.613635
 20
11.614777
 30
0.0
 10
1.613635
 20
11.688235
 30
0.0
  0
LWPOLYLINE
  5
116
100
AcDbEntity
  8
Page_1
 62
7
100
AcDbPolyline
 90
1
 70
1
 10
0.616192
 20
10.688237
 30
0.0
  0
SPLINE
  5
117
100
AcDbEntity
  8
Page_1
 62
7
100
AcDbSpline
 70
8
 71
3
 72
8
 73
4
 74
0
 40
0
 40
0
 40
0
 40
0
 40
1
 40
1
 40
1
 40
1
 10
3.331131
 20
10.225238
 30
0.0
 10
3.331131
 20
10.280738
 30
0.0
 10
3.286131
 20
10.325738
 30
0.0
 10
3.230631
 20
10.325738
 30
0.0
  0
SPLINE
  5
118
100
AcDbEntity
  8
Page_1
 62
7
100
AcDbSpline
 70
8
 71
3
 72
8
 73
4
 74
0
 40
0
 40
0
 40
0
 40
0
 40
1
 40
1
 40
1
 40
1
 10
3.230631
 20
10.325738
 30
0.0
 10
3.175131
 20
10.325738
 30
0.0
 10
3.130131
 20
10.280738
 30
0.0
 10
3.130131
 20
10.225238
 30
0.0
  0
SPLINE
  5
119
100
AcDbEntity
  8
Page_1
 62
7
100
AcDbSpline
 70
8
 71
3
 72
8
 73
4
 74
0
 40
0
 40
0
 40
0
 40
0
 40
1
 40
1
 40
1
 40
1
 10
3.130131
 20
10.225238
 30
0.0
 10
3.130131
 20
10.169738
 30
0.0
 10
3.175131
 20
10.124739
 30
0.0
 10
3.230631
 20
10.124739
 30
0.0
  0
SPLINE
  5
11a
100
AcDbEntity
  8
Page_1
 62
7
100
AcDbSpline
 70
8
 71
3
 72
8
 73
4
 74
0
 40
0
 40
0
 40
0
 40
0
 40
1
 40
1
 40
1
 40
1
 10
3.230631
 20
10.124739
 30
0.0
 10
3.286131
 20
10.124739
 30
0.0
 10
3.331131
 20
10.169738
 30
0.0
 10
3.331131
 20
10.225238
 30
0.0
  0
LWPOLYLINE
  5
11b
100
AcDbEntity
  8
Page_1
 62
7
100
AcDbPolyline
 90
1
 70
1
 10
1.613635
 20
11.688235
 30
0.0
  0
SPLINE
  5
11c
100
AcDbEntity
  8
Page_1
 62
7
100
AcDbSpline
 70
8
 71
3
 72
8
 73
4
 74
0
 40
0
 40
0
 40
0
 40
0
 40
1
 40
1
 40
1
 40
1
 10
5.081126
 20
9.725240
 30
0.0
 10
5.081126
 20
9.780739
 30
0.0
 10
5.036126
 20
9.825739
 30
0.0
 10
4.980626
 20
9.825739
 30
0.0
  0
SPLINE
  5
11d
100
AcDbEntity
  8
Page_1
 62
7
100
AcDbSpline
 70
8
 71
3
 72
8
 73
4
 74
0
 40
0
 40
0
 40
0
 40
0
 40
1
 40
1
 40
1
 40
1
 10
4.980626
 20
9.825739
 30
0.0
 10
4.925127
 20
9.825739
 30
0.0
 10
4.880127
 20
9.780739
 30
0.0
 10
4.880127
 20
9.725240
 30
0.0
  0
SPLINE
  5
11e
100
AcDbEntity
  8
Page_1
 62
7
100
AcDbSpline
 70
8
 71
3
 72
8
 73
4
 74
0
 40
0
 40
0
 40
0
 40
0
 40
1
 40
1
 40
1
 40
1
 10
4.880127
 20
9.725240
 30
0.0
 10
4.880127
 20
9.669740
 30
0.0
 10
4.925127
 20
9.624740
 30
0.0
 10
4.980626
 20
9.624740
 30
0.0
  0
SPLINE
  5
11f
100
AcDbEntity
  8
Page_1
 62
7
100
AcDbSpline
 70
8
 71
3
 72
8
 73
4
 74
0
 40
0
 40
0
 40
0
 40
0
 40
1
 40
1
 40
1
 40
1
 10
4.980626
 20
9.624740
 30
0.0
 10
5.036126
 20
9.624740
 30
0.0
 10
5.081126
 20
9.669740
 30
0.0
 10
5.081126
 20
9.725240
 30
0.0
  0
LWPOLYLINE
  5
120
100
AcDbEntity
  8
Page_1
 62
7
100
AcDbPolyline
 90
1
 70
1
 10
3.331131
 20
10.225238
 30
0.0
  0
SPLINE
  5
121
100
AcDbEntity
  8
Page_1
 62
7
100
AcDbSpline
 70
8
 71
3
 72
8
 73
4
 74
0
 40
0
 40
0
 40
0
 40
0
 40
1
 40
1
 40
1
 40
1
 10
1.581135
 20
9.725240
 30
0.0
 10
1.581135
 20
9.780739
 30
0.0
 10
1.536135
 20
9.825739
 30
0.0
 10
1.480635
 20
9.825739
 30
0.0
  0
SPLINE
  5
122
100
AcDbEntity
  8
Page_1
 62
7
100
AcDbSpline
 70
8
 71
3
 72
8
 73
4
 74
0
 40
0
 40
0
 40
0
 40
0
 40
1
 40
1
 40
1
 40
1
 10
1.480635
 20
9.825739
 30
0.0
 10
1.425135
 20
9.825739
 30
0.0
 10
1.380135
 20
9.780739
 30
0.0
 10
1.380135
 20
9.725240
 30
0.0
  0
SPLINE
  5
123
100
AcDbEntity
  8
Page_1
 62
7
100
AcDbSpline
 70
8
 71
3
 72
8
 73
4
 74
0
 40
0
 40
0
 40
0
 40
0
 40
1
 40
1
 40
1
 40
1
 10
1.380135
 20
9.725240
 30
0.0
 10
1.380135
 20
9.669740
 30
0.0
 10
1.425135
 20
9.624740
 30
0.0
 10
1.480635
 20
9.624740
 30
0.0
  0
SPLINE
  5
124
100
AcDbEntity
  8
Page_1
 62
7
100
AcDbSpline
 70
8
 71
3
 72
8
 73
4
 74
0
 40
0
 40
0
 40
0
 40
0
 40
1
 40
1
 40
1
 40
1
 10
1.480635
 20
9.624740
 30
0.0
 10
1.536135
 20
9.624740
 30
0.0
 10
1.581135
 20
9.669740
 30
0.0
 10
1.581135
 20
9.725240
 30
0.0
  0
LWPOLYLINE
  5
125
100
AcDbEntity
  8
Page_1
 62
7
100
AcDbPolyline
 90
1
 70
1
 10
5.081126
 20
9.725240
 30
0.0
  0
SPLINE
  5
126
100
AcDbEntity
  8
Page_1
 62
7
100
AcDbSpline
 70
8
 71
3
 72
8
 73
4
 74
0
 40
0
 40
0
 40
0
 40
0
 40
1
 40
1
 40
1
 40
1
 10
4.831127
 20
8.725242
 30
0.0
 10
4.831127
 20
8.780742
 30
0.0
 10
4.786127
 20
8.825742
 30
0.0
 10
4.730627
 20
8.825742
 30
0.0
  0
SPLINE
  5
127
100
AcDbEntity
  8
Page_1
 62
7
100
AcDbSpline
 70
8
 71
3
 72
8
 73
4
 74
0
 40
0
 40
0
 40
0
 40
0
 40
1
 40
1
 40
1
 40
1
 10
4.730627
 20
8.825742
 30
0.0
 10
4.675127
 20
8.825742
 30
0.0
 10
4.630127
 20
8.780742
 30
0.0
 10
4.630127
 20
8.725242
 30
0.0
  0
SPLINE
  5
128
100
AcDbEntity
  8
Page_1
 62
7
100
AcDbSpline
 70
8
 71
3
 72
8
 73
4
 74
0
 40
0
 40
0
 40
0
 40
0
 40
1
 40
1
 40
1
 40
1
 10
4.630127
 20
8.725242
 30
0.0
 10
4.630127
 20
8.669742
 30
0.0
 10
4.675127
 20
8.624742
 30
0.0
 10
4.730627
 20
8.624742
 30
0.0
  0
SPLINE
  5
129
100
AcDbEntity
  8
Page_1
 62
7
100
AcDbSpline
 70
8
 71
3
 72
8
 73
4
 74
0
 40
0
 40
0
 40
0
 40
0
 40
1
 40
1
 40
1
 40
1
 10
4.730627
 20
8.624742
 30
0.0
 10
4.786127
 20
8.624742
 30
0.0
 10
4.831127
 20
8.669742
 30
0.0
 10
4.831127
 20
8.725242
 30
0.0
  0
LWPOLYLINE
  5
12a
100
AcDbEntity
  8
Page_1
 62
7
100
AcDbPolyline
 90
1
 70
1
 10
1.581135
 20
9.725240
 30
0.0
  0
SPLINE
  5
12b
100
AcDbEntity
  8
Page_1
 62
7
100
AcDbSpline
 70
8
 71
3
 72
8
 73
4
 74
0
 40
0
 40
0
 40
0
 40
0
 40
1
 40
1
 40
1
 40
1
 10
1.831134
 20
8.725242
 30
0.0
 10
1.831134
 20
8.780742
 30
0.0
 10
1.786134
 20
8.825742
 30
0.0
 10
1.730635
 20
8.825742
 30
0.0
  0
SPLINE
  5
12c
100
AcDbEntity
  8
Page_1
 62
7
100
AcDbSpline
 70
8
 71
3
 72
8
 73
4
 74
0
 40
0
 40
0
 40
0
 40
0
 40
1
 40
1
 40
1
 40
1
 10
1.730635
 20
8.825742
 30
0.0
 10
1.675135
 20
8.825742
 30
0.0
 10
1.630135
 20
8.780742
 30
0.0
 10
1.630135
 20
8.725242
 30
0.0
  0
SPLINE
  5
12d
100
AcDbEntity
  8
Page_1
 62
7
100
AcDbSpline
 70
8
 71
3
 72
8
 73
4
 74
0
 40
0
 40
0
 40
0
 40
0
 40
1
 40
1
 40
1
 40
1
 10
1.630135
 20
8.725242
 30
0.0
 10
1.630135
 20
8.669742
 30
0.0
 10
1.675135
 20
8.624742
 30
0.0
 10
1.730635
 20
8.624742
 30
0.0
  0
SPLINE
  5
12e
100
AcDbEntity
  8
Page_1
 62
7
100
AcDbSpline
 70
8
 71
3
 72
8
 73
4
 74
0
 40
0
 40
0
 40
0
 40
0
 40
1
 40
1
 40
1
 40
1
 10
1.730635
 20
8.624742
 30
0.0
 10
1.786134
 20
8.624742
 30
0.0
 10
1.831134
 20
8.669742
 30
0.0
 10
1.831134
 20
8.725242
 30
0.0
  0
LWPOLYLINE
  5
12f
100
AcDbEntity
  8
Page_1
 62
7
100
AcDbPolyline
 90
1
 70
1
 10
4.831127
 20
8.725242
 30
0.0
  0
SPLINE
  5
130
100
AcDbEntity
  8
Page_1
 62
7
100
AcDbSpline
 70
8
 71
3
 72
8
 73
4
 74
0
 40
0
 40
0
 40
0
 40
0
 40
1
 40
1
 40
1
 40
1
 10
5.113626
 20
11.688235
 30
0.0
 10
5.113626
 20
11.761693
 30
0.0
 10
5.054085
 20
11.821234
 30
0.0
 10
4.980626
 20
11.821234
 30
0.0
  0
SPLINE
  5
131
100
AcDbEntity
  8
Page_1
 62
7
100
AcDbSpline
 70
8
 71
3
 72
8
 73
4
 74
0
 40
0
 40
0
 40
0
 40
0
 40
1
 40
1
 40
1
 40
1
 10
4.980626
 20
11.821234
 30
0.0
 10
4.907168
 20
11.821234
 30
0.0
 10
4.847627
 20
11.761693
 30
0.0
 10
4.847627
 20
11.688235
 30
0.0
  0
SPLINE
  5
132
100
AcDbEntity
  8
Page_1
 62
7
100
AcDbSpline
 70
8
 71
3
 72
8
 73
4
 74
0
 40
0
 40
0
 40
0
 40
0
 40
1
 40
1
 40
1
 40
1
 10
4.847627
 20
11.688235
 30
0.0
 10
4.847627
 20
11.614777
 30
0.0
 10
4.907168
 20
11.555235
 30
0.0
 10
4.980626
 20
11.555235
 30
0.0
  0
SPLINE
  5
133
100
AcDbEntity
  8
Page_1
 62
7
100
AcDbSpline
 70
8
 71
3
 72
8
 73
4
 74
0
 40
0
 40
0
 40
0
 40
0
 40
1
 40
1
 40
1
 40
1
 10
4.980626
 20
11.555235
 30
0.0
 10
5.054085
 20
11.555235
 30
0.0
 10
5.113626
 20
11.614777
 30
0.0
 10
5.113626
 20
11.688235
 30
0.0
  0
LWPOLYLINE
  5
134
100
AcDbEntity
  8
Page_1
 62
7
100
AcDbPolyline
 90
1
 70
1
 10
1.831134
 20
8.725242
 30
0.0
  0
SPLINE
  5
135
100
AcDbEntity
  8
Page_1
 62
7
100
AcDbSpline
 70
8
 71
3
 72
8
 73
4
 74
0
 40
0
 40
0
 40
0
 40
0
 40
1
 40
1
 40
1
 40
1
 10
6.111068
 20
10.688237
 30
0.0
 10
6.111068
 20
10.761695
 30
0.0
 10
6.051527
 20
10.821237
 30
0.0
 10
5.978068
 20
10.821237
 30
0.0
  0
SPLINE
  5
136
100
AcDbEntity
  8
Page_1
 62
7
100
AcDbSpline
 70
8
 71
3
 72
8
 73
4
 74
0
 40
0
 40
0
 40
0
 40
0
 40
1
 40
1
 40
1
 40
1
 10
5.978068
 20
10.821237
 30
0.0
 10
5.904610
 20
10.821237
 30
0.0
 10
5.845069
 20
10.761695
 30
0.0
 10
5.845069
 20
10.688237
 30
0.0
  0
SPLINE
  5
137
100
AcDbEntity
  8
Page_1
 62
7
100
AcDbSpline
 70
8
 71
3
 72
8
 73
4
 74
0
 40
0
 40
0
 40
0
 40
0
 40
1
 40
1
 40
1
 40
1
 10
5.845069
 20
10.688237
 30
0.0
 10
5.845069
 20
10.614779
 30
0.0
 10
5.904610
 20
10.555238
 30
0.0
 10
5.978068
 20
10.555238
 30
0.0
  0
SPLINE
  5
138
100
AcDbEntity
  8
Page_1
 62
7
100
AcDbSpline
 70
8
 71
3
 72
8
 73
4
 74
0
 40
0
 40
0
 40
0
 40
0
 40
1
 40
1
 40
1
 40
1
 10
5.978068
 20
10.555238
 30
0.0
 10
6.051527
 20
10.555238
 30
0.0
 10
6.111068
 20
10.614779
 30
0.0
 10
6.111068
 20
10.688237
 30
0.0
  0
LWPOLYLINE
  5
139
100
AcDbEntity
  8
Page_1
 62
7
100
AcDbPolyline
 90
1
 70
1
 10
5.113626
 20
11.688235
 30
0.0
  0
SPLINE
  5
13a
100
AcDbEntity
  8
Page_1
 62
7
100
AcDbSpline
 70
8
 71
3
 72
8
 73
4
 74
0
 40
0
 40
0
 40
0
 40
0
 40
1
 40
1
 40
1
 40
1
 10
6.111068
 20
9.688240
 30
0.0
 10
6.111068
 20
9.761698
 30
0.0
 10
6.051527
 20
9.821239
 30
0.0
 10
5.978068
 20
9.821239
 30
0.0
  0
SPLINE
  5
13b
100
AcDbEntity
  8
Page_1
 62
7
100
AcDbSpline
 70
8
 71
3
 72
8
 73
4
 74
0
 40
0
 40
0
 40
0
 40
0
 40
1
 40
1
 40
1
 40
1
 10
5.978068
 20
9.821239
 30
0.0
 10
5.904610
 20
9.821239
 30
0.0
 10
5.845069
 20
9.761698
 30
0.0
 10
5.845069
 20
9.688240
 30
0.0
  0
SPLINE
  5
13c
100
AcDbEntity
  8
Page_1
 62
7
100
AcDbSpline
 70
8
 71
3
 72
8
 73
4
 74
0
 40
0
 40
0
 40
0
 40
0
 40
1
 40
1
 40
1
 40
1
 10
5.845069
 20
9.688240
 30
0.0
 10
5.845069
 20
9.614782
 30
0.0
 10
5.904610
 20
9.555240
 30
0.0
 10
5.978068
 20
9.555240
 30
0.0
  0
SPLINE
  5
13d
100
AcDbEntity
  8
Page_1
 62
7
100
AcDbSpline
 70
8
 71
3
 72
8
 73
4
 74
0
 40
0
 40
0
 40
0
 40
0
 40
1
 40
1
 40
1
 40
1
 10
5.978068
 20
9.555240
 30
0.0
 10
6.051527
 20
9.555240
 30
0.0
 10
6.111068
 20
9.614782
 30
0.0
 10
6.111068
 20
9.688240
 30
0.0
  0
LWPOLYLINE
  5
13e
100
AcDbEntity
  8
Page_1
 62
7
100
AcDbPolyline
 90
1
 70
1
 10
6.111068
 20
10.688237
 30
0.0
  0
SPLINE
  5
13f
100
AcDbEntity
  8
Page_1
 62
7
100
AcDbSpline
 70
8
 71
3
 72
8
 73
4
 74
0
 40
0
 40
0
 40
0
 40
0
 40
1
 40
1
 40
1
 40
1
 10
6.111068
 20
8.688242
 30
0.0
 10
6.111068
 20
8.761700
 30
0.0
 10
6.051527
 20
8.821242
 30
0.0
 10
5.978068
 20
8.821242
 30
0.0
  0
SPLINE
  5
140
100
AcDbEntity
  8
Page_1
 62
7
100
AcDbSpline
 70
8
 71
3
 72
8
 73
4
 74
0
 40
0
 40
0
 40
0
 40
0
 40
1
 40
1
 40
1
 40
1
 10
5.978068
 20
8.821242
 30
0.0
 10
5.904610
 20
8.821242
 30
0.0
 10
5.845069
 20
8.761700
 30
0.0
 10
5.845069
 20
8.688242
 30
0.0
  0
SPLINE
  5
141
100
AcDbEntity
  8
Page_1
 62
7
100
AcDbSpline
 70
8
 71
3
 72
8
 73
4
 74
0
 40
0
 40
0
 40
0
 40
0
 40
1
 40
1
 40
1
 40
1
 10
5.845069
 20
8.688242
 30
0.0
 10
5.845069
 20
8.614784
 30
0.0
 10
5.904610
 20
8.555243
 30
0.0
 10
5.978068
 20
8.555243
 30
0.0
  0
SPLINE
  5
142
100
AcDbEntity
  8
Page_1
 62
7
100
AcDbSpline
 70
8
 71
3
 72
8
 73
4
 74
0
 40
0
 40
0
 40
0
 40
0
 40
1
 40
1
 40
1
 40
1
 10
5.978068
 20
8.555243
 30
0.0
 10
6.051527
 20
8.555243
 30
0.0
 10
6.111068
 20
8.614784
 30
0.0
 10
6.111068
 20
8.688242
 30
0.0
  0
LWPOLYLINE
  5
143
100
AcDbEntity
  8
Page_1
 62
7
100
AcDbPolyline
 90
1
 70
1
 10
6.111068
 20
9.688240
 30
0.0
  0
SPLINE
  5
144
100
AcDbEntity
  8
Page_1
 62
7
100
AcDbSpline
 70
8
 71
3
 72
8
 73
4
 74
0
 40
0
 40
0
 40
0
 40
0
 40
1
 40
1
 40
1
 40
1
 10
7.240232
 20
11.834582
 30
0.0
 10
7.212565
 20
11.859943
 30
0.0
 10
7.176399
 20
11.874012
 30
0.0
 10
7.138871
 20
11.874012
 30
0.0
  0
SPLINE
  5
145
100
AcDbEntity
  8
Page_1
 62
7
100
AcDbSpline
 70
8
 71
3
 72
8
 73
4
 74
0
 40
0
 40
0
 40
0
 40
0
 40
1
 40
1
 40
1
 40
1
 10
10.197225
 20
9.058019
 30
0.0
 10
10.197225
 20
9.100061
 30
0.0
 10
10.179572
 20
9.140185
 30
0.0
 10
10.148586
 20
9.168588
 30
0.0
  0
LWPOLYLINE
  5
146
100
AcDbEntity
  8
Page_1
 62
7
100
AcDbPolyline
 90
1
 70
1
 10
6.111068
 20
8.688242
 30
0.0
  0
LWPOLYLINE
  5
147
100
AcDbEntity
  8
Page_1
 62
7
100
AcDbPolyline
 90
2
 70
0
 10
7.138871
 20
11.873998
 30
0.0
 10
6.697219
 20
11.873998
 30
0.0
  0
LWPOLYLINE
  5
148
100
AcDbEntity
  8
Page_1
 62
7
100
AcDbPolyline
 90
2
 70
0
 10
10.148572
 20
9.168602
 30
0.0
 10
7.240232
 20
11.834582
 30
0.0
  0
LWPOLYLINE
  5
149
100
AcDbEntity
  8
Page_1
 62
7
100
AcDbPolyline
 90
2
 70
0
 10
10.197225
 20
8.624006
 30
0.0
 10
10.197225
 20
9.058019
 30
0.0
  0
LWPOLYLINE
  5
14a
100
AcDbEntity
  8
Page_1
 62
7
100
AcDbPolyline
 90
2
 70
0
 10
6.697233
 20
8.624006
 30
0.0
 10
10.197225
 20
8.624006
 30
0.0
  0
SPLINE
  5
14b
100
AcDbEntity
  8
Page_1
 62
7
100
AcDbSpline
 70
8
 71
3
 72
8
 73
4
 74
0
 40
0
 40
0
 40
0
 40
0
 40
1
 40
1
 40
1
 40
1
 10
11.344236
 20
8.670312
 30
0.0
 10
11.371902
 20
8.644951
 30
0.0
 10
11.408069
 20
8.630881
 30
0.0
 10
11.445596
 20
8.630881
 30
0.0
  0
SPLINE
  5
14c
100
AcDbEntity
  8
Page_1
 62
7
100
AcDbSpline
 70
8
 71
3
 72
8
 73
4
 74
0
 40
0
 40
0
 40
0
 40
0
 40
1
 40
1
 40
1
 40
1
 10
8.387257
 20
11.446860
 30
0.0
 10
8.387257
 20
11.404819
 30
0.0
 10
8.404910
 20
11.364694
 30
0.0
 10
8.435896
 20
11.336291
 30
0.0
  0
LWPOLYLINE
  5
14d
100
AcDbEntity
  8
Page_1
 62
7
100
AcDbPolyline
 90
2
 70
0
 10
6.697233
 20
11.873998
 30
0.0
 10
6.697233
 20
8.624006
 30
0.0
  0
LWPOLYLINE
  5
14e
100
AcDbEntity
  8
Page_1
 62
7
100
AcDbPolyline
 90
2
 70
0
 10
11.445596
 20
8.630881
 30
0.0
 10
11.887248
 20
8.630881
 30
0.0
  0
LWPOLYLINE
  5
14f
100
AcDbEntity
  8
Page_1
 62
7
100
AcDbPolyline
 90
2
 70
0
 10
8.435896
 20
11.336291
 30
0.0
 10
11.344236
 20
8.670312
 30
0.0
  0
LWPOLYLINE
  5
150
100
AcDbEntity
  8
Page_1
 62
7
100
AcDbPolyline
 90
2
 70
0
 10
8.387257
 20
11.880873
 30
0.0
 10
8.387257
 20
11.446860
 30
0.0
  0
LWPOLYLINE
  5
151
100
AcDbEntity
  8
Page_1
 62
7
100
AcDbPolyline
 90
2
 70
0
 10
11.887248
 20
11.880873
 30
0.0
 10
8.387257
 20
11.880873
 30
0.0
  0
LWPOLYLINE
  5
152
100
AcDbEntity
  8
Page_1
 62
7
100
AcDbPolyline
 90
2
 70
0
 10
11.887248
 20
8.630881
 30
0.0
 10
11.887248
 20
11.880873
 30
0.0
  0
SPLINE
  5
153
100
AcDbEntity
  8
Page_1
 62
7
100
AcDbSpline
 70
8
 71
3
 72
8
 73
4
 74
0
 40
0
 40
0
 40
0
 40
0
 40
1
 40
1
 40
1
 40
1
 10
4.934113
 20
3.521061
 30
0.0
 10
4.804682
 20
3.569144
 30
0.0
 10
4.660780
 20
3.503186
 30
0.0
 10
4.612711
 20
3.373769
 30
0.0
  0
LWPOLYLINE
  5
154
100
AcDbEntity
  8
Page_1
 62
7
100
AcDbPolyline
 90
2
 70
0
 10
4.535253
 20
3.165256
 30
0.0
 10
4.612711
 20
3.373769
 30
0.0
  0
SPLINE
  5
155
100
AcDbEntity
  8
Page_1
 62
7
100
AcDbSpline
 70
8
 71
3
 72
8
 73
4
 74
0
 40
0
 40
0
 40
0
 40
0
 40
1
 40
1
 40
1
 40
1
 10
5.548583
 20
3.083395
 30
0.0
 10
5.564875
 20
3.199645
 30
0.0
 10
5.498097
 20
3.311561
 30
0.0
 10
5.388056
 20
3.352436
 30
0.0
  0
SPLINE
  5
156
100
AcDbEntity
  8
Page_1
 62
7
100
AcDbSpline
 70
8
 71
3
 72
8
 73
4
 74
0
 40
0
 40
0
 40
0
 40
0
 40
1
 40
1
 40
1
 40
1
 10
5.548583
 20
3.083395
 30
0.0
 10
5.500445
 20
2.739854
 30
0.0
 10
5.694208
 20
2.408119
 30
0.0
 10
6.017082
 20
2.281272
 30
0.0
  0
SPLINE
  5
157
100
AcDbEntity
  8
Page_1
 62
7
100
AcDbSpline
 70
8
 71
3
 72
8
 73
4
 74
0
 40
0
 40
0
 40
0
 40
0
 40
1
 40
1
 40
1
 40
1
 10
6.017082
 20
2.281286
 30
0.0
 10
6.129693
 20
2.237050
 30
0.0
 10
6.249498
 20
2.213939
 30
0.0
 10
6.370484
 20
2.213147
 30
0.0
  0
LWPOLYLINE
  5
158
100
AcDbEntity
  8
Page_1
 62
7
100
AcDbPolyline
 90
2
 70
0
 10
4.934113
 20
3.521061
 30
0.0
 10
5.388056
 20
3.352436
 30
0.0
  0
LWPOLYLINE
  5
159
100
AcDbEntity
  8
Page_1
 62
7
100
AcDbPolyline
 90
2
 70
0
 10
9.715781
 20
2.191036
 30
0.0
 10
6.370498
 20
2.213133
 30
0.0
  0
LWPOLYLINE
  5
15a
100
AcDbEntity
  8
Page_1
 62
7
100
AcDbPolyline
 90
2
 70
0
 10
9.702573
 20
0.191091
 30
0.0
 10
9.715781
 20
2.191045
 30
0.0
  0
SPLINE
  5
15b
100
AcDbEntity
  8
Page_1
 62
7
100
AcDbSpline
 70
8
 71
3
 72
8
 73
4
 74
0
 40
0
 40
0
 40
0
 40
0
 40
1
 40
1
 40
1
 40
1
 10
4.224337
 20
1.393649
 30
0.0
 10
4.214698
 20
1.338747
 30
0.0
 10
4.209670
 20
1.283136
 30
0.0
 10
4.209309
 20
1.227400
 30
0.0
  0
SPLINE
  5
15c
100
AcDbEntity
  8
Page_1
 62
7
100
AcDbSpline
 70
8
 71
3
 72
8
 73
4
 74
0
 40
0
 40
0
 40
0
 40
0
 40
1
 40
1
 40
1
 40
1
 10
4.209309
 20
1.227400
 30
0.0
 10
4.205656
 20
0.675123
 30
0.0
 10
4.650405
 20
0.224458
 30
0.0
 10
5.202681
 20
0.220819
 30
0.0
  0
LWPOLYLINE
  5
15d
100
AcDbEntity
  8
Page_1
 62
7
100
AcDbPolyline
 90
2
 70
0
 10
5.202681
 20
0.220813
 30
0.0
 10
9.702573
 20
0.191091
 30
0.0
  0
SPLINE
  5
15e
100
AcDbEntity
  8
Page_1
 62
7
100
AcDbSpline
 70
8
 71
3
 72
8
 73
4
 74
0
 40
0
 40
0
 40
0
 40
0
 40
1
 40
1
 40
1
 40
1
 10
9.597129
 20
1.941815
 30
0.0
 10
9.597615
 20
2.015273
 30
0.0
 10
9.538462
 20
2.075203
 30
0.0
 10
9.465004
 20
2.075689
 30
0.0
  0
SPLINE
  5
15f
100
AcDbEntity
  8
Page_1
 62
7
100
AcDbSpline
 70
8
 71
3
 72
8
 73
4
 74
0
 40
0
 40
0
 40
0
 40
0
 40
1
 40
1
 40
1
 40
1
 10
9.465004
 20
2.075689
 30
0.0
 10
9.391560
 20
2.076175
 30
0.0
 10
9.331616
 20
2.017023
 30
0.0
 10
9.331129
 20
1.943565
 30
0.0
  0
SPLINE
  5
160
100
AcDbEntity
  8
Page_1
 62
7
100
AcDbSpline
 70
8
 71
3
 72
8
 73
4
 74
0
 40
0
 40
0
 40
0
 40
0
 40
1
 40
1
 40
1
 40
1
 10
9.331129
 20
1.943565
 30
0.0
 10
9.330643
 20
1.870120
 30
0.0
 10
9.389796
 20
1.810176
 30
0.0
 10
9.463254
 20
1.809690
 30
0.0
  0
SPLINE
  5
161
100
AcDbEntity
  8
Page_1
 62
7
100
AcDbSpline
 70
8
 71
3
 72
8
 73
4
 74
0
 40
0
 40
0
 40
0
 40
0
 40
1
 40
1
 40
1
 40
1
 10
9.463254
 20
1.809690
 30
0.0
 10
9.536712
 20
1.809218
 30
0.0
 10
9.596643
 20
1.868356
 30
0.0
 10
9.597129
 20
1.941815
 30
0.0
  0
LWPOLYLINE
  5
162
100
AcDbEntity
  8
Page_1
 62
7
100
AcDbPolyline
 90
2
 70
0
 10
4.535253
 20
3.165256
 30
0.0
 10
4.224337
 20
1.393649
 30
0.0
  0
SPLINE
  5
163
100
AcDbEntity
  8
Page_1
 62
7
100
AcDbSpline
 70
8
 71
3
 72
8
 73
4
 74
0
 40
0
 40
0
 40
0
 40
0
 40
1
 40
1
 40
1
 40
1
 10
9.587226
 20
0.441857
 30
0.0
 10
9.587712
 20
0.515315
 30
0.0
 10
9.528560
 20
0.575246
 30
0.0
 10
9.455101
 20
0.575732
 30
0.0
  0
SPLINE
  5
164
100
AcDbEntity
  8
Page_1
 62
7
100
AcDbSpline
 70
8
 71
3
 72
8
 73
4
 74
0
 40
0
 40
0
 40
0
 40
0
 40
1
 40
1
 40
1
 40
1
 10
9.455101
 20
0.575732
 30
0.0
 10
9.381657
 20
0.576218
 30
0.0
 10
9.321713
 20
0.517065
 30
0.0
 10
9.321227
 20
0.443607
 30
0.0
  0
SPLINE
  5
165
100
AcDbEntity
  8
Page_1
 62
7
100
AcDbSpline
 70
8
 71
3
 72
8
 73
4
 74
0
 40
0
 40
0
 40
0
 40
0
 40
1
 40
1
 40
1
 40
1
 10
9.321227
 20
0.443607
 30
0.0
 10
9.320741
 20
0.370163
 30
0.0
 10
9.379893
 20
0.310219
 30
0.0
 10
9.453351
 20
0.309733
 30
0.0
  0
SPLINE
  5
166
100
AcDbEntity
  8
Page_1
 62
7
100
AcDbSpline
 70
8
 71
3
 72
8
 73
4
 74
0
 40
0
 40
0
 40
0
 40
0
 40
1
 40
1
 40
1
 40
1
 10
9.453351
 20
0.309733
 30
0.0
 10
9.526810
 20
0.309260
 30
0.0
 10
9.586740
 20
0.368399
 30
0.0
 10
9.587226
 20
0.441857
 30
0.0
  0
LWPOLYLINE
  5
167
100
AcDbEntity
  8
Page_1
 62
7
100
AcDbPolyline
 90
1
 70
1
 10
9.597129
 20
1.941815
 30
0.0
  0
SPLINE
  5
168
100
AcDbEntity
  8
Page_1
 62
7
100
AcDbSpline
 70
8
 71
3
 72
8
 73
4
 74
0
 40
0
 40
0
 40
0
 40
0
 40
1
 40
1
 40
1
 40
1
 10
9.092186
 20
1.195141
 30
0.0
 10
9.092672
 20
1.268600
 30
0.0
 10
9.033519
 20
1.328530
 30
0.0
 10
8.960061
 20
1.329016
 30
0.0
  0
SPLINE
  5
169
100
AcDbEntity
  8
Page_1
 62
7
100
AcDbSpline
 70
8
 71
3
 72
8
 73
4
 74
0
 40
0
 40
0
 40
0
 40
0
 40
1
 40
1
 40
1
 40
1
 10
8.960061
 20
1.329016
 30
0.0
 10
8.886617
 20
1.329502
 30
0.0
 10
8.826672
 20
1.270350
 30
0.0
 10
8.826186
 20
1.196891
 30
0.0
  0
SPLINE
  5
16a
100
AcDbEntity
  8
Page_1
 62
7
100
AcDbSpline
 70
8
 71
3
 72
8
 73
4
 74
0
 40
0
 40
0
 40
0
 40
0
 40
1
 40
1
 40
1
 40
1
 10
8.826186
 20
1.196891
 30
0.0
 10
8.825700
 20
1.123447
 30
0.0
 10
8.884853
 20
1.063503
 30
0.0
 10
8.958311
 20
1.063017
 30
0.0
  0
SPLINE
  5
16b
100
AcDbEntity
  8
Page_1
 62
7
100
AcDbSpline
 70
8
 71
3
 72
8
 73
4
 74
0
 40
0
 40
0
 40
0
 40
0
 40
1
 40
1
 40
1
 40
1
 10
8.958311
 20
1.063017
 30
0.0
 10
9.031769
 20
1.062545
 30
0.0
 10
9.091699
 20
1.121683
 30
0.0
 10
9.092186
 20
1.195141
 30
0.0
  0
LWPOLYLINE
  5
16c
100
AcDbEntity
  8
Page_1
 62
7
100
AcDbPolyline
 90
1
 70
1
 10
9.587226
 20
0.441857
 30
0.0
  0
SPLINE
  5
16d
100
AcDbEntity
  8
Page_1
 62
7
100
AcDbSpline
 70
8
 71
3
 72
8
 73
4
 74
0
 40
0
 40
0
 40
0
 40
0
 40
1
 40
1
 40
1
 40
1
 10
5.771763
 20
1.217073
 30
0.0
 10
5.773819
 20
1.527725
 30
0.0
 10
5.523639
 20
1.781225
 30
0.0
 10
5.212987
 20
1.783280
 30
0.0
  0
SPLINE
  5
16e
100
AcDbEntity
  8
Page_1
 62
7
100
AcDbSpline
 70
8
 71
3
 72
8
 73
4
 74
0
 40
0
 40
0
 40
0
 40
0
 40
1
 40
1
 40
1
 40
1
 10
5.212987
 20
1.783280
 30
0.0
 10
4.902335
 20
1.785322
 30
0.0
 10
4.648849
 20
1.535156
 30
0.0
 10
4.646794
 20
1.224504
 30
0.0
  0
SPLINE
  5
16f
100
AcDbEntity
  8
Page_1
 62
7
100
AcDbSpline
 70
8
 71
3
 72
8
 73
4
 74
0
 40
0
 40
0
 40
0
 40
0
 40
1
 40
1
 40
1
 40
1
 10
4.646794
 20
1.224504
 30
0.0
 10
4.644738
 20
0.913852
 30
0.0
 10
4.894904
 20
0.660353
 30
0.0
 10
5.205556
 20
0.658297
 30
0.0
  0
SPLINE
  5
170
100
AcDbEntity
  8
Page_1
 62
7
100
AcDbSpline
 70
8
 71
3
 72
8
 73
4
 74
0
 40
0
 40
0
 40
0
 40
0
 40
1
 40
1
 40
1
 40
1
 10
5.205556
 20
0.658297
 30
0.0
 10
5.516208
 20
0.656255
 30
0.0
 10
5.769708
 20
0.906421
 30
0.0
 10
5.771763
 20
1.217073
 30
0.0
  0
LWPOLYLINE
  5
171
100
AcDbEntity
  8
Page_1
 62
7
100
AcDbPolyline
 90
1
 70
1
 10
9.092186
 20
1.195141
 30
0.0
  0
SPLINE
  5
172
100
AcDbEntity
  8
Page_1
 62
7
100
AcDbSpline
 70
8
 71
3
 72
8
 73
4
 74
0
 40
0
 40
0
 40
0
 40
0
 40
1
 40
1
 40
1
 40
1
 10
0.390306
 20
3.968823
 30
0.0
 10
0.390306
 20
3.941643
 30
0.0
 10
0.412334
 20
3.919615
 30
0.0
 10
0.439514
 20
3.919615
 30
0.0
  0
SPLINE
  5
173
100
AcDbEntity
  8
Page_1
 62
7
100
AcDbSpline
 70
8
 71
3
 72
8
 73
4
 74
0
 40
0
 40
0
 40
0
 40
0
 40
1
 40
1
 40
1
 40
1
 10
0.439514
 20
3.919615
 30
0.0
 10
0.466695
 20
3.919615
 30
0.0
 10
0.488736
 20
3.941643
 30
0.0
 10
0.488736
 20
3.968823
 30
0.0
  0
SPLINE
  5
174
100
AcDbEntity
  8
Page_1
 62
7
100
AcDbSpline
 70
8
 71
3
 72
8
 73
4
 74
0
 40
0
 40
0
 40
0
 40
0
 40
1
 40
1
 40
1
 40
1
 10
0.488736
 20
3.968823
 30
0.0
 10
0.488736
 20
3.996004
 30
0.0
 10
0.466695
 20
4.018032
 30
0.0
 10
0.439514
 20
4.018032
 30
0.0
  0
SPLINE
  5
175
100
AcDbEntity
  8
Page_1
 62
7
100
AcDbSpline
 70
8
 71
3
 72
8
 73
4
 74
0
 40
0
 40
0
 40
0
 40
0
 40
1
 40
1
 40
1
 40
1
 10
0.439514
 20
4.018032
 30
0.0
 10
0.412334
 20
4.018032
 30
0.0
 10
0.390306
 20
3.996004
 30
0.0
 10
0.390306
 20
3.968823
 30
0.0
  0
LWPOLYLINE
  5
176
100
AcDbEntity
  8
Page_1
 62
7
100
AcDbPolyline
 90
1
 70
1
 10
5.771763
 20
1.217073
 30
0.0
  0
SPLINE
  5
177
100
AcDbEntity
  8
Page_1
 62
7
100
AcDbSpline
 70
8
 71
3
 72
8
 73
4
 74
0
 40
0
 40
0
 40
0
 40
0
 40
1
 40
1
 40
1
 40
1
 10
2.028606
 20
2.821674
 30
0.0
 10
2.028606
 20
2.794493
 30
0.0
 10
2.050634
 20
2.772465
 30
0.0
 10
2.077814
 20
2.772465
 30
0.0
  0
SPLINE
  5
178
100
AcDbEntity
  8
Page_1
 62
7
100
AcDbSpline
 70
8
 71
3
 72
8
 73
4
 74
0
 40
0
 40
0
 40
0
 40
0
 40
1
 40
1
 40
1
 40
1
 10
2.077814
 20
2.772465
 30
0.0
 10
2.104995
 20
2.772465
 30
0.0
 10
2.127036
 20
2.794493
 30
0.0
 10
2.127036
 20
2.821674
 30
0.0
  0
SPLINE
  5
179
100
AcDbEntity
  8
Page_1
 62
7
100
AcDbSpline
 70
8
 71
3
 72
8
 73
4
 74
0
 40
0
 40
0
 40
0
 40
0
 40
1
 40
1
 40
1
 40
1
 10
2.127036
 20
2.821674
 30
0.0
 10
2.127036
 20
2.848854
 30
0.0
 10
2.104995
 20
2.870882
 30
0.0
 10
2.077814
 20
2.870882
 30
0.0
  0
SPLINE
  5
17a
100
AcDbEntity
  8
Page_1
 62
7
100
AcDbSpline
 70
8
 71
3
 72
8
 73
4
 74
0
 40
0
 40
0
 40
0
 40
0
 40
1
 40
1
 40
1
 40
1
 10
2.077814
 20
2.870882
 30
0.0
 10
2.050634
 20
2.870882
 30
0.0
 10
2.028606
 20
2.848854
 30
0.0
 10
2.028606
 20
2.821674
 30
0.0
  0
LWPOLYLINE
  5
17b
100
AcDbEntity
  8
Page_1
 62
7
100
AcDbPolyline
 90
1
 70
1
 10
0.390306
 20
3.968823
 30
0.0
  0
LWPOLYLINE
  5
17c
100
AcDbEntity
  8
Page_1
 62
7
100
AcDbPolyline
 90
1
 70
1
 10
2.028606
 20
2.821674
 30
0.0
  0
SPLINE
  5
17d
100
AcDbEntity
  8
Page_1
 62
7
100
AcDbSpline
 70
8
 71
3
 72
8
 73
4
 74
0
 40
0
 40
0
 40
0
 40
0
 40
1
 40
1
 40
1
 40
1
 10
2.316244
 20
2.395258
 30
0.0
 10
2.330828
 20
2.395258
 30
0.0
 10
2.345300
 20
2.397813
 30
0.0
 10
2.358994
 20
2.402800
 30
0.0
  0
LWPOLYLINE
  5
17e
100
AcDbEntity
  8
Page_1
 62
7
100
AcDbPolyline
 90
2
 70
0
 10
1.258669
 20
2.395258
 30
0.0
 10
2.316236
 20
2.395258
 30
0.0
  0
SPLINE
  5
17f
100
AcDbEntity
  8
Page_1
 62
7
100
AcDbSpline
 70
8
 71
3
 72
8
 73
4
 74
0
 40
0
 40
0
 40
0
 40
0
 40
1
 40
1
 40
1
 40
1
 10
3.525116
 20
2.827229
 30
0.0
 10
3.589991
 20
2.850840
 30
0.0
 10
3.623435
 20
2.922576
 30
0.0
 10
3.599824
 20
2.987437
 30
0.0
  0
LWPOLYLINE
  5
180
100
AcDbEntity
  8
Page_1
 62
7
100
AcDbPolyline
 90
2
 70
0
 10
3.525116
 20
2.827229
 30
0.0
 10
2.358994
 20
2.402800
 30
0.0
  0
SPLINE
  5
181
100
AcDbEntity
  8
Page_1
 62
7
100
AcDbSpline
 70
8
 71
3
 72
8
 73
4
 74
0
 40
0
 40
0
 40
0
 40
0
 40
1
 40
1
 40
1
 40
1
 10
3.347103
 20
3.681824
 30
0.0
 10
3.325200
 20
3.741991
 30
0.0
 10
3.261381
 20
3.775879
 30
0.0
 10
3.199270
 20
3.760324
 30
0.0
  0
SPLINE
  5
182
100
AcDbEntity
  8
Page_1
 62
7
100
AcDbSpline
 70
8
 71
3
 72
8
 73
4
 74
0
 40
0
 40
0
 40
0
 40
0
 40
1
 40
1
 40
1
 40
1
 10
2.293814
 20
4.289225
 30
0.0
 10
2.401758
 20
3.896171
 30
0.0
 10
2.803868
 20
3.661283
 30
0.0
 10
3.199270
 20
3.760324
 30
0.0
  0
SPLINE
  5
183
100
AcDbEntity
  8
Page_1
 62
7
100
AcDbSpline
 70
8
 71
3
 72
8
 73
4
 74
0
 40
0
 40
0
 40
0
 40
0
 40
1
 40
1
 40
1
 40
1
 10
2.258661
 20
4.549878
 30
0.0
 10
2.258661
 20
4.461808
 30
0.0
 10
2.270480
 20
4.374142
 30
0.0
 10
2.293800
 20
4.289225
 30
0.0
  0
LWPOLYLINE
  5
184
100
AcDbEntity
  8
Page_1
 62
7
100
AcDbPolyline
 90
2
 70
0
 10
3.347103
 20
3.681824
 30
0.0
 10
3.599838
 20
2.987437
 30
0.0
  0
SPLINE
  5
185
100
AcDbEntity
  8
Page_1
 62
7
100
AcDbSpline
 70
8
 71
3
 72
8
 73
4
 74
0
 40
0
 40
0
 40
0
 40
0
 40
1
 40
1
 40
1
 40
1
 10
0.258670
 20
3.395255
 30
0.0
 10
0.258670
 20
2.842979
 30
0.0
 10
0.706391
 20
2.395258
 30
0.0
 10
1.258668
 20
2.395258
 30
0.0
  0
SPLINE
  5
186
100
AcDbEntity
  8
Page_1
 62
7
100
AcDbSpline
 70
8
 71
3
 72
8
 73
4
 74
0
 40
0
 40
0
 40
0
 40
0
 40
1
 40
1
 40
1
 40
1
 10
1.875662
 20
7.645245
 30
0.0
 10
1.875662
 20
7.571787
 30
0.0
 10
1.935203
 20
7.512245
 30
0.0
 10
2.008662
 20
7.512245
 30
0.0
  0
SPLINE
  5
187
100
AcDbEntity
  8
Page_1
 62
7
100
AcDbSpline
 70
8
 71
3
 72
8
 73
4
 74
0
 40
0
 40
0
 40
0
 40
0
 40
1
 40
1
 40
1
 40
1
 10
2.008662
 20
7.512245
 30
0.0
 10
2.082120
 20
7.512245
 30
0.0
 10
2.141661
 20
7.571787
 30
0.0
 10
2.141661
 20
7.645245
 30
0.0
  0
SPLINE
  5
188
100
AcDbEntity
  8
Page_1
 62
7
100
AcDbSpline
 70
8
 71
3
 72
8
 73
4
 74
0
 40
0
 40
0
 40
0
 40
0
 40
1
 40
1
 40
1
 40
1
 10
2.141661
 20
7.645245
 30
0.0
 10
2.141661
 20
7.718703
 30
0.0
 10
2.082120
 20
7.778244
 30
0.0
 10
2.008662
 20
7.778244
 30
0.0
  0
SPLINE
  5
189
100
AcDbEntity
  8
Page_1
 62
7
100
AcDbSpline
 70
8
 71
3
 72
8
 73
4
 74
0
 40
0
 40
0
 40
0
 40
0
 40
1
 40
1
 40
1
 40
1
 10
2.008662
 20
7.778244
 30
0.0
 10
1.935203
 20
7.778244
 30
0.0
 10
1.875662
 20
7.718703
 30
0.0
 10
1.875662
 20
7.645245
 30
0.0
  0
LWPOLYLINE
  5
18a
100
AcDbEntity
  8
Page_1
 62
7
100
AcDbPolyline
 90
4
 70
0
 10
2.258661
 20
4.549878
 30
0.0
 10
2.258661
 20
7.895230
 30
0.0
 10
0.258666
 20
7.895244
 30
0.0
 10
0.258670
 20
3.395255
 30
0.0
  0
SPLINE
  5
18b
100
AcDbEntity
  8
Page_1
 62
7
100
AcDbSpline
 70
8
 71
3
 72
8
 73
4
 74
0
 40
0
 40
0
 40
0
 40
0
 40
1
 40
1
 40
1
 40
1
 10
0.375671
 20
7.645245
 30
0.0
 10
0.375671
 20
7.571787
 30
0.0
 10
0.435213
 20
7.512245
 30
0.0
 10
0.508671
 20
7.512245
 30
0.0
  0
SPLINE
  5
18c
100
AcDbEntity
  8
Page_1
 62
7
100
AcDbSpline
 70
8
 71
3
 72
8
 73
4
 74
0
 40
0
 40
0
 40
0
 40
0
 40
1
 40
1
 40
1
 40
1
 10
0.508671
 20
7.512245
 30
0.0
 10
0.582129
 20
7.512245
 30
0.0
 10
0.641671
 20
7.571787
 30
0.0
 10
0.641671
 20
7.645245
 30
0.0
  0
SPLINE
  5
18d
100
AcDbEntity
  8
Page_1
 62
7
100
AcDbSpline
 70
8
 71
3
 72
8
 73
4
 74
0
 40
0
 40
0
 40
0
 40
0
 40
1
 40
1
 40
1
 40
1
 10
0.641671
 20
7.645245
 30
0.0
 10
0.641671
 20
7.718703
 30
0.0
 10
0.582129
 20
7.778244
 30
0.0
 10
0.508671
 20
7.778244
 30
0.0
  0
SPLINE
  5
18e
100
AcDbEntity
  8
Page_1
 62
7
100
AcDbSpline
 70
8
 71
3
 72
8
 73
4
 74
0
 40
0
 40
0
 40
0
 40
0
 40
1
 40
1
 40
1
 40
1
 10
0.508671
 20
7.778244
 30
0.0
 10
0.435213
 20
7.778244
 30
0.0
 10
0.375671
 20
7.718703
 30
0.0
 10
0.375671
 20
7.645245
 30
0.0
  0
LWPOLYLINE
  5
18f
100
AcDbEntity
  8
Page_1
 62
7
100
AcDbPolyline
 90
1
 70
1
 10
1.875662
 20
7.645245
 30
0.0
  0
SPLINE
  5
190
100
AcDbEntity
  8
Page_1
 62
7
100
AcDbSpline
 70
8
 71
3
 72
8
 73
4
 74
0
 40
0
 40
0
 40
0
 40
0
 40
1
 40
1
 40
1
 40
1
 10
1.125669
 20
7.145246
 30
0.0
 10
1.125669
 20
7.071788
 30
0.0
 10
1.185211
 20
7.012246
 30
0.0
 10
1.258669
 20
7.012246
 30
0.0
  0
SPLINE
  5
191
100
AcDbEntity
  8
Page_1
 62
7
100
AcDbSpline
 70
8
 71
3
 72
8
 73
4
 74
0
 40
0
 40
0
 40
0
 40
0
 40
1
 40
1
 40
1
 40
1
 10
1.258669
 20
7.012246
 30
0.0
 10
1.332127
 20
7.012246
 30
0.0
 10
1.391669
 20
7.071788
 30
0.0
 10
1.391669
 20
7.145246
 30
0.0
  0
SPLINE
  5
192
100
AcDbEntity
  8
Page_1
 62
7
100
AcDbSpline
 70
8
 71
3
 72
8
 73
4
 74
0
 40
0
 40
0
 40
0
 40
0
 40
1
 40
1
 40
1
 40
1
 10
1.391669
 20
7.145246
 30
0.0
 10
1.391669
 20
7.218704
 30
0.0
 10
1.332127
 20
7.278246
 30
0.0
 10
1.258669
 20
7.278246
 30
0.0
  0
SPLINE
  5
193
100
AcDbEntity
  8
Page_1
 62
7
100
AcDbSpline
 70
8
 71
3
 72
8
 73
4
 74
0
 40
0
 40
0
 40
0
 40
0
 40
1
 40
1
 40
1
 40
1
 10
1.258669
 20
7.278246
 30
0.0
 10
1.185211
 20
7.278246
 30
0.0
 10
1.125669
 20
7.218704
 30
0.0
 10
1.125669
 20
7.145246
 30
0.0
  0
LWPOLYLINE
  5
194
100
AcDbEntity
  8
Page_1
 62
7
100
AcDbPolyline
 90
1
 70
1
 10
0.375671
 20
7.645245
 30
0.0
  0
SPLINE
  5
195
100
AcDbEntity
  8
Page_1
 62
7
100
AcDbSpline
 70
8
 71
3
 72
8
 73
4
 74
0
 40
0
 40
0
 40
0
 40
0
 40
1
 40
1
 40
1
 40
1
 10
0.696169
 20
3.395255
 30
0.0
 10
0.696169
 20
3.084590
 30
0.0
 10
0.948002
 20
2.832757
 30
0.0
 10
1.258668
 20
2.832757
 30
0.0
  0
SPLINE
  5
196
100
AcDbEntity
  8
Page_1
 62
7
100
AcDbSpline
 70
8
 71
3
 72
8
 73
4
 74
0
 40
0
 40
0
 40
0
 40
0
 40
1
 40
1
 40
1
 40
1
 10
1.258668
 20
2.832757
 30
0.0
 10
1.569334
 20
2.832757
 30
0.0
 10
1.821166
 20
3.084590
 30
0.0
 10
1.821166
 20
3.395255
 30
0.0
  0
SPLINE
  5
197
100
AcDbEntity
  8
Page_1
 62
7
100
AcDbSpline
 70
8
 71
3
 72
8
 73
4
 74
0
 40
0
 40
0
 40
0
 40
0
 40
1
 40
1
 40
1
 40
1
 10
1.821166
 20
3.395255
 30
0.0
 10
1.821166
 20
3.705921
 30
0.0
 10
1.569334
 20
3.957754
 30
0.0
 10
1.258668
 20
3.957754
 30
0.0
  0
SPLINE
  5
198
100
AcDbEntity
  8
Page_1
 62
7
100
AcDbSpline
 70
8
 71
3
 72
8
 73
4
 74
0
 40
0
 40
0
 40
0
 40
0
 40
1
 40
1
 40
1
 40
1
 10
1.258668
 20
3.957754
 30
0.0
 10
0.948002
 20
3.957754
 30
0.0
 10
0.696169
 20
3.705921
 30
0.0
 10
0.696169
 20
3.395255
 30
0.0
  0
LWPOLYLINE
  5
199
100
AcDbEntity
  8
Page_1
 62
7
100
AcDbPolyline
 90
1
 70
1
 10
1.125669
 20
7.145246
 30
0.0
  0
SPLINE
  5
19a
100
AcDbEntity
  8
Page_1
 62
7
100
AcDbSpline
 70
8
 71
3
 72
8
 73
4
 74
0
 40
0
 40
0
 40
0
 40
0
 40
1
 40
1
 40
1
 40
1
 10
11.206944
 20
2.759160
 30
0.0
 10
11.206944
 20
2.685702
 30
0.0
 10
11.266486
 20
2.626160
 30
0.0
 10
11.339944
 20
2.626160
 30
0.0
  0
SPLINE
  5
19b
100
AcDbEntity
  8
Page_1
 62
7
100
AcDbSpline
 70
8
 71
3
 72
8
 73
4
 74
0
 40
0
 40
0
 40
0
 40
0
 40
1
 40
1
 40
1
 40
1
 10
11.339944
 20
2.626160
 30
0.0
 10
11.413402
 20
2.626160
 30
0.0
 10
11.472944
 20
2.685702
 30
0.0
 10
11.472944
 20
2.759160
 30
0.0
  0
SPLINE
  5
19c
100
AcDbEntity
  8
Page_1
 62
7
100
AcDbSpline
 70
8
 71
3
 72
8
 73
4
 74
0
 40
0
 40
0
 40
0
 40
0
 40
1
 40
1
 40
1
 40
1
 10
11.472944
 20
2.759160
 30
0.0
 10
11.472944
 20
2.832618
 30
0.0
 10
11.413402
 20
2.892159
 30
0.0
 10
11.339944
 20
2.892159
 30
0.0
  0
SPLINE
  5
19d
100
AcDbEntity
  8
Page_1
 62
7
100
AcDbSpline
 70
8
 71
3
 72
8
 73
4
 74
0
 40
0
 40
0
 40
0
 40
0
 40
1
 40
1
 40
1
 40
1
 10
11.339944
 20
2.892159
 30
0.0
 10
11.266486
 20
2.892159
 30
0.0
 10
11.206944
 20
2.832618
 30
0.0
 10
11.206944
 20
2.759160
 30
0.0
  0
LWPOLYLINE
  5
19e
100
AcDbEntity
  8
Page_1
 62
7
100
AcDbPolyline
 90
1
 70
1
 10
0.696169
 20
3.395255
 30
0.0
  0
SPLINE
  5
19f
100
AcDbEntity
  8
Page_1
 62
7
100
AcDbSpline
 70
8
 71
3
 72
8
 73
4
 74
0
 40
0
 40
0
 40
0
 40
0
 40
1
 40
1
 40
1
 40
1
 10
11.206944
 20
8.254035
 30
0.0
 10
11.206944
 20
8.180577
 30
0.0
 10
11.266486
 20
8.121035
 30
0.0
 10
11.339944
 20
8.121035
 30
0.0
  0
SPLINE
  5
1a0
100
AcDbEntity
  8
Page_1
 62
7
100
AcDbSpline
 70
8
 71
3
 72
8
 73
4
 74
0
 40
0
 40
0
 40
0
 40
0
 40
1
 40
1
 40
1
 40
1
 10
11.339944
 20
8.121035
 30
0.0
 10
11.413402
 20
8.121035
 30
0.0
 10
11.472944
 20
8.180577
 30
0.0
 10
11.472944
 20
8.254035
 30
0.0
  0
SPLINE
  5
1a1
100
AcDbEntity
  8
Page_1
 62
7
100
AcDbSpline
 70
8
 71
3
 72
8
 73
4
 74
0
 40
0
 40
0
 40
0
 40
0
 40
1
 40
1
 40
1
 40
1
 10
11.472944
 20
8.254035
 30
0.0
 10
11.472944
 20
8.327493
 30
0.0
 10
11.413402
 20
8.387035
 30
0.0
 10
11.339944
 20
8.387035
 30
0.0
  0
SPLINE
  5
1a2
100
AcDbEntity
  8
Page_1
 62
7
100
AcDbSpline
 70
8
 71
3
 72
8
 73
4
 74
0
 40
0
 40
0
 40
0
 40
0
 40
1
 40
1
 40
1
 40
1
 10
11.339944
 20
8.387035
 30
0.0
 10
11.266486
 20
8.387035
 30
0.0
 10
11.206944
 20
8.327493
 30
0.0
 10
11.206944
 20
8.254035
 30
0.0
  0
LWPOLYLINE
  5
1a3
100
AcDbEntity
  8
Page_1
 62
7
100
AcDbPolyline
 90
1
 70
1
 10
11.206944
 20
2.759160
 30
0.0
  0
SPLINE
  5
1a4
100
AcDbEntity
  8
Page_1
 62
7
100
AcDbSpline
 70
8
 71
3
 72
8
 73
4
 74
0
 40
0
 40
0
 40
0
 40
0
 40
1
 40
1
 40
1
 40
1
 10
9.956947
 20
8.254035
 30
0.0
 10
9.956947
 20
8.180577
 30
0.0
 10
10.016489
 20
8.121035
 30
0.0
 10
10.089947
 20
8.121035
 30
0.0
  0
SPLINE
  5
1a5
100
AcDbEntity
  8
Page_1
 62
7
100
AcDbSpline
 70
8
 71
3
 72
8
 73
4
 74
0
 40
0
 40
0
 40
0
 40
0
 40
1
 40
1
 40
1
 40
1
 10
10.089947
 20
8.121035
 30
0.0
 10
10.163405
 20
8.121035
 30
0.0
 10
10.222947
 20
8.180577
 30
0.0
 10
10.222947
 20
8.254035
 30
0.0
  0
SPLINE
  5
1a6
100
AcDbEntity
  8
Page_1
 62
7
100
AcDbSpline
 70
8
 71
3
 72
8
 73
4
 74
0
 40
0
 40
0
 40
0
 40
0
 40
1
 40
1
 40
1
 40
1
 10
10.222947
 20
8.254035
 30
0.0
 10
10.222947
 20
8.327493
 30
0.0
 10
10.163405
 20
8.387035
 30
0.0
 10
10.089947
 20
8.387035
 30
0.0
  0
SPLINE
  5
1a7
100
AcDbEntity
  8
Page_1
 62
7
100
AcDbSpline
 70
8
 71
3
 72
8
 73
4
 74
0
 40
0
 40
0
 40
0
 40
0
 40
1
 40
1
 40
1
 40
1
 10
10.089947
 20
8.387035
 30
0.0
 10
10.016489
 20
8.387035
 30
0.0
 10
9.956947
 20
8.327493
 30
0.0
 10
9.956947
 20
8.254035
 30
0.0
  0
LWPOLYLINE
  5
1a8
100
AcDbEntity
  8
Page_1
 62
7
100
AcDbPolyline
 90
1
 70
1
 10
11.206944
 20
8.254035
 30
0.0
  0
SPLINE
  5
1a9
100
AcDbEntity
  8
Page_1
 62
7
100
AcDbSpline
 70
8
 71
3
 72
8
 73
4
 74
0
 40
0
 40
0
 40
0
 40
0
 40
1
 40
1
 40
1
 40
1
 10
8.706950
 20
8.254035
 30
0.0
 10
8.706950
 20
8.180577
 30
0.0
 10
8.766492
 20
8.121035
 30
0.0
 10
8.839950
 20
8.121035
 30
0.0
  0
SPLINE
  5
1aa
100
AcDbEntity
  8
Page_1
 62
7
100
AcDbSpline
 70
8
 71
3
 72
8
 73
4
 74
0
 40
0
 40
0
 40
0
 40
0
 40
1
 40
1
 40
1
 40
1
 10
8.839950
 20
8.121035
 30
0.0
 10
8.913408
 20
8.121035
 30
0.0
 10
8.972950
 20
8.180577
 30
0.0
 10
8.972950
 20
8.254035
 30
0.0
  0
SPLINE
  5
1ab
100
AcDbEntity
  8
Page_1
 62
7
100
AcDbSpline
 70
8
 71
3
 72
8
 73
4
 74
0
 40
0
 40
0
 40
0
 40
0
 40
1
 40
1
 40
1
 40
1
 10
8.972950
 20
8.254035
 30
0.0
 10
8.972950
 20
8.327493
 30
0.0
 10
8.913408
 20
8.387035
 30
0.0
 10
8.839950
 20
8.387035
 30
0.0
  0
SPLINE
  5
1ac
100
AcDbEntity
  8
Page_1
 62
7
100
AcDbSpline
 70
8
 71
3
 72
8
 73
4
 74
0
 40
0
 40
0
 40
0
 40
0
 40
1
 40
1
 40
1
 40
1
 10
8.839950
 20
8.387035
 30
0.0
 10
8.766492
 20
8.387035
 30
0.0
 10
8.706950
 20
8.327493
 30
0.0
 10
8.706950
 20
8.254035
 30
0.0
  0
LWPOLYLINE
  5
1ad
100
AcDbEntity
  8
Page_1
 62
7
100
AcDbPolyline
 90
1
 70
1
 10
9.956947
 20
8.254035
 30
0.0
  0
SPLINE
  5
1ae
100
AcDbEntity
  8
Page_1
 62
7
100
AcDbSpline
 70
8
 71
3
 72
8
 73
4
 74
0
 40
0
 40
0
 40
0
 40
0
 40
1
 40
1
 40
1
 40
1
 10
3.989462
 20
4.306600
 30
0.0
 10
3.989462
 20
4.251100
 30
0.0
 10
4.034462
 20
4.206101
 30
0.0
 10
4.089962
 20
4.206101
 30
0.0
  0
SPLINE
  5
1af
100
AcDbEntity
  8
Page_1
 62
7
100
AcDbSpline
 70
8
 71
3
 72
8
 73
4
 74
0
 40
0
 40
0
 40
0
 40
0
 40
1
 40
1
 40
1
 40
1
 10
4.089962
 20
4.206101
 30
0.0
 10
4.145462
 20
4.206101
 30
0.0
 10
4.190462
 20
4.251100
 30
0.0
 10
4.190462
 20
4.306600
 30
0.0
  0
SPLINE
  5
1b0
100
AcDbEntity
  8
Page_1
 62
7
100
AcDbSpline
 70
8
 71
3
 72
8
 73
4
 74
0
 40
0
 40
0
 40
0
 40
0
 40
1
 40
1
 40
1
 40
1
 10
4.190462
 20
4.306600
 30
0.0
 10
4.190462
 20
4.362100
 30
0.0
 10
4.145462
 20
4.407100
 30
0.0
 10
4.089962
 20
4.407100
 30
0.0
  0
SPLINE
  5
1b1
100
AcDbEntity
  8
Page_1
 62
7
100
AcDbSpline
 70
8
 71
3
 72
8
 73
4
 74
0
 40
0
 40
0
 40
0
 40
0
 40
1
 40
1
 40
1
 40
1
 10
4.089962
 20
4.407100
 30
0.0
 10
4.034462
 20
4.407100
 30
0.0
 10
3.989462
 20
4.362100
 30
0.0
 10
3.989462
 20
4.306600
 30
0.0
  0
LWPOLYLINE
  5
1b2
100
AcDbEntity
  8
Page_1
 62
7
100
AcDbPolyline
 90
1
 70
1
 10
8.706950
 20
8.254035
 30
0.0
  0
SPLINE
  5
1b3
100
AcDbEntity
  8
Page_1
 62
7
100
AcDbSpline
 70
8
 71
3
 72
8
 73
4
 74
0
 40
0
 40
0
 40
0
 40
0
 40
1
 40
1
 40
1
 40
1
 10
5.489458
 20
4.306600
 30
0.0
 10
5.489458
 20
4.251100
 30
0.0
 10
5.534458
 20
4.206101
 30
0.0
 10
5.589958
 20
4.206101
 30
0.0
  0
SPLINE
  5
1b4
100
AcDbEntity
  8
Page_1
 62
7
100
AcDbSpline
 70
8
 71
3
 72
8
 73
4
 74
0
 40
0
 40
0
 40
0
 40
0
 40
1
 40
1
 40
1
 40
1
 10
5.589958
 20
4.206101
 30
0.0
 10
5.645458
 20
4.206101
 30
0.0
 10
5.690458
 20
4.251100
 30
0.0
 10
5.690458
 20
4.306600
 30
0.0
  0
SPLINE
  5
1b5
100
AcDbEntity
  8
Page_1
 62
7
100
AcDbSpline
 70
8
 71
3
 72
8
 73
4
 74
0
 40
0
 40
0
 40
0
 40
0
 40
1
 40
1
 40
1
 40
1
 10
5.690458
 20
4.306600
 30
0.0
 10
5.690458
 20
4.362100
 30
0.0
 10
5.645458
 20
4.407100
 30
0.0
 10
5.589958
 20
4.407100
 30
0.0
  0
SPLINE
  5
1b6
100
AcDbEntity
  8
Page_1
 62
7
100
AcDbSpline
 70
8
 71
3
 72
8
 73
4
 74
0
 40
0
 40
0
 40
0
 40
0
 40
1
 40
1
 40
1
 40
1
 10
5.589958
 20
4.407100
 30
0.0
 10
5.534458
 20
4.407100
 30
0.0
 10
5.489458
 20
4.362100
 30
0.0
 10
5.489458
 20
4.306600
 30
0.0
  0
LWPOLYLINE
  5
1b7
100
AcDbEntity
  8
Page_1
 62
7
100
AcDbPolyline
 90
1
 70
1
 10
3.989462
 20
4.306600
 30
0.0
  0
SPLINE
  5
1b8
100
AcDbEntity
  8
Page_1
 62
7
100
AcDbSpline
 70
8
 71
3
 72
8
 73
4
 74
0
 40
0
 40
0
 40
0
 40
0
 40
1
 40
1
 40
1
 40
1
 10
6.962524
 20
5.506597
 30
0.0
 10
6.962524
 20
5.195931
 30
0.0
 10
7.214357
 20
4.944099
 30
0.0
 10
7.525023
 20
4.944099
 30
0.0
  0
SPLINE
  5
1b9
100
AcDbEntity
  8
Page_1
 62
7
100
AcDbSpline
 70
8
 71
3
 72
8
 73
4
 74
0
 40
0
 40
0
 40
0
 40
0
 40
1
 40
1
 40
1
 40
1
 10
7.525023
 20
4.944099
 30
0.0
 10
7.835689
 20
4.944099
 30
0.0
 10
8.087521
 20
5.195931
 30
0.0
 10
8.087521
 20
5.506597
 30
0.0
  0
SPLINE
  5
1ba
100
AcDbEntity
  8
Page_1
 62
7
100
AcDbSpline
 70
8
 71
3
 72
8
 73
4
 74
0
 40
0
 40
0
 40
0
 40
0
 40
1
 40
1
 40
1
 40
1
 10
8.087521
 20
5.506597
 30
0.0
 10
8.087521
 20
5.817263
 30
0.0
 10
7.835689
 20
6.069096
 30
0.0
 10
7.525023
 20
6.069096
 30
0.0
  0
SPLINE
  5
1bb
100
AcDbEntity
  8
Page_1
 62
7
100
AcDbSpline
 70
8
 71
3
 72
8
 73
4
 74
0
 40
0
 40
0
 40
0
 40
0
 40
1
 40
1
 40
1
 40
1
 10
7.525023
 20
6.069096
 30
0.0
 10
7.214357
 20
6.069096
 30
0.0
 10
6.962524
 20
5.817263
 30
0.0
 10
6.962524
 20
5.506597
 30
0.0
  0
LWPOLYLINE
  5
1bc
100
AcDbEntity
  8
Page_1
 62
7
100
AcDbPolyline
 90
1
 70
1
 10
5.489458
 20
4.306600
 30
0.0
  0
SPLINE
  5
1bd
100
AcDbEntity
  8
Page_1
 62
7
100
AcDbSpline
 70
8
 71
3
 72
8
 73
4
 74
0
 40
0
 40
0
 40
0
 40
0
 40
1
 40
1
 40
1
 40
1
 10
5.489458
 20
6.706594
 30
0.0
 10
5.489458
 20
6.651094
 30
0.0
 10
5.534458
 20
6.606095
 30
0.0
 10
5.589958
 20
6.606095
 30
0.0
  0
SPLINE
  5
1be
100
AcDbEntity
  8
Page_1
 62
7
100
AcDbSpline
 70
8
 71
3
 72
8
 73
4
 74
0
 40
0
 40
0
 40
0
 40
0
 40
1
 40
1
 40
1
 40
1
 10
5.589958
 20
6.606095
 30
0.0
 10
5.645458
 20
6.606095
 30
0.0
 10
5.690458
 20
6.651094
 30
0.0
 10
5.690458
 20
6.706594
 30
0.0
  0
SPLINE
  5
1bf
100
AcDbEntity
  8
Page_1
 62
7
100
AcDbSpline
 70
8
 71
3
 72
8
 73
4
 74
0
 40
0
 40
0
 40
0
 40
0
 40
1
 40
1
 40
1
 40
1
 10
5.690458
 20
6.706594
 30
0.0
 10
5.690458
 20
6.762094
 30
0.0
 10
5.645458
 20
6.807094
 30
0.0
 10
5.589958
 20
6.807094
 30
0.0
  0
SPLINE
  5
1c0
100
AcDbEntity
  8
Page_1
 62
7
100
AcDbSpline
 70
8
 71
3
 72
8
 73
4
 74
0
 40
0
 40
0
 40
0
 40
0
 40
1
 40
1
 40
1
 40
1
 10
5.589958
 20
6.807094
 30
0.0
 10
5.534458
 20
6.807094
 30
0.0
 10
5.489458
 20
6.762094
 30
0.0
 10
5.489458
 20
6.706594
 30
0.0
  0
LWPOLYLINE
  5
1c1
100
AcDbEntity
  8
Page_1
 62
7
100
AcDbPolyline
 90
1
 70
1
 10
6.962524
 20
5.506597
 30
0.0
  0
SPLINE
  5
1c2
100
AcDbEntity
  8
Page_1
 62
7
100
AcDbSpline
 70
8
 71
3
 72
8
 73
4
 74
0
 40
0
 40
0
 40
0
 40
0
 40
1
 40
1
 40
1
 40
1
 10
3.989462
 20
6.706594
 30
0.0
 10
3.989462
 20
6.651094
 30
0.0
 10
4.034462
 20
6.606095
 30
0.0
 10
4.089962
 20
6.606095
 30
0.0
  0
SPLINE
  5
1c3
100
AcDbEntity
  8
Page_1
 62
7
100
AcDbSpline
 70
8
 71
3
 72
8
 73
4
 74
0
 40
0
 40
0
 40
0
 40
0
 40
1
 40
1
 40
1
 40
1
 10
4.089962
 20
6.606095
 30
0.0
 10
4.145462
 20
6.606095
 30
0.0
 10
4.190462
 20
6.651094
 30
0.0
 10
4.190462
 20
6.706594
 30
0.0
  0
SPLINE
  5
1c4
100
AcDbEntity
  8
Page_1
 62
7
100
AcDbSpline
 70
8
 71
3
 72
8
 73
4
 74
0
 40
0
 40
0
 40
0
 40
0
 40
1
 40
1
 40
1
 40
1
 10
4.190462
 20
6.706594
 30
0.0
 10
4.190462
 20
6.762094
 30
0.0
 10
4.145462
 20
6.807094
 30
0.0
 10
4.089962
 20
6.807094
 30
0.0
  0
SPLINE
  5
1c5
100
AcDbEntity
  8
Page_1
 62
7
100
AcDbSpline
 70
8
 71
3
 72
8
 73
4
 74
0
 40
0
 40
0
 40
0
 40
0
 40
1
 40
1
 40
1
 40
1
 10
4.089962
 20
6.807094
 30
0.0
 10
4.034462
 20
6.807094
 30
0.0
 10
3.989462
 20
6.762094
 30
0.0
 10
3.989462
 20
6.706594
 30
0.0
  0
LWPOLYLINE
  5
1c6
100
AcDbEntity
  8
Page_1
 62
7
100
AcDbPolyline
 90
1
 70
1
 10
5.489458
 20
6.706594
 30
0.0
  0
LWPOLYLINE
  5
1c7
100
AcDbEntity
  8
Page_1
 62
7
100
AcDbPolyline
 90
1
 70
1
 10
3.989462
 20
6.706594
 30
0.0
  0
SPLINE
  5
1c8
100
AcDbEntity
  8
Page_1
 62
7
100
AcDbSpline
 70
8
 71
3
 72
8
 73
4
 74
0
 40
0
 40
0
 40
0
 40
0
 40
1
 40
1
 40
1
 40
1
 10
7.375843
 20
2.777104
 30
0.0
 10
7.679884
 20
2.601563
 30
0.0
 10
8.024772
 20
2.509160
 30
0.0
 10
8.375840
 20
2.509160
 30
0.0
  0
LWPOLYLINE
  5
1c9
100
AcDbEntity
  8
Page_1
 62
7
100
AcDbPolyline
 90
2
 70
0
 10
7.375843
 20
2.777104
 30
0.0
 10
6.060054
 20
3.536769
 30
0.0
  0
LWPOLYLINE
  5
1ca
100
AcDbEntity
  8
Page_1
 62
7
100
AcDbPolyline
 90
3
 70
0
 10
8.375840
 20
2.509160
 30
0.0
 10
11.839929
 20
2.509160
 30
0.0
 10
11.839943
 20
8.504034
 30
0.0
  0
SPLINE
  5
1cb
100
AcDbEntity
  8
Page_1
 62
7
100
AcDbSpline
 70
8
 71
3
 72
8
 73
4
 74
0
 40
0
 40
0
 40
0
 40
0
 40
1
 40
1
 40
1
 40
1
 10
8.375840
 20
8.504034
 30
0.0
 10
8.024772
 20
8.504034
 30
0.0
 10
7.679884
 20
8.411618
 30
0.0
 10
7.375843
 20
8.236091
 30
0.0
  0
LWPOLYLINE
  5
1cc
100
AcDbEntity
  8
Page_1
 62
7
100
AcDbPolyline
 90
2
 70
0
 10
8.375840
 20
8.504034
 30
0.0
 10
11.839929
 20
8.504034
 30
0.0
  0
SPLINE
  5
1cd
100
AcDbEntity
  8
Page_1
 62
7
100
AcDbSpline
 70
8
 71
3
 72
8
 73
4
 74
0
 40
0
 40
0
 40
0
 40
0
 40
1
 40
1
 40
1
 40
1
 10
5.234376
 20
7.216079
 30
0.0
 10
5.525306
 20
7.241537
 30
0.0
 10
5.807138
 20
7.330398
 30
0.0
 10
6.060068
 20
7.476412
 30
0.0
  0
LWPOLYLINE
  5
1ce
100
AcDbEntity
  8
Page_1
 62
7
100
AcDbPolyline
 90
2
 70
0
 10
7.375843
 20
8.236091
 30
0.0
 10
6.060054
 20
7.476426
 30
0.0
  0
SPLINE
  5
1cf
100
AcDbEntity
  8
Page_1
 62
7
100
AcDbSpline
 70
8
 71
3
 72
8
 73
4
 74
0
 40
0
 40
0
 40
0
 40
0
 40
1
 40
1
 40
1
 40
1
 10
3.296381
 20
7.046524
 30
0.0
 10
3.038117
 20
7.023927
 30
0.0
 10
2.839965
 20
6.807677
 30
0.0
 10
2.839965
 20
6.548428
 30
0.0
  0
LWPOLYLINE
  5
1d0
100
AcDbEntity
  8
Page_1
 62
7
100
AcDbPolyline
 90
2
 70
0
 10
3.296381
 20
7.046524
 30
0.0
 10
5.234376
 20
7.216079
 30
0.0
  0
SPLINE
  5
1d1
100
AcDbEntity
  8
Page_1
 62
7
100
AcDbSpline
 70
8
 71
3
 72
8
 73
4
 74
0
 40
0
 40
0
 40
0
 40
0
 40
1
 40
1
 40
1
 40
1
 10
5.839958
 20
5.881596
 30
0.0
 10
5.839958
 20
6.157735
 30
0.0
 10
5.616097
 20
6.381595
 30
0.0
 10
5.339959
 20
6.381595
 30
0.0
  0
LWPOLYLINE
  5
1d2
100
AcDbEntity
  8
Page_1
 62
7
100
AcDbPolyline
 90
3
 70
0
 10
2.839965
 20
6.548428
 30
0.0
 10
2.839965
 20
6.381595
 30
0.0
 10
5.339959
 20
6.381595
 30
0.0
  0
SPLINE
  5
1d3
100
AcDbEntity
  8
Page_1
 62
7
100
AcDbSpline
 70
8
 71
3
 72
8
 73
4
 74
0
 40
0
 40
0
 40
0
 40
0
 40
1
 40
1
 40
1
 40
1
 10
5.339959
 20
4.631600
 30
0.0
 10
5.616097
 20
4.631600
 30
0.0
 10
5.839958
 20
4.855460
 30
0.0
 10
5.839958
 20
5.131598
 30
0.0
  0
LWPOLYLINE
  5
1d4
100
AcDbEntity
  8
Page_1
 62
7
100
AcDbPolyline
 90
2
 70
0
 10
5.839958
 20
5.131598
 30
0.0
 10
5.839958
 20
5.881596
 30
0.0
  0
LWPOLYLINE
  5
1d5
100
AcDbEntity
  8
Page_1
 62
7
100
AcDbPolyline
 90
2
 70
0
 10
2.839965
 20
4.631600
 30
0.0
 10
5.339959
 20
4.631600
 30
0.0
  0
SPLINE
  5
1d6
100
AcDbEntity
  8
Page_1
 62
7
100
AcDbSpline
 70
8
 71
3
 72
8
 73
4
 74
0
 40
0
 40
0
 40
0
 40
0
 40
1
 40
1
 40
1
 40
1
 10
2.839965
 20
4.464767
 30
0.0
 10
2.839965
 20
4.205517
 30
0.0
 10
3.038117
 20
3.989268
 30
0.0
 10
3.296381
 20
3.966671
 30
0.0
  0
LWPOLYLINE
  5
1d7
100
AcDbEntity
  8
Page_1
 62
7
100
AcDbPolyline
 90
2
 70
0
 10
2.839965
 20
4.631600
 30
0.0
 10
2.839965
 20
4.464767
 30
0.0
  0
SPLINE
  5
1d8
100
AcDbEntity
  8
Page_1
 62
7
100
AcDbSpline
 70
8
 71
3
 72
8
 73
4
 74
0
 40
0
 40
0
 40
0
 40
0
 40
1
 40
1
 40
1
 40
1
 10
6.060068
 20
3.536783
 30
0.0
 10
5.807152
 20
3.682810
 30
0.0
 10
5.525320
 20
3.771671
 30
0.0
 10
5.234376
 20
3.797116
 30
0.0
  0
SPLINE
  5
1d9
100
AcDbEntity
  8
Page_1
 62
7
100
AcDbSpline
 70
8
 71
3
 72
8
 73
4
 74
0
 40
0
 40
0
 40
0
 40
0
 40
1
 40
1
 40
1
 40
1
 10
8.706950
 20
2.759160
 30
0.0
 10
8.706950
 20
2.685702
 30
0.0
 10
8.766492
 20
2.626160
 30
0.0
 10
8.839950
 20
2.626160
 30
0.0
  0
SPLINE
  5
1da
100
AcDbEntity
  8
Page_1
 62
7
100
AcDbSpline
 70
8
 71
3
 72
8
 73
4
 74
0
 40
0
 40
0
 40
0
 40
0
 40
1
 40
1
 40
1
 40
1
 10
8.839950
 20
2.626160
 30
0.0
 10
8.913408
 20
2.626160
 30
0.0
 10
8.972950
 20
2.685702
 30
0.0
 10
8.972950
 20
2.759160
 30
0.0
  0
SPLINE
  5
1db
100
AcDbEntity
  8
Page_1
 62
7
100
AcDbSpline
 70
8
 71
3
 72
8
 73
4
 74
0
 40
0
 40
0
 40
0
 40
0
 40
1
 40
1
 40
1
 40
1
 10
8.972950
 20
2.759160
 30
0.0
 10
8.972950
 20
2.832618
 30
0.0
 10
8.913408
 20
2.892159
 30
0.0
 10
8.839950
 20
2.892159
 30
0.0
  0
SPLINE
  5
1dc
100
AcDbEntity
  8
Page_1
 62
7
100
AcDbSpline
 70
8
 71
3
 72
8
 73
4
 74
0
 40
0
 40
0
 40
0
 40
0
 40
1
 40
1
 40
1
 40
1
 10
8.839950
 20
2.892159
 30
0.0
 10
8.766492
 20
2.892159
 30
0.0
 10
8.706950
 20
2.832618
 30
0.0
 10
8.706950
 20
2.759160
 30
0.0
  0
LWPOLYLINE
  5
1dd
100
AcDbEntity
  8
Page_1
 62
7
100
AcDbPolyline
 90
2
 70
0
 10
3.296381
 20
3.966671
 30
0.0
 10
5.234376
 20
3.797116
 30
0.0
  0
SPLINE
  5
1de
100
AcDbEntity
  8
Page_1
 62
7
100
AcDbSpline
 70
8
 71
3
 72
8
 73
4
 74
0
 40
0
 40
0
 40
0
 40
0
 40
1
 40
1
 40
1
 40
1
 10
9.956947
 20
2.759160
 30
0.0
 10
9.956947
 20
2.685702
 30
0.0
 10
10.016489
 20
2.626160
 30
0.0
 10
10.089947
 20
2.626160
 30
0.0
  0
SPLINE
  5
1df
100
AcDbEntity
  8
Page_1
 62
7
100
AcDbSpline
 70
8
 71
3
 72
8
 73
4
 74
0
 40
0
 40
0
 40
0
 40
0
 40
1
 40
1
 40
1
 40
1
 10
10.089947
 20
2.626160
 30
0.0
 10
10.163405
 20
2.626160
 30
0.0
 10
10.222947
 20
2.685702
 30
0.0
 10
10.222947
 20
2.759160
 30
0.0
  0
SPLINE
  5
1e0
100
AcDbEntity
  8
Page_1
 62
7
100
AcDbSpline
 70
8
 71
3
 72
8
 73
4
 74
0
 40
0
 40
0
 40
0
 40
0
 40
1
 40
1
 40
1
 40
1
 10
10.222947
 20
2.759160
 30
0.0
 10
10.222947
 20
2.832618
 30
0.0
 10
10.163405
 20
2.892159
 30
0.0
 10
10.089947
 20
2.892159
 30
0.0
  0
SPLINE
  5
1e1
100
AcDbEntity
  8
Page_1
 62
7
100
AcDbSpline
 70
8
 71
3
 72
8
 73
4
 74
0
 40
0
 40
0
 40
0
 40
0
 40
1
 40
1
 40
1
 40
1
 10
10.089947
 20
2.892159
 30
0.0
 10
10.016489
 20
2.892159
 30
0.0
 10
9.956947
 20
2.832618
 30
0.0
 10
9.956947
 20
2.759160
 30
0.0
  0
LWPOLYLINE
  5
1e2
100
AcDbEntity
  8
Page_1
 62
7
100
AcDbPolyline
 90
1
 70
1
 10
8.706950
 20
2.759160
 30
0.0
  0
SPLINE
  5
1e3
100
AcDbEntity
  8
Page_1
 62
7
100
AcDbSpline
 70
8
 71
3
 72
8
 73
4
 74
0
 40
0
 40
0
 40
0
 40
0
 40
1
 40
1
 40
1
 40
1
 10
9.809170
 20
4.187851
 30
0.0
 10
9.860948
 20
4.277531
 30
0.0
 10
9.830225
 20
4.392197
 30
0.0
 10
9.740545
 20
4.443975
 30
0.0
  0
SPLINE
  5
1e4
100
AcDbEntity
  8
Page_1
 62
7
100
AcDbSpline
 70
8
 71
3
 72
8
 73
4
 74
0
 40
0
 40
0
 40
0
 40
0
 40
1
 40
1
 40
1
 40
1
 10
9.740545
 20
4.443975
 30
0.0
 10
9.650865
 20
4.495753
 30
0.0
 10
9.536184
 20
4.465031
 30
0.0
 10
9.484407
 20
4.375350
 30
0.0
  0
SPLINE
  5
1e5
100
AcDbEntity
  8
Page_1
 62
7
100
AcDbSpline
 70
8
 71
3
 72
8
 73
4
 74
0
 40
0
 40
0
 40
0
 40
0
 40
1
 40
1
 40
1
 40
1
 10
7.754897
 20
2.879146
 30
0.0
 10
8.612145
 20
2.954145
 30
0.0
 10
9.378907
 20
3.442616
 30
0.0
 10
9.809156
 20
4.187851
 30
0.0
  0
SPLINE
  5
1e6
100
AcDbEntity
  8
Page_1
 62
7
100
AcDbSpline
 70
8
 71
3
 72
8
 73
4
 74
0
 40
0
 40
0
 40
0
 40
0
 40
1
 40
1
 40
1
 40
1
 10
7.722217
 20
3.252714
 30
0.0
 10
7.619064
 20
3.243686
 30
0.0
 10
7.542745
 20
3.152742
 30
0.0
 10
7.551773
 20
3.049590
 30
0.0
  0
SPLINE
  5
1e7
100
AcDbEntity
  8
Page_1
 62
7
100
AcDbSpline
 70
8
 71
3
 72
8
 73
4
 74
0
 40
0
 40
0
 40
0
 40
0
 40
1
 40
1
 40
1
 40
1
 10
7.551773
 20
3.049590
 30
0.0
 10
7.560801
 20
2.946423
 30
0.0
 10
7.651745
 20
2.870118
 30
0.0
 10
7.754897
 20
2.879146
 30
0.0
  0
SPLINE
  5
1e8
100
AcDbEntity
  8
Page_1
 62
7
100
AcDbSpline
 70
8
 71
3
 72
8
 73
4
 74
0
 40
0
 40
0
 40
0
 40
0
 40
1
 40
1
 40
1
 40
1
 10
7.722217
 20
3.252714
 30
0.0
 10
8.457576
 20
3.317047
 30
0.0
 10
9.115324
 20
3.736074
 30
0.0
 10
9.484407
 20
4.375350
 30
0.0
  0
LWPOLYLINE
  5
1e9
100
AcDbEntity
  8
Page_1
 62
7
100
AcDbPolyline
 90
1
 70
1
 10
9.956947
 20
2.759160
 30
0.0
  0
ENDSEC
  0
SECTION
  2
OBJECTS
  0
DICTIONARY
  5
C
330
0
100
AcDbDictionary
  3
ACAD_GROUP
350
D
  3
ACAD_MLINESTYLE
350
17
  0
DICTIONARY
  5
D
330
C
100
AcDbDictionary
  0
DICTIONARY
  5
1A
330
C
100
AcDbDictionary
  0
DICTIONARY
  5
17
330
C
100
AcDbDictionary
  3
STANDARD
350
18
  0
DICTIONARY
  5
19
330
C
100
AcDbDictionary
  0
ENDSEC
  0
EOF
