  0
SECTION
  2
HEADER
  9
$ACADVER
  1
AC1014
  9
$HANDSEED
  5
FFFF
  9
$INSUNITS
 70
     1
  9
$MEASUREMENT
 70
     1
  0
ENDSEC
  0
SECTION
  2
TABLES
  0
TABLE
  2
VPORT
  5
8
330
0
100
AcDbSymbolTable
 70
     4
  0
VPORT
  5
2E
330
8
100
AcDbSymbolTableRecord
100
AcDbViewportTableRecord
  2
*ACTIVE
 70
     0
 10
0.0
 20
0.0
 11
1.0
 21
1.0
 12
210.0
 22
148.5
 13
0.0
 23
0.0
 14
10.0
 24
10.0
 15
10.0
 25
10.0
 16
0.0
 26
0.0
 36
1.0
 17
0.0
 27
0.0
 37
0.0
 40
341.0
 41
1.24
 42
50.0
 43
0.0
 44
0.0
 50
0.0
 51
0.0
 71
     0
 72
   100
 73
     1
 74
     3
 75
     0
 76
     0
 77
     0
 78
     0
  0
ENDTAB
  0
TABLE
  2
LTYPE
  5
5
330
0
100
AcDbSymbolTable
 70
     1
  0
LTYPE
  5
14
330
5
100
AcDbSymbolTableRecord
100
AcDbLinetypeTableRecord
  2
BYBLOCK
 70
     0
  3

 72
    65
 73
     0
 40
0.0
  0
LTYPE
  5
15
330
5
100
AcDbSymbolTableRecord
100
AcDbLinetypeTableRecord
  2
BYLAYER
 70
     0
  3

 72
    65
 73
     0
 40
0.0
  0
LTYPE
  5
16
330
5
100
AcDbSymbolTableRecord
100
AcDbLinetypeTableRecord
  2
CONTINUOUS
 70
     0
  3
Solid line
 72
    65
 73
     0
 40
0.0
  0
ENDTAB
  0
TABLE
  2
LAYER
  5
2
100
AcDbSymbolTable
 70
2
  0
LAYER
  5
50
100
AcDbSymbolTableRecord
100
AcDbLayerTableRecord
  2
0
 70
0
  6
CONTINUOUS
  0
LAYER
  5
51
100
AcDbSymbolTableRecord
100
AcDbLayerTableRecord
  2
Page_1
 70
0
  6
CONTINUOUS
  0
ENDTAB
  0
TABLE
  2
STYLE
  5
3
330
0
100
AcDbSymbolTable
 70
     1
  0
STYLE
  5
11
330
3
100
AcDbSymbolTableRecord
100
AcDbTextStyleTableRecord
  2
STANDARD
 70
     0
 40
0.0
 41
1.0
 50
0.0
 71
     0
 42
2.5
  3
txt
  4

  0
ENDTAB
  0
TABLE
  2
VIEW
  5
6
330
0
100
AcDbSymbolTable
 70
     0
  0
ENDTAB
  0
TABLE
  2
UCS
  5
7
330
0
100
AcDbSymbolTable
 70
     0
  0
ENDTAB
  0
TABLE
  2
APPID
  5
9
330
0
100
AcDbSymbolTable
 70
     2
  0
APPID
  5
12
330
9
100
AcDbSymbolTableRecord
100
AcDbRegAppTableRecord
  2
ACAD
 70
     0
  0
ENDTAB
  0
TABLE
  2
DIMSTYLE
  5
A
330
0
100
AcDbSymbolTable
 70
     1
  0
DIMSTYLE
105
27
330
A
100
AcDbSymbolTableRecord
100
AcDbDimStyleTableRecord
  2
ISO-25
 70
     0
  3

  4

  5

  6

  7

 40
1.0
 41
2.5
 42
0.625
 43
3.75
 44
1.25
 45
0.0
 46
0.0
 47
0.0
 48
0.0
140
2.5
141
2.5
142
0.0
143
0.03937007874016
144
1.0
145
0.0
146
1.0
147
0.625
 71
     0
 72
     0
 73
     0
 74
     0
 75
     0
 76
     0
 77
     1
 78
     8
170
     0
171
     3
172
     1
173
     0
174
     0
175
     0
176
     0
177
     0
178
     0
270
     2
271
     2
272
     2
273
     2
274
     3
340
11
275
     0
280
     0
281
     0
282
     0
283
     0
284
     8
285
     0
286
     0
287
     3
288
     0
  0
ENDTAB
  0
TABLE
  2
BLOCK_RECORD
  5
1
330
0
100
AcDbSymbolTable
 70
     1
  0
BLOCK_RECORD
  5
1F
330
1
100
AcDbSymbolTableRecord
100
AcDbBlockTableRecord
  2
*MODEL_SPACE
  0
BLOCK_RECORD
  5
1B
330
1
100
AcDbSymbolTableRecord
100
AcDbBlockTableRecord
  2
*PAPER_SPACE
  0
ENDTAB
  0
ENDSEC
  0
SECTION
  2
BLOCKS
  0
BLOCK
  5
20
330
1F
100
AcDbEntity
  8
0
100
AcDbBlockBegin
  2
*MODEL_SPACE
 70
     0
 10
0.0
 20
0.0
 30
0.0
  3
*MODEL_SPACE
  1

  0
ENDBLK
  5
21
330
1F
100
AcDbEntity
  8
0
100
AcDbBlockEnd
  0
BLOCK
  5
1C
330
1B
100
AcDbEntity
 67
     1
  8
0
100
AcDbBlockBegin
  2
*PAPER_SPACE
  1

  0
ENDBLK
  5
1D
330
1B
100
AcDbEntity
 67
     1
  8
0
100
AcDbBlockEnd
  0
ENDSEC
  0
SECTION
  2
ENTITIES
  0
LWPOLYLINE
  5
100
100
AcDbEntity
  8
Page_1
 62
7
100
AcDbPolyline
 90
2
 70
0
 10
9.436338
 20
9.027714
 30
0.0
 10
9.436338
 20
1.828134
 30
0.0
  0
LWPOLYLINE
  5
101
100
AcDbEntity
  8
Page_1
 62
7
100
AcDbPolyline
 90
4
 70
0
 10
8.405173
 20
0.599237
 30
0.0
 10
8.069841
 20
0.199600
 30
0.0
 10
7.444592
 20
0.199597
 30
0.0
 10
7.444606
 20
1.876301
 30
0.0
  0
LWPOLYLINE
  5
102
100
AcDbEntity
  8
Page_1
 62
7
100
AcDbPolyline
 90
9
 70
0
 10
8.387271
 20
2.027398
 30
0.0
 10
8.504632
 20
2.167258
 30
0.0
 10
8.504618
 20
8.688589
 30
0.0
 10
8.387257
 20
8.828464
 30
0.0
 10
7.676550
 20
8.703145
 30
0.0
 10
7.444606
 20
8.979561
 30
0.0
 10
7.444606
 20
10.656265
 30
0.0
 10
8.069841
 20
10.656265
 30
0.0
 10
8.405160
 20
10.256627
 30
0.0
  0
LWPOLYLINE
  5
103
100
AcDbEntity
  8
Page_1
 62
7
100
AcDbPolyline
 90
4
 70
0
 10
9.115894
 20
10.381946
 30
0.0
 10
9.347838
 20
10.105530
 30
0.0
 10
9.101005
 20
9.427351
 30
0.0
 10
9.436338
 20
9.027714
 30
0.0
  0
SPLINE
  5
104
100
AcDbEntity
  8
Page_1
 62
7
100
AcDbSpline
 70
8
 71
3
 72
8
 73
4
 74
0
 40
0
 40
0
 40
0
 40
0
 40
1
 40
1
 40
1
 40
1
 10
9.125088
 20
10.042544
 30
0.0
 10
9.125088
 20
10.116002
 30
0.0
 10
9.065547
 20
10.175544
 30
0.0
 10
8.992089
 20
10.175544
 30
0.0
  0
SPLINE
  5
105
100
AcDbEntity
  8
Page_1
 62
7
100
AcDbSpline
 70
8
 71
3
 72
8
 73
4
 74
0
 40
0
 40
0
 40
0
 40
0
 40
1
 40
1
 40
1
 40
1
 10
8.992089
 20
10.175544
 30
0.0
 10
8.918630
 20
10.175544
 30
0.0
 10
8.859089
 20
10.116002
 30
0.0
 10
8.859089
 20
10.042544
 30
0.0
  0
SPLINE
  5
106
100
AcDbEntity
  8
Page_1
 62
7
100
AcDbSpline
 70
8
 71
3
 72
8
 73
4
 74
0
 40
0
 40
0
 40
0
 40
0
 40
1
 40
1
 40
1
 40
1
 10
8.859089
 20
10.042544
 30
0.0
 10
8.859089
 20
9.969086
 30
0.0
 10
8.918630
 20
9.909545
 30
0.0
 10
8.992089
 20
9.909545
 30
0.0
  0
SPLINE
  5
107
100
AcDbEntity
  8
Page_1
 62
7
100
AcDbSpline
 70
8
 71
3
 72
8
 73
4
 74
0
 40
0
 40
0
 40
0
 40
0
 40
1
 40
1
 40
1
 40
1
 10
8.992089
 20
9.909545
 30
0.0
 10
9.065547
 20
9.909545
 30
0.0
 10
9.125088
 20
9.969086
 30
0.0
 10
9.125088
 20
10.042544
 30
0.0
  0
LWPOLYLINE
  5
108
100
AcDbEntity
  8
Page_1
 62
7
100
AcDbPolyline
 90
2
 70
0
 10
9.436338
 20
1.828148
 30
0.0
 10
9.101005
 20
1.428510
 30
0.0
  0
SPLINE
  5
109
100
AcDbEntity
  8
Page_1
 62
7
100
AcDbSpline
 70
8
 71
3
 72
8
 73
4
 74
0
 40
0
 40
0
 40
0
 40
0
 40
1
 40
1
 40
1
 40
1
 10
9.256338
 20
7.002732
 30
0.0
 10
9.256338
 20
7.076191
 30
0.0
 10
9.196796
 20
7.135732
 30
0.0
 10
9.123338
 20
7.135732
 30
0.0
  0
SPLINE
  5
10a
100
AcDbEntity
  8
Page_1
 62
7
100
AcDbSpline
 70
8
 71
3
 72
8
 73
4
 74
0
 40
0
 40
0
 40
0
 40
0
 40
1
 40
1
 40
1
 40
1
 10
9.123338
 20
7.135732
 30
0.0
 10
9.049880
 20
7.135732
 30
0.0
 10
8.990339
 20
7.076191
 30
0.0
 10
8.990339
 20
7.002732
 30
0.0
  0
SPLINE
  5
10b
100
AcDbEntity
  8
Page_1
 62
7
100
AcDbSpline
 70
8
 71
3
 72
8
 73
4
 74
0
 40
0
 40
0
 40
0
 40
0
 40
1
 40
1
 40
1
 40
1
 10
8.990339
 20
7.002732
 30
0.0
 10
8.990339
 20
6.929274
 30
0.0
 10
9.049880
 20
6.869733
 30
0.0
 10
9.123338
 20
6.869733
 30
0.0
  0
SPLINE
  5
10c
100
AcDbEntity
  8
Page_1
 62
7
100
AcDbSpline
 70
8
 71
3
 72
8
 73
4
 74
0
 40
0
 40
0
 40
0
 40
0
 40
1
 40
1
 40
1
 40
1
 10
9.123338
 20
6.869733
 30
0.0
 10
9.196796
 20
6.869733
 30
0.0
 10
9.256338
 20
6.929274
 30
0.0
 10
9.256338
 20
7.002732
 30
0.0
  0
LWPOLYLINE
  5
10d
100
AcDbEntity
  8
Page_1
 62
7
100
AcDbPolyline
 90
1
 70
1
 10
9.125088
 20
10.042544
 30
0.0
  0
SPLINE
  5
10e
100
AcDbEntity
  8
Page_1
 62
7
100
AcDbSpline
 70
8
 71
3
 72
8
 73
4
 74
0
 40
0
 40
0
 40
0
 40
0
 40
1
 40
1
 40
1
 40
1
 10
9.256338
 20
3.853129
 30
0.0
 10
9.256338
 20
3.926587
 30
0.0
 10
9.196796
 20
3.986129
 30
0.0
 10
9.123338
 20
3.986129
 30
0.0
  0
SPLINE
  5
10f
100
AcDbEntity
  8
Page_1
 62
7
100
AcDbSpline
 70
8
 71
3
 72
8
 73
4
 74
0
 40
0
 40
0
 40
0
 40
0
 40
1
 40
1
 40
1
 40
1
 10
9.123338
 20
3.986129
 30
0.0
 10
9.049880
 20
3.986129
 30
0.0
 10
8.990339
 20
3.926587
 30
0.0
 10
8.990339
 20
3.853129
 30
0.0
  0
SPLINE
  5
110
100
AcDbEntity
  8
Page_1
 62
7
100
AcDbSpline
 70
8
 71
3
 72
8
 73
4
 74
0
 40
0
 40
0
 40
0
 40
0
 40
1
 40
1
 40
1
 40
1
 10
8.990339
 20
3.853129
 30
0.0
 10
8.990339
 20
3.779671
 30
0.0
 10
9.049880
 20
3.720130
 30
0.0
 10
9.123338
 20
3.720130
 30
0.0
  0
SPLINE
  5
111
100
AcDbEntity
  8
Page_1
 62
7
100
AcDbSpline
 70
8
 71
3
 72
8
 73
4
 74
0
 40
0
 40
0
 40
0
 40
0
 40
1
 40
1
 40
1
 40
1
 10
9.123338
 20
3.720130
 30
0.0
 10
9.196796
 20
3.720130
 30
0.0
 10
9.256338
 20
3.779671
 30
0.0
 10
9.256338
 20
3.853129
 30
0.0
  0
LWPOLYLINE
  5
112
100
AcDbEntity
  8
Page_1
 62
7
100
AcDbPolyline
 90
1
 70
1
 10
9.256338
 20
7.002732
 30
0.0
  0
SPLINE
  5
113
100
AcDbEntity
  8
Page_1
 62
7
100
AcDbSpline
 70
8
 71
3
 72
8
 73
4
 74
0
 40
0
 40
0
 40
0
 40
0
 40
1
 40
1
 40
1
 40
1
 10
9.125088
 20
0.813322
 30
0.0
 10
9.125088
 20
0.886780
 30
0.0
 10
9.065547
 20
0.946321
 30
0.0
 10
8.992089
 20
0.946321
 30
0.0
  0
SPLINE
  5
114
100
AcDbEntity
  8
Page_1
 62
7
100
AcDbSpline
 70
8
 71
3
 72
8
 73
4
 74
0
 40
0
 40
0
 40
0
 40
0
 40
1
 40
1
 40
1
 40
1
 10
8.992089
 20
0.946321
 30
0.0
 10
8.918630
 20
0.946321
 30
0.0
 10
8.859089
 20
0.886780
 30
0.0
 10
8.859089
 20
0.813322
 30
0.0
  0
SPLINE
  5
115
100
AcDbEntity
  8
Page_1
 62
7
100
AcDbSpline
 70
8
 71
3
 72
8
 73
4
 74
0
 40
0
 40
0
 40
0
 40
0
 40
1
 40
1
 40
1
 40
1
 10
8.859089
 20
0.813322
 30
0.0
 10
8.859089
 20
0.739863
 30
0.0
 10
8.918630
 20
0.680322
 30
0.0
 10
8.992089
 20
0.680322
 30
0.0
  0
SPLINE
  5
116
100
AcDbEntity
  8
Page_1
 62
7
100
AcDbSpline
 70
8
 71
3
 72
8
 73
4
 74
0
 40
0
 40
0
 40
0
 40
0
 40
1
 40
1
 40
1
 40
1
 10
8.992089
 20
0.680322
 30
0.0
 10
9.065547
 20
0.680322
 30
0.0
 10
9.125088
 20
0.739863
 30
0.0
 10
9.125088
 20
0.813322
 30
0.0
  0
LWPOLYLINE
  5
117
100
AcDbEntity
  8
Page_1
 62
7
100
AcDbPolyline
 90
1
 70
1
 10
9.256338
 20
3.853129
 30
0.0
  0
SPLINE
  5
118
100
AcDbEntity
  8
Page_1
 62
7
100
AcDbSpline
 70
8
 71
3
 72
8
 73
4
 74
0
 40
0
 40
0
 40
0
 40
0
 40
1
 40
1
 40
1
 40
1
 10
8.531659
 20
1.129986
 30
0.0
 10
8.531659
 20
1.185486
 30
0.0
 10
8.486659
 20
1.230486
 30
0.0
 10
8.431159
 20
1.230486
 30
0.0
  0
SPLINE
  5
119
100
AcDbEntity
  8
Page_1
 62
7
100
AcDbSpline
 70
8
 71
3
 72
8
 73
4
 74
0
 40
0
 40
0
 40
0
 40
0
 40
1
 40
1
 40
1
 40
1
 10
8.431159
 20
1.230486
 30
0.0
 10
8.375660
 20
1.230486
 30
0.0
 10
8.330660
 20
1.185486
 30
0.0
 10
8.330660
 20
1.129986
 30
0.0
  0
SPLINE
  5
11a
100
AcDbEntity
  8
Page_1
 62
7
100
AcDbSpline
 70
8
 71
3
 72
8
 73
4
 74
0
 40
0
 40
0
 40
0
 40
0
 40
1
 40
1
 40
1
 40
1
 10
8.330660
 20
1.129986
 30
0.0
 10
8.330660
 20
1.074486
 30
0.0
 10
8.375660
 20
1.029486
 30
0.0
 10
8.431159
 20
1.029486
 30
0.0
  0
SPLINE
  5
11b
100
AcDbEntity
  8
Page_1
 62
7
100
AcDbSpline
 70
8
 71
3
 72
8
 73
4
 74
0
 40
0
 40
0
 40
0
 40
0
 40
1
 40
1
 40
1
 40
1
 10
8.431159
 20
1.029486
 30
0.0
 10
8.486659
 20
1.029486
 30
0.0
 10
8.531659
 20
1.074486
 30
0.0
 10
8.531659
 20
1.129986
 30
0.0
  0
LWPOLYLINE
  5
11c
100
AcDbEntity
  8
Page_1
 62
7
100
AcDbPolyline
 90
1
 70
1
 10
9.125088
 20
0.813322
 30
0.0
  0
SPLINE
  5
11d
100
AcDbEntity
  8
Page_1
 62
7
100
AcDbSpline
 70
8
 71
3
 72
8
 73
4
 74
0
 40
0
 40
0
 40
0
 40
0
 40
1
 40
1
 40
1
 40
1
 10
8.531659
 20
9.725878
 30
0.0
 10
8.531659
 20
9.781378
 30
0.0
 10
8.486659
 20
9.826378
 30
0.0
 10
8.431159
 20
9.826378
 30
0.0
  0
SPLINE
  5
11e
100
AcDbEntity
  8
Page_1
 62
7
100
AcDbSpline
 70
8
 71
3
 72
8
 73
4
 74
0
 40
0
 40
0
 40
0
 40
0
 40
1
 40
1
 40
1
 40
1
 10
8.431159
 20
9.826378
 30
0.0
 10
8.375660
 20
9.826378
 30
0.0
 10
8.330660
 20
9.781378
 30
0.0
 10
8.330660
 20
9.725878
 30
0.0
  0
SPLINE
  5
11f
100
AcDbEntity
  8
Page_1
 62
7
100
AcDbSpline
 70
8
 71
3
 72
8
 73
4
 74
0
 40
0
 40
0
 40
0
 40
0
 40
1
 40
1
 40
1
 40
1
 10
8.330660
 20
9.725878
 30
0.0
 10
8.330660
 20
9.670379
 30
0.0
 10
8.375660
 20
9.625379
 30
0.0
 10
8.431159
 20
9.625379
 30
0.0
  0
SPLINE
  5
120
100
AcDbEntity
  8
Page_1
 62
7
100
AcDbSpline
 70
8
 71
3
 72
8
 73
4
 74
0
 40
0
 40
0
 40
0
 40
0
 40
1
 40
1
 40
1
 40
1
 10
8.431159
 20
9.625379
 30
0.0
 10
8.486659
 20
9.625379
 30
0.0
 10
8.531659
 20
9.670379
 30
0.0
 10
8.531659
 20
9.725878
 30
0.0
  0
LWPOLYLINE
  5
121
100
AcDbEntity
  8
Page_1
 62
7
100
AcDbPolyline
 90
1
 70
1
 10
8.531659
 20
1.129986
 30
0.0
  0
LWPOLYLINE
  5
122
100
AcDbEntity
  8
Page_1
 62
7
100
AcDbPolyline
 90
1
 70
1
 10
8.531659
 20
9.725878
 30
0.0
  0
LWPOLYLINE
  5
123
100
AcDbEntity
  8
Page_1
 62
7
100
AcDbPolyline
 90
2
 70
0
 10
8.405173
 20
10.256627
 30
0.0
 10
9.115894
 20
10.381946
 30
0.0
  0
LWPOLYLINE
  5
124
100
AcDbEntity
  8
Page_1
 62
7
100
AcDbPolyline
 90
3
 70
0
 10
8.387271
 20
2.027398
 30
0.0
 10
7.676550
 20
2.152717
 30
0.0
 10
7.444606
 20
1.876301
 30
0.0
  0
LWPOLYLINE
  5
125
100
AcDbEntity
  8
Page_1
 62
7
100
AcDbPolyline
 90
4
 70
0
 10
8.405173
 20
0.599237
 30
0.0
 10
9.115894
 20
0.473918
 30
0.0
 10
9.347838
 20
0.750334
 30
0.0
 10
9.101005
 20
1.428505
 30
0.0
  0
LWPOLYLINE
  5
126
100
AcDbEntity
  8
Page_1
 62
7
100
AcDbPolyline
 90
4
 70
0
 10
10.692112
 20
1.787940
 30
0.0
 10
10.356780
 20
1.388302
 30
0.0
 10
9.731531
 20
1.388302
 30
0.0
 10
9.731531
 20
3.065006
 30
0.0
  0
LWPOLYLINE
  5
127
100
AcDbEntity
  8
Page_1
 62
7
100
AcDbPolyline
 90
9
 70
0
 10
10.674196
 20
3.216103
 30
0.0
 10
10.791556
 20
3.355964
 30
0.0
 10
10.791556
 20
9.877295
 30
0.0
 10
10.674196
 20
10.017169
 30
0.0
 10
9.963475
 20
9.891836
 30
0.0
 10
9.731531
 20
10.168266
 30
0.0
 10
9.731531
 20
11.844970
 30
0.0
 10
10.356766
 20
11.844970
 30
0.0
 10
10.692098
 20
11.445332
 30
0.0
  0
SPLINE
  5
128
100
AcDbEntity
  8
Page_1
 62
7
100
AcDbSpline
 70
8
 71
3
 72
8
 73
4
 74
0
 40
0
 40
0
 40
0
 40
0
 40
1
 40
1
 40
1
 40
1
 10
11.412027
 20
11.231250
 30
0.0
 10
11.412027
 20
11.304708
 30
0.0
 10
11.352486
 20
11.364249
 30
0.0
 10
11.279027
 20
11.364249
 30
0.0
  0
SPLINE
  5
129
100
AcDbEntity
  8
Page_1
 62
7
100
AcDbSpline
 70
8
 71
3
 72
8
 73
4
 74
0
 40
0
 40
0
 40
0
 40
0
 40
1
 40
1
 40
1
 40
1
 10
11.279027
 20
11.364249
 30
0.0
 10
11.205569
 20
11.364249
 30
0.0
 10
11.146028
 20
11.304708
 30
0.0
 10
11.146028
 20
11.231250
 30
0.0
  0
SPLINE
  5
12a
100
AcDbEntity
  8
Page_1
 62
7
100
AcDbSpline
 70
8
 71
3
 72
8
 73
4
 74
0
 40
0
 40
0
 40
0
 40
0
 40
1
 40
1
 40
1
 40
1
 10
11.146028
 20
11.231250
 30
0.0
 10
11.146028
 20
11.157792
 30
0.0
 10
11.205569
 20
11.098250
 30
0.0
 10
11.279027
 20
11.098250
 30
0.0
  0
SPLINE
  5
12b
100
AcDbEntity
  8
Page_1
 62
7
100
AcDbSpline
 70
8
 71
3
 72
8
 73
4
 74
0
 40
0
 40
0
 40
0
 40
0
 40
1
 40
1
 40
1
 40
1
 10
11.279027
 20
11.098250
 30
0.0
 10
11.352486
 20
11.098250
 30
0.0
 10
11.412027
 20
11.157792
 30
0.0
 10
11.412027
 20
11.231250
 30
0.0
  0
LWPOLYLINE
  5
12c
100
AcDbEntity
  8
Page_1
 62
7
100
AcDbPolyline
 90
6
 70
0
 10
11.402833
 20
11.570652
 30
0.0
 10
11.634776
 20
11.294236
 30
0.0
 10
11.387944
 20
10.616057
 30
0.0
 10
11.723276
 20
10.216419
 30
0.0
 10
11.723276
 20
3.016840
 30
0.0
 10
11.387944
 20
2.617216
 30
0.0
  0
SPLINE
  5
12d
100
AcDbEntity
  8
Page_1
 62
7
100
AcDbSpline
 70
8
 71
3
 72
8
 73
4
 74
0
 40
0
 40
0
 40
0
 40
0
 40
1
 40
1
 40
1
 40
1
 10
11.543277
 20
8.191438
 30
0.0
 10
11.543277
 20
8.264896
 30
0.0
 10
11.483735
 20
8.324438
 30
0.0
 10
11.410277
 20
8.324438
 30
0.0
  0
SPLINE
  5
12e
100
AcDbEntity
  8
Page_1
 62
7
100
AcDbSpline
 70
8
 71
3
 72
8
 73
4
 74
0
 40
0
 40
0
 40
0
 40
0
 40
1
 40
1
 40
1
 40
1
 10
11.410277
 20
8.324438
 30
0.0
 10
11.336819
 20
8.324438
 30
0.0
 10
11.277277
 20
8.264896
 30
0.0
 10
11.277277
 20
8.191438
 30
0.0
  0
SPLINE
  5
12f
100
AcDbEntity
  8
Page_1
 62
7
100
AcDbSpline
 70
8
 71
3
 72
8
 73
4
 74
0
 40
0
 40
0
 40
0
 40
0
 40
1
 40
1
 40
1
 40
1
 10
11.277277
 20
8.191438
 30
0.0
 10
11.277277
 20
8.117980
 30
0.0
 10
11.336819
 20
8.058438
 30
0.0
 10
11.410277
 20
8.058438
 30
0.0
  0
SPLINE
  5
130
100
AcDbEntity
  8
Page_1
 62
7
100
AcDbSpline
 70
8
 71
3
 72
8
 73
4
 74
0
 40
0
 40
0
 40
0
 40
0
 40
1
 40
1
 40
1
 40
1
 10
11.410277
 20
8.058438
 30
0.0
 10
11.483735
 20
8.058438
 30
0.0
 10
11.543277
 20
8.117980
 30
0.0
 10
11.543277
 20
8.191438
 30
0.0
  0
LWPOLYLINE
  5
131
100
AcDbEntity
  8
Page_1
 62
7
100
AcDbPolyline
 90
1
 70
1
 10
11.412027
 20
11.231250
 30
0.0
  0
SPLINE
  5
132
100
AcDbEntity
  8
Page_1
 62
7
100
AcDbSpline
 70
8
 71
3
 72
8
 73
4
 74
0
 40
0
 40
0
 40
0
 40
0
 40
1
 40
1
 40
1
 40
1
 10
11.543277
 20
5.041835
 30
0.0
 10
11.543277
 20
5.115293
 30
0.0
 10
11.483735
 20
5.174834
 30
0.0
 10
11.410277
 20
5.174834
 30
0.0
  0
SPLINE
  5
133
100
AcDbEntity
  8
Page_1
 62
7
100
AcDbSpline
 70
8
 71
3
 72
8
 73
4
 74
0
 40
0
 40
0
 40
0
 40
0
 40
1
 40
1
 40
1
 40
1
 10
11.410277
 20
5.174834
 30
0.0
 10
11.336819
 20
5.174834
 30
0.0
 10
11.277277
 20
5.115293
 30
0.0
 10
11.277277
 20
5.041835
 30
0.0
  0
SPLINE
  5
134
100
AcDbEntity
  8
Page_1
 62
7
100
AcDbSpline
 70
8
 71
3
 72
8
 73
4
 74
0
 40
0
 40
0
 40
0
 40
0
 40
1
 40
1
 40
1
 40
1
 10
11.277277
 20
5.041835
 30
0.0
 10
11.277277
 20
4.968376
 30
0.0
 10
11.336819
 20
4.908835
 30
0.0
 10
11.410277
 20
4.908835
 30
0.0
  0
SPLINE
  5
135
100
AcDbEntity
  8
Page_1
 62
7
100
AcDbSpline
 70
8
 71
3
 72
8
 73
4
 74
0
 40
0
 40
0
 40
0
 40
0
 40
1
 40
1
 40
1
 40
1
 10
11.410277
 20
4.908835
 30
0.0
 10
11.483735
 20
4.908835
 30
0.0
 10
11.543277
 20
4.968376
 30
0.0
 10
11.543277
 20
5.041835
 30
0.0
  0
LWPOLYLINE
  5
136
100
AcDbEntity
  8
Page_1
 62
7
100
AcDbPolyline
 90
1
 70
1
 10
11.543277
 20
8.191438
 30
0.0
  0
SPLINE
  5
137
100
AcDbEntity
  8
Page_1
 62
7
100
AcDbSpline
 70
8
 71
3
 72
8
 73
4
 74
0
 40
0
 40
0
 40
0
 40
0
 40
1
 40
1
 40
1
 40
1
 10
11.412027
 20
2.002023
 30
0.0
 10
11.412027
 20
2.075481
 30
0.0
 10
11.352486
 20
2.135022
 30
0.0
 10
11.279027
 20
2.135022
 30
0.0
  0
SPLINE
  5
138
100
AcDbEntity
  8
Page_1
 62
7
100
AcDbSpline
 70
8
 71
3
 72
8
 73
4
 74
0
 40
0
 40
0
 40
0
 40
0
 40
1
 40
1
 40
1
 40
1
 10
11.279027
 20
2.135022
 30
0.0
 10
11.205569
 20
2.135022
 30
0.0
 10
11.146028
 20
2.075481
 30
0.0
 10
11.146028
 20
2.002023
 30
0.0
  0
SPLINE
  5
139
100
AcDbEntity
  8
Page_1
 62
7
100
AcDbSpline
 70
8
 71
3
 72
8
 73
4
 74
0
 40
0
 40
0
 40
0
 40
0
 40
1
 40
1
 40
1
 40
1
 10
11.146028
 20
2.002023
 30
0.0
 10
11.146028
 20
1.928565
 30
0.0
 10
11.205569
 20
1.869023
 30
0.0
 10
11.279027
 20
1.869023
 30
0.0
  0
SPLINE
  5
13a
100
AcDbEntity
  8
Page_1
 62
7
100
AcDbSpline
 70
8
 71
3
 72
8
 73
4
 74
0
 40
0
 40
0
 40
0
 40
0
 40
1
 40
1
 40
1
 40
1
 10
11.279027
 20
1.869023
 30
0.0
 10
11.352486
 20
1.869023
 30
0.0
 10
11.412027
 20
1.928565
 30
0.0
 10
11.412027
 20
2.002023
 30
0.0
  0
LWPOLYLINE
  5
13b
100
AcDbEntity
  8
Page_1
 62
7
100
AcDbPolyline
 90
1
 70
1
 10
11.543277
 20
5.041835
 30
0.0
  0
SPLINE
  5
13c
100
AcDbEntity
  8
Page_1
 62
7
100
AcDbSpline
 70
8
 71
3
 72
8
 73
4
 74
0
 40
0
 40
0
 40
0
 40
0
 40
1
 40
1
 40
1
 40
1
 10
10.818584
 20
2.318689
 30
0.0
 10
10.818584
 20
2.374189
 30
0.0
 10
10.773584
 20
2.419188
 30
0.0
 10
10.718084
 20
2.419188
 30
0.0
  0
SPLINE
  5
13d
100
AcDbEntity
  8
Page_1
 62
7
100
AcDbSpline
 70
8
 71
3
 72
8
 73
4
 74
0
 40
0
 40
0
 40
0
 40
0
 40
1
 40
1
 40
1
 40
1
 10
10.718084
 20
2.419188
 30
0.0
 10
10.662584
 20
2.419188
 30
0.0
 10
10.617585
 20
2.374189
 30
0.0
 10
10.617585
 20
2.318689
 30
0.0
  0
SPLINE
  5
13e
100
AcDbEntity
  8
Page_1
 62
7
100
AcDbSpline
 70
8
 71
3
 72
8
 73
4
 74
0
 40
0
 40
0
 40
0
 40
0
 40
1
 40
1
 40
1
 40
1
 10
10.617585
 20
2.318689
 30
0.0
 10
10.617585
 20
2.263189
 30
0.0
 10
10.662584
 20
2.218189
 30
0.0
 10
10.718084
 20
2.218189
 30
0.0
  0
SPLINE
  5
13f
100
AcDbEntity
  8
Page_1
 62
7
100
AcDbSpline
 70
8
 71
3
 72
8
 73
4
 74
0
 40
0
 40
0
 40
0
 40
0
 40
1
 40
1
 40
1
 40
1
 10
10.718084
 20
2.218189
 30
0.0
 10
10.773584
 20
2.218189
 30
0.0
 10
10.818584
 20
2.263189
 30
0.0
 10
10.818584
 20
2.318689
 30
0.0
  0
LWPOLYLINE
  5
140
100
AcDbEntity
  8
Page_1
 62
7
100
AcDbPolyline
 90
1
 70
1
 10
11.412027
 20
2.002023
 30
0.0
  0
SPLINE
  5
141
100
AcDbEntity
  8
Page_1
 62
7
100
AcDbSpline
 70
8
 71
3
 72
8
 73
4
 74
0
 40
0
 40
0
 40
0
 40
0
 40
1
 40
1
 40
1
 40
1
 10
10.818584
 20
10.914584
 30
0.0
 10
10.818584
 20
10.970084
 30
0.0
 10
10.773584
 20
11.015084
 30
0.0
 10
10.718084
 20
11.015084
 30
0.0
  0
SPLINE
  5
142
100
AcDbEntity
  8
Page_1
 62
7
100
AcDbSpline
 70
8
 71
3
 72
8
 73
4
 74
0
 40
0
 40
0
 40
0
 40
0
 40
1
 40
1
 40
1
 40
1
 10
10.718084
 20
11.015084
 30
0.0
 10
10.662584
 20
11.015084
 30
0.0
 10
10.617585
 20
10.970084
 30
0.0
 10
10.617585
 20
10.914584
 30
0.0
  0
SPLINE
  5
143
100
AcDbEntity
  8
Page_1
 62
7
100
AcDbSpline
 70
8
 71
3
 72
8
 73
4
 74
0
 40
0
 40
0
 40
0
 40
0
 40
1
 40
1
 40
1
 40
1
 10
10.617585
 20
10.914584
 30
0.0
 10
10.617585
 20
10.859084
 30
0.0
 10
10.662584
 20
10.814084
 30
0.0
 10
10.718084
 20
10.814084
 30
0.0
  0
SPLINE
  5
144
100
AcDbEntity
  8
Page_1
 62
7
100
AcDbSpline
 70
8
 71
3
 72
8
 73
4
 74
0
 40
0
 40
0
 40
0
 40
0
 40
1
 40
1
 40
1
 40
1
 10
10.718084
 20
10.814084
 30
0.0
 10
10.773584
 20
10.814084
 30
0.0
 10
10.818584
 20
10.859084
 30
0.0
 10
10.818584
 20
10.914584
 30
0.0
  0
LWPOLYLINE
  5
145
100
AcDbEntity
  8
Page_1
 62
7
100
AcDbPolyline
 90
1
 70
1
 10
10.818584
 20
2.318689
 30
0.0
  0
LWPOLYLINE
  5
146
100
AcDbEntity
  8
Page_1
 62
7
100
AcDbPolyline
 90
1
 70
1
 10
10.818584
 20
10.914584
 30
0.0
  0
LWPOLYLINE
  5
147
100
AcDbEntity
  8
Page_1
 62
7
100
AcDbPolyline
 90
2
 70
0
 10
10.692112
 20
11.445332
 30
0.0
 10
11.402833
 20
11.570652
 30
0.0
  0
LWPOLYLINE
  5
148
100
AcDbEntity
  8
Page_1
 62
7
100
AcDbPolyline
 90
3
 70
0
 10
10.674196
 20
3.216103
 30
0.0
 10
9.963475
 20
3.341422
 30
0.0
 10
9.731531
 20
3.065006
 30
0.0
  0
SPLINE
  5
149
100
AcDbEntity
  8
Page_1
 62
7
100
AcDbSpline
 70
8
 71
3
 72
8
 73
4
 74
0
 40
0
 40
0
 40
0
 40
0
 40
1
 40
1
 40
1
 40
1
 10
0.396264
 20
9.040630
 30
0.0
 10
0.396264
 20
8.988783
 30
0.0
 10
0.435889
 20
8.945533
 30
0.0
 10
0.487542
 20
8.941005
 30
0.0
  0
LWPOLYLINE
  5
14a
100
AcDbEntity
  8
Page_1
 62
7
100
AcDbPolyline
 90
4
 70
0
 10
10.692112
 20
1.787940
 30
0.0
 10
11.402833
 20
1.662621
 30
0.0
 10
11.634776
 20
1.939037
 30
0.0
 10
11.387944
 20
2.617216
 30
0.0
  0
SPLINE
  5
14b
100
AcDbEntity
  8
Page_1
 62
7
100
AcDbSpline
 70
8
 71
3
 72
8
 73
4
 74
0
 40
0
 40
0
 40
0
 40
0
 40
1
 40
1
 40
1
 40
1
 10
0.496264
 20
11.690415
 30
0.0
 10
0.441042
 20
11.690415
 30
0.0
 10
0.396264
 20
11.645638
 30
0.0
 10
0.396264
 20
11.590415
 30
0.0
  0
LWPOLYLINE
  5
14c
100
AcDbEntity
  8
Page_1
 62
7
100
AcDbPolyline
 90
2
 70
0
 10
0.396264
 20
11.590415
 30
0.0
 10
0.396264
 20
9.040630
 30
0.0
  0
SPLINE
  5
14d
100
AcDbEntity
  8
Page_1
 62
7
100
AcDbSpline
 70
8
 71
3
 72
8
 73
4
 74
0
 40
0
 40
0
 40
0
 40
0
 40
1
 40
1
 40
1
 40
1
 10
3.295714
 20
11.607777
 30
0.0
 10
3.287283
 20
11.655568
 30
0.0
 10
3.245756
 20
11.690415
 30
0.0
 10
3.197228
 20
11.690415
 30
0.0
  0
LWPOLYLINE
  5
14e
100
AcDbEntity
  8
Page_1
 62
7
100
AcDbPolyline
 90
2
 70
0
 10
3.197242
 20
11.690415
 30
0.0
 10
0.496263
 20
11.690415
 30
0.0
  0
SPLINE
  5
14f
100
AcDbEntity
  8
Page_1
 62
7
100
AcDbSpline
 70
8
 71
3
 72
8
 73
4
 74
0
 40
0
 40
0
 40
0
 40
0
 40
1
 40
1
 40
1
 40
1
 10
3.687477
 20
8.661048
 30
0.0
 10
3.742491
 20
8.656228
 30
0.0
 10
3.791004
 20
8.696937
 30
0.0
 10
3.795810
 20
8.751950
 30
0.0
  0
SPLINE
  5
150
100
AcDbEntity
  8
Page_1
 62
7
100
AcDbSpline
 70
8
 71
3
 72
8
 73
4
 74
0
 40
0
 40
0
 40
0
 40
0
 40
1
 40
1
 40
1
 40
1
 10
3.795810
 20
8.751950
 30
0.0
 10
3.796574
 20
8.760659
 30
0.0
 10
3.796185
 20
8.769423
 30
0.0
 10
3.794671
 20
8.778034
 30
0.0
  0
LWPOLYLINE
  5
151
100
AcDbEntity
  8
Page_1
 62
7
100
AcDbPolyline
 90
2
 70
0
 10
3.794671
 20
8.778034
 30
0.0
 10
3.295714
 20
11.607777
 30
0.0
  0
SPLINE
  5
152
100
AcDbEntity
  8
Page_1
 62
7
100
AcDbSpline
 70
8
 71
3
 72
8
 73
4
 74
0
 40
0
 40
0
 40
0
 40
0
 40
1
 40
1
 40
1
 40
1
 10
1.529260
 20
9.147810
 30
0.0
 10
1.529260
 20
9.221269
 30
0.0
 10
1.469719
 20
9.280810
 30
0.0
 10
1.396260
 20
9.280810
 30
0.0
  0
SPLINE
  5
153
100
AcDbEntity
  8
Page_1
 62
7
100
AcDbSpline
 70
8
 71
3
 72
8
 73
4
 74
0
 40
0
 40
0
 40
0
 40
0
 40
1
 40
1
 40
1
 40
1
 10
1.396260
 20
9.280810
 30
0.0
 10
1.322802
 20
9.280810
 30
0.0
 10
1.263261
 20
9.221269
 30
0.0
 10
1.263261
 20
9.147810
 30
0.0
  0
SPLINE
  5
154
100
AcDbEntity
  8
Page_1
 62
7
100
AcDbSpline
 70
8
 71
3
 72
8
 73
4
 74
0
 40
0
 40
0
 40
0
 40
0
 40
1
 40
1
 40
1
 40
1
 10
1.263261
 20
9.147810
 30
0.0
 10
1.263261
 20
9.074352
 30
0.0
 10
1.322802
 20
9.014811
 30
0.0
 10
1.396260
 20
9.014811
 30
0.0
  0
SPLINE
  5
155
100
AcDbEntity
  8
Page_1
 62
7
100
AcDbSpline
 70
8
 71
3
 72
8
 73
4
 74
0
 40
0
 40
0
 40
0
 40
0
 40
1
 40
1
 40
1
 40
1
 10
1.396260
 20
9.014811
 30
0.0
 10
1.469719
 20
9.014811
 30
0.0
 10
1.529260
 20
9.074352
 30
0.0
 10
1.529260
 20
9.147810
 30
0.0
  0
LWPOLYLINE
  5
156
100
AcDbEntity
  8
Page_1
 62
7
100
AcDbPolyline
 90
2
 70
0
 10
0.487549
 20
8.941005
 30
0.0
 10
3.687485
 20
8.661048
 30
0.0
  0
SPLINE
  5
157
100
AcDbEntity
  8
Page_1
 62
7
100
AcDbSpline
 70
8
 71
3
 72
8
 73
4
 74
0
 40
0
 40
0
 40
0
 40
0
 40
1
 40
1
 40
1
 40
1
 10
3.524033
 20
8.973283
 30
0.0
 10
3.524033
 20
9.046741
 30
0.0
 10
3.464491
 20
9.106283
 30
0.0
 10
3.391033
 20
9.106283
 30
0.0
  0
SPLINE
  5
158
100
AcDbEntity
  8
Page_1
 62
7
100
AcDbSpline
 70
8
 71
3
 72
8
 73
4
 74
0
 40
0
 40
0
 40
0
 40
0
 40
1
 40
1
 40
1
 40
1
 10
3.391033
 20
9.106283
 30
0.0
 10
3.317575
 20
9.106283
 30
0.0
 10
3.258034
 20
9.046741
 30
0.0
 10
3.258034
 20
8.973283
 30
0.0
  0
SPLINE
  5
159
100
AcDbEntity
  8
Page_1
 62
7
100
AcDbSpline
 70
8
 71
3
 72
8
 73
4
 74
0
 40
0
 40
0
 40
0
 40
0
 40
1
 40
1
 40
1
 40
1
 10
3.258034
 20
8.973283
 30
0.0
 10
3.258034
 20
8.899825
 30
0.0
 10
3.317575
 20
8.840283
 30
0.0
 10
3.391033
 20
8.840283
 30
0.0
  0
SPLINE
  5
15a
100
AcDbEntity
  8
Page_1
 62
7
100
AcDbSpline
 70
8
 71
3
 72
8
 73
4
 74
0
 40
0
 40
0
 40
0
 40
0
 40
1
 40
1
 40
1
 40
1
 10
3.391033
 20
8.840283
 30
0.0
 10
3.464491
 20
8.840283
 30
0.0
 10
3.524033
 20
8.899825
 30
0.0
 10
3.524033
 20
8.973283
 30
0.0
  0
LWPOLYLINE
  5
15b
100
AcDbEntity
  8
Page_1
 62
7
100
AcDbPolyline
 90
1
 70
1
 10
1.529260
 20
9.147810
 30
0.0
  0
SPLINE
  5
15c
100
AcDbEntity
  8
Page_1
 62
7
100
AcDbSpline
 70
8
 71
3
 72
8
 73
4
 74
0
 40
0
 40
0
 40
0
 40
0
 40
1
 40
1
 40
1
 40
1
 10
0.824540
 20
9.948989
 30
0.0
 10
0.824540
 20
10.022447
 30
0.0
 10
0.764998
 20
10.081989
 30
0.0
 10
0.691540
 20
10.081989
 30
0.0
  0
SPLINE
  5
15d
100
AcDbEntity
  8
Page_1
 62
7
100
AcDbSpline
 70
8
 71
3
 72
8
 73
4
 74
0
 40
0
 40
0
 40
0
 40
0
 40
1
 40
1
 40
1
 40
1
 10
0.691540
 20
10.081989
 30
0.0
 10
0.618082
 20
10.081989
 30
0.0
 10
0.558540
 20
10.022447
 30
0.0
 10
0.558540
 20
9.948989
 30
0.0
  0
SPLINE
  5
15e
100
AcDbEntity
  8
Page_1
 62
7
100
AcDbSpline
 70
8
 71
3
 72
8
 73
4
 74
0
 40
0
 40
0
 40
0
 40
0
 40
1
 40
1
 40
1
 40
1
 10
0.558540
 20
9.948989
 30
0.0
 10
0.558540
 20
9.875531
 30
0.0
 10
0.618082
 20
9.815989
 30
0.0
 10
0.691540
 20
9.815989
 30
0.0
  0
SPLINE
  5
15f
100
AcDbEntity
  8
Page_1
 62
7
100
AcDbSpline
 70
8
 71
3
 72
8
 73
4
 74
0
 40
0
 40
0
 40
0
 40
0
 40
1
 40
1
 40
1
 40
1
 10
0.691540
 20
9.815989
 30
0.0
 10
0.764998
 20
9.815989
 30
0.0
 10
0.824540
 20
9.875531
 30
0.0
 10
0.824540
 20
9.948989
 30
0.0
  0
LWPOLYLINE
  5
160
100
AcDbEntity
  8
Page_1
 62
7
100
AcDbPolyline
 90
1
 70
1
 10
3.524033
 20
8.973283
 30
0.0
  0
SPLINE
  5
161
100
AcDbEntity
  8
Page_1
 62
7
100
AcDbSpline
 70
8
 71
3
 72
8
 73
4
 74
0
 40
0
 40
0
 40
0
 40
0
 40
1
 40
1
 40
1
 40
1
 10
0.824540
 20
11.315416
 30
0.0
 10
0.824540
 20
11.388874
 30
0.0
 10
0.764998
 20
11.448416
 30
0.0
 10
0.691540
 20
11.448416
 30
0.0
  0
SPLINE
  5
162
100
AcDbEntity
  8
Page_1
 62
7
100
AcDbSpline
 70
8
 71
3
 72
8
 73
4
 74
0
 40
0
 40
0
 40
0
 40
0
 40
1
 40
1
 40
1
 40
1
 10
0.691540
 20
11.448416
 30
0.0
 10
0.618082
 20
11.448416
 30
0.0
 10
0.558540
 20
11.388874
 30
0.0
 10
0.558540
 20
11.315416
 30
0.0
  0
SPLINE
  5
163
100
AcDbEntity
  8
Page_1
 62
7
100
AcDbSpline
 70
8
 71
3
 72
8
 73
4
 74
0
 40
0
 40
0
 40
0
 40
0
 40
1
 40
1
 40
1
 40
1
 10
0.558540
 20
11.315416
 30
0.0
 10
0.558540
 20
11.241958
 30
0.0
 10
0.618082
 20
11.182416
 30
0.0
 10
0.691540
 20
11.182416
 30
0.0
  0
SPLINE
  5
164
100
AcDbEntity
  8
Page_1
 62
7
100
AcDbSpline
 70
8
 71
3
 72
8
 73
4
 74
0
 40
0
 40
0
 40
0
 40
0
 40
1
 40
1
 40
1
 40
1
 10
0.691540
 20
11.182416
 30
0.0
 10
0.764998
 20
11.182416
 30
0.0
 10
0.824540
 20
11.241958
 30
0.0
 10
0.824540
 20
11.315416
 30
0.0
  0
LWPOLYLINE
  5
165
100
AcDbEntity
  8
Page_1
 62
7
100
AcDbPolyline
 90
1
 70
1
 10
0.824540
 20
9.948989
 30
0.0
  0
SPLINE
  5
166
100
AcDbEntity
  8
Page_1
 62
7
100
AcDbSpline
 70
8
 71
3
 72
8
 73
4
 74
0
 40
0
 40
0
 40
0
 40
0
 40
1
 40
1
 40
1
 40
1
 10
1.820857
 20
9.940489
 30
0.0
 10
1.820857
 20
9.989364
 30
0.0
 10
1.781232
 20
10.028989
 30
0.0
 10
1.732357
 20
10.028989
 30
0.0
  0
SPLINE
  5
167
100
AcDbEntity
  8
Page_1
 62
7
100
AcDbSpline
 70
8
 71
3
 72
8
 73
4
 74
0
 40
0
 40
0
 40
0
 40
0
 40
1
 40
1
 40
1
 40
1
 10
1.732357
 20
10.028989
 30
0.0
 10
1.683482
 20
10.028989
 30
0.0
 10
1.643857
 20
9.989364
 30
0.0
 10
1.643857
 20
9.940489
 30
0.0
  0
SPLINE
  5
168
100
AcDbEntity
  8
Page_1
 62
7
100
AcDbSpline
 70
8
 71
3
 72
8
 73
4
 74
0
 40
0
 40
0
 40
0
 40
0
 40
1
 40
1
 40
1
 40
1
 10
1.643857
 20
9.940489
 30
0.0
 10
1.643857
 20
9.891614
 30
0.0
 10
1.683482
 20
9.851989
 30
0.0
 10
1.732357
 20
9.851989
 30
0.0
  0
SPLINE
  5
169
100
AcDbEntity
  8
Page_1
 62
7
100
AcDbSpline
 70
8
 71
3
 72
8
 73
4
 74
0
 40
0
 40
0
 40
0
 40
0
 40
1
 40
1
 40
1
 40
1
 10
1.732357
 20
9.851989
 30
0.0
 10
1.781232
 20
9.851989
 30
0.0
 10
1.820857
 20
9.891614
 30
0.0
 10
1.820857
 20
9.940489
 30
0.0
  0
LWPOLYLINE
  5
16a
100
AcDbEntity
  8
Page_1
 62
7
100
AcDbPolyline
 90
1
 70
1
 10
0.824540
 20
11.315416
 30
0.0
  0
SPLINE
  5
16b
100
AcDbEntity
  8
Page_1
 62
7
100
AcDbSpline
 70
8
 71
3
 72
8
 73
4
 74
0
 40
0
 40
0
 40
0
 40
0
 40
1
 40
1
 40
1
 40
1
 10
2.820701
 20
10.940348
 30
0.0
 10
2.820701
 20
10.989223
 30
0.0
 10
2.781076
 20
11.028847
 30
0.0
 10
2.732202
 20
11.028847
 30
0.0
  0
SPLINE
  5
16c
100
AcDbEntity
  8
Page_1
 62
7
100
AcDbSpline
 70
8
 71
3
 72
8
 73
4
 74
0
 40
0
 40
0
 40
0
 40
0
 40
1
 40
1
 40
1
 40
1
 10
2.732202
 20
11.028847
 30
0.0
 10
2.683327
 20
11.028847
 30
0.0
 10
2.643702
 20
10.989223
 30
0.0
 10
2.643702
 20
10.940348
 30
0.0
  0
SPLINE
  5
16d
100
AcDbEntity
  8
Page_1
 62
7
100
AcDbSpline
 70
8
 71
3
 72
8
 73
4
 74
0
 40
0
 40
0
 40
0
 40
0
 40
1
 40
1
 40
1
 40
1
 10
2.643702
 20
10.940348
 30
0.0
 10
2.643702
 20
10.891473
 30
0.0
 10
2.683327
 20
10.851848
 30
0.0
 10
2.732202
 20
10.851848
 30
0.0
  0
SPLINE
  5
16e
100
AcDbEntity
  8
Page_1
 62
7
100
AcDbSpline
 70
8
 71
3
 72
8
 73
4
 74
0
 40
0
 40
0
 40
0
 40
0
 40
1
 40
1
 40
1
 40
1
 10
2.732202
 20
10.851848
 30
0.0
 10
2.781076
 20
10.851848
 30
0.0
 10
2.820701
 20
10.891473
 30
0.0
 10
2.820701
 20
10.940348
 30
0.0
  0
LWPOLYLINE
  5
16f
100
AcDbEntity
  8
Page_1
 62
7
100
AcDbPolyline
 90
1
 70
1
 10
1.820857
 20
9.940489
 30
0.0
  0
SPLINE
  5
170
100
AcDbEntity
  8
Page_1
 62
7
100
AcDbSpline
 70
8
 71
3
 72
8
 73
4
 74
0
 40
0
 40
0
 40
0
 40
0
 40
1
 40
1
 40
1
 40
1
 10
7.264371
 20
8.345910
 30
0.0
 10
7.195329
 20
8.465479
 30
0.0
 10
7.042441
 20
8.506451
 30
0.0
 10
6.922872
 20
8.437409
 30
0.0
  0
LWPOLYLINE
  5
171
100
AcDbEntity
  8
Page_1
 62
7
100
AcDbPolyline
 90
1
 70
1
 10
2.820701
 20
10.940348
 30
0.0
  0
SPLINE
  5
172
100
AcDbEntity
  8
Page_1
 62
7
100
AcDbSpline
 70
8
 71
3
 72
8
 73
4
 74
0
 40
0
 40
0
 40
0
 40
0
 40
1
 40
1
 40
1
 40
1
 10
8.197105
 20
6.663372
 30
0.0
 10
8.197105
 20
6.707261
 30
0.0
 10
8.185549
 20
6.750372
 30
0.0
 10
8.163605
 20
6.788372
 30
0.0
  0
LWPOLYLINE
  5
173
100
AcDbEntity
  8
Page_1
 62
7
100
AcDbPolyline
 90
2
 70
0
 10
8.163618
 20
6.788372
 30
0.0
 10
7.264385
 20
8.345896
 30
0.0
  0
SPLINE
  5
174
100
AcDbEntity
  8
Page_1
 62
7
100
AcDbSpline
 70
8
 71
3
 72
8
 73
4
 74
0
 40
0
 40
0
 40
0
 40
0
 40
1
 40
1
 40
1
 40
1
 10
8.072105
 20
5.636833
 30
0.0
 10
8.149452
 20
5.681486
 30
0.0
 10
8.197105
 20
5.764027
 30
0.0
 10
8.197105
 20
5.853333
 30
0.0
  0
LWPOLYLINE
  5
175
100
AcDbEntity
  8
Page_1
 62
7
100
AcDbPolyline
 90
2
 70
0
 10
8.197105
 20
5.853333
 30
0.0
 10
8.197105
 20
6.663372
 30
0.0
  0
SPLINE
  5
176
100
AcDbEntity
  8
Page_1
 62
7
100
AcDbSpline
 70
8
 71
3
 72
8
 73
4
 74
0
 40
0
 40
0
 40
0
 40
0
 40
1
 40
1
 40
1
 40
1
 10
7.074788
 20
5.061029
 30
0.0
 10
6.997441
 20
5.016376
 30
0.0
 10
6.949788
 20
4.933835
 30
0.0
 10
6.949788
 20
4.844530
 30
0.0
  0
LWPOLYLINE
  5
177
100
AcDbEntity
  8
Page_1
 62
7
100
AcDbPolyline
 90
2
 70
0
 10
7.074788
 20
5.061029
 30
0.0
 10
8.072105
 20
5.636833
 30
0.0
  0
SPLINE
  5
178
100
AcDbEntity
  8
Page_1
 62
7
100
AcDbSpline
 70
8
 71
3
 72
8
 73
4
 74
0
 40
0
 40
0
 40
0
 40
0
 40
1
 40
1
 40
1
 40
1
 10
6.699789
 20
3.855976
 30
0.0
 10
6.837858
 20
3.855976
 30
0.0
 10
6.949788
 20
3.967907
 30
0.0
 10
6.949788
 20
4.105976
 30
0.0
  0
LWPOLYLINE
  5
179
100
AcDbEntity
  8
Page_1
 62
7
100
AcDbPolyline
 90
2
 70
0
 10
6.949788
 20
4.105976
 30
0.0
 10
6.949788
 20
4.844530
 30
0.0
  0
SPLINE
  5
17a
100
AcDbEntity
  8
Page_1
 62
7
100
AcDbSpline
 70
8
 71
3
 72
8
 73
4
 74
0
 40
0
 40
0
 40
0
 40
0
 40
1
 40
1
 40
1
 40
1
 10
4.449794
 20
4.105976
 30
0.0
 10
4.449794
 20
3.967907
 30
0.0
 10
4.561725
 20
3.855976
 30
0.0
 10
4.699794
 20
3.855976
 30
0.0
  0
LWPOLYLINE
  5
17b
100
AcDbEntity
  8
Page_1
 62
7
100
AcDbPolyline
 90
2
 70
0
 10
4.699794
 20
3.855976
 30
0.0
 10
6.699789
 20
3.855976
 30
0.0
  0
SPLINE
  5
17c
100
AcDbEntity
  8
Page_1
 62
7
100
AcDbSpline
 70
8
 71
3
 72
8
 73
4
 74
0
 40
0
 40
0
 40
0
 40
0
 40
1
 40
1
 40
1
 40
1
 10
4.574794
 20
7.081746
 30
0.0
 10
4.497447
 20
7.037094
 30
0.0
 10
4.449794
 20
6.954552
 30
0.0
 10
4.449794
 20
6.865247
 30
0.0
  0
LWPOLYLINE
  5
17d
100
AcDbEntity
  8
Page_1
 62
7
100
AcDbPolyline
 90
2
 70
0
 10
4.449794
 20
6.865247
 30
0.0
 10
4.449794
 20
4.105976
 30
0.0
  0
SPLINE
  5
17e
100
AcDbEntity
  8
Page_1
 62
7
100
AcDbSpline
 70
8
 71
3
 72
8
 73
4
 74
0
 40
0
 40
0
 40
0
 40
0
 40
1
 40
1
 40
1
 40
1
 10
6.574789
 20
4.288975
 30
0.0
 10
6.501331
 20
4.288975
 30
0.0
 10
6.441789
 20
4.229434
 30
0.0
 10
6.441789
 20
4.155976
 30
0.0
  0
SPLINE
  5
17f
100
AcDbEntity
  8
Page_1
 62
7
100
AcDbSpline
 70
8
 71
3
 72
8
 73
4
 74
0
 40
0
 40
0
 40
0
 40
0
 40
1
 40
1
 40
1
 40
1
 10
6.441789
 20
4.155976
 30
0.0
 10
6.441789
 20
4.082518
 30
0.0
 10
6.501331
 20
4.022976
 30
0.0
 10
6.574789
 20
4.022976
 30
0.0
  0
SPLINE
  5
180
100
AcDbEntity
  8
Page_1
 62
7
100
AcDbSpline
 70
8
 71
3
 72
8
 73
4
 74
0
 40
0
 40
0
 40
0
 40
0
 40
1
 40
1
 40
1
 40
1
 10
6.574789
 20
4.022976
 30
0.0
 10
6.648247
 20
4.022976
 30
0.0
 10
6.707789
 20
4.082518
 30
0.0
 10
6.707789
 20
4.155976
 30
0.0
  0
SPLINE
  5
181
100
AcDbEntity
  8
Page_1
 62
7
100
AcDbSpline
 70
8
 71
3
 72
8
 73
4
 74
0
 40
0
 40
0
 40
0
 40
0
 40
1
 40
1
 40
1
 40
1
 10
6.707789
 20
4.155976
 30
0.0
 10
6.707789
 20
4.229434
 30
0.0
 10
6.648247
 20
4.288975
 30
0.0
 10
6.574789
 20
4.288975
 30
0.0
  0
LWPOLYLINE
  5
182
100
AcDbEntity
  8
Page_1
 62
7
100
AcDbPolyline
 90
2
 70
0
 10
6.922872
 20
8.437409
 30
0.0
 10
4.574794
 20
7.081746
 30
0.0
  0
SPLINE
  5
183
100
AcDbEntity
  8
Page_1
 62
7
100
AcDbSpline
 70
8
 71
3
 72
8
 73
4
 74
0
 40
0
 40
0
 40
0
 40
0
 40
1
 40
1
 40
1
 40
1
 10
4.824793
 20
4.288975
 30
0.0
 10
4.751335
 20
4.288975
 30
0.0
 10
4.691794
 20
4.229434
 30
0.0
 10
4.691794
 20
4.155976
 30
0.0
  0
SPLINE
  5
184
100
AcDbEntity
  8
Page_1
 62
7
100
AcDbSpline
 70
8
 71
3
 72
8
 73
4
 74
0
 40
0
 40
0
 40
0
 40
0
 40
1
 40
1
 40
1
 40
1
 10
4.691794
 20
4.155976
 30
0.0
 10
4.691794
 20
4.082518
 30
0.0
 10
4.751335
 20
4.022976
 30
0.0
 10
4.824793
 20
4.022976
 30
0.0
  0
SPLINE
  5
185
100
AcDbEntity
  8
Page_1
 62
7
100
AcDbSpline
 70
8
 71
3
 72
8
 73
4
 74
0
 40
0
 40
0
 40
0
 40
0
 40
1
 40
1
 40
1
 40
1
 10
4.824793
 20
4.022976
 30
0.0
 10
4.898252
 20
4.022976
 30
0.0
 10
4.957793
 20
4.082518
 30
0.0
 10
4.957793
 20
4.155976
 30
0.0
  0
SPLINE
  5
186
100
AcDbEntity
  8
Page_1
 62
7
100
AcDbSpline
 70
8
 71
3
 72
8
 73
4
 74
0
 40
0
 40
0
 40
0
 40
0
 40
1
 40
1
 40
1
 40
1
 10
4.957793
 20
4.155976
 30
0.0
 10
4.957793
 20
4.229434
 30
0.0
 10
4.898252
 20
4.288975
 30
0.0
 10
4.824793
 20
4.288975
 30
0.0
  0
LWPOLYLINE
  5
187
100
AcDbEntity
  8
Page_1
 62
7
100
AcDbPolyline
 90
1
 70
1
 10
6.574789
 20
4.288975
 30
0.0
  0
SPLINE
  5
188
100
AcDbEntity
  8
Page_1
 62
7
100
AcDbSpline
 70
8
 71
3
 72
8
 73
4
 74
0
 40
0
 40
0
 40
0
 40
0
 40
1
 40
1
 40
1
 40
1
 10
7.901827
 20
6.104526
 30
0.0
 10
7.828369
 20
6.104526
 30
0.0
 10
7.768828
 20
6.044985
 30
0.0
 10
7.768828
 20
5.971527
 30
0.0
  0
SPLINE
  5
189
100
AcDbEntity
  8
Page_1
 62
7
100
AcDbSpline
 70
8
 71
3
 72
8
 73
4
 74
0
 40
0
 40
0
 40
0
 40
0
 40
1
 40
1
 40
1
 40
1
 10
7.768828
 20
5.971527
 30
0.0
 10
7.768828
 20
5.898069
 30
0.0
 10
7.828369
 20
5.838527
 30
0.0
 10
7.901827
 20
5.838527
 30
0.0
  0
SPLINE
  5
18a
100
AcDbEntity
  8
Page_1
 62
7
100
AcDbSpline
 70
8
 71
3
 72
8
 73
4
 74
0
 40
0
 40
0
 40
0
 40
0
 40
1
 40
1
 40
1
 40
1
 10
7.901827
 20
5.838527
 30
0.0
 10
7.975286
 20
5.838527
 30
0.0
 10
8.034827
 20
5.898069
 30
0.0
 10
8.034827
 20
5.971527
 30
0.0
  0
SPLINE
  5
18b
100
AcDbEntity
  8
Page_1
 62
7
100
AcDbSpline
 70
8
 71
3
 72
8
 73
4
 74
0
 40
0
 40
0
 40
0
 40
0
 40
1
 40
1
 40
1
 40
1
 10
8.034827
 20
5.971527
 30
0.0
 10
8.034827
 20
6.044985
 30
0.0
 10
7.975286
 20
6.104526
 30
0.0
 10
7.901827
 20
6.104526
 30
0.0
  0
LWPOLYLINE
  5
18c
100
AcDbEntity
  8
Page_1
 62
7
100
AcDbPolyline
 90
1
 70
1
 10
4.824793
 20
4.288975
 30
0.0
  0
SPLINE
  5
18d
100
AcDbEntity
  8
Page_1
 62
7
100
AcDbSpline
 70
8
 71
3
 72
8
 73
4
 74
0
 40
0
 40
0
 40
0
 40
0
 40
1
 40
1
 40
1
 40
1
 10
7.071163
 20
8.223007
 30
0.0
 10
6.997705
 20
8.223007
 30
0.0
 10
6.938163
 20
8.163466
 30
0.0
 10
6.938163
 20
8.090008
 30
0.0
  0
SPLINE
  5
18e
100
AcDbEntity
  8
Page_1
 62
7
100
AcDbSpline
 70
8
 71
3
 72
8
 73
4
 74
0
 40
0
 40
0
 40
0
 40
0
 40
1
 40
1
 40
1
 40
1
 10
6.938163
 20
8.090008
 30
0.0
 10
6.938163
 20
8.016549
 30
0.0
 10
6.997705
 20
7.957008
 30
0.0
 10
7.071163
 20
7.957008
 30
0.0
  0
SPLINE
  5
18f
100
AcDbEntity
  8
Page_1
 62
7
100
AcDbSpline
 70
8
 71
3
 72
8
 73
4
 74
0
 40
0
 40
0
 40
0
 40
0
 40
1
 40
1
 40
1
 40
1
 10
7.071163
 20
7.957008
 30
0.0
 10
7.144621
 20
7.957008
 30
0.0
 10
7.204163
 20
8.016549
 30
0.0
 10
7.204163
 20
8.090008
 30
0.0
  0
SPLINE
  5
190
100
AcDbEntity
  8
Page_1
 62
7
100
AcDbSpline
 70
8
 71
3
 72
8
 73
4
 74
0
 40
0
 40
0
 40
0
 40
0
 40
1
 40
1
 40
1
 40
1
 10
7.204163
 20
8.090008
 30
0.0
 10
7.204163
 20
8.163466
 30
0.0
 10
7.144621
 20
8.223007
 30
0.0
 10
7.071163
 20
8.223007
 30
0.0
  0
LWPOLYLINE
  5
191
100
AcDbEntity
  8
Page_1
 62
7
100
AcDbPolyline
 90
1
 70
1
 10
7.901827
 20
6.104526
 30
0.0
  0
SPLINE
  5
192
100
AcDbEntity
  8
Page_1
 62
7
100
AcDbSpline
 70
8
 71
3
 72
8
 73
4
 74
0
 40
0
 40
0
 40
0
 40
0
 40
1
 40
1
 40
1
 40
1
 10
5.699875
 20
5.876471
 30
0.0
 10
5.651000
 20
5.876471
 30
0.0
 10
5.611375
 20
5.836847
 30
0.0
 10
5.611375
 20
5.787972
 30
0.0
  0
SPLINE
  5
193
100
AcDbEntity
  8
Page_1
 62
7
100
AcDbSpline
 70
8
 71
3
 72
8
 73
4
 74
0
 40
0
 40
0
 40
0
 40
0
 40
1
 40
1
 40
1
 40
1
 10
5.611375
 20
5.787972
 30
0.0
 10
5.611375
 20
5.739097
 30
0.0
 10
5.651000
 20
5.699472
 30
0.0
 10
5.699875
 20
5.699472
 30
0.0
  0
SPLINE
  5
194
100
AcDbEntity
  8
Page_1
 62
7
100
AcDbSpline
 70
8
 71
3
 72
8
 73
4
 74
0
 40
0
 40
0
 40
0
 40
0
 40
1
 40
1
 40
1
 40
1
 10
5.699875
 20
5.699472
 30
0.0
 10
5.748750
 20
5.699472
 30
0.0
 10
5.788374
 20
5.739097
 30
0.0
 10
5.788374
 20
5.787972
 30
0.0
  0
SPLINE
  5
195
100
AcDbEntity
  8
Page_1
 62
7
100
AcDbSpline
 70
8
 71
3
 72
8
 73
4
 74
0
 40
0
 40
0
 40
0
 40
0
 40
1
 40
1
 40
1
 40
1
 10
5.788374
 20
5.787972
 30
0.0
 10
5.788374
 20
5.836847
 30
0.0
 10
5.748750
 20
5.876471
 30
0.0
 10
5.699875
 20
5.876471
 30
0.0
  0
LWPOLYLINE
  5
196
100
AcDbEntity
  8
Page_1
 62
7
100
AcDbPolyline
 90
1
 70
1
 10
7.071163
 20
8.223007
 30
0.0
  0
SPLINE
  5
197
100
AcDbEntity
  8
Page_1
 62
7
100
AcDbSpline
 70
8
 71
3
 72
8
 73
4
 74
0
 40
0
 40
0
 40
0
 40
0
 40
1
 40
1
 40
1
 40
1
 10
6.699719
 20
6.876316
 30
0.0
 10
6.650844
 20
6.876316
 30
0.0
 10
6.611220
 20
6.836691
 30
0.0
 10
6.611220
 20
6.787816
 30
0.0
  0
SPLINE
  5
198
100
AcDbEntity
  8
Page_1
 62
7
100
AcDbSpline
 70
8
 71
3
 72
8
 73
4
 74
0
 40
0
 40
0
 40
0
 40
0
 40
1
 40
1
 40
1
 40
1
 10
6.611220
 20
6.787816
 30
0.0
 10
6.611220
 20
6.738941
 30
0.0
 10
6.650844
 20
6.699317
 30
0.0
 10
6.699719
 20
6.699317
 30
0.0
  0
SPLINE
  5
199
100
AcDbEntity
  8
Page_1
 62
7
100
AcDbSpline
 70
8
 71
3
 72
8
 73
4
 74
0
 40
0
 40
0
 40
0
 40
0
 40
1
 40
1
 40
1
 40
1
 10
6.699719
 20
6.699317
 30
0.0
 10
6.748594
 20
6.699317
 30
0.0
 10
6.788219
 20
6.738941
 30
0.0
 10
6.788219
 20
6.787816
 30
0.0
  0
SPLINE
  5
19a
100
AcDbEntity
  8
Page_1
 62
7
100
AcDbSpline
 70
8
 71
3
 72
8
 73
4
 74
0
 40
0
 40
0
 40
0
 40
0
 40
1
 40
1
 40
1
 40
1
 10
6.788219
 20
6.787816
 30
0.0
 10
6.788219
 20
6.836691
 30
0.0
 10
6.748594
 20
6.876316
 30
0.0
 10
6.699719
 20
6.876316
 30
0.0
  0
LWPOLYLINE
  5
19b
100
AcDbEntity
  8
Page_1
 62
7
100
AcDbPolyline
 90
1
 70
1
 10
5.699875
 20
5.876471
 30
0.0
  0
SPLINE
  5
19c
100
AcDbEntity
  8
Page_1
 62
7
100
AcDbSpline
 70
8
 71
3
 72
8
 73
4
 74
0
 40
0
 40
0
 40
0
 40
0
 40
1
 40
1
 40
1
 40
1
 10
6.034638
 20
2.562980
 30
0.0
 10
6.034638
 20
2.594507
 30
0.0
 10
6.009082
 20
2.620063
 30
0.0
 10
5.977555
 20
2.620063
 30
0.0
  0
SPLINE
  5
19d
100
AcDbEntity
  8
Page_1
 62
7
100
AcDbSpline
 70
8
 71
3
 72
8
 73
4
 74
0
 40
0
 40
0
 40
0
 40
0
 40
1
 40
1
 40
1
 40
1
 10
5.977555
 20
2.620063
 30
0.0
 10
5.946027
 20
2.620063
 30
0.0
 10
5.920471
 20
2.594507
 30
0.0
 10
5.920471
 20
2.562980
 30
0.0
  0
SPLINE
  5
19e
100
AcDbEntity
  8
Page_1
 62
7
100
AcDbSpline
 70
8
 71
3
 72
8
 73
4
 74
0
 40
0
 40
0
 40
0
 40
0
 40
1
 40
1
 40
1
 40
1
 10
5.920471
 20
2.562980
 30
0.0
 10
5.920471
 20
2.531452
 30
0.0
 10
5.946027
 20
2.505897
 30
0.0
 10
5.977555
 20
2.505897
 30
0.0
  0
SPLINE
  5
19f
100
AcDbEntity
  8
Page_1
 62
7
100
AcDbSpline
 70
8
 71
3
 72
8
 73
4
 74
0
 40
0
 40
0
 40
0
 40
0
 40
1
 40
1
 40
1
 40
1
 10
5.977555
 20
2.505897
 30
0.0
 10
6.009082
 20
2.505897
 30
0.0
 10
6.034638
 20
2.531452
 30
0.0
 10
6.034638
 20
2.562980
 30
0.0
  0
LWPOLYLINE
  5
1a0
100
AcDbEntity
  8
Page_1
 62
7
100
AcDbPolyline
 90
1
 70
1
 10
6.699719
 20
6.876316
 30
0.0
  0
SPLINE
  5
1a1
100
AcDbEntity
  8
Page_1
 62
7
100
AcDbSpline
 70
8
 71
3
 72
8
 73
4
 74
0
 40
0
 40
0
 40
0
 40
0
 40
1
 40
1
 40
1
 40
1
 10
5.786611
 20
2.771646
 30
0.0
 10
5.786611
 20
2.803174
 30
0.0
 10
5.761055
 20
2.828729
 30
0.0
 10
5.729527
 20
2.828729
 30
0.0
  0
SPLINE
  5
1a2
100
AcDbEntity
  8
Page_1
 62
7
100
AcDbSpline
 70
8
 71
3
 72
8
 73
4
 74
0
 40
0
 40
0
 40
0
 40
0
 40
1
 40
1
 40
1
 40
1
 10
5.729527
 20
2.828729
 30
0.0
 10
5.698000
 20
2.828729
 30
0.0
 10
5.672444
 20
2.803174
 30
0.0
 10
5.672444
 20
2.771646
 30
0.0
  0
SPLINE
  5
1a3
100
AcDbEntity
  8
Page_1
 62
7
100
AcDbSpline
 70
8
 71
3
 72
8
 73
4
 74
0
 40
0
 40
0
 40
0
 40
0
 40
1
 40
1
 40
1
 40
1
 10
5.672444
 20
2.771646
 30
0.0
 10
5.672444
 20
2.740118
 30
0.0
 10
5.698000
 20
2.714563
 30
0.0
 10
5.729527
 20
2.714563
 30
0.0
  0
SPLINE
  5
1a4
100
AcDbEntity
  8
Page_1
 62
7
100
AcDbSpline
 70
8
 71
3
 72
8
 73
4
 74
0
 40
0
 40
0
 40
0
 40
0
 40
1
 40
1
 40
1
 40
1
 10
5.729527
 20
2.714563
 30
0.0
 10
5.761055
 20
2.714563
 30
0.0
 10
5.786611
 20
2.740118
 30
0.0
 10
5.786611
 20
2.771646
 30
0.0
  0
LWPOLYLINE
  5
1a5
100
AcDbEntity
  8
Page_1
 62
7
100
AcDbPolyline
 90
1
 70
1
 10
6.034638
 20
2.562980
 30
0.0
  0
SPLINE
  5
1a6
100
AcDbEntity
  8
Page_1
 62
7
100
AcDbSpline
 70
8
 71
3
 72
8
 73
4
 74
0
 40
0
 40
0
 40
0
 40
0
 40
1
 40
1
 40
1
 40
1
 10
6.034638
 20
1.696843
 30
0.0
 10
6.034638
 20
1.728371
 30
0.0
 10
6.009082
 20
1.753926
 30
0.0
 10
5.977555
 20
1.753926
 30
0.0
  0
SPLINE
  5
1a7
100
AcDbEntity
  8
Page_1
 62
7
100
AcDbSpline
 70
8
 71
3
 72
8
 73
4
 74
0
 40
0
 40
0
 40
0
 40
0
 40
1
 40
1
 40
1
 40
1
 10
5.977555
 20
1.753926
 30
0.0
 10
5.946027
 20
1.753926
 30
0.0
 10
5.920471
 20
1.728371
 30
0.0
 10
5.920471
 20
1.696843
 30
0.0
  0
SPLINE
  5
1a8
100
AcDbEntity
  8
Page_1
 62
7
100
AcDbSpline
 70
8
 71
3
 72
8
 73
4
 74
0
 40
0
 40
0
 40
0
 40
0
 40
1
 40
1
 40
1
 40
1
 10
5.920471
 20
1.696843
 30
0.0
 10
5.920471
 20
1.665315
 30
0.0
 10
5.946027
 20
1.639760
 30
0.0
 10
5.977555
 20
1.639760
 30
0.0
  0
SPLINE
  5
1a9
100
AcDbEntity
  8
Page_1
 62
7
100
AcDbSpline
 70
8
 71
3
 72
8
 73
4
 74
0
 40
0
 40
0
 40
0
 40
0
 40
1
 40
1
 40
1
 40
1
 10
5.977555
 20
1.639760
 30
0.0
 10
6.009082
 20
1.639760
 30
0.0
 10
6.034638
 20
1.665315
 30
0.0
 10
6.034638
 20
1.696843
 30
0.0
  0
LWPOLYLINE
  5
1aa
100
AcDbEntity
  8
Page_1
 62
7
100
AcDbPolyline
 90
1
 70
1
 10
5.786611
 20
2.771646
 30
0.0
  0
SPLINE
  5
1ab
100
AcDbEntity
  8
Page_1
 62
7
100
AcDbSpline
 70
8
 71
3
 72
8
 73
4
 74
0
 40
0
 40
0
 40
0
 40
0
 40
1
 40
1
 40
1
 40
1
 10
6.034638
 20
0.830698
 30
0.0
 10
6.034638
 20
0.862226
 30
0.0
 10
6.009082
 20
0.887781
 30
0.0
 10
5.977555
 20
0.887781
 30
0.0
  0
SPLINE
  5
1ac
100
AcDbEntity
  8
Page_1
 62
7
100
AcDbSpline
 70
8
 71
3
 72
8
 73
4
 74
0
 40
0
 40
0
 40
0
 40
0
 40
1
 40
1
 40
1
 40
1
 10
5.977555
 20
0.887781
 30
0.0
 10
5.946027
 20
0.887781
 30
0.0
 10
5.920471
 20
0.862226
 30
0.0
 10
5.920471
 20
0.830698
 30
0.0
  0
SPLINE
  5
1ad
100
AcDbEntity
  8
Page_1
 62
7
100
AcDbSpline
 70
8
 71
3
 72
8
 73
4
 74
0
 40
0
 40
0
 40
0
 40
0
 40
1
 40
1
 40
1
 40
1
 10
5.920471
 20
0.830698
 30
0.0
 10
5.920471
 20
0.799170
 30
0.0
 10
5.946027
 20
0.773615
 30
0.0
 10
5.977555
 20
0.773615
 30
0.0
  0
SPLINE
  5
1ae
100
AcDbEntity
  8
Page_1
 62
7
100
AcDbSpline
 70
8
 71
3
 72
8
 73
4
 74
0
 40
0
 40
0
 40
0
 40
0
 40
1
 40
1
 40
1
 40
1
 10
5.977555
 20
0.773615
 30
0.0
 10
6.009082
 20
0.773615
 30
0.0
 10
6.034638
 20
0.799170
 30
0.0
 10
6.034638
 20
0.830698
 30
0.0
  0
LWPOLYLINE
  5
1af
100
AcDbEntity
  8
Page_1
 62
7
100
AcDbPolyline
 90
1
 70
1
 10
6.034638
 20
1.696843
 30
0.0
  0
SPLINE
  5
1b0
100
AcDbEntity
  8
Page_1
 62
7
100
AcDbSpline
 70
8
 71
3
 72
8
 73
4
 74
0
 40
0
 40
0
 40
0
 40
0
 40
1
 40
1
 40
1
 40
1
 10
3.963462
 20
1.033907
 30
0.0
 10
3.963462
 20
0.960449
 30
0.0
 10
4.023004
 20
0.900907
 30
0.0
 10
4.096462
 20
0.900907
 30
0.0
  0
SPLINE
  5
1b1
100
AcDbEntity
  8
Page_1
 62
7
100
AcDbSpline
 70
8
 71
3
 72
8
 73
4
 74
0
 40
0
 40
0
 40
0
 40
0
 40
1
 40
1
 40
1
 40
1
 10
4.096462
 20
0.900907
 30
0.0
 10
4.169920
 20
0.900907
 30
0.0
 10
4.229462
 20
0.960449
 30
0.0
 10
4.229462
 20
1.033907
 30
0.0
  0
LWPOLYLINE
  5
1b2
100
AcDbEntity
  8
Page_1
 62
7
100
AcDbPolyline
 90
1
 70
1
 10
6.034638
 20
0.830698
 30
0.0
  0
SPLINE
  5
1b3
100
AcDbEntity
  8
Page_1
 62
7
100
AcDbSpline
 70
8
 71
3
 72
8
 73
4
 74
0
 40
0
 40
0
 40
0
 40
0
 40
1
 40
1
 40
1
 40
1
 10
4.229462
 20
1.158907
 30
0.0
 10
4.229462
 20
1.232365
 30
0.0
 10
4.169920
 20
1.291906
 30
0.0
 10
4.096462
 20
1.291906
 30
0.0
  0
SPLINE
  5
1b4
100
AcDbEntity
  8
Page_1
 62
7
100
AcDbSpline
 70
8
 71
3
 72
8
 73
4
 74
0
 40
0
 40
0
 40
0
 40
0
 40
1
 40
1
 40
1
 40
1
 10
4.096462
 20
1.291906
 30
0.0
 10
4.023004
 20
1.291906
 30
0.0
 10
3.963462
 20
1.232365
 30
0.0
 10
3.963462
 20
1.158907
 30
0.0
  0
LWPOLYLINE
  5
1b5
100
AcDbEntity
  8
Page_1
 62
7
100
AcDbPolyline
 90
2
 70
0
 10
3.963462
 20
1.158907
 30
0.0
 10
3.963462
 20
1.033907
 30
0.0
  0
SPLINE
  5
1b6
100
AcDbEntity
  8
Page_1
 62
7
100
AcDbSpline
 70
8
 71
3
 72
8
 73
4
 74
0
 40
0
 40
0
 40
0
 40
0
 40
1
 40
1
 40
1
 40
1
 10
3.963462
 20
2.533896
 30
0.0
 10
3.963462
 20
2.460438
 30
0.0
 10
4.023004
 20
2.400897
 30
0.0
 10
4.096462
 20
2.400897
 30
0.0
  0
SPLINE
  5
1b7
100
AcDbEntity
  8
Page_1
 62
7
100
AcDbSpline
 70
8
 71
3
 72
8
 73
4
 74
0
 40
0
 40
0
 40
0
 40
0
 40
1
 40
1
 40
1
 40
1
 10
4.096462
 20
2.400897
 30
0.0
 10
4.169920
 20
2.400897
 30
0.0
 10
4.229462
 20
2.460438
 30
0.0
 10
4.229462
 20
2.533896
 30
0.0
  0
LWPOLYLINE
  5
1b8
100
AcDbEntity
  8
Page_1
 62
7
100
AcDbPolyline
 90
2
 70
0
 10
4.229462
 20
1.033907
 30
0.0
 10
4.229462
 20
1.158907
 30
0.0
  0
SPLINE
  5
1b9
100
AcDbEntity
  8
Page_1
 62
7
100
AcDbSpline
 70
8
 71
3
 72
8
 73
4
 74
0
 40
0
 40
0
 40
0
 40
0
 40
1
 40
1
 40
1
 40
1
 10
4.229462
 20
2.658896
 30
0.0
 10
4.229462
 20
2.732354
 30
0.0
 10
4.169920
 20
2.791896
 30
0.0
 10
4.096462
 20
2.791896
 30
0.0
  0
SPLINE
  5
1ba
100
AcDbEntity
  8
Page_1
 62
7
100
AcDbSpline
 70
8
 71
3
 72
8
 73
4
 74
0
 40
0
 40
0
 40
0
 40
0
 40
1
 40
1
 40
1
 40
1
 10
4.096462
 20
2.791896
 30
0.0
 10
4.023004
 20
2.791896
 30
0.0
 10
3.963462
 20
2.732354
 30
0.0
 10
3.963462
 20
2.658896
 30
0.0
  0
LWPOLYLINE
  5
1bb
100
AcDbEntity
  8
Page_1
 62
7
100
AcDbPolyline
 90
2
 70
0
 10
3.963462
 20
2.658896
 30
0.0
 10
3.963462
 20
2.533896
 30
0.0
  0
SPLINE
  5
1bc
100
AcDbEntity
  8
Page_1
 62
7
100
AcDbSpline
 70
8
 71
3
 72
8
 73
4
 74
0
 40
0
 40
0
 40
0
 40
0
 40
1
 40
1
 40
1
 40
1
 10
4.672433
 20
2.562980
 30
0.0
 10
4.672433
 20
2.594507
 30
0.0
 10
4.646877
 20
2.620063
 30
0.0
 10
4.615350
 20
2.620063
 30
0.0
  0
SPLINE
  5
1bd
100
AcDbEntity
  8
Page_1
 62
7
100
AcDbSpline
 70
8
 71
3
 72
8
 73
4
 74
0
 40
0
 40
0
 40
0
 40
0
 40
1
 40
1
 40
1
 40
1
 10
4.615350
 20
2.620063
 30
0.0
 10
4.583822
 20
2.620063
 30
0.0
 10
4.558266
 20
2.594507
 30
0.0
 10
4.558266
 20
2.562980
 30
0.0
  0
SPLINE
  5
1be
100
AcDbEntity
  8
Page_1
 62
7
100
AcDbSpline
 70
8
 71
3
 72
8
 73
4
 74
0
 40
0
 40
0
 40
0
 40
0
 40
1
 40
1
 40
1
 40
1
 10
4.558266
 20
2.562980
 30
0.0
 10
4.558266
 20
2.531452
 30
0.0
 10
4.583822
 20
2.505897
 30
0.0
 10
4.615350
 20
2.505897
 30
0.0
  0
SPLINE
  5
1bf
100
AcDbEntity
  8
Page_1
 62
7
100
AcDbSpline
 70
8
 71
3
 72
8
 73
4
 74
0
 40
0
 40
0
 40
0
 40
0
 40
1
 40
1
 40
1
 40
1
 10
4.615350
 20
2.505897
 30
0.0
 10
4.646877
 20
2.505897
 30
0.0
 10
4.672433
 20
2.531452
 30
0.0
 10
4.672433
 20
2.562980
 30
0.0
  0
LWPOLYLINE
  5
1c0
100
AcDbEntity
  8
Page_1
 62
7
100
AcDbPolyline
 90
2
 70
0
 10
4.229462
 20
2.533896
 30
0.0
 10
4.229462
 20
2.658896
 30
0.0
  0
SPLINE
  5
1c1
100
AcDbEntity
  8
Page_1
 62
7
100
AcDbSpline
 70
8
 71
3
 72
8
 73
4
 74
0
 40
0
 40
0
 40
0
 40
0
 40
1
 40
1
 40
1
 40
1
 10
4.920474
 20
2.771646
 30
0.0
 10
4.920474
 20
2.803174
 30
0.0
 10
4.894918
 20
2.828729
 30
0.0
 10
4.863391
 20
2.828729
 30
0.0
  0
SPLINE
  5
1c2
100
AcDbEntity
  8
Page_1
 62
7
100
AcDbSpline
 70
8
 71
3
 72
8
 73
4
 74
0
 40
0
 40
0
 40
0
 40
0
 40
1
 40
1
 40
1
 40
1
 10
4.863391
 20
2.828729
 30
0.0
 10
4.831863
 20
2.828729
 30
0.0
 10
4.806307
 20
2.803174
 30
0.0
 10
4.806307
 20
2.771646
 30
0.0
  0
SPLINE
  5
1c3
100
AcDbEntity
  8
Page_1
 62
7
100
AcDbSpline
 70
8
 71
3
 72
8
 73
4
 74
0
 40
0
 40
0
 40
0
 40
0
 40
1
 40
1
 40
1
 40
1
 10
4.806307
 20
2.771646
 30
0.0
 10
4.806307
 20
2.740118
 30
0.0
 10
4.831863
 20
2.714563
 30
0.0
 10
4.863391
 20
2.714563
 30
0.0
  0
SPLINE
  5
1c4
100
AcDbEntity
  8
Page_1
 62
7
100
AcDbSpline
 70
8
 71
3
 72
8
 73
4
 74
0
 40
0
 40
0
 40
0
 40
0
 40
1
 40
1
 40
1
 40
1
 10
4.863391
 20
2.714563
 30
0.0
 10
4.894918
 20
2.714563
 30
0.0
 10
4.920474
 20
2.740118
 30
0.0
 10
4.920474
 20
2.771646
 30
0.0
  0
LWPOLYLINE
  5
1c5
100
AcDbEntity
  8
Page_1
 62
7
100
AcDbPolyline
 90
1
 70
1
 10
4.672433
 20
2.562980
 30
0.0
  0
SPLINE
  5
1c6
100
AcDbEntity
  8
Page_1
 62
7
100
AcDbSpline
 70
8
 71
3
 72
8
 73
4
 74
0
 40
0
 40
0
 40
0
 40
0
 40
1
 40
1
 40
1
 40
1
 10
4.672433
 20
1.696843
 30
0.0
 10
4.672433
 20
1.728371
 30
0.0
 10
4.646877
 20
1.753926
 30
0.0
 10
4.615350
 20
1.753926
 30
0.0
  0
SPLINE
  5
1c7
100
AcDbEntity
  8
Page_1
 62
7
100
AcDbSpline
 70
8
 71
3
 72
8
 73
4
 74
0
 40
0
 40
0
 40
0
 40
0
 40
1
 40
1
 40
1
 40
1
 10
4.615350
 20
1.753926
 30
0.0
 10
4.583822
 20
1.753926
 30
0.0
 10
4.558266
 20
1.728371
 30
0.0
 10
4.558266
 20
1.696843
 30
0.0
  0
SPLINE
  5
1c8
100
AcDbEntity
  8
Page_1
 62
7
100
AcDbSpline
 70
8
 71
3
 72
8
 73
4
 74
0
 40
0
 40
0
 40
0
 40
0
 40
1
 40
1
 40
1
 40
1
 10
4.558266
 20
1.696843
 30
0.0
 10
4.558266
 20
1.665315
 30
0.0
 10
4.583822
 20
1.639760
 30
0.0
 10
4.615350
 20
1.639760
 30
0.0
  0
SPLINE
  5
1c9
100
AcDbEntity
  8
Page_1
 62
7
100
AcDbSpline
 70
8
 71
3
 72
8
 73
4
 74
0
 40
0
 40
0
 40
0
 40
0
 40
1
 40
1
 40
1
 40
1
 10
4.615350
 20
1.639760
 30
0.0
 10
4.646877
 20
1.639760
 30
0.0
 10
4.672433
 20
1.665315
 30
0.0
 10
4.672433
 20
1.696843
 30
0.0
  0
LWPOLYLINE
  5
1ca
100
AcDbEntity
  8
Page_1
 62
7
100
AcDbPolyline
 90
1
 70
1
 10
4.920474
 20
2.771646
 30
0.0
  0
SPLINE
  5
1cb
100
AcDbEntity
  8
Page_1
 62
7
100
AcDbSpline
 70
8
 71
3
 72
8
 73
4
 74
0
 40
0
 40
0
 40
0
 40
0
 40
1
 40
1
 40
1
 40
1
 10
4.672433
 20
0.830698
 30
0.0
 10
4.672433
 20
0.862226
 30
0.0
 10
4.646877
 20
0.887781
 30
0.0
 10
4.615350
 20
0.887781
 30
0.0
  0
SPLINE
  5
1cc
100
AcDbEntity
  8
Page_1
 62
7
100
AcDbSpline
 70
8
 71
3
 72
8
 73
4
 74
0
 40
0
 40
0
 40
0
 40
0
 40
1
 40
1
 40
1
 40
1
 10
4.615350
 20
0.887781
 30
0.0
 10
4.583822
 20
0.887781
 30
0.0
 10
4.558266
 20
0.862226
 30
0.0
 10
4.558266
 20
0.830698
 30
0.0
  0
SPLINE
  5
1cd
100
AcDbEntity
  8
Page_1
 62
7
100
AcDbSpline
 70
8
 71
3
 72
8
 73
4
 74
0
 40
0
 40
0
 40
0
 40
0
 40
1
 40
1
 40
1
 40
1
 10
4.558266
 20
0.830698
 30
0.0
 10
4.558266
 20
0.799170
 30
0.0
 10
4.583822
 20
0.773615
 30
0.0
 10
4.615350
 20
0.773615
 30
0.0
  0
SPLINE
  5
1ce
100
AcDbEntity
  8
Page_1
 62
7
100
AcDbSpline
 70
8
 71
3
 72
8
 73
4
 74
0
 40
0
 40
0
 40
0
 40
0
 40
1
 40
1
 40
1
 40
1
 10
4.615350
 20
0.773615
 30
0.0
 10
4.646877
 20
0.773615
 30
0.0
 10
4.672433
 20
0.799170
 30
0.0
 10
4.672433
 20
0.830698
 30
0.0
  0
LWPOLYLINE
  5
1cf
100
AcDbEntity
  8
Page_1
 62
7
100
AcDbPolyline
 90
1
 70
1
 10
4.672433
 20
1.696843
 30
0.0
  0
LWPOLYLINE
  5
1d0
100
AcDbEntity
  8
Page_1
 62
7
100
AcDbPolyline
 90
1
 70
1
 10
4.672433
 20
0.830698
 30
0.0
  0
SPLINE
  5
1d1
100
AcDbEntity
  8
Page_1
 62
7
100
AcDbSpline
 70
8
 71
3
 72
8
 73
4
 74
0
 40
0
 40
0
 40
0
 40
0
 40
1
 40
1
 40
1
 40
1
 10
6.363456
 20
2.533896
 30
0.0
 10
6.363456
 20
2.460438
 30
0.0
 10
6.422998
 20
2.400897
 30
0.0
 10
6.496456
 20
2.400897
 30
0.0
  0
SPLINE
  5
1d2
100
AcDbEntity
  8
Page_1
 62
7
100
AcDbSpline
 70
8
 71
3
 72
8
 73
4
 74
0
 40
0
 40
0
 40
0
 40
0
 40
1
 40
1
 40
1
 40
1
 10
6.496456
 20
2.400897
 30
0.0
 10
6.569914
 20
2.400897
 30
0.0
 10
6.629456
 20
2.460438
 30
0.0
 10
6.629456
 20
2.533896
 30
0.0
  0
LWPOLYLINE
  5
1d3
100
AcDbEntity
  8
Page_1
 62
7
100
AcDbPolyline
 90
2
 70
0
 10
6.629456
 20
2.658896
 30
0.0
 10
6.629456
 20
2.533896
 30
0.0
  0
SPLINE
  5
1d4
100
AcDbEntity
  8
Page_1
 62
7
100
AcDbSpline
 70
8
 71
3
 72
8
 73
4
 74
0
 40
0
 40
0
 40
0
 40
0
 40
1
 40
1
 40
1
 40
1
 10
6.629456
 20
2.658896
 30
0.0
 10
6.629456
 20
2.732354
 30
0.0
 10
6.569914
 20
2.791896
 30
0.0
 10
6.496456
 20
2.791896
 30
0.0
  0
SPLINE
  5
1d5
100
AcDbEntity
  8
Page_1
 62
7
100
AcDbSpline
 70
8
 71
3
 72
8
 73
4
 74
0
 40
0
 40
0
 40
0
 40
0
 40
1
 40
1
 40
1
 40
1
 10
6.496456
 20
2.791896
 30
0.0
 10
6.422998
 20
2.791896
 30
0.0
 10
6.363456
 20
2.732354
 30
0.0
 10
6.363456
 20
2.658896
 30
0.0
  0
LWPOLYLINE
  5
1d6
100
AcDbEntity
  8
Page_1
 62
7
100
AcDbPolyline
 90
2
 70
0
 10
6.363456
 20
2.533896
 30
0.0
 10
6.363456
 20
2.658896
 30
0.0
  0
SPLINE
  5
1d7
100
AcDbEntity
  8
Page_1
 62
7
100
AcDbSpline
 70
8
 71
3
 72
8
 73
4
 74
0
 40
0
 40
0
 40
0
 40
0
 40
1
 40
1
 40
1
 40
1
 10
6.363456
 20
1.033907
 30
0.0
 10
6.363456
 20
0.960449
 30
0.0
 10
6.422998
 20
0.900907
 30
0.0
 10
6.496456
 20
0.900907
 30
0.0
  0
SPLINE
  5
1d8
100
AcDbEntity
  8
Page_1
 62
7
100
AcDbSpline
 70
8
 71
3
 72
8
 73
4
 74
0
 40
0
 40
0
 40
0
 40
0
 40
1
 40
1
 40
1
 40
1
 10
6.496456
 20
0.900907
 30
0.0
 10
6.569914
 20
0.900907
 30
0.0
 10
6.629456
 20
0.960449
 30
0.0
 10
6.629456
 20
1.033907
 30
0.0
  0
LWPOLYLINE
  5
1d9
100
AcDbEntity
  8
Page_1
 62
7
100
AcDbPolyline
 90
2
 70
0
 10
6.629456
 20
1.158907
 30
0.0
 10
6.629456
 20
1.033907
 30
0.0
  0
SPLINE
  5
1da
100
AcDbEntity
  8
Page_1
 62
7
100
AcDbSpline
 70
8
 71
3
 72
8
 73
4
 74
0
 40
0
 40
0
 40
0
 40
0
 40
1
 40
1
 40
1
 40
1
 10
6.629456
 20
1.158907
 30
0.0
 10
6.629456
 20
1.232365
 30
0.0
 10
6.569914
 20
1.291906
 30
0.0
 10
6.496456
 20
1.291906
 30
0.0
  0
SPLINE
  5
1db
100
AcDbEntity
  8
Page_1
 62
7
100
AcDbSpline
 70
8
 71
3
 72
8
 73
4
 74
0
 40
0
 40
0
 40
0
 40
0
 40
1
 40
1
 40
1
 40
1
 10
6.496456
 20
1.291906
 30
0.0
 10
6.422998
 20
1.291906
 30
0.0
 10
6.363456
 20
1.232365
 30
0.0
 10
6.363456
 20
1.158907
 30
0.0
  0
LWPOLYLINE
  5
1dc
100
AcDbEntity
  8
Page_1
 62
7
100
AcDbPolyline
 90
2
 70
0
 10
6.363456
 20
1.033907
 30
0.0
 10
6.363456
 20
1.158907
 30
0.0
  0
SPLINE
  5
1dd
100
AcDbEntity
  8
Page_1
 62
7
100
AcDbSpline
 70
8
 71
3
 72
8
 73
4
 74
0
 40
0
 40
0
 40
0
 40
0
 40
1
 40
1
 40
1
 40
1
 10
3.873907
 20
2.857118
 30
0.0
 10
3.827046
 20
2.837840
 30
0.0
 10
3.796449
 20
2.792187
 30
0.0
 10
3.796449
 20
2.741521
 30
0.0
  0
LWPOLYLINE
  5
1de
100
AcDbEntity
  8
Page_1
 62
7
100
AcDbPolyline
 90
2
 70
0
 10
4.416461
 20
3.080256
 30
0.0
 10
3.873921
 20
2.857118
 30
0.0
  0
SPLINE
  5
1df
100
AcDbEntity
  8
Page_1
 62
7
100
AcDbSpline
 70
8
 71
3
 72
8
 73
4
 74
0
 40
0
 40
0
 40
0
 40
0
 40
1
 40
1
 40
1
 40
1
 10
3.796463
 20
0.646407
 30
0.0
 10
3.796463
 20
0.577365
 30
0.0
 10
3.852421
 20
0.521407
 30
0.0
 10
3.921462
 20
0.521407
 30
0.0
  0
LWPOLYLINE
  5
1e0
100
AcDbEntity
  8
Page_1
 62
7
100
AcDbPolyline
 90
2
 70
0
 10
3.796463
 20
2.741507
 30
0.0
 10
3.796463
 20
0.646401
 30
0.0
  0
SPLINE
  5
1e1
100
AcDbEntity
  8
Page_1
 62
7
100
AcDbSpline
 70
8
 71
3
 72
8
 73
4
 74
0
 40
0
 40
0
 40
0
 40
0
 40
1
 40
1
 40
1
 40
1
 10
4.587711
 20
0.521407
 30
0.0
 10
4.656752
 20
0.521407
 30
0.0
 10
4.712710
 20
0.577365
 30
0.0
 10
4.712710
 20
0.646407
 30
0.0
  0
LWPOLYLINE
  5
1e2
100
AcDbEntity
  8
Page_1
 62
7
100
AcDbPolyline
 90
2
 70
0
 10
4.587711
 20
0.521407
 30
0.0
 10
3.921462
 20
0.521407
 30
0.0
  0
SPLINE
  5
1e3
100
AcDbEntity
  8
Page_1
 62
7
100
AcDbSpline
 70
8
 71
3
 72
8
 73
4
 74
0
 40
0
 40
0
 40
0
 40
0
 40
1
 40
1
 40
1
 40
1
 10
4.837710
 20
2.671396
 30
0.0
 10
4.768669
 20
2.671396
 30
0.0
 10
4.712710
 20
2.615438
 30
0.0
 10
4.712710
 20
2.546396
 30
0.0
  0
LWPOLYLINE
  5
1e4
100
AcDbEntity
  8
Page_1
 62
7
100
AcDbPolyline
 90
2
 70
0
 10
4.712710
 20
2.546396
 30
0.0
 10
4.712710
 20
0.646401
 30
0.0
  0
SPLINE
  5
1e5
100
AcDbEntity
  8
Page_1
 62
7
100
AcDbSpline
 70
8
 71
3
 72
8
 73
4
 74
0
 40
0
 40
0
 40
0
 40
0
 40
1
 40
1
 40
1
 40
1
 10
5.880208
 20
2.546396
 30
0.0
 10
5.880208
 20
2.615438
 30
0.0
 10
5.824249
 20
2.671396
 30
0.0
 10
5.755208
 20
2.671396
 30
0.0
  0
LWPOLYLINE
  5
1e6
100
AcDbEntity
  8
Page_1
 62
7
100
AcDbPolyline
 90
2
 70
0
 10
5.755208
 20
2.671396
 30
0.0
 10
4.837710
 20
2.671396
 30
0.0
  0
SPLINE
  5
1e7
100
AcDbEntity
  8
Page_1
 62
7
100
AcDbSpline
 70
8
 71
3
 72
8
 73
4
 74
0
 40
0
 40
0
 40
0
 40
0
 40
1
 40
1
 40
1
 40
1
 10
5.880208
 20
0.646407
 30
0.0
 10
5.880208
 20
0.577365
 30
0.0
 10
5.936166
 20
0.521407
 30
0.0
 10
6.005207
 20
0.521407
 30
0.0
  0
LWPOLYLINE
  5
1e8
100
AcDbEntity
  8
Page_1
 62
7
100
AcDbPolyline
 90
2
 70
0
 10
5.880208
 20
0.646407
 30
0.0
 10
5.880208
 20
2.546402
 30
0.0
  0
SPLINE
  5
1e9
100
AcDbEntity
  8
Page_1
 62
7
100
AcDbSpline
 70
8
 71
3
 72
8
 73
4
 74
0
 40
0
 40
0
 40
0
 40
0
 40
1
 40
1
 40
1
 40
1
 10
6.671456
 20
0.521407
 30
0.0
 10
6.740497
 20
0.521407
 30
0.0
 10
6.796455
 20
0.577365
 30
0.0
 10
6.796455
 20
0.646407
 30
0.0
  0
LWPOLYLINE
  5
1ea
100
AcDbEntity
  8
Page_1
 62
7
100
AcDbPolyline
 90
2
 70
0
 10
6.671456
 20
0.521407
 30
0.0
 10
6.005207
 20
0.521407
 30
0.0
  0
SPLINE
  5
1eb
100
AcDbEntity
  8
Page_1
 62
7
100
AcDbSpline
 70
8
 71
3
 72
8
 73
4
 74
0
 40
0
 40
0
 40
0
 40
0
 40
1
 40
1
 40
1
 40
1
 10
6.796455
 20
2.741507
 30
0.0
 10
6.796455
 20
2.792174
 30
0.0
 10
6.765858
 20
2.837840
 30
0.0
 10
6.718997
 20
2.857104
 30
0.0
  0
LWPOLYLINE
  5
1ec
100
AcDbEntity
  8
Page_1
 62
7
100
AcDbPolyline
 90
2
 70
0
 10
6.796455
 20
0.646407
 30
0.0
 10
6.796455
 20
2.741513
 30
0.0
  0
LWPOLYLINE
  5
1ed
100
AcDbEntity
  8
Page_1
 62
7
100
AcDbPolyline
 90
2
 70
0
 10
6.176457
 20
3.080256
 30
0.0
 10
6.718997
 20
2.857118
 30
0.0
  0
SPLINE
  5
1ee
100
AcDbEntity
  8
Page_1
 62
7
100
AcDbSpline
 70
8
 71
3
 72
8
 73
4
 74
0
 40
0
 40
0
 40
0
 40
0
 40
1
 40
1
 40
1
 40
1
 10
3.260839
 20
8.345910
 30
0.0
 10
3.191798
 20
8.465479
 30
0.0
 10
3.038909
 20
8.506451
 30
0.0
 10
2.919340
 20
8.437409
 30
0.0
  0
LWPOLYLINE
  5
1ef
100
AcDbEntity
  8
Page_1
 62
7
100
AcDbPolyline
 90
2
 70
0
 10
4.416461
 20
3.080256
 30
0.0
 10
6.176457
 20
3.080256
 30
0.0
  0
SPLINE
  5
1f0
100
AcDbEntity
  8
Page_1
 62
7
100
AcDbSpline
 70
8
 71
3
 72
8
 73
4
 74
0
 40
0
 40
0
 40
0
 40
0
 40
1
 40
1
 40
1
 40
1
 10
4.193573
 20
6.663372
 30
0.0
 10
4.193573
 20
6.707261
 30
0.0
 10
4.182017
 20
6.750372
 30
0.0
 10
4.160073
 20
6.788372
 30
0.0
  0
LWPOLYLINE
  5
1f1
100
AcDbEntity
  8
Page_1
 62
7
100
AcDbPolyline
 90
2
 70
0
 10
4.160087
 20
6.788372
 30
0.0
 10
3.260853
 20
8.345896
 30
0.0
  0
SPLINE
  5
1f2
100
AcDbEntity
  8
Page_1
 62
7
100
AcDbSpline
 70
8
 71
3
 72
8
 73
4
 74
0
 40
0
 40
0
 40
0
 40
0
 40
1
 40
1
 40
1
 40
1
 10
4.068573
 20
5.636833
 30
0.0
 10
4.145920
 20
5.681486
 30
0.0
 10
4.193573
 20
5.764027
 30
0.0
 10
4.193573
 20
5.853333
 30
0.0
  0
LWPOLYLINE
  5
1f3
100
AcDbEntity
  8
Page_1
 62
7
100
AcDbPolyline
 90
2
 70
0
 10
4.193573
 20
5.853333
 30
0.0
 10
4.193573
 20
6.663372
 30
0.0
  0
SPLINE
  5
1f4
100
AcDbEntity
  8
Page_1
 62
7
100
AcDbSpline
 70
8
 71
3
 72
8
 73
4
 74
0
 40
0
 40
0
 40
0
 40
0
 40
1
 40
1
 40
1
 40
1
 10
3.071256
 20
5.061029
 30
0.0
 10
2.993909
 20
5.016376
 30
0.0
 10
2.946257
 20
4.933835
 30
0.0
 10
2.946257
 20
4.844530
 30
0.0
  0
LWPOLYLINE
  5
1f5
100
AcDbEntity
  8
Page_1
 62
7
100
AcDbPolyline
 90
2
 70
0
 10
3.071256
 20
5.061029
 30
0.0
 10
4.068573
 20
5.636833
 30
0.0
  0
SPLINE
  5
1f6
100
AcDbEntity
  8
Page_1
 62
7
100
AcDbSpline
 70
8
 71
3
 72
8
 73
4
 74
0
 40
0
 40
0
 40
0
 40
0
 40
1
 40
1
 40
1
 40
1
 10
2.696257
 20
3.855976
 30
0.0
 10
2.834326
 20
3.855976
 30
0.0
 10
2.946257
 20
3.967907
 30
0.0
 10
2.946257
 20
4.105976
 30
0.0
  0
LWPOLYLINE
  5
1f7
100
AcDbEntity
  8
Page_1
 62
7
100
AcDbPolyline
 90
2
 70
0
 10
2.946257
 20
4.105976
 30
0.0
 10
2.946257
 20
4.844530
 30
0.0
  0
SPLINE
  5
1f8
100
AcDbEntity
  8
Page_1
 62
7
100
AcDbSpline
 70
8
 71
3
 72
8
 73
4
 74
0
 40
0
 40
0
 40
0
 40
0
 40
1
 40
1
 40
1
 40
1
 10
0.446264
 20
4.105976
 30
0.0
 10
0.446264
 20
3.967907
 30
0.0
 10
0.558194
 20
3.855976
 30
0.0
 10
0.696264
 20
3.855976
 30
0.0
  0
LWPOLYLINE
  5
1f9
100
AcDbEntity
  8
Page_1
 62
7
100
AcDbPolyline
 90
2
 70
0
 10
0.696264
 20
3.855976
 30
0.0
 10
2.696259
 20
3.855976
 30
0.0
  0
SPLINE
  5
1fa
100
AcDbEntity
  8
Page_1
 62
7
100
AcDbSpline
 70
8
 71
3
 72
8
 73
4
 74
0
 40
0
 40
0
 40
0
 40
0
 40
1
 40
1
 40
1
 40
1
 10
0.571264
 20
7.081746
 30
0.0
 10
0.493917
 20
7.037094
 30
0.0
 10
0.446264
 20
6.954552
 30
0.0
 10
0.446264
 20
6.865247
 30
0.0
  0
LWPOLYLINE
  5
1fb
100
AcDbEntity
  8
Page_1
 62
7
100
AcDbPolyline
 90
2
 70
0
 10
0.446264
 20
6.865247
 30
0.0
 10
0.446264
 20
4.105976
 30
0.0
  0
SPLINE
  5
1fc
100
AcDbEntity
  8
Page_1
 62
7
100
AcDbSpline
 70
8
 71
3
 72
8
 73
4
 74
0
 40
0
 40
0
 40
0
 40
0
 40
1
 40
1
 40
1
 40
1
 10
2.571257
 20
4.288975
 30
0.0
 10
2.497799
 20
4.288975
 30
0.0
 10
2.438258
 20
4.229434
 30
0.0
 10
2.438258
 20
4.155976
 30
0.0
  0
SPLINE
  5
1fd
100
AcDbEntity
  8
Page_1
 62
7
100
AcDbSpline
 70
8
 71
3
 72
8
 73
4
 74
0
 40
0
 40
0
 40
0
 40
0
 40
1
 40
1
 40
1
 40
1
 10
2.438258
 20
4.155976
 30
0.0
 10
2.438258
 20
4.082518
 30
0.0
 10
2.497799
 20
4.022976
 30
0.0
 10
2.571257
 20
4.022976
 30
0.0
  0
SPLINE
  5
1fe
100
AcDbEntity
  8
Page_1
 62
7
100
AcDbSpline
 70
8
 71
3
 72
8
 73
4
 74
0
 40
0
 40
0
 40
0
 40
0
 40
1
 40
1
 40
1
 40
1
 10
2.571257
 20
4.022976
 30
0.0
 10
2.644716
 20
4.022976
 30
0.0
 10
2.704257
 20
4.082518
 30
0.0
 10
2.704257
 20
4.155976
 30
0.0
  0
SPLINE
  5
1ff
100
AcDbEntity
  8
Page_1
 62
7
100
AcDbSpline
 70
8
 71
3
 72
8
 73
4
 74
0
 40
0
 40
0
 40
0
 40
0
 40
1
 40
1
 40
1
 40
1
 10
2.704257
 20
4.155976
 30
0.0
 10
2.704257
 20
4.229434
 30
0.0
 10
2.644716
 20
4.288975
 30
0.0
 10
2.571257
 20
4.288975
 30
0.0
  0
LWPOLYLINE
  5
200
100
AcDbEntity
  8
Page_1
 62
7
100
AcDbPolyline
 90
2
 70
0
 10
2.919340
 20
8.437409
 30
0.0
 10
0.571262
 20
7.081746
 30
0.0
  0
SPLINE
  5
201
100
AcDbEntity
  8
Page_1
 62
7
100
AcDbSpline
 70
8
 71
3
 72
8
 73
4
 74
0
 40
0
 40
0
 40
0
 40
0
 40
1
 40
1
 40
1
 40
1
 10
0.821263
 20
4.288975
 30
0.0
 10
0.747805
 20
4.288975
 30
0.0
 10
0.688264
 20
4.229434
 30
0.0
 10
0.688264
 20
4.155976
 30
0.0
  0
SPLINE
  5
202
100
AcDbEntity
  8
Page_1
 62
7
100
AcDbSpline
 70
8
 71
3
 72
8
 73
4
 74
0
 40
0
 40
0
 40
0
 40
0
 40
1
 40
1
 40
1
 40
1
 10
0.688264
 20
4.155976
 30
0.0
 10
0.688264
 20
4.082518
 30
0.0
 10
0.747805
 20
4.022976
 30
0.0
 10
0.821263
 20
4.022976
 30
0.0
  0
SPLINE
  5
203
100
AcDbEntity
  8
Page_1
 62
7
100
AcDbSpline
 70
8
 71
3
 72
8
 73
4
 74
0
 40
0
 40
0
 40
0
 40
0
 40
1
 40
1
 40
1
 40
1
 10
0.821263
 20
4.022976
 30
0.0
 10
0.894721
 20
4.022976
 30
0.0
 10
0.954263
 20
4.082518
 30
0.0
 10
0.954263
 20
4.155976
 30
0.0
  0
SPLINE
  5
204
100
AcDbEntity
  8
Page_1
 62
7
100
AcDbSpline
 70
8
 71
3
 72
8
 73
4
 74
0
 40
0
 40
0
 40
0
 40
0
 40
1
 40
1
 40
1
 40
1
 10
0.954263
 20
4.155976
 30
0.0
 10
0.954263
 20
4.229434
 30
0.0
 10
0.894721
 20
4.288975
 30
0.0
 10
0.821263
 20
4.288975
 30
0.0
  0
LWPOLYLINE
  5
205
100
AcDbEntity
  8
Page_1
 62
7
100
AcDbPolyline
 90
1
 70
1
 10
2.571257
 20
4.288975
 30
0.0
  0
SPLINE
  5
206
100
AcDbEntity
  8
Page_1
 62
7
100
AcDbSpline
 70
8
 71
3
 72
8
 73
4
 74
0
 40
0
 40
0
 40
0
 40
0
 40
1
 40
1
 40
1
 40
1
 10
3.898296
 20
6.104526
 30
0.0
 10
3.824838
 20
6.104526
 30
0.0
 10
3.765296
 20
6.044985
 30
0.0
 10
3.765296
 20
5.971527
 30
0.0
  0
SPLINE
  5
207
100
AcDbEntity
  8
Page_1
 62
7
100
AcDbSpline
 70
8
 71
3
 72
8
 73
4
 74
0
 40
0
 40
0
 40
0
 40
0
 40
1
 40
1
 40
1
 40
1
 10
3.765296
 20
5.971527
 30
0.0
 10
3.765296
 20
5.898069
 30
0.0
 10
3.824838
 20
5.838527
 30
0.0
 10
3.898296
 20
5.838527
 30
0.0
  0
SPLINE
  5
208
100
AcDbEntity
  8
Page_1
 62
7
100
AcDbSpline
 70
8
 71
3
 72
8
 73
4
 74
0
 40
0
 40
0
 40
0
 40
0
 40
1
 40
1
 40
1
 40
1
 10
3.898296
 20
5.838527
 30
0.0
 10
3.971754
 20
5.838527
 30
0.0
 10
4.031295
 20
5.898069
 30
0.0
 10
4.031295
 20
5.971527
 30
0.0
  0
SPLINE
  5
209
100
AcDbEntity
  8
Page_1
 62
7
100
AcDbSpline
 70
8
 71
3
 72
8
 73
4
 74
0
 40
0
 40
0
 40
0
 40
0
 40
1
 40
1
 40
1
 40
1
 10
4.031295
 20
5.971527
 30
0.0
 10
4.031295
 20
6.044985
 30
0.0
 10
3.971754
 20
6.104526
 30
0.0
 10
3.898296
 20
6.104526
 30
0.0
  0
LWPOLYLINE
  5
20a
100
AcDbEntity
  8
Page_1
 62
7
100
AcDbPolyline
 90
1
 70
1
 10
0.821263
 20
4.288975
 30
0.0
  0
SPLINE
  5
20b
100
AcDbEntity
  8
Page_1
 62
7
100
AcDbSpline
 70
8
 71
3
 72
8
 73
4
 74
0
 40
0
 40
0
 40
0
 40
0
 40
1
 40
1
 40
1
 40
1
 10
3.067631
 20
8.223007
 30
0.0
 10
2.994173
 20
8.223007
 30
0.0
 10
2.934632
 20
8.163466
 30
0.0
 10
2.934632
 20
8.090008
 30
0.0
  0
SPLINE
  5
20c
100
AcDbEntity
  8
Page_1
 62
7
100
AcDbSpline
 70
8
 71
3
 72
8
 73
4
 74
0
 40
0
 40
0
 40
0
 40
0
 40
1
 40
1
 40
1
 40
1
 10
2.934632
 20
8.090008
 30
0.0
 10
2.934632
 20
8.016549
 30
0.0
 10
2.994173
 20
7.957008
 30
0.0
 10
3.067631
 20
7.957008
 30
0.0
  0
SPLINE
  5
20d
100
AcDbEntity
  8
Page_1
 62
7
100
AcDbSpline
 70
8
 71
3
 72
8
 73
4
 74
0
 40
0
 40
0
 40
0
 40
0
 40
1
 40
1
 40
1
 40
1
 10
3.067631
 20
7.957008
 30
0.0
 10
3.141089
 20
7.957008
 30
0.0
 10
3.200631
 20
8.016549
 30
0.0
 10
3.200631
 20
8.090008
 30
0.0
  0
SPLINE
  5
20e
100
AcDbEntity
  8
Page_1
 62
7
100
AcDbSpline
 70
8
 71
3
 72
8
 73
4
 74
0
 40
0
 40
0
 40
0
 40
0
 40
1
 40
1
 40
1
 40
1
 10
3.200631
 20
8.090008
 30
0.0
 10
3.200631
 20
8.163466
 30
0.0
 10
3.141089
 20
8.223007
 30
0.0
 10
3.067631
 20
8.223007
 30
0.0
  0
LWPOLYLINE
  5
20f
100
AcDbEntity
  8
Page_1
 62
7
100
AcDbPolyline
 90
1
 70
1
 10
3.898296
 20
6.104526
 30
0.0
  0
SPLINE
  5
210
100
AcDbEntity
  8
Page_1
 62
7
100
AcDbSpline
 70
8
 71
3
 72
8
 73
4
 74
0
 40
0
 40
0
 40
0
 40
0
 40
1
 40
1
 40
1
 40
1
 10
1.696343
 20
5.876471
 30
0.0
 10
1.647468
 20
5.876471
 30
0.0
 10
1.607843
 20
5.836847
 30
0.0
 10
1.607843
 20
5.787972
 30
0.0
  0
SPLINE
  5
211
100
AcDbEntity
  8
Page_1
 62
7
100
AcDbSpline
 70
8
 71
3
 72
8
 73
4
 74
0
 40
0
 40
0
 40
0
 40
0
 40
1
 40
1
 40
1
 40
1
 10
1.607843
 20
5.787972
 30
0.0
 10
1.607843
 20
5.739097
 30
0.0
 10
1.647468
 20
5.699472
 30
0.0
 10
1.696343
 20
5.699472
 30
0.0
  0
SPLINE
  5
212
100
AcDbEntity
  8
Page_1
 62
7
100
AcDbSpline
 70
8
 71
3
 72
8
 73
4
 74
0
 40
0
 40
0
 40
0
 40
0
 40
1
 40
1
 40
1
 40
1
 10
1.696343
 20
5.699472
 30
0.0
 10
1.745218
 20
5.699472
 30
0.0
 10
1.784843
 20
5.739097
 30
0.0
 10
1.784843
 20
5.787972
 30
0.0
  0
SPLINE
  5
213
100
AcDbEntity
  8
Page_1
 62
7
100
AcDbSpline
 70
8
 71
3
 72
8
 73
4
 74
0
 40
0
 40
0
 40
0
 40
0
 40
1
 40
1
 40
1
 40
1
 10
1.784843
 20
5.787972
 30
0.0
 10
1.784843
 20
5.836847
 30
0.0
 10
1.745218
 20
5.876471
 30
0.0
 10
1.696343
 20
5.876471
 30
0.0
  0
LWPOLYLINE
  5
214
100
AcDbEntity
  8
Page_1
 62
7
100
AcDbPolyline
 90
1
 70
1
 10
3.067631
 20
8.223007
 30
0.0
  0
SPLINE
  5
215
100
AcDbEntity
  8
Page_1
 62
7
100
AcDbSpline
 70
8
 71
3
 72
8
 73
4
 74
0
 40
0
 40
0
 40
0
 40
0
 40
1
 40
1
 40
1
 40
1
 10
2.696188
 20
6.876316
 30
0.0
 10
2.647313
 20
6.876316
 30
0.0
 10
2.607688
 20
6.836691
 30
0.0
 10
2.607688
 20
6.787816
 30
0.0
  0
SPLINE
  5
216
100
AcDbEntity
  8
Page_1
 62
7
100
AcDbSpline
 70
8
 71
3
 72
8
 73
4
 74
0
 40
0
 40
0
 40
0
 40
0
 40
1
 40
1
 40
1
 40
1
 10
2.607688
 20
6.787816
 30
0.0
 10
2.607688
 20
6.738941
 30
0.0
 10
2.647313
 20
6.699317
 30
0.0
 10
2.696188
 20
6.699317
 30
0.0
  0
SPLINE
  5
217
100
AcDbEntity
  8
Page_1
 62
7
100
AcDbSpline
 70
8
 71
3
 72
8
 73
4
 74
0
 40
0
 40
0
 40
0
 40
0
 40
1
 40
1
 40
1
 40
1
 10
2.696188
 20
6.699317
 30
0.0
 10
2.745063
 20
6.699317
 30
0.0
 10
2.784687
 20
6.738941
 30
0.0
 10
2.784687
 20
6.787816
 30
0.0
  0
SPLINE
  5
218
100
AcDbEntity
  8
Page_1
 62
7
100
AcDbSpline
 70
8
 71
3
 72
8
 73
4
 74
0
 40
0
 40
0
 40
0
 40
0
 40
1
 40
1
 40
1
 40
1
 10
2.784687
 20
6.787816
 30
0.0
 10
2.784687
 20
6.836691
 30
0.0
 10
2.745063
 20
6.876316
 30
0.0
 10
2.696188
 20
6.876316
 30
0.0
  0
LWPOLYLINE
  5
219
100
AcDbEntity
  8
Page_1
 62
7
100
AcDbPolyline
 90
1
 70
1
 10
1.696343
 20
5.876471
 30
0.0
  0
SPLINE
  5
21a
100
AcDbEntity
  8
Page_1
 62
7
100
AcDbSpline
 70
8
 71
3
 72
8
 73
4
 74
0
 40
0
 40
0
 40
0
 40
0
 40
1
 40
1
 40
1
 40
1
 10
3.872324
 20
9.121713
 30
0.0
 10
3.872324
 20
9.069866
 30
0.0
 10
3.911949
 20
9.026616
 30
0.0
 10
3.963601
 20
9.022089
 30
0.0
  0
LWPOLYLINE
  5
21b
100
AcDbEntity
  8
Page_1
 62
7
100
AcDbPolyline
 90
1
 70
1
 10
2.696188
 20
6.876316
 30
0.0
  0
SPLINE
  5
21c
100
AcDbEntity
  8
Page_1
 62
7
100
AcDbSpline
 70
8
 71
3
 72
8
 73
4
 74
0
 40
0
 40
0
 40
0
 40
0
 40
1
 40
1
 40
1
 40
1
 10
3.972323
 20
11.771498
 30
0.0
 10
3.917101
 20
11.771498
 30
0.0
 10
3.872324
 20
11.726721
 30
0.0
 10
3.872324
 20
11.671499
 30
0.0
  0
LWPOLYLINE
  5
21d
100
AcDbEntity
  8
Page_1
 62
7
100
AcDbPolyline
 90
2
 70
0
 10
3.872324
 20
11.671499
 30
0.0
 10
3.872324
 20
9.121713
 30
0.0
  0
SPLINE
  5
21e
100
AcDbEntity
  8
Page_1
 62
7
100
AcDbSpline
 70
8
 71
3
 72
8
 73
4
 74
0
 40
0
 40
0
 40
0
 40
0
 40
1
 40
1
 40
1
 40
1
 10
6.771775
 20
11.688860
 30
0.0
 10
6.763344
 20
11.736651
 30
0.0
 10
6.721830
 20
11.771498
 30
0.0
 10
6.673289
 20
11.771498
 30
0.0
  0
LWPOLYLINE
  5
21f
100
AcDbEntity
  8
Page_1
 62
7
100
AcDbPolyline
 90
2
 70
0
 10
6.673303
 20
11.771498
 30
0.0
 10
3.972323
 20
11.771498
 30
0.0
  0
SPLINE
  5
220
100
AcDbEntity
  8
Page_1
 62
7
100
AcDbSpline
 70
8
 71
3
 72
8
 73
4
 74
0
 40
0
 40
0
 40
0
 40
0
 40
1
 40
1
 40
1
 40
1
 10
7.163538
 20
8.742131
 30
0.0
 10
7.218551
 20
8.737311
 30
0.0
 10
7.267065
 20
8.778020
 30
0.0
 10
7.271871
 20
8.833033
 30
0.0
  0
SPLINE
  5
221
100
AcDbEntity
  8
Page_1
 62
7
100
AcDbSpline
 70
8
 71
3
 72
8
 73
4
 74
0
 40
0
 40
0
 40
0
 40
0
 40
1
 40
1
 40
1
 40
1
 10
7.271871
 20
8.833033
 30
0.0
 10
7.272635
 20
8.841742
 30
0.0
 10
7.272246
 20
8.850506
 30
0.0
 10
7.270732
 20
8.859117
 30
0.0
  0
LWPOLYLINE
  5
222
100
AcDbEntity
  8
Page_1
 62
7
100
AcDbPolyline
 90
2
 70
0
 10
7.270746
 20
8.859117
 30
0.0
 10
6.771789
 20
11.688860
 30
0.0
  0
SPLINE
  5
223
100
AcDbEntity
  8
Page_1
 62
7
100
AcDbSpline
 70
8
 71
3
 72
8
 73
4
 74
0
 40
0
 40
0
 40
0
 40
0
 40
1
 40
1
 40
1
 40
1
 10
5.005321
 20
9.228894
 30
0.0
 10
5.005321
 20
9.302352
 30
0.0
 10
4.945779
 20
9.361893
 30
0.0
 10
4.872321
 20
9.361893
 30
0.0
  0
SPLINE
  5
224
100
AcDbEntity
  8
Page_1
 62
7
100
AcDbSpline
 70
8
 71
3
 72
8
 73
4
 74
0
 40
0
 40
0
 40
0
 40
0
 40
1
 40
1
 40
1
 40
1
 10
4.872321
 20
9.361893
 30
0.0
 10
4.798863
 20
9.361893
 30
0.0
 10
4.739321
 20
9.302352
 30
0.0
 10
4.739321
 20
9.228894
 30
0.0
  0
SPLINE
  5
225
100
AcDbEntity
  8
Page_1
 62
7
100
AcDbSpline
 70
8
 71
3
 72
8
 73
4
 74
0
 40
0
 40
0
 40
0
 40
0
 40
1
 40
1
 40
1
 40
1
 10
4.739321
 20
9.228894
 30
0.0
 10
4.739321
 20
9.155435
 30
0.0
 10
4.798863
 20
9.095894
 30
0.0
 10
4.872321
 20
9.095894
 30
0.0
  0
SPLINE
  5
226
100
AcDbEntity
  8
Page_1
 62
7
100
AcDbSpline
 70
8
 71
3
 72
8
 73
4
 74
0
 40
0
 40
0
 40
0
 40
0
 40
1
 40
1
 40
1
 40
1
 10
4.872321
 20
9.095894
 30
0.0
 10
4.945779
 20
9.095894
 30
0.0
 10
5.005321
 20
9.155435
 30
0.0
 10
5.005321
 20
9.228894
 30
0.0
  0
LWPOLYLINE
  5
227
100
AcDbEntity
  8
Page_1
 62
7
100
AcDbPolyline
 90
2
 70
0
 10
3.963615
 20
9.022089
 30
0.0
 10
7.163552
 20
8.742131
 30
0.0
  0
SPLINE
  5
228
100
AcDbEntity
  8
Page_1
 62
7
100
AcDbSpline
 70
8
 71
3
 72
8
 73
4
 74
0
 40
0
 40
0
 40
0
 40
0
 40
1
 40
1
 40
1
 40
1
 10
7.000094
 20
9.054380
 30
0.0
 10
7.000094
 20
9.127838
 30
0.0
 10
6.940552
 20
9.187380
 30
0.0
 10
6.867094
 20
9.187380
 30
0.0
  0
SPLINE
  5
229
100
AcDbEntity
  8
Page_1
 62
7
100
AcDbSpline
 70
8
 71
3
 72
8
 73
4
 74
0
 40
0
 40
0
 40
0
 40
0
 40
1
 40
1
 40
1
 40
1
 10
6.867094
 20
9.187380
 30
0.0
 10
6.793636
 20
9.187380
 30
0.0
 10
6.734094
 20
9.127838
 30
0.0
 10
6.734094
 20
9.054380
 30
0.0
  0
SPLINE
  5
22a
100
AcDbEntity
  8
Page_1
 62
7
100
AcDbSpline
 70
8
 71
3
 72
8
 73
4
 74
0
 40
0
 40
0
 40
0
 40
0
 40
1
 40
1
 40
1
 40
1
 10
6.734094
 20
9.054380
 30
0.0
 10
6.734094
 20
8.980922
 30
0.0
 10
6.793636
 20
8.921380
 30
0.0
 10
6.867094
 20
8.921380
 30
0.0
  0
SPLINE
  5
22b
100
AcDbEntity
  8
Page_1
 62
7
100
AcDbSpline
 70
8
 71
3
 72
8
 73
4
 74
0
 40
0
 40
0
 40
0
 40
0
 40
1
 40
1
 40
1
 40
1
 10
6.867094
 20
8.921380
 30
0.0
 10
6.940552
 20
8.921380
 30
0.0
 10
7.000094
 20
8.980922
 30
0.0
 10
7.000094
 20
9.054380
 30
0.0
  0
LWPOLYLINE
  5
22c
100
AcDbEntity
  8
Page_1
 62
7
100
AcDbPolyline
 90
1
 70
1
 10
5.005321
 20
9.228894
 30
0.0
  0
SPLINE
  5
22d
100
AcDbEntity
  8
Page_1
 62
7
100
AcDbSpline
 70
8
 71
3
 72
8
 73
4
 74
0
 40
0
 40
0
 40
0
 40
0
 40
1
 40
1
 40
1
 40
1
 10
4.300600
 20
10.030072
 30
0.0
 10
4.300600
 20
10.103530
 30
0.0
 10
4.241059
 20
10.163072
 30
0.0
 10
4.167601
 20
10.163072
 30
0.0
  0
SPLINE
  5
22e
100
AcDbEntity
  8
Page_1
 62
7
100
AcDbSpline
 70
8
 71
3
 72
8
 73
4
 74
0
 40
0
 40
0
 40
0
 40
0
 40
1
 40
1
 40
1
 40
1
 10
4.167601
 20
10.163072
 30
0.0
 10
4.094143
 20
10.163072
 30
0.0
 10
4.034601
 20
10.103530
 30
0.0
 10
4.034601
 20
10.030072
 30
0.0
  0
SPLINE
  5
22f
100
AcDbEntity
  8
Page_1
 62
7
100
AcDbSpline
 70
8
 71
3
 72
8
 73
4
 74
0
 40
0
 40
0
 40
0
 40
0
 40
1
 40
1
 40
1
 40
1
 10
4.034601
 20
10.030072
 30
0.0
 10
4.034601
 20
9.956614
 30
0.0
 10
4.094143
 20
9.897072
 30
0.0
 10
4.167601
 20
9.897072
 30
0.0
  0
SPLINE
  5
230
100
AcDbEntity
  8
Page_1
 62
7
100
AcDbSpline
 70
8
 71
3
 72
8
 73
4
 74
0
 40
0
 40
0
 40
0
 40
0
 40
1
 40
1
 40
1
 40
1
 10
4.167601
 20
9.897072
 30
0.0
 10
4.241059
 20
9.897072
 30
0.0
 10
4.300600
 20
9.956614
 30
0.0
 10
4.300600
 20
10.030072
 30
0.0
  0
LWPOLYLINE
  5
231
100
AcDbEntity
  8
Page_1
 62
7
100
AcDbPolyline
 90
1
 70
1
 10
7.000094
 20
9.054380
 30
0.0
  0
SPLINE
  5
232
100
AcDbEntity
  8
Page_1
 62
7
100
AcDbSpline
 70
8
 71
3
 72
8
 73
4
 74
0
 40
0
 40
0
 40
0
 40
0
 40
1
 40
1
 40
1
 40
1
 10
4.300600
 20
11.396499
 30
0.0
 10
4.300600
 20
11.469957
 30
0.0
 10
4.241059
 20
11.529499
 30
0.0
 10
4.167601
 20
11.529499
 30
0.0
  0
SPLINE
  5
233
100
AcDbEntity
  8
Page_1
 62
7
100
AcDbSpline
 70
8
 71
3
 72
8
 73
4
 74
0
 40
0
 40
0
 40
0
 40
0
 40
1
 40
1
 40
1
 40
1
 10
4.167601
 20
11.529499
 30
0.0
 10
4.094143
 20
11.529499
 30
0.0
 10
4.034601
 20
11.469957
 30
0.0
 10
4.034601
 20
11.396499
 30
0.0
  0
SPLINE
  5
234
100
AcDbEntity
  8
Page_1
 62
7
100
AcDbSpline
 70
8
 71
3
 72
8
 73
4
 74
0
 40
0
 40
0
 40
0
 40
0
 40
1
 40
1
 40
1
 40
1
 10
4.034601
 20
11.396499
 30
0.0
 10
4.034601
 20
11.323041
 30
0.0
 10
4.094143
 20
11.263500
 30
0.0
 10
4.167601
 20
11.263500
 30
0.0
  0
SPLINE
  5
235
100
AcDbEntity
  8
Page_1
 62
7
100
AcDbSpline
 70
8
 71
3
 72
8
 73
4
 74
0
 40
0
 40
0
 40
0
 40
0
 40
1
 40
1
 40
1
 40
1
 10
4.167601
 20
11.263500
 30
0.0
 10
4.241059
 20
11.263500
 30
0.0
 10
4.300600
 20
11.323041
 30
0.0
 10
4.300600
 20
11.396499
 30
0.0
  0
LWPOLYLINE
  5
236
100
AcDbEntity
  8
Page_1
 62
7
100
AcDbPolyline
 90
1
 70
1
 10
4.300600
 20
10.030072
 30
0.0
  0
SPLINE
  5
237
100
AcDbEntity
  8
Page_1
 62
7
100
AcDbSpline
 70
8
 71
3
 72
8
 73
4
 74
0
 40
0
 40
0
 40
0
 40
0
 40
1
 40
1
 40
1
 40
1
 10
5.296917
 20
10.021586
 30
0.0
 10
5.296917
 20
10.070461
 30
0.0
 10
5.257292
 20
10.110086
 30
0.0
 10
5.208418
 20
10.110086
 30
0.0
  0
SPLINE
  5
238
100
AcDbEntity
  8
Page_1
 62
7
100
AcDbSpline
 70
8
 71
3
 72
8
 73
4
 74
0
 40
0
 40
0
 40
0
 40
0
 40
1
 40
1
 40
1
 40
1
 10
5.208418
 20
10.110086
 30
0.0
 10
5.159543
 20
10.110086
 30
0.0
 10
5.119918
 20
10.070461
 30
0.0
 10
5.119918
 20
10.021586
 30
0.0
  0
SPLINE
  5
239
100
AcDbEntity
  8
Page_1
 62
7
100
AcDbSpline
 70
8
 71
3
 72
8
 73
4
 74
0
 40
0
 40
0
 40
0
 40
0
 40
1
 40
1
 40
1
 40
1
 10
5.119918
 20
10.021586
 30
0.0
 10
5.119918
 20
9.972711
 30
0.0
 10
5.159543
 20
9.933086
 30
0.0
 10
5.208418
 20
9.933086
 30
0.0
  0
SPLINE
  5
23a
100
AcDbEntity
  8
Page_1
 62
7
100
AcDbSpline
 70
8
 71
3
 72
8
 73
4
 74
0
 40
0
 40
0
 40
0
 40
0
 40
1
 40
1
 40
1
 40
1
 10
5.208418
 20
9.933086
 30
0.0
 10
5.257292
 20
9.933086
 30
0.0
 10
5.296917
 20
9.972711
 30
0.0
 10
5.296917
 20
10.021586
 30
0.0
  0
LWPOLYLINE
  5
23b
100
AcDbEntity
  8
Page_1
 62
7
100
AcDbPolyline
 90
1
 70
1
 10
4.300600
 20
11.396499
 30
0.0
  0
SPLINE
  5
23c
100
AcDbEntity
  8
Page_1
 62
7
100
AcDbSpline
 70
8
 71
3
 72
8
 73
4
 74
0
 40
0
 40
0
 40
0
 40
0
 40
1
 40
1
 40
1
 40
1
 10
6.296762
 20
11.021431
 30
0.0
 10
6.296762
 20
11.070306
 30
0.0
 10
6.257137
 20
11.109931
 30
0.0
 10
6.208262
 20
11.109931
 30
0.0
  0
SPLINE
  5
23d
100
AcDbEntity
  8
Page_1
 62
7
100
AcDbSpline
 70
8
 71
3
 72
8
 73
4
 74
0
 40
0
 40
0
 40
0
 40
0
 40
1
 40
1
 40
1
 40
1
 10
6.208262
 20
11.109931
 30
0.0
 10
6.159387
 20
11.109931
 30
0.0
 10
6.119762
 20
11.070306
 30
0.0
 10
6.119762
 20
11.021431
 30
0.0
  0
SPLINE
  5
23e
100
AcDbEntity
  8
Page_1
 62
7
100
AcDbSpline
 70
8
 71
3
 72
8
 73
4
 74
0
 40
0
 40
0
 40
0
 40
0
 40
1
 40
1
 40
1
 40
1
 10
6.119762
 20
11.021431
 30
0.0
 10
6.119762
 20
10.972556
 30
0.0
 10
6.159387
 20
10.932931
 30
0.0
 10
6.208262
 20
10.932931
 30
0.0
  0
SPLINE
  5
23f
100
AcDbEntity
  8
Page_1
 62
7
100
AcDbSpline
 70
8
 71
3
 72
8
 73
4
 74
0
 40
0
 40
0
 40
0
 40
0
 40
1
 40
1
 40
1
 40
1
 10
6.208262
 20
10.932931
 30
0.0
 10
6.257137
 20
10.932931
 30
0.0
 10
6.296762
 20
10.972556
 30
0.0
 10
6.296762
 20
11.021431
 30
0.0
  0
LWPOLYLINE
  5
240
100
AcDbEntity
  8
Page_1
 62
7
100
AcDbPolyline
 90
1
 70
1
 10
5.296917
 20
10.021586
 30
0.0
  0
LWPOLYLINE
  5
241
100
AcDbEntity
  8
Page_1
 62
7
100
AcDbPolyline
 90
1
 70
1
 10
6.296762
 20
11.021431
 30
0.0
  0
ENDSEC
  0
SECTION
  2
OBJECTS
  0
DICTIONARY
  5
C
330
0
100
AcDbDictionary
  3
ACAD_GROUP
350
D
  3
ACAD_MLINESTYLE
350
17
  0
DICTIONARY
  5
D
330
C
100
AcDbDictionary
  0
DICTIONARY
  5
1A
330
C
100
AcDbDictionary
  0
DICTIONARY
  5
17
330
C
100
AcDbDictionary
  3
STANDARD
350
18
  0
DICTIONARY
  5
19
330
C
100
AcDbDictionary
  0
ENDSEC
  0
EOF
