  0
SECTION
  2
HEADER
  9
$ACADVER
  1
AC1014
  9
$HANDSEED
  5
FFFF
  9
$INSUNITS
 70
     1
  9
$MEASUREMENT
 70
     1
  0
ENDSEC
  0
SECTION
  2
TABLES
  0
TABLE
  2
VPORT
  5
8
330
0
100
AcDbSymbolTable
 70
     4
  0
VPORT
  5
2E
330
8
100
AcDbSymbolTableRecord
100
AcDbViewportTableRecord
  2
*ACTIVE
 70
     0
 10
0.0
 20
0.0
 11
1.0
 21
1.0
 12
210.0
 22
148.5
 13
0.0
 23
0.0
 14
10.0
 24
10.0
 15
10.0
 25
10.0
 16
0.0
 26
0.0
 36
1.0
 17
0.0
 27
0.0
 37
0.0
 40
341.0
 41
1.24
 42
50.0
 43
0.0
 44
0.0
 50
0.0
 51
0.0
 71
     0
 72
   100
 73
     1
 74
     3
 75
     0
 76
     0
 77
     0
 78
     0
  0
ENDTAB
  0
TABLE
  2
LTYPE
  5
5
330
0
100
AcDbSymbolTable
 70
     1
  0
LTYPE
  5
14
330
5
100
AcDbSymbolTableRecord
100
AcDbLinetypeTableRecord
  2
BYBLOCK
 70
     0
  3

 72
    65
 73
     0
 40
0.0
  0
LTYPE
  5
15
330
5
100
AcDbSymbolTableRecord
100
AcDbLinetypeTableRecord
  2
BYLAYER
 70
     0
  3

 72
    65
 73
     0
 40
0.0
  0
LTYPE
  5
16
330
5
100
AcDbSymbolTableRecord
100
AcDbLinetypeTableRecord
  2
CONTINUOUS
 70
     0
  3
Solid line
 72
    65
 73
     0
 40
0.0
  0
ENDTAB
  0
TABLE
  2
LAYER
  5
2
100
AcDbSymbolTable
 70
2
  0
LAYER
  5
50
100
AcDbSymbolTableRecord
100
AcDbLayerTableRecord
  2
0
 70
0
  6
CONTINUOUS
  0
LAYER
  5
51
100
AcDbSymbolTableRecord
100
AcDbLayerTableRecord
  2
Page_1
 70
0
  6
CONTINUOUS
  0
ENDTAB
  0
TABLE
  2
STYLE
  5
3
330
0
100
AcDbSymbolTable
 70
     1
  0
STYLE
  5
11
330
3
100
AcDbSymbolTableRecord
100
AcDbTextStyleTableRecord
  2
STANDARD
 70
     0
 40
0.0
 41
1.0
 50
0.0
 71
     0
 42
2.5
  3
txt
  4

  0
ENDTAB
  0
TABLE
  2
VIEW
  5
6
330
0
100
AcDbSymbolTable
 70
     0
  0
ENDTAB
  0
TABLE
  2
UCS
  5
7
330
0
100
AcDbSymbolTable
 70
     0
  0
ENDTAB
  0
TABLE
  2
APPID
  5
9
330
0
100
AcDbSymbolTable
 70
     2
  0
APPID
  5
12
330
9
100
AcDbSymbolTableRecord
100
AcDbRegAppTableRecord
  2
ACAD
 70
     0
  0
ENDTAB
  0
TABLE
  2
DIMSTYLE
  5
A
330
0
100
AcDbSymbolTable
 70
     1
  0
DIMSTYLE
105
27
330
A
100
AcDbSymbolTableRecord
100
AcDbDimStyleTableRecord
  2
ISO-25
 70
     0
  3

  4

  5

  6

  7

 40
1.0
 41
2.5
 42
0.625
 43
3.75
 44
1.25
 45
0.0
 46
0.0
 47
0.0
 48
0.0
140
2.5
141
2.5
142
0.0
143
0.03937007874016
144
1.0
145
0.0
146
1.0
147
0.625
 71
     0
 72
     0
 73
     0
 74
     0
 75
     0
 76
     0
 77
     1
 78
     8
170
     0
171
     3
172
     1
173
     0
174
     0
175
     0
176
     0
177
     0
178
     0
270
     2
271
     2
272
     2
273
     2
274
     3
340
11
275
     0
280
     0
281
     0
282
     0
283
     0
284
     8
285
     0
286
     0
287
     3
288
     0
  0
ENDTAB
  0
TABLE
  2
BLOCK_RECORD
  5
1
330
0
100
AcDbSymbolTable
 70
     1
  0
BLOCK_RECORD
  5
1F
330
1
100
AcDbSymbolTableRecord
100
AcDbBlockTableRecord
  2
*MODEL_SPACE
  0
BLOCK_RECORD
  5
1B
330
1
100
AcDbSymbolTableRecord
100
AcDbBlockTableRecord
  2
*PAPER_SPACE
  0
ENDTAB
  0
ENDSEC
  0
SECTION
  2
BLOCKS
  0
BLOCK
  5
20
330
1F
100
AcDbEntity
  8
0
100
AcDbBlockBegin
  2
*MODEL_SPACE
 70
     0
 10
0.0
 20
0.0
 30
0.0
  3
*MODEL_SPACE
  1

  0
ENDBLK
  5
21
330
1F
100
AcDbEntity
  8
0
100
AcDbBlockEnd
  0
BLOCK
  5
1C
330
1B
100
AcDbEntity
 67
     1
  8
0
100
AcDbBlockBegin
  2
*PAPER_SPACE
  1

  0
ENDBLK
  5
1D
330
1B
100
AcDbEntity
 67
     1
  8
0
100
AcDbBlockEnd
  0
ENDSEC
  0
SECTION
  2
ENTITIES
  0
SPLINE
  5
100
100
AcDbEntity
  8
Page_1
 62
7
100
AcDbSpline
 70
8
 71
3
 72
8
 73
4
 74
0
 40
0
 40
0
 40
0
 40
0
 40
1
 40
1
 40
1
 40
1
 10
4.700947
 20
7.404995
 30
0.0
 10
4.700947
 20
7.453870
 30
0.0
 10
4.661322
 20
7.493495
 30
0.0
 10
4.612447
 20
7.493495
 30
0.0
  0
SPLINE
  5
101
100
AcDbEntity
  8
Page_1
 62
7
100
AcDbSpline
 70
8
 71
3
 72
8
 73
4
 74
0
 40
0
 40
0
 40
0
 40
0
 40
1
 40
1
 40
1
 40
1
 10
4.612447
 20
7.493495
 30
0.0
 10
4.563572
 20
7.493495
 30
0.0
 10
4.523947
 20
7.453870
 30
0.0
 10
4.523947
 20
7.404995
 30
0.0
  0
SPLINE
  5
102
100
AcDbEntity
  8
Page_1
 62
7
100
AcDbSpline
 70
8
 71
3
 72
8
 73
4
 74
0
 40
0
 40
0
 40
0
 40
0
 40
1
 40
1
 40
1
 40
1
 10
4.523947
 20
7.404995
 30
0.0
 10
4.523947
 20
7.356120
 30
0.0
 10
4.563572
 20
7.316496
 30
0.0
 10
4.612447
 20
7.316496
 30
0.0
  0
SPLINE
  5
103
100
AcDbEntity
  8
Page_1
 62
7
100
AcDbSpline
 70
8
 71
3
 72
8
 73
4
 74
0
 40
0
 40
0
 40
0
 40
0
 40
1
 40
1
 40
1
 40
1
 10
4.612447
 20
7.316496
 30
0.0
 10
4.661322
 20
7.316496
 30
0.0
 10
4.700947
 20
7.356120
 30
0.0
 10
4.700947
 20
7.404995
 30
0.0
  0
SPLINE
  5
104
100
AcDbEntity
  8
Page_1
 62
7
100
AcDbSpline
 70
8
 71
3
 72
8
 73
4
 74
0
 40
0
 40
0
 40
0
 40
0
 40
1
 40
1
 40
1
 40
1
 10
4.700947
 20
6.404998
 30
0.0
 10
4.700947
 20
6.453873
 30
0.0
 10
4.661322
 20
6.493498
 30
0.0
 10
4.612447
 20
6.493498
 30
0.0
  0
SPLINE
  5
105
100
AcDbEntity
  8
Page_1
 62
7
100
AcDbSpline
 70
8
 71
3
 72
8
 73
4
 74
0
 40
0
 40
0
 40
0
 40
0
 40
1
 40
1
 40
1
 40
1
 10
4.612447
 20
6.493498
 30
0.0
 10
4.563572
 20
6.493498
 30
0.0
 10
4.523947
 20
6.453873
 30
0.0
 10
4.523947
 20
6.404998
 30
0.0
  0
SPLINE
  5
106
100
AcDbEntity
  8
Page_1
 62
7
100
AcDbSpline
 70
8
 71
3
 72
8
 73
4
 74
0
 40
0
 40
0
 40
0
 40
0
 40
1
 40
1
 40
1
 40
1
 10
4.523947
 20
6.404998
 30
0.0
 10
4.523947
 20
6.356123
 30
0.0
 10
4.563572
 20
6.316498
 30
0.0
 10
4.612447
 20
6.316498
 30
0.0
  0
SPLINE
  5
107
100
AcDbEntity
  8
Page_1
 62
7
100
AcDbSpline
 70
8
 71
3
 72
8
 73
4
 74
0
 40
0
 40
0
 40
0
 40
0
 40
1
 40
1
 40
1
 40
1
 10
4.612447
 20
6.316498
 30
0.0
 10
4.661322
 20
6.316498
 30
0.0
 10
4.700947
 20
6.356123
 30
0.0
 10
4.700947
 20
6.404998
 30
0.0
  0
LWPOLYLINE
  5
108
100
AcDbEntity
  8
Page_1
 62
7
100
AcDbPolyline
 90
1
 70
1
 10
4.700947
 20
7.404995
 30
0.0
  0
SPLINE
  5
109
100
AcDbEntity
  8
Page_1
 62
7
100
AcDbSpline
 70
8
 71
3
 72
8
 73
4
 74
0
 40
0
 40
0
 40
0
 40
0
 40
1
 40
1
 40
1
 40
1
 10
1.450955
 20
7.404995
 30
0.0
 10
1.450955
 20
7.453870
 30
0.0
 10
1.411330
 20
7.493495
 30
0.0
 10
1.362455
 20
7.493495
 30
0.0
  0
SPLINE
  5
10a
100
AcDbEntity
  8
Page_1
 62
7
100
AcDbSpline
 70
8
 71
3
 72
8
 73
4
 74
0
 40
0
 40
0
 40
0
 40
0
 40
1
 40
1
 40
1
 40
1
 10
1.362455
 20
7.493495
 30
0.0
 10
1.313580
 20
7.493495
 30
0.0
 10
1.273955
 20
7.453870
 30
0.0
 10
1.273955
 20
7.404995
 30
0.0
  0
SPLINE
  5
10b
100
AcDbEntity
  8
Page_1
 62
7
100
AcDbSpline
 70
8
 71
3
 72
8
 73
4
 74
0
 40
0
 40
0
 40
0
 40
0
 40
1
 40
1
 40
1
 40
1
 10
1.273955
 20
7.404995
 30
0.0
 10
1.273955
 20
7.356120
 30
0.0
 10
1.313580
 20
7.316496
 30
0.0
 10
1.362455
 20
7.316496
 30
0.0
  0
SPLINE
  5
10c
100
AcDbEntity
  8
Page_1
 62
7
100
AcDbSpline
 70
8
 71
3
 72
8
 73
4
 74
0
 40
0
 40
0
 40
0
 40
0
 40
1
 40
1
 40
1
 40
1
 10
1.362455
 20
7.316496
 30
0.0
 10
1.411330
 20
7.316496
 30
0.0
 10
1.450955
 20
7.356120
 30
0.0
 10
1.450955
 20
7.404995
 30
0.0
  0
LWPOLYLINE
  5
10d
100
AcDbEntity
  8
Page_1
 62
7
100
AcDbPolyline
 90
1
 70
1
 10
4.700947
 20
6.404998
 30
0.0
  0
SPLINE
  5
10e
100
AcDbEntity
  8
Page_1
 62
7
100
AcDbSpline
 70
8
 71
3
 72
8
 73
4
 74
0
 40
0
 40
0
 40
0
 40
0
 40
1
 40
1
 40
1
 40
1
 10
1.450955
 20
6.404998
 30
0.0
 10
1.450955
 20
6.453873
 30
0.0
 10
1.411330
 20
6.493498
 30
0.0
 10
1.362455
 20
6.493498
 30
0.0
  0
SPLINE
  5
10f
100
AcDbEntity
  8
Page_1
 62
7
100
AcDbSpline
 70
8
 71
3
 72
8
 73
4
 74
0
 40
0
 40
0
 40
0
 40
0
 40
1
 40
1
 40
1
 40
1
 10
1.362455
 20
6.493498
 30
0.0
 10
1.313580
 20
6.493498
 30
0.0
 10
1.273955
 20
6.453873
 30
0.0
 10
1.273955
 20
6.404998
 30
0.0
  0
SPLINE
  5
110
100
AcDbEntity
  8
Page_1
 62
7
100
AcDbSpline
 70
8
 71
3
 72
8
 73
4
 74
0
 40
0
 40
0
 40
0
 40
0
 40
1
 40
1
 40
1
 40
1
 10
1.273955
 20
6.404998
 30
0.0
 10
1.273955
 20
6.356123
 30
0.0
 10
1.313580
 20
6.316498
 30
0.0
 10
1.362455
 20
6.316498
 30
0.0
  0
SPLINE
  5
111
100
AcDbEntity
  8
Page_1
 62
7
100
AcDbSpline
 70
8
 71
3
 72
8
 73
4
 74
0
 40
0
 40
0
 40
0
 40
0
 40
1
 40
1
 40
1
 40
1
 10
1.362455
 20
6.316498
 30
0.0
 10
1.411330
 20
6.316498
 30
0.0
 10
1.450955
 20
6.356123
 30
0.0
 10
1.450955
 20
6.404998
 30
0.0
  0
LWPOLYLINE
  5
112
100
AcDbEntity
  8
Page_1
 62
7
100
AcDbPolyline
 90
1
 70
1
 10
1.450955
 20
7.404995
 30
0.0
  0
SPLINE
  5
113
100
AcDbEntity
  8
Page_1
 62
7
100
AcDbSpline
 70
8
 71
3
 72
8
 73
4
 74
0
 40
0
 40
0
 40
0
 40
0
 40
1
 40
1
 40
1
 40
1
 10
3.052423
 20
5.566417
 30
0.0
 10
3.052423
 20
5.602292
 30
0.0
 10
3.023340
 20
5.631375
 30
0.0
 10
2.987465
 20
5.631375
 30
0.0
  0
SPLINE
  5
114
100
AcDbEntity
  8
Page_1
 62
7
100
AcDbSpline
 70
8
 71
3
 72
8
 73
4
 74
0
 40
0
 40
0
 40
0
 40
0
 40
1
 40
1
 40
1
 40
1
 10
2.987465
 20
5.631375
 30
0.0
 10
2.951590
 20
5.631375
 30
0.0
 10
2.922507
 20
5.602292
 30
0.0
 10
2.922507
 20
5.566417
 30
0.0
  0
SPLINE
  5
115
100
AcDbEntity
  8
Page_1
 62
7
100
AcDbSpline
 70
8
 71
3
 72
8
 73
4
 74
0
 40
0
 40
0
 40
0
 40
0
 40
1
 40
1
 40
1
 40
1
 10
2.922507
 20
5.566417
 30
0.0
 10
2.922507
 20
5.530542
 30
0.0
 10
2.951590
 20
5.501458
 30
0.0
 10
2.987465
 20
5.501458
 30
0.0
  0
SPLINE
  5
116
100
AcDbEntity
  8
Page_1
 62
7
100
AcDbSpline
 70
8
 71
3
 72
8
 73
4
 74
0
 40
0
 40
0
 40
0
 40
0
 40
1
 40
1
 40
1
 40
1
 10
2.987465
 20
5.501458
 30
0.0
 10
3.023340
 20
5.501458
 30
0.0
 10
3.052423
 20
5.530542
 30
0.0
 10
3.052423
 20
5.566417
 30
0.0
  0
LWPOLYLINE
  5
117
100
AcDbEntity
  8
Page_1
 62
7
100
AcDbPolyline
 90
1
 70
1
 10
1.450955
 20
6.404998
 30
0.0
  0
SPLINE
  5
118
100
AcDbEntity
  8
Page_1
 62
7
100
AcDbSpline
 70
8
 71
3
 72
8
 73
4
 74
0
 40
0
 40
0
 40
0
 40
0
 40
1
 40
1
 40
1
 40
1
 10
3.052423
 20
8.243577
 30
0.0
 10
3.052423
 20
8.279452
 30
0.0
 10
3.023340
 20
8.308535
 30
0.0
 10
2.987465
 20
8.308535
 30
0.0
  0
SPLINE
  5
119
100
AcDbEntity
  8
Page_1
 62
7
100
AcDbSpline
 70
8
 71
3
 72
8
 73
4
 74
0
 40
0
 40
0
 40
0
 40
0
 40
1
 40
1
 40
1
 40
1
 10
2.987465
 20
8.308535
 30
0.0
 10
2.951590
 20
8.308535
 30
0.0
 10
2.922507
 20
8.279452
 30
0.0
 10
2.922507
 20
8.243577
 30
0.0
  0
SPLINE
  5
11a
100
AcDbEntity
  8
Page_1
 62
7
100
AcDbSpline
 70
8
 71
3
 72
8
 73
4
 74
0
 40
0
 40
0
 40
0
 40
0
 40
1
 40
1
 40
1
 40
1
 10
2.922507
 20
8.243577
 30
0.0
 10
2.922507
 20
8.207702
 30
0.0
 10
2.951590
 20
8.178618
 30
0.0
 10
2.987465
 20
8.178618
 30
0.0
  0
SPLINE
  5
11b
100
AcDbEntity
  8
Page_1
 62
7
100
AcDbSpline
 70
8
 71
3
 72
8
 73
4
 74
0
 40
0
 40
0
 40
0
 40
0
 40
1
 40
1
 40
1
 40
1
 10
2.987465
 20
8.178618
 30
0.0
 10
3.023340
 20
8.178618
 30
0.0
 10
3.052423
 20
8.207702
 30
0.0
 10
3.052423
 20
8.243577
 30
0.0
  0
LWPOLYLINE
  5
11c
100
AcDbEntity
  8
Page_1
 62
7
100
AcDbPolyline
 90
1
 70
1
 10
3.052423
 20
5.566417
 30
0.0
  0
SPLINE
  5
11d
100
AcDbEntity
  8
Page_1
 62
7
100
AcDbSpline
 70
8
 71
3
 72
8
 73
4
 74
0
 40
0
 40
0
 40
0
 40
0
 40
1
 40
1
 40
1
 40
1
 10
5.487459
 20
6.904997
 30
0.0
 10
5.487459
 20
8.285702
 30
0.0
 10
4.368170
 20
9.404990
 30
0.0
 10
2.987465
 20
9.404990
 30
0.0
  0
SPLINE
  5
11e
100
AcDbEntity
  8
Page_1
 62
7
100
AcDbSpline
 70
8
 71
3
 72
8
 73
4
 74
0
 40
0
 40
0
 40
0
 40
0
 40
1
 40
1
 40
1
 40
1
 10
2.987465
 20
9.404990
 30
0.0
 10
1.606760
 20
9.404990
 30
0.0
 10
0.487471
 20
8.285702
 30
0.0
 10
0.487471
 20
6.904997
 30
0.0
  0
SPLINE
  5
11f
100
AcDbEntity
  8
Page_1
 62
7
100
AcDbSpline
 70
8
 71
3
 72
8
 73
4
 74
0
 40
0
 40
0
 40
0
 40
0
 40
1
 40
1
 40
1
 40
1
 10
0.487471
 20
6.904997
 30
0.0
 10
0.487471
 20
5.524292
 30
0.0
 10
1.606760
 20
4.405003
 30
0.0
 10
2.987465
 20
4.405003
 30
0.0
  0
SPLINE
  5
120
100
AcDbEntity
  8
Page_1
 62
7
100
AcDbSpline
 70
8
 71
3
 72
8
 73
4
 74
0
 40
0
 40
0
 40
0
 40
0
 40
1
 40
1
 40
1
 40
1
 10
2.987465
 20
4.405003
 30
0.0
 10
4.368170
 20
4.405003
 30
0.0
 10
5.487459
 20
5.524292
 30
0.0
 10
5.487459
 20
6.904997
 30
0.0
  0
LWPOLYLINE
  5
121
100
AcDbEntity
  8
Page_1
 62
7
100
AcDbPolyline
 90
1
 70
1
 10
3.052423
 20
8.243577
 30
0.0
  0
SPLINE
  5
122
100
AcDbEntity
  8
Page_1
 62
7
100
AcDbSpline
 70
8
 71
3
 72
8
 73
4
 74
0
 40
0
 40
0
 40
0
 40
0
 40
1
 40
1
 40
1
 40
1
 10
7.908605
 20
10.493488
 30
0.0
 10
7.908605
 20
10.542363
 30
0.0
 10
7.868980
 20
10.581987
 30
0.0
 10
7.820105
 20
10.581987
 30
0.0
  0
SPLINE
  5
123
100
AcDbEntity
  8
Page_1
 62
7
100
AcDbSpline
 70
8
 71
3
 72
8
 73
4
 74
0
 40
0
 40
0
 40
0
 40
0
 40
1
 40
1
 40
1
 40
1
 10
7.820105
 20
10.581987
 30
0.0
 10
7.771231
 20
10.581987
 30
0.0
 10
7.731606
 20
10.542363
 30
0.0
 10
7.731606
 20
10.493488
 30
0.0
  0
SPLINE
  5
124
100
AcDbEntity
  8
Page_1
 62
7
100
AcDbSpline
 70
8
 71
3
 72
8
 73
4
 74
0
 40
0
 40
0
 40
0
 40
0
 40
1
 40
1
 40
1
 40
1
 10
7.731606
 20
10.493488
 30
0.0
 10
7.731606
 20
10.444613
 30
0.0
 10
7.771231
 20
10.404988
 30
0.0
 10
7.820105
 20
10.404988
 30
0.0
  0
SPLINE
  5
125
100
AcDbEntity
  8
Page_1
 62
7
100
AcDbSpline
 70
8
 71
3
 72
8
 73
4
 74
0
 40
0
 40
0
 40
0
 40
0
 40
1
 40
1
 40
1
 40
1
 10
7.820105
 20
10.404988
 30
0.0
 10
7.868980
 20
10.404988
 30
0.0
 10
7.908605
 20
10.444613
 30
0.0
 10
7.908605
 20
10.493488
 30
0.0
  0
LWPOLYLINE
  5
126
100
AcDbEntity
  8
Page_1
 62
7
100
AcDbPolyline
 90
1
 70
1
 10
5.487459
 20
6.904997
 30
0.0
  0
SPLINE
  5
127
100
AcDbEntity
  8
Page_1
 62
7
100
AcDbSpline
 70
8
 71
3
 72
8
 73
4
 74
0
 40
0
 40
0
 40
0
 40
0
 40
1
 40
1
 40
1
 40
1
 10
9.908600
 20
10.493488
 30
0.0
 10
9.908600
 20
10.542363
 30
0.0
 10
9.868975
 20
10.581987
 30
0.0
 10
9.820100
 20
10.581987
 30
0.0
  0
SPLINE
  5
128
100
AcDbEntity
  8
Page_1
 62
7
100
AcDbSpline
 70
8
 71
3
 72
8
 73
4
 74
0
 40
0
 40
0
 40
0
 40
0
 40
1
 40
1
 40
1
 40
1
 10
9.820100
 20
10.581987
 30
0.0
 10
9.771226
 20
10.581987
 30
0.0
 10
9.731601
 20
10.542363
 30
0.0
 10
9.731601
 20
10.493488
 30
0.0
  0
SPLINE
  5
129
100
AcDbEntity
  8
Page_1
 62
7
100
AcDbSpline
 70
8
 71
3
 72
8
 73
4
 74
0
 40
0
 40
0
 40
0
 40
0
 40
1
 40
1
 40
1
 40
1
 10
9.731601
 20
10.493488
 30
0.0
 10
9.731601
 20
10.444613
 30
0.0
 10
9.771226
 20
10.404988
 30
0.0
 10
9.820100
 20
10.404988
 30
0.0
  0
SPLINE
  5
12a
100
AcDbEntity
  8
Page_1
 62
7
100
AcDbSpline
 70
8
 71
3
 72
8
 73
4
 74
0
 40
0
 40
0
 40
0
 40
0
 40
1
 40
1
 40
1
 40
1
 10
9.820100
 20
10.404988
 30
0.0
 10
9.868975
 20
10.404988
 30
0.0
 10
9.908600
 20
10.444613
 30
0.0
 10
9.908600
 20
10.493488
 30
0.0
  0
LWPOLYLINE
  5
12b
100
AcDbEntity
  8
Page_1
 62
7
100
AcDbPolyline
 90
1
 70
1
 10
7.908605
 20
10.493488
 30
0.0
  0
SPLINE
  5
12c
100
AcDbEntity
  8
Page_1
 62
7
100
AcDbSpline
 70
8
 71
3
 72
8
 73
4
 74
0
 40
0
 40
0
 40
0
 40
0
 40
1
 40
1
 40
1
 40
1
 10
9.908600
 20
6.993496
 30
0.0
 10
9.908600
 20
7.042371
 30
0.0
 10
9.868975
 20
7.081996
 30
0.0
 10
9.820100
 20
7.081996
 30
0.0
  0
SPLINE
  5
12d
100
AcDbEntity
  8
Page_1
 62
7
100
AcDbSpline
 70
8
 71
3
 72
8
 73
4
 74
0
 40
0
 40
0
 40
0
 40
0
 40
1
 40
1
 40
1
 40
1
 10
9.820100
 20
7.081996
 30
0.0
 10
9.771226
 20
7.081996
 30
0.0
 10
9.731601
 20
7.042371
 30
0.0
 10
9.731601
 20
6.993496
 30
0.0
  0
SPLINE
  5
12e
100
AcDbEntity
  8
Page_1
 62
7
100
AcDbSpline
 70
8
 71
3
 72
8
 73
4
 74
0
 40
0
 40
0
 40
0
 40
0
 40
1
 40
1
 40
1
 40
1
 10
9.731601
 20
6.993496
 30
0.0
 10
9.731601
 20
6.944622
 30
0.0
 10
9.771226
 20
6.904997
 30
0.0
 10
9.820100
 20
6.904997
 30
0.0
  0
SPLINE
  5
12f
100
AcDbEntity
  8
Page_1
 62
7
100
AcDbSpline
 70
8
 71
3
 72
8
 73
4
 74
0
 40
0
 40
0
 40
0
 40
0
 40
1
 40
1
 40
1
 40
1
 10
9.820100
 20
6.904997
 30
0.0
 10
9.868975
 20
6.904997
 30
0.0
 10
9.908600
 20
6.944622
 30
0.0
 10
9.908600
 20
6.993496
 30
0.0
  0
LWPOLYLINE
  5
130
100
AcDbEntity
  8
Page_1
 62
7
100
AcDbPolyline
 90
1
 70
1
 10
9.908600
 20
10.493488
 30
0.0
  0
SPLINE
  5
131
100
AcDbEntity
  8
Page_1
 62
7
100
AcDbSpline
 70
8
 71
3
 72
8
 73
4
 74
0
 40
0
 40
0
 40
0
 40
0
 40
1
 40
1
 40
1
 40
1
 10
7.908605
 20
6.993496
 30
0.0
 10
7.908605
 20
7.042371
 30
0.0
 10
7.868980
 20
7.081996
 30
0.0
 10
7.820105
 20
7.081996
 30
0.0
  0
SPLINE
  5
132
100
AcDbEntity
  8
Page_1
 62
7
100
AcDbSpline
 70
8
 71
3
 72
8
 73
4
 74
0
 40
0
 40
0
 40
0
 40
0
 40
1
 40
1
 40
1
 40
1
 10
7.820105
 20
7.081996
 30
0.0
 10
7.771231
 20
7.081996
 30
0.0
 10
7.731606
 20
7.042371
 30
0.0
 10
7.731606
 20
6.993496
 30
0.0
  0
SPLINE
  5
133
100
AcDbEntity
  8
Page_1
 62
7
100
AcDbSpline
 70
8
 71
3
 72
8
 73
4
 74
0
 40
0
 40
0
 40
0
 40
0
 40
1
 40
1
 40
1
 40
1
 10
7.731606
 20
6.993496
 30
0.0
 10
7.731606
 20
6.944622
 30
0.0
 10
7.771231
 20
6.904997
 30
0.0
 10
7.820105
 20
6.904997
 30
0.0
  0
SPLINE
  5
134
100
AcDbEntity
  8
Page_1
 62
7
100
AcDbSpline
 70
8
 71
3
 72
8
 73
4
 74
0
 40
0
 40
0
 40
0
 40
0
 40
1
 40
1
 40
1
 40
1
 10
7.820105
 20
6.904997
 30
0.0
 10
7.868980
 20
6.904997
 30
0.0
 10
7.908605
 20
6.944622
 30
0.0
 10
7.908605
 20
6.993496
 30
0.0
  0
LWPOLYLINE
  5
135
100
AcDbEntity
  8
Page_1
 62
7
100
AcDbPolyline
 90
1
 70
1
 10
9.908600
 20
6.993496
 30
0.0
  0
SPLINE
  5
136
100
AcDbEntity
  8
Page_1
 62
7
100
AcDbSpline
 70
8
 71
3
 72
8
 73
4
 74
0
 40
0
 40
0
 40
0
 40
0
 40
1
 40
1
 40
1
 40
1
 10
8.885061
 20
7.404912
 30
0.0
 10
8.885061
 20
7.440787
 30
0.0
 10
8.855978
 20
7.469870
 30
0.0
 10
8.820103
 20
7.469870
 30
0.0
  0
SPLINE
  5
137
100
AcDbEntity
  8
Page_1
 62
7
100
AcDbSpline
 70
8
 71
3
 72
8
 73
4
 74
0
 40
0
 40
0
 40
0
 40
0
 40
1
 40
1
 40
1
 40
1
 10
8.820103
 20
7.469870
 30
0.0
 10
8.784228
 20
7.469870
 30
0.0
 10
8.755145
 20
7.440787
 30
0.0
 10
8.755145
 20
7.404912
 30
0.0
  0
SPLINE
  5
138
100
AcDbEntity
  8
Page_1
 62
7
100
AcDbSpline
 70
8
 71
3
 72
8
 73
4
 74
0
 40
0
 40
0
 40
0
 40
0
 40
1
 40
1
 40
1
 40
1
 10
8.755145
 20
7.404912
 30
0.0
 10
8.755145
 20
7.369037
 30
0.0
 10
8.784228
 20
7.339954
 30
0.0
 10
8.820103
 20
7.339954
 30
0.0
  0
SPLINE
  5
139
100
AcDbEntity
  8
Page_1
 62
7
100
AcDbSpline
 70
8
 71
3
 72
8
 73
4
 74
0
 40
0
 40
0
 40
0
 40
0
 40
1
 40
1
 40
1
 40
1
 10
8.820103
 20
7.339954
 30
0.0
 10
8.855978
 20
7.339954
 30
0.0
 10
8.885061
 20
7.369037
 30
0.0
 10
8.885061
 20
7.404912
 30
0.0
  0
LWPOLYLINE
  5
13a
100
AcDbEntity
  8
Page_1
 62
7
100
AcDbPolyline
 90
1
 70
1
 10
7.908605
 20
6.993496
 30
0.0
  0
SPLINE
  5
13b
100
AcDbEntity
  8
Page_1
 62
7
100
AcDbSpline
 70
8
 71
3
 72
8
 73
4
 74
0
 40
0
 40
0
 40
0
 40
0
 40
1
 40
1
 40
1
 40
1
 10
8.885061
 20
10.082072
 30
0.0
 10
8.885061
 20
10.117947
 30
0.0
 10
8.855978
 20
10.147030
 30
0.0
 10
8.820103
 20
10.147030
 30
0.0
  0
SPLINE
  5
13c
100
AcDbEntity
  8
Page_1
 62
7
100
AcDbSpline
 70
8
 71
3
 72
8
 73
4
 74
0
 40
0
 40
0
 40
0
 40
0
 40
1
 40
1
 40
1
 40
1
 10
8.820103
 20
10.147030
 30
0.0
 10
8.784228
 20
10.147030
 30
0.0
 10
8.755145
 20
10.117947
 30
0.0
 10
8.755145
 20
10.082072
 30
0.0
  0
SPLINE
  5
13d
100
AcDbEntity
  8
Page_1
 62
7
100
AcDbSpline
 70
8
 71
3
 72
8
 73
4
 74
0
 40
0
 40
0
 40
0
 40
0
 40
1
 40
1
 40
1
 40
1
 10
8.755145
 20
10.082072
 30
0.0
 10
8.755145
 20
10.046197
 30
0.0
 10
8.784228
 20
10.017114
 30
0.0
 10
8.820103
 20
10.017114
 30
0.0
  0
SPLINE
  5
13e
100
AcDbEntity
  8
Page_1
 62
7
100
AcDbSpline
 70
8
 71
3
 72
8
 73
4
 74
0
 40
0
 40
0
 40
0
 40
0
 40
1
 40
1
 40
1
 40
1
 10
8.820103
 20
10.017114
 30
0.0
 10
8.855978
 20
10.017114
 30
0.0
 10
8.885061
 20
10.046197
 30
0.0
 10
8.885061
 20
10.082072
 30
0.0
  0
LWPOLYLINE
  5
13f
100
AcDbEntity
  8
Page_1
 62
7
100
AcDbPolyline
 90
1
 70
1
 10
8.885061
 20
7.404912
 30
0.0
  0
SPLINE
  5
140
100
AcDbEntity
  8
Page_1
 62
7
100
AcDbSpline
 70
8
 71
3
 72
8
 73
4
 74
0
 40
0
 40
0
 40
0
 40
0
 40
1
 40
1
 40
1
 40
1
 10
11.320097
 20
8.743492
 30
0.0
 10
11.320097
 20
10.124197
 30
0.0
 10
10.200808
 20
11.243486
 30
0.0
 10
8.820103
 20
11.243486
 30
0.0
  0
SPLINE
  5
141
100
AcDbEntity
  8
Page_1
 62
7
100
AcDbSpline
 70
8
 71
3
 72
8
 73
4
 74
0
 40
0
 40
0
 40
0
 40
0
 40
1
 40
1
 40
1
 40
1
 10
8.820103
 20
11.243486
 30
0.0
 10
7.439398
 20
11.243486
 30
0.0
 10
6.320109
 20
10.124197
 30
0.0
 10
6.320109
 20
8.743492
 30
0.0
  0
SPLINE
  5
142
100
AcDbEntity
  8
Page_1
 62
7
100
AcDbSpline
 70
8
 71
3
 72
8
 73
4
 74
0
 40
0
 40
0
 40
0
 40
0
 40
1
 40
1
 40
1
 40
1
 10
6.320109
 20
8.743492
 30
0.0
 10
6.320109
 20
7.362787
 30
0.0
 10
7.439398
 20
6.243498
 30
0.0
 10
8.820103
 20
6.243498
 30
0.0
  0
SPLINE
  5
143
100
AcDbEntity
  8
Page_1
 62
7
100
AcDbSpline
 70
8
 71
3
 72
8
 73
4
 74
0
 40
0
 40
0
 40
0
 40
0
 40
1
 40
1
 40
1
 40
1
 10
8.820103
 20
6.243498
 30
0.0
 10
10.200808
 20
6.243498
 30
0.0
 10
11.320097
 20
7.362787
 30
0.0
 10
11.320097
 20
8.743492
 30
0.0
  0
LWPOLYLINE
  5
144
100
AcDbEntity
  8
Page_1
 62
7
100
AcDbPolyline
 90
1
 70
1
 10
8.885061
 20
10.082072
 30
0.0
  0
LWPOLYLINE
  5
145
100
AcDbEntity
  8
Page_1
 62
7
100
AcDbPolyline
 90
1
 70
1
 10
11.320097
 20
8.743492
 30
0.0
  0
LWPOLYLINE
  5
146
100
AcDbEntity
  8
Page_1
 62
7
100
AcDbPolyline
 90
2
 70
0
 10
0.354732
 20
0.351914
 30
0.0
 10
3.354725
 20
0.351914
 30
0.0
  0
SPLINE
  5
147
100
AcDbEntity
  8
Page_1
 62
7
100
AcDbSpline
 70
8
 71
3
 72
8
 73
4
 74
0
 40
0
 40
0
 40
0
 40
0
 40
1
 40
1
 40
1
 40
1
 10
0.781508
 20
4.175128
 30
0.0
 10
0.683883
 20
4.272753
 30
0.0
 10
0.525592
 20
4.272753
 30
0.0
 10
0.427953
 20
4.175128
 30
0.0
  0
SPLINE
  5
148
100
AcDbEntity
  8
Page_1
 62
7
100
AcDbSpline
 70
8
 71
3
 72
8
 73
4
 74
0
 40
0
 40
0
 40
0
 40
0
 40
1
 40
1
 40
1
 40
1
 10
0.427953
 20
4.175128
 30
0.0
 10
0.381064
 20
4.128240
 30
0.0
 10
0.354731
 20
4.064657
 30
0.0
 10
0.354731
 20
3.998351
 30
0.0
  0
LWPOLYLINE
  5
149
100
AcDbEntity
  8
Page_1
 62
7
100
AcDbPolyline
 90
2
 70
0
 10
0.354732
 20
3.998351
 30
0.0
 10
0.354732
 20
0.351916
 30
0.0
  0
SPLINE
  5
14a
100
AcDbEntity
  8
Page_1
 62
7
100
AcDbSpline
 70
8
 71
3
 72
8
 73
4
 74
0
 40
0
 40
0
 40
0
 40
0
 40
1
 40
1
 40
1
 40
1
 10
3.354728
 20
1.498357
 30
0.0
 10
3.354728
 20
1.564663
 30
0.0
 10
3.328394
 20
1.628246
 30
0.0
 10
3.281506
 20
1.675135
 30
0.0
  0
LWPOLYLINE
  5
14b
100
AcDbEntity
  8
Page_1
 62
7
100
AcDbPolyline
 90
2
 70
0
 10
3.281506
 20
1.675135
 30
0.0
 10
0.781512
 20
4.175128
 30
0.0
  0
SPLINE
  5
14c
100
AcDbEntity
  8
Page_1
 62
7
100
AcDbSpline
 70
8
 71
3
 72
8
 73
4
 74
0
 40
0
 40
0
 40
0
 40
0
 40
1
 40
1
 40
1
 40
1
 10
1.987731
 20
0.851913
 30
0.0
 10
1.987731
 20
0.925371
 30
0.0
 10
1.928190
 20
0.984913
 30
0.0
 10
1.854731
 20
0.984913
 30
0.0
  0
SPLINE
  5
14d
100
AcDbEntity
  8
Page_1
 62
7
100
AcDbSpline
 70
8
 71
3
 72
8
 73
4
 74
0
 40
0
 40
0
 40
0
 40
0
 40
1
 40
1
 40
1
 40
1
 10
1.854731
 20
0.984913
 30
0.0
 10
1.781273
 20
0.984913
 30
0.0
 10
1.721732
 20
0.925371
 30
0.0
 10
1.721732
 20
0.851913
 30
0.0
  0
SPLINE
  5
14e
100
AcDbEntity
  8
Page_1
 62
7
100
AcDbSpline
 70
8
 71
3
 72
8
 73
4
 74
0
 40
0
 40
0
 40
0
 40
0
 40
1
 40
1
 40
1
 40
1
 10
1.721732
 20
0.851913
 30
0.0
 10
1.721732
 20
0.778455
 30
0.0
 10
1.781273
 20
0.718913
 30
0.0
 10
1.854731
 20
0.718913
 30
0.0
  0
SPLINE
  5
14f
100
AcDbEntity
  8
Page_1
 62
7
100
AcDbSpline
 70
8
 71
3
 72
8
 73
4
 74
0
 40
0
 40
0
 40
0
 40
0
 40
1
 40
1
 40
1
 40
1
 10
1.854731
 20
0.718913
 30
0.0
 10
1.928190
 20
0.718913
 30
0.0
 10
1.987731
 20
0.778455
 30
0.0
 10
1.987731
 20
0.851913
 30
0.0
  0
LWPOLYLINE
  5
150
100
AcDbEntity
  8
Page_1
 62
7
100
AcDbPolyline
 90
2
 70
0
 10
3.354728
 20
0.351914
 30
0.0
 10
3.354728
 20
1.498356
 30
0.0
  0
SPLINE
  5
151
100
AcDbEntity
  8
Page_1
 62
7
100
AcDbSpline
 70
8
 71
3
 72
8
 73
4
 74
0
 40
0
 40
0
 40
0
 40
0
 40
1
 40
1
 40
1
 40
1
 10
0.987731
 20
3.394797
 30
0.0
 10
0.987731
 20
3.468255
 30
0.0
 10
0.928189
 20
3.527797
 30
0.0
 10
0.854731
 20
3.527797
 30
0.0
  0
SPLINE
  5
152
100
AcDbEntity
  8
Page_1
 62
7
100
AcDbSpline
 70
8
 71
3
 72
8
 73
4
 74
0
 40
0
 40
0
 40
0
 40
0
 40
1
 40
1
 40
1
 40
1
 10
0.854731
 20
3.527797
 30
0.0
 10
0.781273
 20
3.527797
 30
0.0
 10
0.721732
 20
3.468255
 30
0.0
 10
0.721732
 20
3.394797
 30
0.0
  0
SPLINE
  5
153
100
AcDbEntity
  8
Page_1
 62
7
100
AcDbSpline
 70
8
 71
3
 72
8
 73
4
 74
0
 40
0
 40
0
 40
0
 40
0
 40
1
 40
1
 40
1
 40
1
 10
0.721732
 20
3.394797
 30
0.0
 10
0.721732
 20
3.321339
 30
0.0
 10
0.781273
 20
3.261797
 30
0.0
 10
0.854731
 20
3.261797
 30
0.0
  0
SPLINE
  5
154
100
AcDbEntity
  8
Page_1
 62
7
100
AcDbSpline
 70
8
 71
3
 72
8
 73
4
 74
0
 40
0
 40
0
 40
0
 40
0
 40
1
 40
1
 40
1
 40
1
 10
0.854731
 20
3.261797
 30
0.0
 10
0.928189
 20
3.261797
 30
0.0
 10
0.987731
 20
3.321339
 30
0.0
 10
0.987731
 20
3.394797
 30
0.0
  0
LWPOLYLINE
  5
155
100
AcDbEntity
  8
Page_1
 62
7
100
AcDbPolyline
 90
1
 70
1
 10
1.987731
 20
0.851913
 30
0.0
  0
SPLINE
  5
156
100
AcDbEntity
  8
Page_1
 62
7
100
AcDbSpline
 70
8
 71
3
 72
8
 73
4
 74
0
 40
0
 40
0
 40
0
 40
0
 40
1
 40
1
 40
1
 40
1
 10
1.987731
 20
2.394800
 30
0.0
 10
1.987731
 20
2.468258
 30
0.0
 10
1.928190
 20
2.527799
 30
0.0
 10
1.854731
 20
2.527799
 30
0.0
  0
SPLINE
  5
157
100
AcDbEntity
  8
Page_1
 62
7
100
AcDbSpline
 70
8
 71
3
 72
8
 73
4
 74
0
 40
0
 40
0
 40
0
 40
0
 40
1
 40
1
 40
1
 40
1
 10
1.854731
 20
2.527799
 30
0.0
 10
1.781273
 20
2.527799
 30
0.0
 10
1.721732
 20
2.468258
 30
0.0
 10
1.721732
 20
2.394800
 30
0.0
  0
SPLINE
  5
158
100
AcDbEntity
  8
Page_1
 62
7
100
AcDbSpline
 70
8
 71
3
 72
8
 73
4
 74
0
 40
0
 40
0
 40
0
 40
0
 40
1
 40
1
 40
1
 40
1
 10
1.721732
 20
2.394800
 30
0.0
 10
1.721732
 20
2.321341
 30
0.0
 10
1.781273
 20
2.261800
 30
0.0
 10
1.854731
 20
2.261800
 30
0.0
  0
SPLINE
  5
159
100
AcDbEntity
  8
Page_1
 62
7
100
AcDbSpline
 70
8
 71
3
 72
8
 73
4
 74
0
 40
0
 40
0
 40
0
 40
0
 40
1
 40
1
 40
1
 40
1
 10
1.854731
 20
2.261800
 30
0.0
 10
1.928190
 20
2.261800
 30
0.0
 10
1.987731
 20
2.321341
 30
0.0
 10
1.987731
 20
2.394800
 30
0.0
  0
LWPOLYLINE
  5
15a
100
AcDbEntity
  8
Page_1
 62
7
100
AcDbPolyline
 90
1
 70
1
 10
0.987731
 20
3.394797
 30
0.0
  0
SPLINE
  5
15b
100
AcDbEntity
  8
Page_1
 62
7
100
AcDbSpline
 70
8
 71
3
 72
8
 73
4
 74
0
 40
0
 40
0
 40
0
 40
0
 40
1
 40
1
 40
1
 40
1
 10
2.737729
 20
1.644801
 30
0.0
 10
2.737729
 20
1.718260
 30
0.0
 10
2.678188
 20
1.777801
 30
0.0
 10
2.604730
 20
1.777801
 30
0.0
  0
SPLINE
  5
15c
100
AcDbEntity
  8
Page_1
 62
7
100
AcDbSpline
 70
8
 71
3
 72
8
 73
4
 74
0
 40
0
 40
0
 40
0
 40
0
 40
1
 40
1
 40
1
 40
1
 10
2.604730
 20
1.777801
 30
0.0
 10
2.531271
 20
1.777801
 30
0.0
 10
2.471730
 20
1.718260
 30
0.0
 10
2.471730
 20
1.644801
 30
0.0
  0
SPLINE
  5
15d
100
AcDbEntity
  8
Page_1
 62
7
100
AcDbSpline
 70
8
 71
3
 72
8
 73
4
 74
0
 40
0
 40
0
 40
0
 40
0
 40
1
 40
1
 40
1
 40
1
 10
2.471730
 20
1.644801
 30
0.0
 10
2.471730
 20
1.571343
 30
0.0
 10
2.531271
 20
1.511802
 30
0.0
 10
2.604730
 20
1.511802
 30
0.0
  0
SPLINE
  5
15e
100
AcDbEntity
  8
Page_1
 62
7
100
AcDbSpline
 70
8
 71
3
 72
8
 73
4
 74
0
 40
0
 40
0
 40
0
 40
0
 40
1
 40
1
 40
1
 40
1
 10
2.604730
 20
1.511802
 30
0.0
 10
2.678188
 20
1.511802
 30
0.0
 10
2.737729
 20
1.571343
 30
0.0
 10
2.737729
 20
1.644801
 30
0.0
  0
LWPOLYLINE
  5
15f
100
AcDbEntity
  8
Page_1
 62
7
100
AcDbPolyline
 90
1
 70
1
 10
1.987731
 20
2.394800
 30
0.0
  0
SPLINE
  5
160
100
AcDbEntity
  8
Page_1
 62
7
100
AcDbSpline
 70
8
 71
3
 72
8
 73
4
 74
0
 40
0
 40
0
 40
0
 40
0
 40
1
 40
1
 40
1
 40
1
 10
0.987731
 20
0.851913
 30
0.0
 10
0.987731
 20
0.925371
 30
0.0
 10
0.928189
 20
0.984913
 30
0.0
 10
0.854731
 20
0.984913
 30
0.0
  0
SPLINE
  5
161
100
AcDbEntity
  8
Page_1
 62
7
100
AcDbSpline
 70
8
 71
3
 72
8
 73
4
 74
0
 40
0
 40
0
 40
0
 40
0
 40
1
 40
1
 40
1
 40
1
 10
0.854731
 20
0.984913
 30
0.0
 10
0.781273
 20
0.984913
 30
0.0
 10
0.721732
 20
0.925371
 30
0.0
 10
0.721732
 20
0.851913
 30
0.0
  0
SPLINE
  5
162
100
AcDbEntity
  8
Page_1
 62
7
100
AcDbSpline
 70
8
 71
3
 72
8
 73
4
 74
0
 40
0
 40
0
 40
0
 40
0
 40
1
 40
1
 40
1
 40
1
 10
0.721732
 20
0.851913
 30
0.0
 10
0.721732
 20
0.778455
 30
0.0
 10
0.781273
 20
0.718913
 30
0.0
 10
0.854731
 20
0.718913
 30
0.0
  0
SPLINE
  5
163
100
AcDbEntity
  8
Page_1
 62
7
100
AcDbSpline
 70
8
 71
3
 72
8
 73
4
 74
0
 40
0
 40
0
 40
0
 40
0
 40
1
 40
1
 40
1
 40
1
 10
0.854731
 20
0.718913
 30
0.0
 10
0.928189
 20
0.718913
 30
0.0
 10
0.987731
 20
0.778455
 30
0.0
 10
0.987731
 20
0.851913
 30
0.0
  0
LWPOLYLINE
  5
164
100
AcDbEntity
  8
Page_1
 62
7
100
AcDbPolyline
 90
1
 70
1
 10
2.737729
 20
1.644801
 30
0.0
  0
SPLINE
  5
165
100
AcDbEntity
  8
Page_1
 62
7
100
AcDbSpline
 70
8
 71
3
 72
8
 73
4
 74
0
 40
0
 40
0
 40
0
 40
0
 40
1
 40
1
 40
1
 40
1
 10
2.737729
 20
0.851913
 30
0.0
 10
2.737729
 20
0.925371
 30
0.0
 10
2.678188
 20
0.984913
 30
0.0
 10
2.604730
 20
0.984913
 30
0.0
  0
SPLINE
  5
166
100
AcDbEntity
  8
Page_1
 62
7
100
AcDbSpline
 70
8
 71
3
 72
8
 73
4
 74
0
 40
0
 40
0
 40
0
 40
0
 40
1
 40
1
 40
1
 40
1
 10
2.604730
 20
0.984913
 30
0.0
 10
2.531271
 20
0.984913
 30
0.0
 10
2.471730
 20
0.925371
 30
0.0
 10
2.471730
 20
0.851913
 30
0.0
  0
SPLINE
  5
167
100
AcDbEntity
  8
Page_1
 62
7
100
AcDbSpline
 70
8
 71
3
 72
8
 73
4
 74
0
 40
0
 40
0
 40
0
 40
0
 40
1
 40
1
 40
1
 40
1
 10
2.471730
 20
0.851913
 30
0.0
 10
2.471730
 20
0.778455
 30
0.0
 10
2.531271
 20
0.718913
 30
0.0
 10
2.604730
 20
0.718913
 30
0.0
  0
SPLINE
  5
168
100
AcDbEntity
  8
Page_1
 62
7
100
AcDbSpline
 70
8
 71
3
 72
8
 73
4
 74
0
 40
0
 40
0
 40
0
 40
0
 40
1
 40
1
 40
1
 40
1
 10
2.604730
 20
0.718913
 30
0.0
 10
2.678188
 20
0.718913
 30
0.0
 10
2.737729
 20
0.778455
 30
0.0
 10
2.737729
 20
0.851913
 30
0.0
  0
LWPOLYLINE
  5
169
100
AcDbEntity
  8
Page_1
 62
7
100
AcDbPolyline
 90
1
 70
1
 10
0.987731
 20
0.851913
 30
0.0
  0
SPLINE
  5
16a
100
AcDbEntity
  8
Page_1
 62
7
100
AcDbSpline
 70
8
 71
3
 72
8
 73
4
 74
0
 40
0
 40
0
 40
0
 40
0
 40
1
 40
1
 40
1
 40
1
 10
9.745503
 20
4.748349
 30
0.0
 10
10.297780
 20
4.748349
 30
0.0
 10
10.745501
 20
5.196056
 30
0.0
 10
10.745501
 20
5.748347
 30
0.0
  0
SPLINE
  5
16b
100
AcDbEntity
  8
Page_1
 62
7
100
AcDbSpline
 70
8
 71
3
 72
8
 73
4
 74
0
 40
0
 40
0
 40
0
 40
0
 40
1
 40
1
 40
1
 40
1
 10
10.870501
 20
6.748344
 30
0.0
 10
10.801459
 20
6.748344
 30
0.0
 10
10.745501
 20
6.692386
 30
0.0
 10
10.745501
 20
6.623345
 30
0.0
  0
SPLINE
  5
16c
100
AcDbEntity
  8
Page_1
 62
7
100
AcDbSpline
 70
8
 71
3
 72
8
 73
4
 74
0
 40
0
 40
0
 40
0
 40
0
 40
1
 40
1
 40
1
 40
1
 10
9.620504
 20
4.748349
 30
0.0
 10
9.551462
 20
4.748349
 30
0.0
 10
9.495504
 20
4.692391
 30
0.0
 10
9.495504
 20
4.623350
 30
0.0
  0
SPLINE
  5
16d
100
AcDbEntity
  8
Page_1
 62
7
100
AcDbSpline
 70
8
 71
3
 72
8
 73
4
 74
0
 40
0
 40
0
 40
0
 40
0
 40
1
 40
1
 40
1
 40
1
 10
11.378499
 20
6.248345
 30
0.0
 10
11.378499
 20
6.321804
 30
0.0
 10
11.318958
 20
6.381345
 30
0.0
 10
11.245500
 20
6.381345
 30
0.0
  0
SPLINE
  5
16e
100
AcDbEntity
  8
Page_1
 62
7
100
AcDbSpline
 70
8
 71
3
 72
8
 73
4
 74
0
 40
0
 40
0
 40
0
 40
0
 40
1
 40
1
 40
1
 40
1
 10
11.245500
 20
6.381345
 30
0.0
 10
11.172042
 20
6.381345
 30
0.0
 10
11.112500
 20
6.321804
 30
0.0
 10
11.112500
 20
6.248345
 30
0.0
  0
SPLINE
  5
16f
100
AcDbEntity
  8
Page_1
 62
7
100
AcDbSpline
 70
8
 71
3
 72
8
 73
4
 74
0
 40
0
 40
0
 40
0
 40
0
 40
1
 40
1
 40
1
 40
1
 10
11.112500
 20
6.248345
 30
0.0
 10
11.112500
 20
6.174887
 30
0.0
 10
11.172042
 20
6.115346
 30
0.0
 10
11.245500
 20
6.115346
 30
0.0
  0
SPLINE
  5
170
100
AcDbEntity
  8
Page_1
 62
7
100
AcDbSpline
 70
8
 71
3
 72
8
 73
4
 74
0
 40
0
 40
0
 40
0
 40
0
 40
1
 40
1
 40
1
 40
1
 10
11.245500
 20
6.115346
 30
0.0
 10
11.318958
 20
6.115346
 30
0.0
 10
11.378499
 20
6.174887
 30
0.0
 10
11.378499
 20
6.248345
 30
0.0
  0
LWPOLYLINE
  5
171
100
AcDbEntity
  8
Page_1
 62
7
100
AcDbPolyline
 90
1
 70
1
 10
2.737729
 20
0.851913
 30
0.0
  0
SPLINE
  5
172
100
AcDbEntity
  8
Page_1
 62
7
100
AcDbSpline
 70
8
 71
3
 72
8
 73
4
 74
0
 40
0
 40
0
 40
0
 40
0
 40
1
 40
1
 40
1
 40
1
 10
11.378499
 20
5.248348
 30
0.0
 10
11.378499
 20
5.321806
 30
0.0
 10
11.318958
 20
5.381348
 30
0.0
 10
11.245500
 20
5.381348
 30
0.0
  0
SPLINE
  5
173
100
AcDbEntity
  8
Page_1
 62
7
100
AcDbSpline
 70
8
 71
3
 72
8
 73
4
 74
0
 40
0
 40
0
 40
0
 40
0
 40
1
 40
1
 40
1
 40
1
 10
11.245500
 20
5.381348
 30
0.0
 10
11.172042
 20
5.381348
 30
0.0
 10
11.112500
 20
5.321806
 30
0.0
 10
11.112500
 20
5.248348
 30
0.0
  0
SPLINE
  5
174
100
AcDbEntity
  8
Page_1
 62
7
100
AcDbSpline
 70
8
 71
3
 72
8
 73
4
 74
0
 40
0
 40
0
 40
0
 40
0
 40
1
 40
1
 40
1
 40
1
 10
11.112500
 20
5.248348
 30
0.0
 10
11.112500
 20
5.174890
 30
0.0
 10
11.172042
 20
5.115348
 30
0.0
 10
11.245500
 20
5.115348
 30
0.0
  0
SPLINE
  5
175
100
AcDbEntity
  8
Page_1
 62
7
100
AcDbSpline
 70
8
 71
3
 72
8
 73
4
 74
0
 40
0
 40
0
 40
0
 40
0
 40
1
 40
1
 40
1
 40
1
 10
11.245500
 20
5.115348
 30
0.0
 10
11.318958
 20
5.115348
 30
0.0
 10
11.378499
 20
5.174890
 30
0.0
 10
11.378499
 20
5.248348
 30
0.0
  0
LWPOLYLINE
  5
176
100
AcDbEntity
  8
Page_1
 62
7
100
AcDbPolyline
 90
1
 70
1
 10
11.378499
 20
6.248345
 30
0.0
  0
SPLINE
  5
177
100
AcDbEntity
  8
Page_1
 62
7
100
AcDbSpline
 70
8
 71
3
 72
8
 73
4
 74
0
 40
0
 40
0
 40
0
 40
0
 40
1
 40
1
 40
1
 40
1
 10
11.315999
 20
4.248350
 30
0.0
 10
11.315999
 20
4.321809
 30
0.0
 10
11.256458
 20
4.381350
 30
0.0
 10
11.183000
 20
4.381350
 30
0.0
  0
SPLINE
  5
178
100
AcDbEntity
  8
Page_1
 62
7
100
AcDbSpline
 70
8
 71
3
 72
8
 73
4
 74
0
 40
0
 40
0
 40
0
 40
0
 40
1
 40
1
 40
1
 40
1
 10
11.183000
 20
4.381350
 30
0.0
 10
11.109542
 20
4.381350
 30
0.0
 10
11.050000
 20
4.321809
 30
0.0
 10
11.050000
 20
4.248350
 30
0.0
  0
SPLINE
  5
179
100
AcDbEntity
  8
Page_1
 62
7
100
AcDbSpline
 70
8
 71
3
 72
8
 73
4
 74
0
 40
0
 40
0
 40
0
 40
0
 40
1
 40
1
 40
1
 40
1
 10
11.050000
 20
4.248350
 30
0.0
 10
11.050000
 20
4.174892
 30
0.0
 10
11.109542
 20
4.115351
 30
0.0
 10
11.183000
 20
4.115351
 30
0.0
  0
SPLINE
  5
17a
100
AcDbEntity
  8
Page_1
 62
7
100
AcDbSpline
 70
8
 71
3
 72
8
 73
4
 74
0
 40
0
 40
0
 40
0
 40
0
 40
1
 40
1
 40
1
 40
1
 10
11.183000
 20
4.115351
 30
0.0
 10
11.256458
 20
4.115351
 30
0.0
 10
11.315999
 20
4.174892
 30
0.0
 10
11.315999
 20
4.248350
 30
0.0
  0
LWPOLYLINE
  5
17b
100
AcDbEntity
  8
Page_1
 62
7
100
AcDbPolyline
 90
1
 70
1
 10
11.378499
 20
5.248348
 30
0.0
  0
SPLINE
  5
17c
100
AcDbEntity
  8
Page_1
 62
7
100
AcDbSpline
 70
8
 71
3
 72
8
 73
4
 74
0
 40
0
 40
0
 40
0
 40
0
 40
1
 40
1
 40
1
 40
1
 10
10.191002
 20
4.248350
 30
0.0
 10
10.191002
 20
4.321809
 30
0.0
 10
10.131461
 20
4.381350
 30
0.0
 10
10.058003
 20
4.381350
 30
0.0
  0
SPLINE
  5
17d
100
AcDbEntity
  8
Page_1
 62
7
100
AcDbSpline
 70
8
 71
3
 72
8
 73
4
 74
0
 40
0
 40
0
 40
0
 40
0
 40
1
 40
1
 40
1
 40
1
 10
10.058003
 20
4.381350
 30
0.0
 10
9.984544
 20
4.381350
 30
0.0
 10
9.925003
 20
4.321809
 30
0.0
 10
9.925003
 20
4.248350
 30
0.0
  0
SPLINE
  5
17e
100
AcDbEntity
  8
Page_1
 62
7
100
AcDbSpline
 70
8
 71
3
 72
8
 73
4
 74
0
 40
0
 40
0
 40
0
 40
0
 40
1
 40
1
 40
1
 40
1
 10
9.925003
 20
4.248350
 30
0.0
 10
9.925003
 20
4.174892
 30
0.0
 10
9.984544
 20
4.115351
 30
0.0
 10
10.058003
 20
4.115351
 30
0.0
  0
SPLINE
  5
17f
100
AcDbEntity
  8
Page_1
 62
7
100
AcDbSpline
 70
8
 71
3
 72
8
 73
4
 74
0
 40
0
 40
0
 40
0
 40
0
 40
1
 40
1
 40
1
 40
1
 10
10.058003
 20
4.115351
 30
0.0
 10
10.131461
 20
4.115351
 30
0.0
 10
10.191002
 20
4.174892
 30
0.0
 10
10.191002
 20
4.248350
 30
0.0
  0
LWPOLYLINE
  5
180
100
AcDbEntity
  8
Page_1
 62
7
100
AcDbPolyline
 90
1
 70
1
 10
11.315999
 20
4.248350
 30
0.0
  0
LWPOLYLINE
  5
181
100
AcDbEntity
  8
Page_1
 62
7
100
AcDbPolyline
 90
1
 70
1
 10
10.191002
 20
4.248350
 30
0.0
  0
LWPOLYLINE
  5
182
100
AcDbEntity
  8
Page_1
 62
7
100
AcDbPolyline
 90
2
 70
0
 10
9.745503
 20
4.748349
 30
0.0
 10
9.620504
 20
4.748349
 30
0.0
  0
LWPOLYLINE
  5
183
100
AcDbEntity
  8
Page_1
 62
7
100
AcDbPolyline
 90
2
 70
0
 10
10.745501
 20
6.623345
 30
0.0
 10
10.745501
 20
5.748347
 30
0.0
  0
LWPOLYLINE
  5
184
100
AcDbEntity
  8
Page_1
 62
7
100
AcDbPolyline
 90
2
 70
0
 10
11.745498
 20
6.748344
 30
0.0
 10
10.870501
 20
6.748344
 30
0.0
  0
LWPOLYLINE
  5
185
100
AcDbEntity
  8
Page_1
 62
7
100
AcDbPolyline
 90
2
 70
0
 10
11.745498
 20
3.748352
 30
0.0
 10
11.745498
 20
6.748344
 30
0.0
  0
LWPOLYLINE
  5
186
100
AcDbEntity
  8
Page_1
 62
7
100
AcDbPolyline
 90
2
 70
0
 10
9.495504
 20
3.748352
 30
0.0
 10
11.745498
 20
3.748352
 30
0.0
  0
LWPOLYLINE
  5
187
100
AcDbEntity
  8
Page_1
 62
7
100
AcDbPolyline
 90
2
 70
0
 10
9.495504
 20
4.623350
 30
0.0
 10
9.495504
 20
3.748352
 30
0.0
  0
LWPOLYLINE
  5
188
100
AcDbEntity
  8
Page_1
 62
7
100
AcDbPolyline
 90
2
 70
0
 10
3.563602
 20
0.351914
 30
0.0
 10
6.563595
 20
0.351914
 30
0.0
  0
SPLINE
  5
189
100
AcDbEntity
  8
Page_1
 62
7
100
AcDbSpline
 70
8
 71
3
 72
8
 73
4
 74
0
 40
0
 40
0
 40
0
 40
0
 40
1
 40
1
 40
1
 40
1
 10
3.990379
 20
4.175128
 30
0.0
 10
3.892754
 20
4.272753
 30
0.0
 10
3.734463
 20
4.272753
 30
0.0
 10
3.636824
 20
4.175128
 30
0.0
  0
SPLINE
  5
18a
100
AcDbEntity
  8
Page_1
 62
7
100
AcDbSpline
 70
8
 71
3
 72
8
 73
4
 74
0
 40
0
 40
0
 40
0
 40
0
 40
1
 40
1
 40
1
 40
1
 10
3.636824
 20
4.175128
 30
0.0
 10
3.589935
 20
4.128240
 30
0.0
 10
3.563602
 20
4.064657
 30
0.0
 10
3.563602
 20
3.998351
 30
0.0
  0
LWPOLYLINE
  5
18b
100
AcDbEntity
  8
Page_1
 62
7
100
AcDbPolyline
 90
2
 70
0
 10
3.563602
 20
3.998351
 30
0.0
 10
3.563602
 20
0.351916
 30
0.0
  0
SPLINE
  5
18c
100
AcDbEntity
  8
Page_1
 62
7
100
AcDbSpline
 70
8
 71
3
 72
8
 73
4
 74
0
 40
0
 40
0
 40
0
 40
0
 40
1
 40
1
 40
1
 40
1
 10
6.563595
 20
1.498357
 30
0.0
 10
6.563595
 20
1.564663
 30
0.0
 10
6.537261
 20
1.628246
 30
0.0
 10
6.490373
 20
1.675135
 30
0.0
  0
LWPOLYLINE
  5
18d
100
AcDbEntity
  8
Page_1
 62
7
100
AcDbPolyline
 90
2
 70
0
 10
6.490373
 20
1.675135
 30
0.0
 10
3.990379
 20
4.175128
 30
0.0
  0
SPLINE
  5
18e
100
AcDbEntity
  8
Page_1
 62
7
100
AcDbSpline
 70
8
 71
3
 72
8
 73
4
 74
0
 40
0
 40
0
 40
0
 40
0
 40
1
 40
1
 40
1
 40
1
 10
5.196598
 20
0.851913
 30
0.0
 10
5.196598
 20
0.925371
 30
0.0
 10
5.137057
 20
0.984913
 30
0.0
 10
5.063598
 20
0.984913
 30
0.0
  0
SPLINE
  5
18f
100
AcDbEntity
  8
Page_1
 62
7
100
AcDbSpline
 70
8
 71
3
 72
8
 73
4
 74
0
 40
0
 40
0
 40
0
 40
0
 40
1
 40
1
 40
1
 40
1
 10
5.063598
 20
0.984913
 30
0.0
 10
4.990140
 20
0.984913
 30
0.0
 10
4.930599
 20
0.925371
 30
0.0
 10
4.930599
 20
0.851913
 30
0.0
  0
SPLINE
  5
190
100
AcDbEntity
  8
Page_1
 62
7
100
AcDbSpline
 70
8
 71
3
 72
8
 73
4
 74
0
 40
0
 40
0
 40
0
 40
0
 40
1
 40
1
 40
1
 40
1
 10
4.930599
 20
0.851913
 30
0.0
 10
4.930599
 20
0.778455
 30
0.0
 10
4.990140
 20
0.718913
 30
0.0
 10
5.063598
 20
0.718913
 30
0.0
  0
SPLINE
  5
191
100
AcDbEntity
  8
Page_1
 62
7
100
AcDbSpline
 70
8
 71
3
 72
8
 73
4
 74
0
 40
0
 40
0
 40
0
 40
0
 40
1
 40
1
 40
1
 40
1
 10
5.063598
 20
0.718913
 30
0.0
 10
5.137057
 20
0.718913
 30
0.0
 10
5.196598
 20
0.778455
 30
0.0
 10
5.196598
 20
0.851913
 30
0.0
  0
LWPOLYLINE
  5
192
100
AcDbEntity
  8
Page_1
 62
7
100
AcDbPolyline
 90
2
 70
0
 10
6.563595
 20
0.351914
 30
0.0
 10
6.563595
 20
1.498356
 30
0.0
  0
SPLINE
  5
193
100
AcDbEntity
  8
Page_1
 62
7
100
AcDbSpline
 70
8
 71
3
 72
8
 73
4
 74
0
 40
0
 40
0
 40
0
 40
0
 40
1
 40
1
 40
1
 40
1
 10
4.196601
 20
3.394797
 30
0.0
 10
4.196601
 20
3.468255
 30
0.0
 10
4.137059
 20
3.527797
 30
0.0
 10
4.063601
 20
3.527797
 30
0.0
  0
SPLINE
  5
194
100
AcDbEntity
  8
Page_1
 62
7
100
AcDbSpline
 70
8
 71
3
 72
8
 73
4
 74
0
 40
0
 40
0
 40
0
 40
0
 40
1
 40
1
 40
1
 40
1
 10
4.063601
 20
3.527797
 30
0.0
 10
3.990143
 20
3.527797
 30
0.0
 10
3.930601
 20
3.468255
 30
0.0
 10
3.930601
 20
3.394797
 30
0.0
  0
SPLINE
  5
195
100
AcDbEntity
  8
Page_1
 62
7
100
AcDbSpline
 70
8
 71
3
 72
8
 73
4
 74
0
 40
0
 40
0
 40
0
 40
0
 40
1
 40
1
 40
1
 40
1
 10
3.930601
 20
3.394797
 30
0.0
 10
3.930601
 20
3.321339
 30
0.0
 10
3.990143
 20
3.261797
 30
0.0
 10
4.063601
 20
3.261797
 30
0.0
  0
SPLINE
  5
196
100
AcDbEntity
  8
Page_1
 62
7
100
AcDbSpline
 70
8
 71
3
 72
8
 73
4
 74
0
 40
0
 40
0
 40
0
 40
0
 40
1
 40
1
 40
1
 40
1
 10
4.063601
 20
3.261797
 30
0.0
 10
4.137059
 20
3.261797
 30
0.0
 10
4.196601
 20
3.321339
 30
0.0
 10
4.196601
 20
3.394797
 30
0.0
  0
LWPOLYLINE
  5
197
100
AcDbEntity
  8
Page_1
 62
7
100
AcDbPolyline
 90
1
 70
1
 10
5.196598
 20
0.851913
 30
0.0
  0
SPLINE
  5
198
100
AcDbEntity
  8
Page_1
 62
7
100
AcDbSpline
 70
8
 71
3
 72
8
 73
4
 74
0
 40
0
 40
0
 40
0
 40
0
 40
1
 40
1
 40
1
 40
1
 10
5.196598
 20
2.394800
 30
0.0
 10
5.196598
 20
2.468258
 30
0.0
 10
5.137057
 20
2.527799
 30
0.0
 10
5.063598
 20
2.527799
 30
0.0
  0
SPLINE
  5
199
100
AcDbEntity
  8
Page_1
 62
7
100
AcDbSpline
 70
8
 71
3
 72
8
 73
4
 74
0
 40
0
 40
0
 40
0
 40
0
 40
1
 40
1
 40
1
 40
1
 10
5.063598
 20
2.527799
 30
0.0
 10
4.990140
 20
2.527799
 30
0.0
 10
4.930599
 20
2.468258
 30
0.0
 10
4.930599
 20
2.394800
 30
0.0
  0
SPLINE
  5
19a
100
AcDbEntity
  8
Page_1
 62
7
100
AcDbSpline
 70
8
 71
3
 72
8
 73
4
 74
0
 40
0
 40
0
 40
0
 40
0
 40
1
 40
1
 40
1
 40
1
 10
4.930599
 20
2.394800
 30
0.0
 10
4.930599
 20
2.321341
 30
0.0
 10
4.990140
 20
2.261800
 30
0.0
 10
5.063598
 20
2.261800
 30
0.0
  0
SPLINE
  5
19b
100
AcDbEntity
  8
Page_1
 62
7
100
AcDbSpline
 70
8
 71
3
 72
8
 73
4
 74
0
 40
0
 40
0
 40
0
 40
0
 40
1
 40
1
 40
1
 40
1
 10
5.063598
 20
2.261800
 30
0.0
 10
5.137057
 20
2.261800
 30
0.0
 10
5.196598
 20
2.321341
 30
0.0
 10
5.196598
 20
2.394800
 30
0.0
  0
LWPOLYLINE
  5
19c
100
AcDbEntity
  8
Page_1
 62
7
100
AcDbPolyline
 90
1
 70
1
 10
4.196601
 20
3.394797
 30
0.0
  0
SPLINE
  5
19d
100
AcDbEntity
  8
Page_1
 62
7
100
AcDbSpline
 70
8
 71
3
 72
8
 73
4
 74
0
 40
0
 40
0
 40
0
 40
0
 40
1
 40
1
 40
1
 40
1
 10
5.946596
 20
1.644801
 30
0.0
 10
5.946596
 20
1.718260
 30
0.0
 10
5.887055
 20
1.777801
 30
0.0
 10
5.813597
 20
1.777801
 30
0.0
  0
SPLINE
  5
19e
100
AcDbEntity
  8
Page_1
 62
7
100
AcDbSpline
 70
8
 71
3
 72
8
 73
4
 74
0
 40
0
 40
0
 40
0
 40
0
 40
1
 40
1
 40
1
 40
1
 10
5.813597
 20
1.777801
 30
0.0
 10
5.740138
 20
1.777801
 30
0.0
 10
5.680597
 20
1.718260
 30
0.0
 10
5.680597
 20
1.644801
 30
0.0
  0
SPLINE
  5
19f
100
AcDbEntity
  8
Page_1
 62
7
100
AcDbSpline
 70
8
 71
3
 72
8
 73
4
 74
0
 40
0
 40
0
 40
0
 40
0
 40
1
 40
1
 40
1
 40
1
 10
5.680597
 20
1.644801
 30
0.0
 10
5.680597
 20
1.571343
 30
0.0
 10
5.740138
 20
1.511802
 30
0.0
 10
5.813597
 20
1.511802
 30
0.0
  0
SPLINE
  5
1a0
100
AcDbEntity
  8
Page_1
 62
7
100
AcDbSpline
 70
8
 71
3
 72
8
 73
4
 74
0
 40
0
 40
0
 40
0
 40
0
 40
1
 40
1
 40
1
 40
1
 10
5.813597
 20
1.511802
 30
0.0
 10
5.887055
 20
1.511802
 30
0.0
 10
5.946596
 20
1.571343
 30
0.0
 10
5.946596
 20
1.644801
 30
0.0
  0
LWPOLYLINE
  5
1a1
100
AcDbEntity
  8
Page_1
 62
7
100
AcDbPolyline
 90
1
 70
1
 10
5.196598
 20
2.394800
 30
0.0
  0
SPLINE
  5
1a2
100
AcDbEntity
  8
Page_1
 62
7
100
AcDbSpline
 70
8
 71
3
 72
8
 73
4
 74
0
 40
0
 40
0
 40
0
 40
0
 40
1
 40
1
 40
1
 40
1
 10
4.196601
 20
0.851913
 30
0.0
 10
4.196601
 20
0.925371
 30
0.0
 10
4.137059
 20
0.984913
 30
0.0
 10
4.063601
 20
0.984913
 30
0.0
  0
SPLINE
  5
1a3
100
AcDbEntity
  8
Page_1
 62
7
100
AcDbSpline
 70
8
 71
3
 72
8
 73
4
 74
0
 40
0
 40
0
 40
0
 40
0
 40
1
 40
1
 40
1
 40
1
 10
4.063601
 20
0.984913
 30
0.0
 10
3.990143
 20
0.984913
 30
0.0
 10
3.930601
 20
0.925371
 30
0.0
 10
3.930601
 20
0.851913
 30
0.0
  0
SPLINE
  5
1a4
100
AcDbEntity
  8
Page_1
 62
7
100
AcDbSpline
 70
8
 71
3
 72
8
 73
4
 74
0
 40
0
 40
0
 40
0
 40
0
 40
1
 40
1
 40
1
 40
1
 10
3.930601
 20
0.851913
 30
0.0
 10
3.930601
 20
0.778455
 30
0.0
 10
3.990143
 20
0.718913
 30
0.0
 10
4.063601
 20
0.718913
 30
0.0
  0
SPLINE
  5
1a5
100
AcDbEntity
  8
Page_1
 62
7
100
AcDbSpline
 70
8
 71
3
 72
8
 73
4
 74
0
 40
0
 40
0
 40
0
 40
0
 40
1
 40
1
 40
1
 40
1
 10
4.063601
 20
0.718913
 30
0.0
 10
4.137059
 20
0.718913
 30
0.0
 10
4.196601
 20
0.778455
 30
0.0
 10
4.196601
 20
0.851913
 30
0.0
  0
LWPOLYLINE
  5
1a6
100
AcDbEntity
  8
Page_1
 62
7
100
AcDbPolyline
 90
1
 70
1
 10
5.946596
 20
1.644801
 30
0.0
  0
SPLINE
  5
1a7
100
AcDbEntity
  8
Page_1
 62
7
100
AcDbSpline
 70
8
 71
3
 72
8
 73
4
 74
0
 40
0
 40
0
 40
0
 40
0
 40
1
 40
1
 40
1
 40
1
 10
5.946596
 20
0.851913
 30
0.0
 10
5.946596
 20
0.925371
 30
0.0
 10
5.887055
 20
0.984913
 30
0.0
 10
5.813597
 20
0.984913
 30
0.0
  0
SPLINE
  5
1a8
100
AcDbEntity
  8
Page_1
 62
7
100
AcDbSpline
 70
8
 71
3
 72
8
 73
4
 74
0
 40
0
 40
0
 40
0
 40
0
 40
1
 40
1
 40
1
 40
1
 10
5.813597
 20
0.984913
 30
0.0
 10
5.740138
 20
0.984913
 30
0.0
 10
5.680597
 20
0.925371
 30
0.0
 10
5.680597
 20
0.851913
 30
0.0
  0
SPLINE
  5
1a9
100
AcDbEntity
  8
Page_1
 62
7
100
AcDbSpline
 70
8
 71
3
 72
8
 73
4
 74
0
 40
0
 40
0
 40
0
 40
0
 40
1
 40
1
 40
1
 40
1
 10
5.680597
 20
0.851913
 30
0.0
 10
5.680597
 20
0.778455
 30
0.0
 10
5.740138
 20
0.718913
 30
0.0
 10
5.813597
 20
0.718913
 30
0.0
  0
SPLINE
  5
1aa
100
AcDbEntity
  8
Page_1
 62
7
100
AcDbSpline
 70
8
 71
3
 72
8
 73
4
 74
0
 40
0
 40
0
 40
0
 40
0
 40
1
 40
1
 40
1
 40
1
 10
5.813597
 20
0.718913
 30
0.0
 10
5.887055
 20
0.718913
 30
0.0
 10
5.946596
 20
0.778455
 30
0.0
 10
5.946596
 20
0.851913
 30
0.0
  0
LWPOLYLINE
  5
1ab
100
AcDbEntity
  8
Page_1
 62
7
100
AcDbPolyline
 90
1
 70
1
 10
4.196601
 20
0.851913
 30
0.0
  0
SPLINE
  5
1ac
100
AcDbEntity
  8
Page_1
 62
7
100
AcDbSpline
 70
8
 71
3
 72
8
 73
4
 74
0
 40
0
 40
0
 40
0
 40
0
 40
1
 40
1
 40
1
 40
1
 10
9.680545
 20
1.429538
 30
0.0
 10
10.232836
 20
1.429538
 30
0.0
 10
10.680543
 20
1.877245
 30
0.0
 10
10.680543
 20
2.429536
 30
0.0
  0
SPLINE
  5
1ad
100
AcDbEntity
  8
Page_1
 62
7
100
AcDbSpline
 70
8
 71
3
 72
8
 73
4
 74
0
 40
0
 40
0
 40
0
 40
0
 40
1
 40
1
 40
1
 40
1
 10
10.805542
 20
3.429533
 30
0.0
 10
10.736501
 20
3.429533
 30
0.0
 10
10.680543
 20
3.373575
 30
0.0
 10
10.680543
 20
3.304533
 30
0.0
  0
SPLINE
  5
1ae
100
AcDbEntity
  8
Page_1
 62
7
100
AcDbSpline
 70
8
 71
3
 72
8
 73
4
 74
0
 40
0
 40
0
 40
0
 40
0
 40
1
 40
1
 40
1
 40
1
 10
9.555546
 20
1.429538
 30
0.0
 10
9.486504
 20
1.429538
 30
0.0
 10
9.430546
 20
1.373580
 30
0.0
 10
9.430546
 20
1.304538
 30
0.0
  0
SPLINE
  5
1af
100
AcDbEntity
  8
Page_1
 62
7
100
AcDbSpline
 70
8
 71
3
 72
8
 73
4
 74
0
 40
0
 40
0
 40
0
 40
0
 40
1
 40
1
 40
1
 40
1
 10
11.313541
 20
2.929534
 30
0.0
 10
11.313541
 20
3.002992
 30
0.0
 10
11.254000
 20
3.062534
 30
0.0
 10
11.180541
 20
3.062534
 30
0.0
  0
SPLINE
  5
1b0
100
AcDbEntity
  8
Page_1
 62
7
100
AcDbSpline
 70
8
 71
3
 72
8
 73
4
 74
0
 40
0
 40
0
 40
0
 40
0
 40
1
 40
1
 40
1
 40
1
 10
11.180541
 20
3.062534
 30
0.0
 10
11.107083
 20
3.062534
 30
0.0
 10
11.047542
 20
3.002992
 30
0.0
 10
11.047542
 20
2.929534
 30
0.0
  0
SPLINE
  5
1b1
100
AcDbEntity
  8
Page_1
 62
7
100
AcDbSpline
 70
8
 71
3
 72
8
 73
4
 74
0
 40
0
 40
0
 40
0
 40
0
 40
1
 40
1
 40
1
 40
1
 10
11.047542
 20
2.929534
 30
0.0
 10
11.047542
 20
2.856076
 30
0.0
 10
11.107083
 20
2.796535
 30
0.0
 10
11.180541
 20
2.796535
 30
0.0
  0
SPLINE
  5
1b2
100
AcDbEntity
  8
Page_1
 62
7
100
AcDbSpline
 70
8
 71
3
 72
8
 73
4
 74
0
 40
0
 40
0
 40
0
 40
0
 40
1
 40
1
 40
1
 40
1
 10
11.180541
 20
2.796535
 30
0.0
 10
11.254000
 20
2.796535
 30
0.0
 10
11.313541
 20
2.856076
 30
0.0
 10
11.313541
 20
2.929534
 30
0.0
  0
LWPOLYLINE
  5
1b3
100
AcDbEntity
  8
Page_1
 62
7
100
AcDbPolyline
 90
1
 70
1
 10
5.946596
 20
0.851913
 30
0.0
  0
SPLINE
  5
1b4
100
AcDbEntity
  8
Page_1
 62
7
100
AcDbSpline
 70
8
 71
3
 72
8
 73
4
 74
0
 40
0
 40
0
 40
0
 40
0
 40
1
 40
1
 40
1
 40
1
 10
11.313541
 20
1.929537
 30
0.0
 10
11.313541
 20
2.002995
 30
0.0
 10
11.254000
 20
2.062537
 30
0.0
 10
11.180541
 20
2.062537
 30
0.0
  0
SPLINE
  5
1b5
100
AcDbEntity
  8
Page_1
 62
7
100
AcDbSpline
 70
8
 71
3
 72
8
 73
4
 74
0
 40
0
 40
0
 40
0
 40
0
 40
1
 40
1
 40
1
 40
1
 10
11.180541
 20
2.062537
 30
0.0
 10
11.107083
 20
2.062537
 30
0.0
 10
11.047542
 20
2.002995
 30
0.0
 10
11.047542
 20
1.929537
 30
0.0
  0
SPLINE
  5
1b6
100
AcDbEntity
  8
Page_1
 62
7
100
AcDbSpline
 70
8
 71
3
 72
8
 73
4
 74
0
 40
0
 40
0
 40
0
 40
0
 40
1
 40
1
 40
1
 40
1
 10
11.047542
 20
1.929537
 30
0.0
 10
11.047542
 20
1.856079
 30
0.0
 10
11.107083
 20
1.796537
 30
0.0
 10
11.180541
 20
1.796537
 30
0.0
  0
SPLINE
  5
1b7
100
AcDbEntity
  8
Page_1
 62
7
100
AcDbSpline
 70
8
 71
3
 72
8
 73
4
 74
0
 40
0
 40
0
 40
0
 40
0
 40
1
 40
1
 40
1
 40
1
 10
11.180541
 20
1.796537
 30
0.0
 10
11.254000
 20
1.796537
 30
0.0
 10
11.313541
 20
1.856079
 30
0.0
 10
11.313541
 20
1.929537
 30
0.0
  0
LWPOLYLINE
  5
1b8
100
AcDbEntity
  8
Page_1
 62
7
100
AcDbPolyline
 90
1
 70
1
 10
11.313541
 20
2.929534
 30
0.0
  0
SPLINE
  5
1b9
100
AcDbEntity
  8
Page_1
 62
7
100
AcDbSpline
 70
8
 71
3
 72
8
 73
4
 74
0
 40
0
 40
0
 40
0
 40
0
 40
1
 40
1
 40
1
 40
1
 10
11.251041
 20
0.929538
 30
0.0
 10
11.251041
 20
1.002996
 30
0.0
 10
11.191500
 20
1.062538
 30
0.0
 10
11.118042
 20
1.062538
 30
0.0
  0
SPLINE
  5
1ba
100
AcDbEntity
  8
Page_1
 62
7
100
AcDbSpline
 70
8
 71
3
 72
8
 73
4
 74
0
 40
0
 40
0
 40
0
 40
0
 40
1
 40
1
 40
1
 40
1
 10
11.118042
 20
1.062538
 30
0.0
 10
11.044583
 20
1.062538
 30
0.0
 10
10.985042
 20
1.002996
 30
0.0
 10
10.985042
 20
0.929538
 30
0.0
  0
SPLINE
  5
1bb
100
AcDbEntity
  8
Page_1
 62
7
100
AcDbSpline
 70
8
 71
3
 72
8
 73
4
 74
0
 40
0
 40
0
 40
0
 40
0
 40
1
 40
1
 40
1
 40
1
 10
10.985042
 20
0.929538
 30
0.0
 10
10.985042
 20
0.856080
 30
0.0
 10
11.044583
 20
0.796538
 30
0.0
 10
11.118042
 20
0.796538
 30
0.0
  0
SPLINE
  5
1bc
100
AcDbEntity
  8
Page_1
 62
7
100
AcDbSpline
 70
8
 71
3
 72
8
 73
4
 74
0
 40
0
 40
0
 40
0
 40
0
 40
1
 40
1
 40
1
 40
1
 10
11.118042
 20
0.796538
 30
0.0
 10
11.191500
 20
0.796538
 30
0.0
 10
11.251041
 20
0.856080
 30
0.0
 10
11.251041
 20
0.929538
 30
0.0
  0
LWPOLYLINE
  5
1bd
100
AcDbEntity
  8
Page_1
 62
7
100
AcDbPolyline
 90
1
 70
1
 10
11.313541
 20
1.929537
 30
0.0
  0
SPLINE
  5
1be
100
AcDbEntity
  8
Page_1
 62
7
100
AcDbSpline
 70
8
 71
3
 72
8
 73
4
 74
0
 40
0
 40
0
 40
0
 40
0
 40
1
 40
1
 40
1
 40
1
 10
10.126044
 20
0.929538
 30
0.0
 10
10.126044
 20
1.002996
 30
0.0
 10
10.066503
 20
1.062538
 30
0.0
 10
9.993044
 20
1.062538
 30
0.0
  0
SPLINE
  5
1bf
100
AcDbEntity
  8
Page_1
 62
7
100
AcDbSpline
 70
8
 71
3
 72
8
 73
4
 74
0
 40
0
 40
0
 40
0
 40
0
 40
1
 40
1
 40
1
 40
1
 10
9.993044
 20
1.062538
 30
0.0
 10
9.919586
 20
1.062538
 30
0.0
 10
9.860045
 20
1.002996
 30
0.0
 10
9.860045
 20
0.929538
 30
0.0
  0
SPLINE
  5
1c0
100
AcDbEntity
  8
Page_1
 62
7
100
AcDbSpline
 70
8
 71
3
 72
8
 73
4
 74
0
 40
0
 40
0
 40
0
 40
0
 40
1
 40
1
 40
1
 40
1
 10
9.860045
 20
0.929538
 30
0.0
 10
9.860045
 20
0.856080
 30
0.0
 10
9.919586
 20
0.796538
 30
0.0
 10
9.993044
 20
0.796538
 30
0.0
  0
SPLINE
  5
1c1
100
AcDbEntity
  8
Page_1
 62
7
100
AcDbSpline
 70
8
 71
3
 72
8
 73
4
 74
0
 40
0
 40
0
 40
0
 40
0
 40
1
 40
1
 40
1
 40
1
 10
9.993044
 20
0.796538
 30
0.0
 10
10.066503
 20
0.796538
 30
0.0
 10
10.126044
 20
0.856080
 30
0.0
 10
10.126044
 20
0.929538
 30
0.0
  0
LWPOLYLINE
  5
1c2
100
AcDbEntity
  8
Page_1
 62
7
100
AcDbPolyline
 90
1
 70
1
 10
11.251041
 20
0.929538
 30
0.0
  0
LWPOLYLINE
  5
1c3
100
AcDbEntity
  8
Page_1
 62
7
100
AcDbPolyline
 90
1
 70
1
 10
10.126044
 20
0.929538
 30
0.0
  0
LWPOLYLINE
  5
1c4
100
AcDbEntity
  8
Page_1
 62
7
100
AcDbPolyline
 90
2
 70
0
 10
9.680545
 20
1.429538
 30
0.0
 10
9.555546
 20
1.429538
 30
0.0
  0
LWPOLYLINE
  5
1c5
100
AcDbEntity
  8
Page_1
 62
7
100
AcDbPolyline
 90
2
 70
0
 10
10.680543
 20
3.304533
 30
0.0
 10
10.680543
 20
2.429536
 30
0.0
  0
LWPOLYLINE
  5
1c6
100
AcDbEntity
  8
Page_1
 62
7
100
AcDbPolyline
 90
2
 70
0
 10
11.680540
 20
3.429533
 30
0.0
 10
10.805542
 20
3.429533
 30
0.0
  0
LWPOLYLINE
  5
1c7
100
AcDbEntity
  8
Page_1
 62
7
100
AcDbPolyline
 90
2
 70
0
 10
11.680540
 20
0.429539
 30
0.0
 10
11.680540
 20
3.429532
 30
0.0
  0
LWPOLYLINE
  5
1c8
100
AcDbEntity
  8
Page_1
 62
7
100
AcDbPolyline
 90
2
 70
0
 10
9.430546
 20
0.429539
 30
0.0
 10
11.680540
 20
0.429539
 30
0.0
  0
SPLINE
  5
1c9
100
AcDbEntity
  8
Page_1
 62
7
100
AcDbSpline
 70
8
 71
3
 72
8
 73
4
 74
0
 40
0
 40
0
 40
0
 40
0
 40
1
 40
1
 40
1
 40
1
 10
7.231815
 20
1.365404
 30
0.0
 10
7.784092
 20
1.365404
 30
0.0
 10
8.231813
 20
1.813111
 30
0.0
 10
8.231813
 20
2.365401
 30
0.0
  0
SPLINE
  5
1ca
100
AcDbEntity
  8
Page_1
 62
7
100
AcDbSpline
 70
8
 71
3
 72
8
 73
4
 74
0
 40
0
 40
0
 40
0
 40
0
 40
1
 40
1
 40
1
 40
1
 10
8.356812
 20
3.365394
 30
0.0
 10
8.287771
 20
3.365394
 30
0.0
 10
8.231813
 20
3.309436
 30
0.0
 10
8.231813
 20
3.240395
 30
0.0
  0
SPLINE
  5
1cb
100
AcDbEntity
  8
Page_1
 62
7
100
AcDbSpline
 70
8
 71
3
 72
8
 73
4
 74
0
 40
0
 40
0
 40
0
 40
0
 40
1
 40
1
 40
1
 40
1
 10
7.106816
 20
1.365404
 30
0.0
 10
7.037774
 20
1.365404
 30
0.0
 10
6.981816
 20
1.309445
 30
0.0
 10
6.981816
 20
1.240404
 30
0.0
  0
SPLINE
  5
1cc
100
AcDbEntity
  8
Page_1
 62
7
100
AcDbSpline
 70
8
 71
3
 72
8
 73
4
 74
0
 40
0
 40
0
 40
0
 40
0
 40
1
 40
1
 40
1
 40
1
 10
8.864811
 20
2.865396
 30
0.0
 10
8.864811
 20
2.938854
 30
0.0
 10
8.805270
 20
2.998395
 30
0.0
 10
8.731812
 20
2.998395
 30
0.0
  0
SPLINE
  5
1cd
100
AcDbEntity
  8
Page_1
 62
7
100
AcDbSpline
 70
8
 71
3
 72
8
 73
4
 74
0
 40
0
 40
0
 40
0
 40
0
 40
1
 40
1
 40
1
 40
1
 10
8.731812
 20
2.998395
 30
0.0
 10
8.658353
 20
2.998395
 30
0.0
 10
8.598812
 20
2.938854
 30
0.0
 10
8.598812
 20
2.865396
 30
0.0
  0
SPLINE
  5
1ce
100
AcDbEntity
  8
Page_1
 62
7
100
AcDbSpline
 70
8
 71
3
 72
8
 73
4
 74
0
 40
0
 40
0
 40
0
 40
0
 40
1
 40
1
 40
1
 40
1
 10
8.598812
 20
2.865396
 30
0.0
 10
8.598812
 20
2.791937
 30
0.0
 10
8.658353
 20
2.732396
 30
0.0
 10
8.731812
 20
2.732396
 30
0.0
  0
SPLINE
  5
1cf
100
AcDbEntity
  8
Page_1
 62
7
100
AcDbSpline
 70
8
 71
3
 72
8
 73
4
 74
0
 40
0
 40
0
 40
0
 40
0
 40
1
 40
1
 40
1
 40
1
 10
8.731812
 20
2.732396
 30
0.0
 10
8.805270
 20
2.732396
 30
0.0
 10
8.864811
 20
2.791937
 30
0.0
 10
8.864811
 20
2.865396
 30
0.0
  0
LWPOLYLINE
  5
1d0
100
AcDbEntity
  8
Page_1
 62
7
100
AcDbPolyline
 90
2
 70
0
 10
9.430546
 20
1.304537
 30
0.0
 10
9.430546
 20
0.429539
 30
0.0
  0
SPLINE
  5
1d1
100
AcDbEntity
  8
Page_1
 62
7
100
AcDbSpline
 70
8
 71
3
 72
8
 73
4
 74
0
 40
0
 40
0
 40
0
 40
0
 40
1
 40
1
 40
1
 40
1
 10
8.864811
 20
1.865398
 30
0.0
 10
8.864811
 20
1.938856
 30
0.0
 10
8.805270
 20
1.998398
 30
0.0
 10
8.731812
 20
1.998398
 30
0.0
  0
SPLINE
  5
1d2
100
AcDbEntity
  8
Page_1
 62
7
100
AcDbSpline
 70
8
 71
3
 72
8
 73
4
 74
0
 40
0
 40
0
 40
0
 40
0
 40
1
 40
1
 40
1
 40
1
 10
8.731812
 20
1.998398
 30
0.0
 10
8.658353
 20
1.998398
 30
0.0
 10
8.598812
 20
1.938856
 30
0.0
 10
8.598812
 20
1.865398
 30
0.0
  0
SPLINE
  5
1d3
100
AcDbEntity
  8
Page_1
 62
7
100
AcDbSpline
 70
8
 71
3
 72
8
 73
4
 74
0
 40
0
 40
0
 40
0
 40
0
 40
1
 40
1
 40
1
 40
1
 10
8.598812
 20
1.865398
 30
0.0
 10
8.598812
 20
1.791940
 30
0.0
 10
8.658353
 20
1.732398
 30
0.0
 10
8.731812
 20
1.732398
 30
0.0
  0
SPLINE
  5
1d4
100
AcDbEntity
  8
Page_1
 62
7
100
AcDbSpline
 70
8
 71
3
 72
8
 73
4
 74
0
 40
0
 40
0
 40
0
 40
0
 40
1
 40
1
 40
1
 40
1
 10
8.731812
 20
1.732398
 30
0.0
 10
8.805270
 20
1.732398
 30
0.0
 10
8.864811
 20
1.791940
 30
0.0
 10
8.864811
 20
1.865398
 30
0.0
  0
LWPOLYLINE
  5
1d5
100
AcDbEntity
  8
Page_1
 62
7
100
AcDbPolyline
 90
1
 70
1
 10
8.864811
 20
2.865396
 30
0.0
  0
SPLINE
  5
1d6
100
AcDbEntity
  8
Page_1
 62
7
100
AcDbSpline
 70
8
 71
3
 72
8
 73
4
 74
0
 40
0
 40
0
 40
0
 40
0
 40
1
 40
1
 40
1
 40
1
 10
8.802311
 20
0.865405
 30
0.0
 10
8.802311
 20
0.938863
 30
0.0
 10
8.742770
 20
0.998404
 30
0.0
 10
8.669312
 20
0.998404
 30
0.0
  0
SPLINE
  5
1d7
100
AcDbEntity
  8
Page_1
 62
7
100
AcDbSpline
 70
8
 71
3
 72
8
 73
4
 74
0
 40
0
 40
0
 40
0
 40
0
 40
1
 40
1
 40
1
 40
1
 10
8.669312
 20
0.998404
 30
0.0
 10
8.595854
 20
0.998404
 30
0.0
 10
8.536312
 20
0.938863
 30
0.0
 10
8.536312
 20
0.865405
 30
0.0
  0
SPLINE
  5
1d8
100
AcDbEntity
  8
Page_1
 62
7
100
AcDbSpline
 70
8
 71
3
 72
8
 73
4
 74
0
 40
0
 40
0
 40
0
 40
0
 40
1
 40
1
 40
1
 40
1
 10
8.536312
 20
0.865405
 30
0.0
 10
8.536312
 20
0.791947
 30
0.0
 10
8.595854
 20
0.732405
 30
0.0
 10
8.669312
 20
0.732405
 30
0.0
  0
SPLINE
  5
1d9
100
AcDbEntity
  8
Page_1
 62
7
100
AcDbSpline
 70
8
 71
3
 72
8
 73
4
 74
0
 40
0
 40
0
 40
0
 40
0
 40
1
 40
1
 40
1
 40
1
 10
8.669312
 20
0.732405
 30
0.0
 10
8.742770
 20
0.732405
 30
0.0
 10
8.802311
 20
0.791947
 30
0.0
 10
8.802311
 20
0.865405
 30
0.0
  0
LWPOLYLINE
  5
1da
100
AcDbEntity
  8
Page_1
 62
7
100
AcDbPolyline
 90
1
 70
1
 10
8.864811
 20
1.865398
 30
0.0
  0
SPLINE
  5
1db
100
AcDbEntity
  8
Page_1
 62
7
100
AcDbSpline
 70
8
 71
3
 72
8
 73
4
 74
0
 40
0
 40
0
 40
0
 40
0
 40
1
 40
1
 40
1
 40
1
 10
7.677314
 20
0.865405
 30
0.0
 10
7.677314
 20
0.938863
 30
0.0
 10
7.617773
 20
0.998404
 30
0.0
 10
7.544314
 20
0.998404
 30
0.0
  0
SPLINE
  5
1dc
100
AcDbEntity
  8
Page_1
 62
7
100
AcDbSpline
 70
8
 71
3
 72
8
 73
4
 74
0
 40
0
 40
0
 40
0
 40
0
 40
1
 40
1
 40
1
 40
1
 10
7.544314
 20
0.998404
 30
0.0
 10
7.470856
 20
0.998404
 30
0.0
 10
7.411315
 20
0.938863
 30
0.0
 10
7.411315
 20
0.865405
 30
0.0
  0
SPLINE
  5
1dd
100
AcDbEntity
  8
Page_1
 62
7
100
AcDbSpline
 70
8
 71
3
 72
8
 73
4
 74
0
 40
0
 40
0
 40
0
 40
0
 40
1
 40
1
 40
1
 40
1
 10
7.411315
 20
0.865405
 30
0.0
 10
7.411315
 20
0.791947
 30
0.0
 10
7.470856
 20
0.732405
 30
0.0
 10
7.544314
 20
0.732405
 30
0.0
  0
SPLINE
  5
1de
100
AcDbEntity
  8
Page_1
 62
7
100
AcDbSpline
 70
8
 71
3
 72
8
 73
4
 74
0
 40
0
 40
0
 40
0
 40
0
 40
1
 40
1
 40
1
 40
1
 10
7.544314
 20
0.732405
 30
0.0
 10
7.617773
 20
0.732405
 30
0.0
 10
7.677314
 20
0.791947
 30
0.0
 10
7.677314
 20
0.865405
 30
0.0
  0
LWPOLYLINE
  5
1df
100
AcDbEntity
  8
Page_1
 62
7
100
AcDbPolyline
 90
1
 70
1
 10
8.802311
 20
0.865405
 30
0.0
  0
LWPOLYLINE
  5
1e0
100
AcDbEntity
  8
Page_1
 62
7
100
AcDbPolyline
 90
1
 70
1
 10
7.677314
 20
0.865405
 30
0.0
  0
LWPOLYLINE
  5
1e1
100
AcDbEntity
  8
Page_1
 62
7
100
AcDbPolyline
 90
2
 70
0
 10
7.231815
 20
1.365404
 30
0.0
 10
7.106816
 20
1.365404
 30
0.0
  0
LWPOLYLINE
  5
1e2
100
AcDbEntity
  8
Page_1
 62
7
100
AcDbPolyline
 90
2
 70
0
 10
8.231813
 20
3.240395
 30
0.0
 10
8.231813
 20
2.365397
 30
0.0
  0
LWPOLYLINE
  5
1e3
100
AcDbEntity
  8
Page_1
 62
7
100
AcDbPolyline
 90
2
 70
0
 10
9.231810
 20
3.365394
 30
0.0
 10
8.356812
 20
3.365394
 30
0.0
  0
LWPOLYLINE
  5
1e4
100
AcDbEntity
  8
Page_1
 62
7
100
AcDbPolyline
 90
2
 70
0
 10
9.231810
 20
0.365406
 30
0.0
 10
9.231810
 20
3.365399
 30
0.0
  0
LWPOLYLINE
  5
1e5
100
AcDbEntity
  8
Page_1
 62
7
100
AcDbPolyline
 90
2
 70
0
 10
6.981816
 20
0.365406
 30
0.0
 10
9.231810
 20
0.365406
 30
0.0
  0
SPLINE
  5
1e6
100
AcDbEntity
  8
Page_1
 62
7
100
AcDbSpline
 70
8
 71
3
 72
8
 73
4
 74
0
 40
0
 40
0
 40
0
 40
0
 40
1
 40
1
 40
1
 40
1
 10
5.912055
 20
4.098698
 30
0.0
 10
6.464331
 20
4.098698
 30
0.0
 10
6.912052
 20
4.546419
 30
0.0
 10
6.912052
 20
5.098696
 30
0.0
  0
SPLINE
  5
1e7
100
AcDbEntity
  8
Page_1
 62
7
100
AcDbSpline
 70
8
 71
3
 72
8
 73
4
 74
0
 40
0
 40
0
 40
0
 40
0
 40
1
 40
1
 40
1
 40
1
 10
7.037052
 20
6.098693
 30
0.0
 10
6.968010
 20
6.098693
 30
0.0
 10
6.912052
 20
6.042735
 30
0.0
 10
6.912052
 20
5.973693
 30
0.0
  0
SPLINE
  5
1e8
100
AcDbEntity
  8
Page_1
 62
7
100
AcDbSpline
 70
8
 71
3
 72
8
 73
4
 74
0
 40
0
 40
0
 40
0
 40
0
 40
1
 40
1
 40
1
 40
1
 10
5.787055
 20
4.098698
 30
0.0
 10
5.718013
 20
4.098698
 30
0.0
 10
5.662055
 20
4.042740
 30
0.0
 10
5.662055
 20
3.973698
 30
0.0
  0
SPLINE
  5
1e9
100
AcDbEntity
  8
Page_1
 62
7
100
AcDbSpline
 70
8
 71
3
 72
8
 73
4
 74
0
 40
0
 40
0
 40
0
 40
0
 40
1
 40
1
 40
1
 40
1
 10
7.545051
 20
5.598694
 30
0.0
 10
7.545051
 20
5.672152
 30
0.0
 10
7.485509
 20
5.731694
 30
0.0
 10
7.412051
 20
5.731694
 30
0.0
  0
SPLINE
  5
1ea
100
AcDbEntity
  8
Page_1
 62
7
100
AcDbSpline
 70
8
 71
3
 72
8
 73
4
 74
0
 40
0
 40
0
 40
0
 40
0
 40
1
 40
1
 40
1
 40
1
 10
7.412051
 20
5.731694
 30
0.0
 10
7.338593
 20
5.731694
 30
0.0
 10
7.279051
 20
5.672152
 30
0.0
 10
7.279051
 20
5.598694
 30
0.0
  0
SPLINE
  5
1eb
100
AcDbEntity
  8
Page_1
 62
7
100
AcDbSpline
 70
8
 71
3
 72
8
 73
4
 74
0
 40
0
 40
0
 40
0
 40
0
 40
1
 40
1
 40
1
 40
1
 10
7.279051
 20
5.598694
 30
0.0
 10
7.279051
 20
5.525236
 30
0.0
 10
7.338593
 20
5.465695
 30
0.0
 10
7.412051
 20
5.465695
 30
0.0
  0
SPLINE
  5
1ec
100
AcDbEntity
  8
Page_1
 62
7
100
AcDbSpline
 70
8
 71
3
 72
8
 73
4
 74
0
 40
0
 40
0
 40
0
 40
0
 40
1
 40
1
 40
1
 40
1
 10
7.412051
 20
5.465695
 30
0.0
 10
7.485509
 20
5.465695
 30
0.0
 10
7.545051
 20
5.525236
 30
0.0
 10
7.545051
 20
5.598694
 30
0.0
  0
LWPOLYLINE
  5
1ed
100
AcDbEntity
  8
Page_1
 62
7
100
AcDbPolyline
 90
2
 70
0
 10
6.981816
 20
1.240404
 30
0.0
 10
6.981816
 20
0.365406
 30
0.0
  0
SPLINE
  5
1ee
100
AcDbEntity
  8
Page_1
 62
7
100
AcDbSpline
 70
8
 71
3
 72
8
 73
4
 74
0
 40
0
 40
0
 40
0
 40
0
 40
1
 40
1
 40
1
 40
1
 10
7.545051
 20
4.598697
 30
0.0
 10
7.545051
 20
4.672155
 30
0.0
 10
7.485509
 20
4.731697
 30
0.0
 10
7.412051
 20
4.731697
 30
0.0
  0
SPLINE
  5
1ef
100
AcDbEntity
  8
Page_1
 62
7
100
AcDbSpline
 70
8
 71
3
 72
8
 73
4
 74
0
 40
0
 40
0
 40
0
 40
0
 40
1
 40
1
 40
1
 40
1
 10
7.412051
 20
4.731697
 30
0.0
 10
7.338593
 20
4.731697
 30
0.0
 10
7.279051
 20
4.672155
 30
0.0
 10
7.279051
 20
4.598697
 30
0.0
  0
SPLINE
  5
1f0
100
AcDbEntity
  8
Page_1
 62
7
100
AcDbSpline
 70
8
 71
3
 72
8
 73
4
 74
0
 40
0
 40
0
 40
0
 40
0
 40
1
 40
1
 40
1
 40
1
 10
7.279051
 20
4.598697
 30
0.0
 10
7.279051
 20
4.525239
 30
0.0
 10
7.338593
 20
4.465697
 30
0.0
 10
7.412051
 20
4.465697
 30
0.0
  0
SPLINE
  5
1f1
100
AcDbEntity
  8
Page_1
 62
7
100
AcDbSpline
 70
8
 71
3
 72
8
 73
4
 74
0
 40
0
 40
0
 40
0
 40
0
 40
1
 40
1
 40
1
 40
1
 10
7.412051
 20
4.465697
 30
0.0
 10
7.485509
 20
4.465697
 30
0.0
 10
7.545051
 20
4.525239
 30
0.0
 10
7.545051
 20
4.598697
 30
0.0
  0
LWPOLYLINE
  5
1f2
100
AcDbEntity
  8
Page_1
 62
7
100
AcDbPolyline
 90
1
 70
1
 10
7.545051
 20
5.598694
 30
0.0
  0
SPLINE
  5
1f3
100
AcDbEntity
  8
Page_1
 62
7
100
AcDbSpline
 70
8
 71
3
 72
8
 73
4
 74
0
 40
0
 40
0
 40
0
 40
0
 40
1
 40
1
 40
1
 40
1
 10
7.482551
 20
3.598699
 30
0.0
 10
7.482551
 20
3.672157
 30
0.0
 10
7.423009
 20
3.731699
 30
0.0
 10
7.349551
 20
3.731699
 30
0.0
  0
SPLINE
  5
1f4
100
AcDbEntity
  8
Page_1
 62
7
100
AcDbSpline
 70
8
 71
3
 72
8
 73
4
 74
0
 40
0
 40
0
 40
0
 40
0
 40
1
 40
1
 40
1
 40
1
 10
7.349551
 20
3.731699
 30
0.0
 10
7.276093
 20
3.731699
 30
0.0
 10
7.216551
 20
3.672157
 30
0.0
 10
7.216551
 20
3.598699
 30
0.0
  0
SPLINE
  5
1f5
100
AcDbEntity
  8
Page_1
 62
7
100
AcDbSpline
 70
8
 71
3
 72
8
 73
4
 74
0
 40
0
 40
0
 40
0
 40
0
 40
1
 40
1
 40
1
 40
1
 10
7.216551
 20
3.598699
 30
0.0
 10
7.216551
 20
3.525241
 30
0.0
 10
7.276093
 20
3.465700
 30
0.0
 10
7.349551
 20
3.465700
 30
0.0
  0
SPLINE
  5
1f6
100
AcDbEntity
  8
Page_1
 62
7
100
AcDbSpline
 70
8
 71
3
 72
8
 73
4
 74
0
 40
0
 40
0
 40
0
 40
0
 40
1
 40
1
 40
1
 40
1
 10
7.349551
 20
3.465700
 30
0.0
 10
7.423009
 20
3.465700
 30
0.0
 10
7.482551
 20
3.525241
 30
0.0
 10
7.482551
 20
3.598699
 30
0.0
  0
LWPOLYLINE
  5
1f7
100
AcDbEntity
  8
Page_1
 62
7
100
AcDbPolyline
 90
1
 70
1
 10
7.545051
 20
4.598697
 30
0.0
  0
SPLINE
  5
1f8
100
AcDbEntity
  8
Page_1
 62
7
100
AcDbSpline
 70
8
 71
3
 72
8
 73
4
 74
0
 40
0
 40
0
 40
0
 40
0
 40
1
 40
1
 40
1
 40
1
 10
6.357554
 20
3.598699
 30
0.0
 10
6.357554
 20
3.672157
 30
0.0
 10
6.298012
 20
3.731699
 30
0.0
 10
6.224554
 20
3.731699
 30
0.0
  0
SPLINE
  5
1f9
100
AcDbEntity
  8
Page_1
 62
7
100
AcDbSpline
 70
8
 71
3
 72
8
 73
4
 74
0
 40
0
 40
0
 40
0
 40
0
 40
1
 40
1
 40
1
 40
1
 10
6.224554
 20
3.731699
 30
0.0
 10
6.151096
 20
3.731699
 30
0.0
 10
6.091554
 20
3.672157
 30
0.0
 10
6.091554
 20
3.598699
 30
0.0
  0
SPLINE
  5
1fa
100
AcDbEntity
  8
Page_1
 62
7
100
AcDbSpline
 70
8
 71
3
 72
8
 73
4
 74
0
 40
0
 40
0
 40
0
 40
0
 40
1
 40
1
 40
1
 40
1
 10
6.091554
 20
3.598699
 30
0.0
 10
6.091554
 20
3.525241
 30
0.0
 10
6.151096
 20
3.465700
 30
0.0
 10
6.224554
 20
3.465700
 30
0.0
  0
SPLINE
  5
1fb
100
AcDbEntity
  8
Page_1
 62
7
100
AcDbSpline
 70
8
 71
3
 72
8
 73
4
 74
0
 40
0
 40
0
 40
0
 40
0
 40
1
 40
1
 40
1
 40
1
 10
6.224554
 20
3.465700
 30
0.0
 10
6.298012
 20
3.465700
 30
0.0
 10
6.357554
 20
3.525241
 30
0.0
 10
6.357554
 20
3.598699
 30
0.0
  0
LWPOLYLINE
  5
1fc
100
AcDbEntity
  8
Page_1
 62
7
100
AcDbPolyline
 90
1
 70
1
 10
7.482551
 20
3.598699
 30
0.0
  0
LWPOLYLINE
  5
1fd
100
AcDbEntity
  8
Page_1
 62
7
100
AcDbPolyline
 90
1
 70
1
 10
6.357554
 20
3.598699
 30
0.0
  0
LWPOLYLINE
  5
1fe
100
AcDbEntity
  8
Page_1
 62
7
100
AcDbPolyline
 90
2
 70
0
 10
5.912055
 20
4.098698
 30
0.0
 10
5.787055
 20
4.098698
 30
0.0
  0
LWPOLYLINE
  5
1ff
100
AcDbEntity
  8
Page_1
 62
7
100
AcDbPolyline
 90
2
 70
0
 10
6.912052
 20
5.973693
 30
0.0
 10
6.912052
 20
5.098696
 30
0.0
  0
LWPOLYLINE
  5
200
100
AcDbEntity
  8
Page_1
 62
7
100
AcDbPolyline
 90
2
 70
0
 10
7.912050
 20
6.098693
 30
0.0
 10
7.037052
 20
6.098693
 30
0.0
  0
LWPOLYLINE
  5
201
100
AcDbEntity
  8
Page_1
 62
7
100
AcDbPolyline
 90
2
 70
0
 10
7.912050
 20
3.098701
 30
0.0
 10
7.912050
 20
6.098693
 30
0.0
  0
LWPOLYLINE
  5
202
100
AcDbEntity
  8
Page_1
 62
7
100
AcDbPolyline
 90
2
 70
0
 10
5.662055
 20
3.098701
 30
0.0
 10
7.912050
 20
3.098701
 30
0.0
  0
LWPOLYLINE
  5
203
100
AcDbEntity
  8
Page_1
 62
7
100
AcDbPolyline
 90
2
 70
0
 10
5.662055
 20
3.973698
 30
0.0
 10
5.662055
 20
3.098701
 30
0.0
  0
ENDSEC
  0
SECTION
  2
OBJECTS
  0
DICTIONARY
  5
C
330
0
100
AcDbDictionary
  3
ACAD_GROUP
350
D
  3
ACAD_MLINESTYLE
350
17
  0
DICTIONARY
  5
D
330
C
100
AcDbDictionary
  0
DICTIONARY
  5
1A
330
C
100
AcDbDictionary
  0
DICTIONARY
  5
17
330
C
100
AcDbDictionary
  3
STANDARD
350
18
  0
DICTIONARY
  5
19
330
C
100
AcDbDictionary
  0
ENDSEC
  0
EOF
