ISO-10303-21;
HEADER;
FILE_DESCRIPTION (( 'STEP AP214' ),
    '1' );
FILE_NAME ('Battery hole spacer.STEP',
    '2026-04-03T21:09:57',
    ( '' ),
    ( '' ),
    'SwSTEP 2.0',
    'SolidWorks 2024',
    '' );
FILE_SCHEMA (( 'AUTOMOTIVE_DESIGN' ));
ENDSEC;

DATA;
#1 = CARTESIAN_POINT ( 'NONE',  ( 1.000000000000000000, 0.4000000000000000222, 0.000000000000000000 ) ) ;
#2 = CARTESIAN_POINT ( 'NONE',  ( 1.592040838891559342E-17, 0.4000000000000000222, 0.1300000000000000044 ) ) ;
#3 = EDGE_CURVE ( 'NONE', #312, #419, #442, .T. ) ;
#4 = CARTESIAN_POINT ( 'NONE',  ( 2.999999999999999556, 0.4000000000000000222, 0.000000000000000000 ) ) ;
#5 = DIRECTION ( 'NONE',  ( -0.000000000000000000, -1.000000000000000000, -0.000000000000000000 ) ) ;
#6 = DIRECTION ( 'NONE',  ( -4.097771990496395321E-16, 0.000000000000000000, 1.000000000000000000 ) ) ;
#7 = DIRECTION ( 'NONE',  ( -0.000000000000000000, -1.000000000000000000, -0.000000000000000000 ) ) ;
#8 = EDGE_CURVE ( 'NONE', #158, #461, #115, .T. ) ;
#9 = CYLINDRICAL_SURFACE ( 'NONE', #322, 0.1300000000000000044 ) ;
#10 = VECTOR ( 'NONE', #291, 39.37007874015748143 ) ;
#11 = ORIENTED_EDGE ( 'NONE', *, *, #319, .T. ) ;
#12 = CARTESIAN_POINT ( 'NONE',  ( 0.000000000000000000, 0.4000000000000000222, 0.000000000000000000 ) ) ;
#13 = ORIENTED_EDGE ( 'NONE', *, *, #452, .T. ) ;
#14 = CARTESIAN_POINT ( 'NONE',  ( -1.000000000000000444, 0.4000000000000000222, -0.5000000000000002220 ) ) ;
#15 = DIRECTION ( 'NONE',  ( -1.000000000000000000, 0.000000000000000000, 0.000000000000000000 ) ) ;
#16 = CARTESIAN_POINT ( 'NONE',  ( 0.000000000000000000, 0.000000000000000000, 0.000000000000000000 ) ) ;
#17 = VECTOR ( 'NONE', #400, 39.37007874015748143 ) ;
#18 = SURFACE_STYLE_FILL_AREA ( #20 ) ;
#19 = ORIENTED_EDGE ( 'NONE', *, *, #67, .F. ) ;
#20 = FILL_AREA_STYLE ('',( #190 ) ) ;
#21 = EDGE_CURVE ( 'NONE', #347, #210, #293, .T. ) ;
#22 = LINE ( 'NONE', #374, #81 ) ;
#23 = APPLICATION_CONTEXT ( 'automotive_design' ) ;
#24 = AXIS2_PLACEMENT_3D ( 'NONE', #204, #60, #385 ) ;
#25 = DIRECTION ( 'NONE',  ( 1.000000000000000000, -0.000000000000000000, 0.000000000000000000 ) ) ;
#26 = ORIENTED_EDGE ( 'NONE', *, *, #319, .F. ) ;
#27 = LINE ( 'NONE', #14, #330 ) ;
#28 = CARTESIAN_POINT ( 'NONE',  ( -6.000000000000001776, 0.4000000000000000222, 0.000000000000000000 ) ) ;
#29 = VERTEX_POINT ( 'NONE', #367 ) ;
#30 = DIRECTION ( 'NONE',  ( 1.000000000000000000, -0.000000000000000000, 0.000000000000000000 ) ) ;
#31 = EDGE_CURVE ( 'NONE', #280, #312, #296, .T. ) ;
#32 = LINE ( 'NONE', #100, #176 ) ;
#33 = APPLICATION_CONTEXT ( 'automotive_design' ) ;
#34 = PLANE ( 'NONE',  #264 ) ;
#35 = VERTEX_POINT ( 'NONE', #2 ) ;
#36 = ADVANCED_FACE ( 'NONE', ( #141 ), #105, .T. ) ;
#37 = CARTESIAN_POINT ( 'NONE',  ( 6.829619984160658046E-17, 0.000000000000000000, -0.5000000000000001110 ) ) ;
#38 = ORIENTED_EDGE ( 'NONE', *, *, #356, .T. ) ;
#39 = VECTOR ( 'NONE', #321, 39.37007874015748143 ) ;
#40 = CARTESIAN_POINT ( 'NONE',  ( 0.000000000000000000, 0.4000000000000000222, -2.500000000000000000 ) ) ;
#41 = ORIENTED_EDGE ( 'NONE', *, *, #88, .F. ) ;
#42 = CARTESIAN_POINT ( 'NONE',  ( 1.000000000000000000, 0.4000000000000000222, 0.000000000000000000 ) ) ;
#43 = EDGE_LOOP ( 'NONE', ( #125, #80, #286, #75 ) ) ;
#44 = EDGE_CURVE ( 'NONE', #35, #446, #183, .T. ) ;
#45 = LINE ( 'NONE', #37, #298 ) ;
#46 = ORIENTED_EDGE ( 'NONE', *, *, #377, .T. ) ;
#47 = PLANE ( 'NONE',  #166 ) ;
#48 = ORIENTED_EDGE ( 'NONE', *, *, #278, .T. ) ;
#49 = ORIENTED_EDGE ( 'NONE', *, *, #96, .F. ) ;
#50 = VECTOR ( 'NONE', #288, 39.37007874015748143 ) ;
#51 = CARTESIAN_POINT ( 'NONE',  ( -1.999999999999999778, 0.4000000000000000222, -2.500000000000000000 ) ) ;
#52 = EDGE_CURVE ( 'NONE', #188, #344, #193, .T. ) ;
#53 = LINE ( 'NONE', #85, #459 ) ;
#54 = ORIENTED_EDGE ( 'NONE', *, *, #150, .F. ) ;
#55 = DIRECTION ( 'NONE',  ( 0.000000000000000000, 1.000000000000000000, -0.000000000000000000 ) ) ;
#56 = STYLED_ITEM ( 'NONE', ( #412 ), #106 ) ;
#57 = ORIENTED_EDGE ( 'NONE', *, *, #225, .F. ) ;
#58 = LINE ( 'NONE', #386, #381 ) ;
#59 = ORIENTED_EDGE ( 'NONE', *, *, #186, .T. ) ;
#60 = DIRECTION ( 'NONE',  ( -1.000000000000000000, 0.000000000000000000, 0.000000000000000000 ) ) ;
#61 = ADVANCED_FACE ( 'NONE', ( #152 ), #308, .F. ) ;
#62 = CARTESIAN_POINT ( 'NONE',  ( -1.000000000000000444, 0.4000000000000000222, -0.5000000000000002220 ) ) ;
#63 = ORIENTED_EDGE ( 'NONE', *, *, #181, .F. ) ;
#64 = AXIS2_PLACEMENT_3D ( 'NONE', #410, #87, #273 ) ;
#65 = CARTESIAN_POINT ( 'NONE',  ( 0.000000000000000000, 0.000000000000000000, 0.000000000000000000 ) ) ;
#66 = EDGE_LOOP ( 'NONE', ( #269, #26 ) ) ;
#67 = EDGE_CURVE ( 'NONE', #224, #222, #53, .T. ) ;
#68 = DIRECTION ( 'NONE',  ( 1.000000000000000000, 0.000000000000000000, 1.365923996832131363E-16 ) ) ;
#69 = DIRECTION ( 'NONE',  ( -0.000000000000000000, -1.000000000000000000, -0.000000000000000000 ) ) ;
#70 = ORIENTED_EDGE ( 'NONE', *, *, #307, .T. ) ;
#71 = AXIS2_PLACEMENT_3D ( 'NONE', #28, #133, #463 ) ;
#72 = VECTOR ( 'NONE', #7, 39.37007874015748143 ) ;
#73 = VECTOR ( 'NONE', #314, 39.37007874015748143 ) ;
#74 = CARTESIAN_POINT ( 'NONE',  ( 0.000000000000000000, 0.000000000000000000, 0.5000000000000000000 ) ) ;
#75 = ORIENTED_EDGE ( 'NONE', *, *, #3, .T. ) ;
#76 = DIRECTION ( 'NONE',  ( 0.000000000000000000, 0.000000000000000000, 1.000000000000000000 ) ) ;
#77 = CARTESIAN_POINT ( 'NONE',  ( -0.9999999999999996669, 0.4000000000000000222, -2.500000000000000000 ) ) ;
#78 = EDGE_CURVE ( 'NONE', #280, #453, #197, .T. ) ;
#79 = FACE_OUTER_BOUND ( 'NONE', #43, .T. ) ;
#80 = ORIENTED_EDGE ( 'NONE', *, *, #356, .F. ) ;
#81 = VECTOR ( 'NONE', #82, 39.37007874015748143 ) ;
#82 = DIRECTION ( 'NONE',  ( 4.097771990496395321E-16, 0.000000000000000000, -1.000000000000000000 ) ) ;
#83 = EDGE_CURVE ( 'NONE', #333, #382, #343, .T. ) ;
#84 = PRODUCT ( 'Battery hole spacer', 'Battery hole spacer', '', ( #407 ) ) ;
#85 = CARTESIAN_POINT ( 'NONE',  ( 1.000000000000000000, 0.000000000000000000, -0.000000000000000000 ) ) ;
#86 = AXIS2_PLACEMENT_3D ( 'NONE', #332, #405, #270 ) ;
#87 = DIRECTION ( 'NONE',  ( 0.000000000000000000, 1.000000000000000000, -0.000000000000000000 ) ) ;
#88 = EDGE_CURVE ( 'NONE', #266, #347, #22, .T. ) ;
#89 = ORIENTED_EDGE ( 'NONE', *, *, #96, .T. ) ;
#90 =( NAMED_UNIT ( * ) PLANE_ANGLE_UNIT ( ) SI_UNIT ( $, .RADIAN. ) );
#91 = CARTESIAN_POINT ( 'NONE',  ( -1.000000000000000444, 0.000000000000000000, -0.5000000000000002220 ) ) ;
#92 = EDGE_LOOP ( 'NONE', ( #57, #207, #455, #315 ) ) ;
#93 = AXIS2_PLACEMENT_3D ( 'NONE', #354, #97, #164 ) ;
#94 = CARTESIAN_POINT ( 'NONE',  ( 0.000000000000000000, 0.000000000000000000, 0.000000000000000000 ) ) ;
#95 = DIRECTION ( 'NONE',  ( 0.000000000000000000, 0.000000000000000000, 1.000000000000000000 ) ) ;
#96 = EDGE_CURVE ( 'NONE', #419, #344, #371, .T. ) ;
#97 = DIRECTION ( 'NONE',  ( 0.000000000000000000, 1.000000000000000000, -0.000000000000000000 ) ) ;
#98 = FACE_BOUND ( 'NONE', #66, .T. ) ;
#99 = ORIENTED_EDGE ( 'NONE', *, *, #44, .T. ) ;
#100 = CARTESIAN_POINT ( 'NONE',  ( 1.000000000000000000, 0.4000000000000000222, -0.5000000000000000000 ) ) ;
#101 = EDGE_CURVE ( 'NONE', #403, #114, #337, .T. ) ;
#102 = VECTOR ( 'NONE', #259, 39.37007874015748143 ) ;
#103 = LINE ( 'NONE', #104, #17 ) ;
#104 = CARTESIAN_POINT ( 'NONE',  ( 6.829619984160658046E-17, 0.4000000000000000222, -0.5000000000000001110 ) ) ;
#105 = PLANE ( 'NONE',  #272 ) ;
#106 = MANIFOLD_SOLID_BREP ( 'Boss-Extrude1', #241 ) ;
#107 = LINE ( 'NONE', #74, #353 ) ;
#108 = DIRECTION ( 'NONE',  ( 0.000000000000000000, 0.000000000000000000, -1.000000000000000000 ) ) ;
#109 =( GEOMETRIC_REPRESENTATION_CONTEXT ( 3 ) GLOBAL_UNCERTAINTY_ASSIGNED_CONTEXT ( ( #360 ) ) GLOBAL_UNIT_ASSIGNED_CONTEXT ( ( #128, #90, #189 ) ) REPRESENTATION_CONTEXT ( 'NONE', 'WORKASPACE' ) );
#110 = ADVANCED_FACE ( 'NONE', ( #153 ), #265, .T. ) ;
#111 = LINE ( 'NONE', #257, #208 ) ;
#112 = CARTESIAN_POINT ( 'NONE',  ( -1.999999999999999778, 0.4000000000000000222, -0.5000000000000004441 ) ) ;
#113 = PLANE ( 'NONE',  #119 ) ;
#114 = VERTEX_POINT ( 'NONE', #451 ) ;
#115 = LINE ( 'NONE', #263, #102 ) ;
#116 = ADVANCED_FACE ( 'NONE', ( #268 ), #232, .T. ) ;
#117 = PRESENTATION_LAYER_ASSIGNMENT (  '', '', ( #56 ) ) ;
#118 =( NAMED_UNIT ( * ) SI_UNIT ( $, .STERADIAN. ) SOLID_ANGLE_UNIT ( ) );
#119 = AXIS2_PLACEMENT_3D ( 'NONE', #227, #221, #6 ) ;
#120 = SURFACE_STYLE_USAGE ( .BOTH. , #306 ) ;
#121 = ORIENTED_EDGE ( 'NONE', *, *, #415, .T. ) ;
#122 = CARTESIAN_POINT ( 'NONE',  ( -1.000000000000000888, 0.000000000000000000, -4.097771990496397786E-16 ) ) ;
#123 = CARTESIAN_POINT ( 'NONE',  ( 6.829619984160658046E-17, 0.4000000000000000222, -0.5000000000000001110 ) ) ;
#124 = DIRECTION ( 'NONE',  ( 0.000000000000000000, 0.000000000000000000, -1.000000000000000000 ) ) ;
#125 = ORIENTED_EDGE ( 'NONE', *, *, #215, .F. ) ;
#126 = DIRECTION ( 'NONE',  ( -0.000000000000000000, -1.000000000000000000, -0.000000000000000000 ) ) ;
#127 = ORIENTED_EDGE ( 'NONE', *, *, #258, .T. ) ;
#128 =( CONVERSION_BASED_UNIT ( 'INCH', #236 ) LENGTH_UNIT ( ) NAMED_UNIT ( #170 ) );
#129 = FACE_BOUND ( 'NONE', #342, .T. ) ;
#130 = ORIENTED_EDGE ( 'NONE', *, *, #83, .F. ) ;
#131 =( CONVERSION_BASED_UNIT ( 'INCH', #230 ) LENGTH_UNIT ( ) NAMED_UNIT ( #376 ) );
#132 = LINE ( 'NONE', #245, #198 ) ;
#133 = DIRECTION ( 'NONE',  ( 1.000000000000000000, 0.000000000000000000, 0.000000000000000000 ) ) ;
#134 = VERTEX_POINT ( 'NONE', #271 ) ;
#135 = EDGE_CURVE ( 'NONE', #446, #134, #234, .T. ) ;
#136 = CARTESIAN_POINT ( 'NONE',  ( 0.000000000000000000, 0.4000000000000000222, -0.1300000000000000044 ) ) ;
#137 = ORIENTED_EDGE ( 'NONE', *, *, #44, .F. ) ;
#138 = DIRECTION ( 'NONE',  ( 0.000000000000000000, 0.000000000000000000, 1.000000000000000000 ) ) ;
#139 = VECTOR ( 'NONE', #5, 39.37007874015748143 ) ;
#140 = DIRECTION ( 'NONE',  ( 0.000000000000000000, 0.000000000000000000, -1.000000000000000000 ) ) ;
#141 = FACE_OUTER_BOUND ( 'NONE', #363, .T. ) ;
#142 = LINE ( 'NONE', #290, #445 ) ;
#143 = ORIENTED_EDGE ( 'NONE', *, *, #186, .F. ) ;
#144 = EDGE_CURVE ( 'NONE', #453, #29, #235, .T. ) ;
#145 = DIRECTION ( 'NONE',  ( 0.000000000000000000, 0.000000000000000000, -1.000000000000000000 ) ) ;
#146 = ORIENTED_EDGE ( 'NONE', *, *, #144, .T. ) ;
#147 = PRODUCT_DEFINITION_FORMATION_WITH_SPECIFIED_SOURCE ( 'ANY', '', #84, .NOT_KNOWN. ) ;
#148 = LINE ( 'NONE', #1, #383 ) ;
#149 = ORIENTED_EDGE ( 'NONE', *, *, #31, .F. ) ;
#150 = EDGE_CURVE ( 'NONE', #29, #403, #279, .T. ) ;
#151 = ORIENTED_EDGE ( 'NONE', *, *, #101, .T. ) ;
#152 = FACE_OUTER_BOUND ( 'NONE', #214, .T. ) ;
#153 = FACE_OUTER_BOUND ( 'NONE', #212, .T. ) ;
#154 = DIRECTION ( 'NONE',  ( -0.000000000000000000, -1.000000000000000000, -0.000000000000000000 ) ) ;
#155 = VERTEX_POINT ( 'NONE', #390 ) ;
#156 = ADVANCED_FACE ( 'NONE', ( #129, #206 ), #275, .F. ) ;
#157 = CARTESIAN_POINT ( 'NONE',  ( 0.000000000000000000, 0.4000000000000000222, 0.000000000000000000 ) ) ;
#158 = VERTEX_POINT ( 'NONE', #413 ) ;
#159 = VECTOR ( 'NONE', #373, 39.37007874015748143 ) ;
#160 = CARTESIAN_POINT ( 'NONE',  ( -6.000000000000001776, 0.000000000000000000, 0.000000000000000000 ) ) ;
#161 = FACE_OUTER_BOUND ( 'NONE', #414, .T. ) ;
#162 = ADVANCED_FACE ( 'NONE', ( #424 ), #417, .F. ) ;
#163 = ORIENTED_EDGE ( 'NONE', *, *, #150, .T. ) ;
#164 = DIRECTION ( 'NONE',  ( 0.000000000000000000, 0.000000000000000000, 1.000000000000000000 ) ) ;
#165 = ORIENTED_EDGE ( 'NONE', *, *, #274, .F. ) ;
#166 = AXIS2_PLACEMENT_3D ( 'NONE', #295, #140, #179 ) ;
#167 = CARTESIAN_POINT ( 'NONE',  ( 1.000000000000000000, 0.000000000000000000, 0.000000000000000000 ) ) ;
#168 = AXIS2_PLACEMENT_3D ( 'NONE', #123, #339, #336 ) ;
#169 = ORIENTED_EDGE ( 'NONE', *, *, #78, .T. ) ;
#170 = DIMENSIONAL_EXPONENTS ( 1.000000000000000000, 0.000000000000000000, 0.000000000000000000, 0.000000000000000000, 0.000000000000000000, 0.000000000000000000, 0.000000000000000000 ) ;
#171 = EDGE_CURVE ( 'NONE', #29, #448, #311, .T. ) ;
#172 = DIRECTION ( 'NONE',  ( -0.000000000000000000, -1.000000000000000000, -0.000000000000000000 ) ) ;
#173 = DIRECTION ( 'NONE',  ( 0.000000000000000000, 0.000000000000000000, -1.000000000000000000 ) ) ;
#174 = ORIENTED_EDGE ( 'NONE', *, *, #423, .F. ) ;
#175 = CARTESIAN_POINT ( 'NONE',  ( -0.9999999999999996669, 0.4000000000000000222, -2.500000000000000000 ) ) ;
#176 = VECTOR ( 'NONE', #172, 39.37007874015748143 ) ;
#177 = VERTEX_POINT ( 'NONE', #91 ) ;
#178 = PRODUCT_DEFINITION_CONTEXT ( 'detailed design', #33, 'design' ) ;
#179 = DIRECTION ( 'NONE',  ( -1.000000000000000000, 0.000000000000000000, -0.000000000000000000 ) ) ;
#180 = EDGE_LOOP ( 'NONE', ( #282, #196, #41, #13 ) ) ;
#181 = EDGE_CURVE ( 'NONE', #222, #114, #248, .T. ) ;
#182 = DIRECTION ( 'NONE',  ( 0.000000000000000000, 0.000000000000000000, -1.000000000000000000 ) ) ;
#183 = LINE ( 'NONE', #327, #72 ) ;
#184 = CARTESIAN_POINT ( 'NONE',  ( -6.000000000000001776, 0.4000000000000000222, -0.5000000000000000000 ) ) ;
#185 = ORIENTED_EDGE ( 'NONE', *, *, #8, .T. ) ;
#186 = EDGE_CURVE ( 'NONE', #134, #446, #285, .T. ) ;
#187 = PLANE ( 'NONE',  #86 ) ;
#188 = VERTEX_POINT ( 'NONE', #239 ) ;
#189 =( NAMED_UNIT ( * ) SI_UNIT ( $, .STERADIAN. ) SOLID_ANGLE_UNIT ( ) );
#190 = FILL_AREA_STYLE_COLOUR ( '', #362 ) ;
#191 = EDGE_LOOP ( 'NONE', ( #243, #464, #411, #38 ) ) ;
#192 = AXIS2_PLACEMENT_3D ( 'NONE', #380, #173, #320 ) ;
#193 = LINE ( 'NONE', #51, #249 ) ;
#194 = ADVANCED_FACE ( 'NONE', ( #98, #357 ), #34, .T. ) ;
#195 = CARTESIAN_POINT ( 'NONE',  ( -6.000000000000001776, 0.4000000000000000222, 0.000000000000000000 ) ) ;
#196 = ORIENTED_EDGE ( 'NONE', *, *, #21, .F. ) ;
#197 = LINE ( 'NONE', #195, #301 ) ;
#198 = VECTOR ( 'NONE', #387, 39.37007874015748143 ) ;
#199 = ADVANCED_FACE ( 'NONE', ( #161 ), #422, .F. ) ;
#200 = VECTOR ( 'NONE', #126, 39.37007874015748143 ) ;
#201 = CARTESIAN_POINT ( 'NONE',  ( -0.9999999999999996669, 0.000000000000000000, -2.500000000000000000 ) ) ;
#202 = ORIENTED_EDGE ( 'NONE', *, *, #135, .F. ) ;
#203 =( NAMED_UNIT ( * ) PLANE_ANGLE_UNIT ( ) SI_UNIT ( $, .RADIAN. ) );
#204 = CARTESIAN_POINT ( 'NONE',  ( 2.999999999999999556, 0.4000000000000000222, 0.000000000000000000 ) ) ;
#205 = ORIENTED_EDGE ( 'NONE', *, *, #423, .T. ) ;
#206 = FACE_OUTER_BOUND ( 'NONE', #228, .T. ) ;
#207 = ORIENTED_EDGE ( 'NONE', *, *, #52, .F. ) ;
#208 = VECTOR ( 'NONE', #223, 39.37007874015748143 ) ;
#209 = CARTESIAN_POINT ( 'NONE',  ( 0.000000000000000000, 0.4000000000000000222, 0.000000000000000000 ) ) ;
#210 = VERTEX_POINT ( 'NONE', #201 ) ;
#211 = CARTESIAN_POINT ( 'NONE',  ( 2.999999999999999556, 0.4000000000000000222, 0.5000000000000000000 ) ) ;
#212 = EDGE_LOOP ( 'NONE', ( #355, #309, #261, #349 ) ) ;
#213 = CARTESIAN_POINT ( 'NONE',  ( -6.000000000000001776, 0.000000000000000000, -0.5000000000000000000 ) ) ;
#214 = EDGE_LOOP ( 'NONE', ( #137, #11, #48, #202 ) ) ;
#215 = EDGE_CURVE ( 'NONE', #333, #419, #458, .T. ) ;
#216 = FACE_OUTER_BOUND ( 'NONE', #254, .T. ) ;
#217 = VECTOR ( 'NONE', #351, 39.37007874015748143 ) ;
#218 = ORIENTED_EDGE ( 'NONE', *, *, #370, .T. ) ;
#219 = MECHANICAL_DESIGN_GEOMETRIC_PRESENTATION_REPRESENTATION (  '', ( #56 ), #109 ) ;
#220 = AXIS2_PLACEMENT_3D ( 'NONE', #12, #433, #255 ) ;
#221 = DIRECTION ( 'NONE',  ( -1.000000000000000000, 0.000000000000000000, -4.097771990496395321E-16 ) ) ;
#222 = VERTEX_POINT ( 'NONE', #167 ) ;
#223 = DIRECTION ( 'NONE',  ( 0.000000000000000000, 0.000000000000000000, -1.000000000000000000 ) ) ;
#224 = VERTEX_POINT ( 'NONE', #317 ) ;
#225 = EDGE_CURVE ( 'NONE', #344, #210, #58, .T. ) ;
#226 = UNCERTAINTY_MEASURE_WITH_UNIT (LENGTH_MEASURE( 1.000000000000000082E-05 ), #131, 'distance_accuracy_value', 'NONE');
#227 = CARTESIAN_POINT ( 'NONE',  ( -1.000000000000000888, 0.4000000000000000222, -4.097771990496397786E-16 ) ) ;
#228 = EDGE_LOOP ( 'NONE', ( #397, #130, #289, #89, #300, #251, #70, #331, #369, #174 ) ) ;
#229 = VECTOR ( 'NONE', #242, 39.37007874015748143 ) ;
#230 = LENGTH_MEASURE_WITH_UNIT ( LENGTH_MEASURE( 0.02539999999999999897 ), #457 );
#231 = DIRECTION ( 'NONE',  ( 0.000000000000000000, 0.000000000000000000, -1.000000000000000000 ) ) ;
#232 = PLANE ( 'NONE',  #436 ) ;
#233 = ORIENTED_EDGE ( 'NONE', *, *, #135, .T. ) ;
#234 = CIRCLE ( 'NONE', #64, 0.1300000000000000044 ) ;
#235 = LINE ( 'NONE', #454, #421 ) ;
#236 = LENGTH_MEASURE_WITH_UNIT ( LENGTH_MEASURE( 0.02539999999999999897 ), #444 );
#237 = EDGE_LOOP ( 'NONE', ( #146, #163, #391, #425, #388, #394, #450, #352, #149, #169 ) ) ;
#238 = ADVANCED_FACE ( 'NONE', ( #460 ), #348, .F. ) ;
#239 = CARTESIAN_POINT ( 'NONE',  ( -1.999999999999999778, 0.4000000000000000222, -2.500000000000000000 ) ) ;
#240 = CARTESIAN_POINT ( 'NONE',  ( 2.999999999999999556, 0.000000000000000000, 0.5000000000000000000 ) ) ;
#241 = CLOSED_SHELL ( 'NONE', ( #340, #199, #162, #36, #299, #110, #287, #389, #116, #439, #61, #238, #194, #156 ) ) ;
#242 = DIRECTION ( 'NONE',  ( 0.000000000000000000, 0.000000000000000000, -1.000000000000000000 ) ) ;
#243 = ORIENTED_EDGE ( 'NONE', *, *, #83, .T. ) ;
#244 = DIRECTION ( 'NONE',  ( 1.000000000000000000, -0.000000000000000000, 0.000000000000000000 ) ) ;
#245 = CARTESIAN_POINT ( 'NONE',  ( 0.000000000000000000, 0.4000000000000000222, 0.000000000000000000 ) ) ;
#246 = ORIENTED_EDGE ( 'NONE', *, *, #171, .T. ) ;
#247 =( GEOMETRIC_REPRESENTATION_CONTEXT ( 3 ) GLOBAL_UNCERTAINTY_ASSIGNED_CONTEXT ( ( #226 ) ) GLOBAL_UNIT_ASSIGNED_CONTEXT ( ( #131, #203, #118 ) ) REPRESENTATION_CONTEXT ( 'NONE', 'WORKASPACE' ) );
#248 = LINE ( 'NONE', #94, #428 ) ;
#249 = VECTOR ( 'NONE', #154, 39.37007874015748143 ) ;
#250 = LINE ( 'NONE', #184, #404 ) ;
#251 = ORIENTED_EDGE ( 'NONE', *, *, #462, .F. ) ;
#252 = PRODUCT_RELATED_PRODUCT_CATEGORY ( 'part', '', ( #84 ) ) ;
#253 = LINE ( 'NONE', #431, #39 ) ;
#254 = EDGE_LOOP ( 'NONE', ( #46, #99, #143, #305 ) ) ;
#255 = DIRECTION ( 'NONE',  ( 0.000000000000000000, 0.000000000000000000, 1.000000000000000000 ) ) ;
#256 = DIRECTION ( 'NONE',  ( -1.000000000000000000, 0.000000000000000000, -0.000000000000000000 ) ) ;
#257 = CARTESIAN_POINT ( 'NONE',  ( 2.999999999999999556, 0.000000000000000000, 0.000000000000000000 ) ) ;
#258 = EDGE_CURVE ( 'NONE', #461, #403, #132, .T. ) ;
#259 = DIRECTION ( 'NONE',  ( 0.000000000000000000, 0.000000000000000000, 1.000000000000000000 ) ) ;
#260 = FACE_OUTER_BOUND ( 'NONE', #92, .T. ) ;
#261 = ORIENTED_EDGE ( 'NONE', *, *, #402, .T. ) ;
#262 = DIRECTION ( 'NONE',  ( 4.097771990496395321E-16, 0.000000000000000000, -1.000000000000000000 ) ) ;
#263 = CARTESIAN_POINT ( 'NONE',  ( 1.000000000000000000, 0.4000000000000000222, 0.000000000000000000 ) ) ;
#264 = AXIS2_PLACEMENT_3D ( 'NONE', #209, #55, #465 ) ;
#265 = PLANE ( 'NONE',  #168 ) ;
#266 = VERTEX_POINT ( 'NONE', #62 ) ;
#267 = DIRECTION ( 'NONE',  ( 1.000000000000000000, 0.000000000000000000, 0.000000000000000000 ) ) ;
#268 = FACE_OUTER_BOUND ( 'NONE', #297, .T. ) ;
#269 = ORIENTED_EDGE ( 'NONE', *, *, #377, .F. ) ;
#270 = DIRECTION ( 'NONE',  ( -1.000000000000000000, 0.000000000000000000, 1.024442997624097967E-16 ) ) ;
#271 = CARTESIAN_POINT ( 'NONE',  ( 0.000000000000000000, 0.000000000000000000, -0.1300000000000000044 ) ) ;
#272 = AXIS2_PLACEMENT_3D ( 'NONE', #434, #108, #256 ) ;
#273 = DIRECTION ( 'NONE',  ( 0.000000000000000000, 0.000000000000000000, 1.000000000000000000 ) ) ;
#274 = EDGE_CURVE ( 'NONE', #158, #224, #32, .T. ) ;
#275 = PLANE ( 'NONE',  #418 ) ;
#276 = ORIENTED_EDGE ( 'NONE', *, *, #144, .F. ) ;
#277 = CARTESIAN_POINT ( 'NONE',  ( 2.999999999999999556, 0.4000000000000000222, 0.000000000000000000 ) ) ;
#278 = EDGE_CURVE ( 'NONE', #155, #134, #318, .T. ) ;
#279 = LINE ( 'NONE', #277, #229 ) ;
#280 = VERTEX_POINT ( 'NONE', #392 ) ;
#281 = DIRECTION ( 'NONE',  ( 0.000000000000000000, 1.000000000000000000, -0.000000000000000000 ) ) ;
#282 = ORIENTED_EDGE ( 'NONE', *, *, #462, .T. ) ;
#283 = DIRECTION ( 'NONE',  ( -0.000000000000000000, -1.000000000000000000, -0.000000000000000000 ) ) ;
#284 = VECTOR ( 'NONE', #432, 39.37007874015748143 ) ;
#285 = CIRCLE ( 'NONE', #93, 0.1300000000000000044 ) ;
#286 = ORIENTED_EDGE ( 'NONE', *, *, #31, .T. ) ;
#287 = ADVANCED_FACE ( 'NONE', ( #329 ), #113, .F. ) ;
#288 = DIRECTION ( 'NONE',  ( 1.000000000000000000, -0.000000000000000000, 0.000000000000000000 ) ) ;
#289 = ORIENTED_EDGE ( 'NONE', *, *, #215, .T. ) ;
#290 = CARTESIAN_POINT ( 'NONE',  ( -1.999999999999999778, 0.4000000000000000222, 0.000000000000000000 ) ) ;
#291 = DIRECTION ( 'NONE',  ( -0.000000000000000000, -1.000000000000000000, -0.000000000000000000 ) ) ;
#292 = LINE ( 'NONE', #40, #50 ) ;
#293 = LINE ( 'NONE', #77, #10 ) ;
#294 = VECTOR ( 'NONE', #124, 39.37007874015748143 ) ;
#295 = CARTESIAN_POINT ( 'NONE',  ( 0.000000000000000000, 0.4000000000000000222, -2.500000000000000000 ) ) ;
#296 = LINE ( 'NONE', #323, #284 ) ;
#297 = EDGE_LOOP ( 'NONE', ( #49, #325, #437, #440 ) ) ;
#298 = VECTOR ( 'NONE', #68, 39.37007874015748143 ) ;
#299 = ADVANCED_FACE ( 'NONE', ( #358 ), #398, .T. ) ;
#300 = ORIENTED_EDGE ( 'NONE', *, *, #225, .T. ) ;
#301 = VECTOR ( 'NONE', #304, 39.37007874015748143 ) ;
#302 = VECTOR ( 'NONE', #426, 39.37007874015748143 ) ;
#303 = SHAPE_DEFINITION_REPRESENTATION ( #456, #378 ) ;
#304 = DIRECTION ( 'NONE',  ( 0.000000000000000000, 0.000000000000000000, 1.000000000000000000 ) ) ;
#305 = ORIENTED_EDGE ( 'NONE', *, *, #278, .F. ) ;
#306 = SURFACE_SIDE_STYLE ('',( #18 ) ) ;
#307 = EDGE_CURVE ( 'NONE', #177, #224, #45, .T. ) ;
#308 = CYLINDRICAL_SURFACE ( 'NONE', #396, 0.1300000000000000044 ) ;
#309 = ORIENTED_EDGE ( 'NONE', *, *, #452, .F. ) ;
#310 = VECTOR ( 'NONE', #262, 39.37007874015748143 ) ;
#311 = LINE ( 'NONE', #211, #217 ) ;
#312 = VERTEX_POINT ( 'NONE', #361 ) ;
#313 = DIRECTION ( 'NONE',  ( -0.000000000000000000, -1.000000000000000000, -0.000000000000000000 ) ) ;
#314 = DIRECTION ( 'NONE',  ( 1.000000000000000000, 0.000000000000000000, -1.024442997624098214E-16 ) ) ;
#315 = ORIENTED_EDGE ( 'NONE', *, *, #21, .T. ) ;
#316 = AXIS2_PLACEMENT_3D ( 'NONE', #393, #429, #76 ) ;
#317 = CARTESIAN_POINT ( 'NONE',  ( 1.000000000000000000, 0.000000000000000000, -0.5000000000000000000 ) ) ;
#318 = LINE ( 'NONE', #136, #302 ) ;
#319 = EDGE_CURVE ( 'NONE', #35, #155, #345, .T. ) ;
#320 = DIRECTION ( 'NONE',  ( -1.000000000000000000, 0.000000000000000000, -0.000000000000000000 ) ) ;
#321 = DIRECTION ( 'NONE',  ( -0.000000000000000000, -1.000000000000000000, -0.000000000000000000 ) ) ;
#322 = AXIS2_PLACEMENT_3D ( 'NONE', #395, #283, #145 ) ;
#323 = CARTESIAN_POINT ( 'NONE',  ( -5.122214988120497232E-17, 0.4000000000000000222, -0.5000000000000005551 ) ) ;
#324 = DIRECTION ( 'NONE',  ( -0.000000000000000000, -1.000000000000000000, -0.000000000000000000 ) ) ;
#325 = ORIENTED_EDGE ( 'NONE', *, *, #3, .F. ) ;
#326 = CARTESIAN_POINT ( 'NONE',  ( -1.999999999999999778, 0.000000000000000000, -2.500000000000000000 ) ) ;
#327 = CARTESIAN_POINT ( 'NONE',  ( 1.592040838891559342E-17, 0.4000000000000000222, 0.1300000000000000044 ) ) ;
#328 = EDGE_CURVE ( 'NONE', #188, #347, #292, .T. ) ;
#329 = FACE_OUTER_BOUND ( 'NONE', #180, .T. ) ;
#330 = VECTOR ( 'NONE', #313, 39.37007874015748143 ) ;
#331 = ORIENTED_EDGE ( 'NONE', *, *, #67, .T. ) ;
#332 = CARTESIAN_POINT ( 'NONE',  ( -5.122214988120497232E-17, 0.4000000000000000222, -0.5000000000000005551 ) ) ;
#333 = VERTEX_POINT ( 'NONE', #213 ) ;
#334 = CARTESIAN_POINT ( 'NONE',  ( 1.592040838891559342E-17, 0.000000000000000000, 0.1300000000000000044 ) ) ;
#335 = PRODUCT_DEFINITION ( 'UNKNOWN', '', #147, #178 ) ;
#336 = DIRECTION ( 'NONE',  ( -1.000000000000000000, 0.000000000000000000, -1.365923996832131363E-16 ) ) ;
#337 = LINE ( 'NONE', #341, #200 ) ;
#338 = CIRCLE ( 'NONE', #316, 0.1300000000000000044 ) ;
#339 = DIRECTION ( 'NONE',  ( 1.365923996832131363E-16, 0.000000000000000000, -1.000000000000000000 ) ) ;
#340 = ADVANCED_FACE ( 'NONE', ( #216 ), #9, .F. ) ;
#341 = CARTESIAN_POINT ( 'NONE',  ( 2.999999999999999556, 0.4000000000000000222, 0.000000000000000000 ) ) ;
#342 = EDGE_LOOP ( 'NONE', ( #59, #233 ) ) ;
#343 = LINE ( 'NONE', #160, #159 ) ;
#344 = VERTEX_POINT ( 'NONE', #326 ) ;
#345 = CIRCLE ( 'NONE', #220, 0.1300000000000000044 ) ;
#346 = CARTESIAN_POINT ( 'NONE',  ( -5.122214988120497232E-17, 0.000000000000000000, -0.5000000000000005551 ) ) ;
#347 = VERTEX_POINT ( 'NONE', #175 ) ;
#348 = PLANE ( 'NONE',  #71 ) ;
#349 = ORIENTED_EDGE ( 'NONE', *, *, #274, .T. ) ;
#350 = APPLICATION_PROTOCOL_DEFINITION ( 'draft international standard', 'automotive_design', 1998, #33 ) ;
#351 = DIRECTION ( 'NONE',  ( -0.000000000000000000, -1.000000000000000000, -0.000000000000000000 ) ) ;
#352 = ORIENTED_EDGE ( 'NONE', *, *, #409, .F. ) ;
#353 = VECTOR ( 'NONE', #364, 39.37007874015748143 ) ;
#354 = CARTESIAN_POINT ( 'NONE',  ( 0.000000000000000000, 0.000000000000000000, 0.000000000000000000 ) ) ;
#355 = ORIENTED_EDGE ( 'NONE', *, *, #307, .F. ) ;
#356 = EDGE_CURVE ( 'NONE', #280, #333, #250, .T. ) ;
#357 = FACE_OUTER_BOUND ( 'NONE', #237, .T. ) ;
#358 = FACE_OUTER_BOUND ( 'NONE', #430, .T. ) ;
#359 = ORIENTED_EDGE ( 'NONE', *, *, #384, .F. ) ;
#360 = UNCERTAINTY_MEASURE_WITH_UNIT (LENGTH_MEASURE( 1.000000000000000082E-05 ), #128, 'distance_accuracy_value', 'NONE');
#361 = CARTESIAN_POINT ( 'NONE',  ( -1.999999999999999778, 0.4000000000000000222, -0.5000000000000004441 ) ) ;
#362 = COLOUR_RGB ( '',0.7921568627450980005, 0.8196078431372548767, 0.9333333333333333481 ) ;
#363 = EDGE_LOOP ( 'NONE', ( #63, #359, #127, #151 ) ) ;
#364 = DIRECTION ( 'NONE',  ( 1.000000000000000000, -0.000000000000000000, 0.000000000000000000 ) ) ;
#365 = EDGE_LOOP ( 'NONE', ( #205, #401, #54, #246 ) ) ;
#366 = DIRECTION ( 'NONE',  ( 1.000000000000000000, 0.000000000000000000, 0.000000000000000000 ) ) ;
#367 = CARTESIAN_POINT ( 'NONE',  ( 2.999999999999999556, 0.4000000000000000222, 0.5000000000000000000 ) ) ;
#368 = CARTESIAN_POINT ( 'NONE',  ( -6.000000000000001776, 0.000000000000000000, 0.5000000000000000000 ) ) ;
#369 = ORIENTED_EDGE ( 'NONE', *, *, #181, .T. ) ;
#370 = EDGE_CURVE ( 'NONE', #453, #382, #253, .T. ) ;
#371 = LINE ( 'NONE', #449, #294 ) ;
#372 = LINE ( 'NONE', #122, #310 ) ;
#373 = DIRECTION ( 'NONE',  ( 0.000000000000000000, 0.000000000000000000, 1.000000000000000000 ) ) ;
#374 = CARTESIAN_POINT ( 'NONE',  ( -1.000000000000000888, 0.4000000000000000222, -4.097771990496397786E-16 ) ) ;
#375 = DIRECTION ( 'NONE',  ( 0.000000000000000000, 0.000000000000000000, 1.000000000000000000 ) ) ;
#376 = DIMENSIONAL_EXPONENTS ( 1.000000000000000000, 0.000000000000000000, 0.000000000000000000, 0.000000000000000000, 0.000000000000000000, 0.000000000000000000, 0.000000000000000000 ) ;
#377 = EDGE_CURVE ( 'NONE', #155, #35, #338, .T. ) ;
#378 = ADVANCED_BREP_SHAPE_REPRESENTATION ( 'Battery hole spacer', ( #106, #427 ), #247 ) ;
#379 = DIRECTION ( 'NONE',  ( -0.000000000000000000, -1.000000000000000000, -0.000000000000000000 ) ) ;
#380 = CARTESIAN_POINT ( 'NONE',  ( 0.000000000000000000, 0.4000000000000000222, 0.5000000000000000000 ) ) ;
#381 = VECTOR ( 'NONE', #25, 39.37007874015748143 ) ;
#382 = VERTEX_POINT ( 'NONE', #368 ) ;
#383 = VECTOR ( 'NONE', #69, 39.37007874015748143 ) ;
#384 = EDGE_CURVE ( 'NONE', #461, #222, #148, .T. ) ;
#385 = DIRECTION ( 'NONE',  ( 0.000000000000000000, 0.000000000000000000, 1.000000000000000000 ) ) ;
#386 = CARTESIAN_POINT ( 'NONE',  ( 0.000000000000000000, 0.000000000000000000, -2.500000000000000000 ) ) ;
#387 = DIRECTION ( 'NONE',  ( 1.000000000000000000, -0.000000000000000000, 0.000000000000000000 ) ) ;
#388 = ORIENTED_EDGE ( 'NONE', *, *, #402, .F. ) ;
#389 = ADVANCED_FACE ( 'NONE', ( #260 ), #47, .T. ) ;
#390 = CARTESIAN_POINT ( 'NONE',  ( 0.000000000000000000, 0.4000000000000000222, -0.1300000000000000044 ) ) ;
#391 = ORIENTED_EDGE ( 'NONE', *, *, #258, .F. ) ;
#392 = CARTESIAN_POINT ( 'NONE',  ( -6.000000000000001776, 0.4000000000000000222, -0.5000000000000000000 ) ) ;
#393 = CARTESIAN_POINT ( 'NONE',  ( 0.000000000000000000, 0.4000000000000000222, 0.000000000000000000 ) ) ;
#394 = ORIENTED_EDGE ( 'NONE', *, *, #88, .T. ) ;
#395 = CARTESIAN_POINT ( 'NONE',  ( 0.000000000000000000, 0.4000000000000000222, 0.000000000000000000 ) ) ;
#396 = AXIS2_PLACEMENT_3D ( 'NONE', #157, #379, #231 ) ;
#397 = ORIENTED_EDGE ( 'NONE', *, *, #415, .F. ) ;
#398 = PLANE ( 'NONE',  #443 ) ;
#399 = ORIENTED_EDGE ( 'NONE', *, *, #171, .F. ) ;
#400 = DIRECTION ( 'NONE',  ( 1.000000000000000000, 0.000000000000000000, 1.365923996832131363E-16 ) ) ;
#401 = ORIENTED_EDGE ( 'NONE', *, *, #101, .F. ) ;
#402 = EDGE_CURVE ( 'NONE', #266, #158, #103, .T. ) ;
#403 = VERTEX_POINT ( 'NONE', #4 ) ;
#404 = VECTOR ( 'NONE', #324, 39.37007874015748143 ) ;
#405 = DIRECTION ( 'NONE',  ( -1.024442997624097967E-16, 0.000000000000000000, -1.000000000000000000 ) ) ;
#406 = ORIENTED_EDGE ( 'NONE', *, *, #384, .T. ) ;
#407 = PRODUCT_CONTEXT ( 'NONE', #23, 'mechanical' ) ;
#408 = DIRECTION ( 'NONE',  ( 0.000000000000000000, 0.000000000000000000, 1.000000000000000000 ) ) ;
#409 = EDGE_CURVE ( 'NONE', #312, #188, #142, .T. ) ;
#410 = CARTESIAN_POINT ( 'NONE',  ( 0.000000000000000000, 0.000000000000000000, 0.000000000000000000 ) ) ;
#411 = ORIENTED_EDGE ( 'NONE', *, *, #78, .F. ) ;
#412 = PRESENTATION_STYLE_ASSIGNMENT (( #120 ) ) ;
#413 = CARTESIAN_POINT ( 'NONE',  ( 1.000000000000000000, 0.4000000000000000222, -0.5000000000000000000 ) ) ;
#414 = EDGE_LOOP ( 'NONE', ( #121, #399, #276, #218 ) ) ;
#415 = EDGE_CURVE ( 'NONE', #382, #448, #107, .T. ) ;
#416 = CARTESIAN_POINT ( 'NONE',  ( -6.000000000000001776, 0.4000000000000000222, 0.5000000000000000000 ) ) ;
#417 = PLANE ( 'NONE',  #24 ) ;
#418 = AXIS2_PLACEMENT_3D ( 'NONE', #65, #281, #138 ) ;
#419 = VERTEX_POINT ( 'NONE', #435 ) ;
#420 = APPLICATION_PROTOCOL_DEFINITION ( 'draft international standard', 'automotive_design', 1998, #23 ) ;
#421 = VECTOR ( 'NONE', #244, 39.37007874015748143 ) ;
#422 = PLANE ( 'NONE',  #192 ) ;
#423 = EDGE_CURVE ( 'NONE', #448, #114, #111, .T. ) ;
#424 = FACE_OUTER_BOUND ( 'NONE', #365, .T. ) ;
#425 = ORIENTED_EDGE ( 'NONE', *, *, #8, .F. ) ;
#426 = DIRECTION ( 'NONE',  ( -0.000000000000000000, -1.000000000000000000, -0.000000000000000000 ) ) ;
#427 = AXIS2_PLACEMENT_3D ( 'NONE', #16, #95, #267 ) ;
#428 = VECTOR ( 'NONE', #30, 39.37007874015748143 ) ;
#429 = DIRECTION ( 'NONE',  ( 0.000000000000000000, 1.000000000000000000, -0.000000000000000000 ) ) ;
#430 = EDGE_LOOP ( 'NONE', ( #19, #165, #185, #406 ) ) ;
#431 = CARTESIAN_POINT ( 'NONE',  ( -6.000000000000001776, 0.4000000000000000222, 0.5000000000000000000 ) ) ;
#432 = DIRECTION ( 'NONE',  ( 1.000000000000000000, 0.000000000000000000, -1.024442997624098214E-16 ) ) ;
#433 = DIRECTION ( 'NONE',  ( 0.000000000000000000, 1.000000000000000000, -0.000000000000000000 ) ) ;
#434 = CARTESIAN_POINT ( 'NONE',  ( 0.000000000000000000, 0.4000000000000000222, 0.000000000000000000 ) ) ;
#435 = CARTESIAN_POINT ( 'NONE',  ( -1.999999999999999778, 0.000000000000000000, -0.5000000000000004441 ) ) ;
#436 = AXIS2_PLACEMENT_3D ( 'NONE', #447, #15, #408 ) ;
#437 = ORIENTED_EDGE ( 'NONE', *, *, #409, .T. ) ;
#438 = DIRECTION ( 'NONE',  ( 0.000000000000000000, 0.000000000000000000, -1.000000000000000000 ) ) ;
#439 = ADVANCED_FACE ( 'NONE', ( #79 ), #187, .T. ) ;
#440 = ORIENTED_EDGE ( 'NONE', *, *, #52, .T. ) ;
#441 = CARTESIAN_POINT ( 'NONE',  ( 1.000000000000000000, 0.4000000000000000222, 0.000000000000000000 ) ) ;
#442 = LINE ( 'NONE', #112, #139 ) ;
#443 = AXIS2_PLACEMENT_3D ( 'NONE', #42, #366, #438 ) ;
#444 =( LENGTH_UNIT ( ) NAMED_UNIT ( * ) SI_UNIT ( $, .METRE. ) );
#445 = VECTOR ( 'NONE', #182, 39.37007874015748143 ) ;
#446 = VERTEX_POINT ( 'NONE', #334 ) ;
#447 = CARTESIAN_POINT ( 'NONE',  ( -1.999999999999999778, 0.4000000000000000222, 0.000000000000000000 ) ) ;
#448 = VERTEX_POINT ( 'NONE', #240 ) ;
#449 = CARTESIAN_POINT ( 'NONE',  ( -1.999999999999999778, 0.000000000000000000, -0.000000000000000000 ) ) ;
#450 = ORIENTED_EDGE ( 'NONE', *, *, #328, .F. ) ;
#451 = CARTESIAN_POINT ( 'NONE',  ( 2.999999999999999556, 0.000000000000000000, 0.000000000000000000 ) ) ;
#452 = EDGE_CURVE ( 'NONE', #266, #177, #27, .T. ) ;
#453 = VERTEX_POINT ( 'NONE', #416 ) ;
#454 = CARTESIAN_POINT ( 'NONE',  ( 0.000000000000000000, 0.4000000000000000222, 0.5000000000000000000 ) ) ;
#455 = ORIENTED_EDGE ( 'NONE', *, *, #328, .T. ) ;
#456 = PRODUCT_DEFINITION_SHAPE ( 'NONE', 'NONE',  #335 ) ;
#457 =( LENGTH_UNIT ( ) NAMED_UNIT ( * ) SI_UNIT ( $, .METRE. ) );
#458 = LINE ( 'NONE', #346, #73 ) ;
#459 = VECTOR ( 'NONE', #375, 39.37007874015748143 ) ;
#460 = FACE_OUTER_BOUND ( 'NONE', #191, .T. ) ;
#461 = VERTEX_POINT ( 'NONE', #441 ) ;
#462 = EDGE_CURVE ( 'NONE', #177, #210, #372, .T. ) ;
#463 = DIRECTION ( 'NONE',  ( 0.000000000000000000, 0.000000000000000000, -1.000000000000000000 ) ) ;
#464 = ORIENTED_EDGE ( 'NONE', *, *, #370, .F. ) ;
#465 = DIRECTION ( 'NONE',  ( 0.000000000000000000, 0.000000000000000000, 1.000000000000000000 ) ) ;
ENDSEC;
END-ISO-10303-21;
